<?xml version="1.0" encoding="UTF-8"?>
<svg width="82px" height="82px" viewBox="0 0 82 82" version="1.1" xmlns="http://www.w3.org/2000/svg" xmlns:xlink="http://www.w3.org/1999/xlink">
    <!-- Generator: Sketch 55.2 (78181) - https://sketchapp.com -->
    <title>no-image-icon</title>
    <desc>Created with Sketch.</desc>
    <defs>
        <rect id="path-1" x="0" y="0" width="80" height="80" rx="10"></rect>
    </defs>
    <g id="HUB" stroke="none" stroke-width="1" fill="none" fill-rule="evenodd">
        <g id="3.Hub---microservice-actions" transform="translate(-153.000000, -213.000000)">
            <g id="no-image-icon" transform="translate(153.000000, 213.000000)">
                <rect id="Rectangle" fill="#E2E3ED" x="0" y="0" width="82" height="82" rx="11"></rect>
                <g transform="translate(1.000000, 1.000000)">
                    <mask id="mask-2" fill="white">
                        <use xlink:href="#path-1"></use>
                    </mask>
                    <rect stroke="#C6C7DC" x="-0.5" y="-0.5" width="81" height="81" rx="10"></rect>
                    <g id="Path-24-+-Path-24-Copy-Mask" mask="url(#mask-2)" fill="#EFF0FA" fill-rule="nonzero">
                        <g transform="translate(-11.270250, -0.075841)">
                            <path d="M66.666387,0 C65.7358841,11.2545189 52.5945715,23.7348153 27.2424493,37.4408892 C1.89032699,51.1469631 -5.76707286,66.0252804 4.27024971,82.0758413 L10.2702497,82.0758413 L10.2702497,0 L66.666387,0 Z" id="Path-24"></path>
                            <path d="M106.171927,19.3995818 C111.385925,51.3872269 101.316862,74.2340864 75.96474,87.9401603 C50.6126178,101.646234 40.4665673,110.781779 45.5265885,115.346795 L58.7212455,73.2931194 L50.3673629,66.9837756 L106.171927,19.3995818 Z" id="Path-24-Copy" transform="translate(75.884894, 67.373188) scale(-1, 1) rotate(-48.000000) translate(-75.884894, -67.373188) "></path>
                        </g>
                    </g>
                    <path d="M43.5878016,22.6832341 L31.1103358,56.0902212 C30.6099209,57.4300247 31.2885317,58.922508 32.6260554,59.4237759 C33.9635791,59.9250437 35.4535227,59.2452762 35.9539376,57.9054726 L48.4314033,24.4984856 C48.9318182,23.158682 48.2532074,21.6661987 46.9156837,21.1649309 C45.57816,20.663663 44.0882164,21.3434305 43.5878016,22.6832341 Z" id="Path-5" fill="#888CA7" fill-rule="nonzero"></path>
                    <path d="M54.3240144,25.8170831 L49.3454631,38.9808451 C48.9148031,40.1470321 49.4988196,41.446114 50.6499006,41.8824257 C51.8009816,42.3187375 53.083236,41.7270567 53.5138961,40.5608697 L58.4924474,27.3971077 C58.9231074,26.2309207 58.3390909,24.9318388 57.1880099,24.495527 C56.036929,24.0592153 54.7546745,24.6508961 54.3240144,25.8170831 Z" id="Path-5-Copy-2" fill="#888CA7" fill-rule="nonzero"></path>
                    <path d="M25.1202503,41.0231602 L20.141699,53.9599608 C19.7110389,55.1060411 20.2950554,56.3827251 21.4461364,56.8115142 C22.5972174,57.2403034 23.8794718,56.658824 24.3101319,55.5127437 L29.2886832,42.5759431 C29.7193433,41.4298627 29.1353267,40.1531788 27.9842458,39.7243897 C26.8331648,39.2956005 25.5509103,39.8770799 25.1202503,41.0231602 Z" id="Path-5-Copy-3" fill="#888CA7" fill-rule="nonzero"></path>
                    <path d="M51.4165169,51.810172 L45.6976628,54.193885 C44.6779933,54.6189002 44.1953444,55.7914575 44.6196363,56.8128651 C45.0439282,57.8342727 46.2144902,58.3177443 47.2341597,57.8927291 L55.7331706,54.3502007 C56.123962,54.1873124 56.4624946,53.9198845 56.7117225,53.5771819 C57.4620643,52.5454193 57.2353509,51.0997015 56.205344,50.3480807 L50.0987352,45.8919417 C49.2060625,45.2405371 47.9552392,45.4373569 47.304943,46.3315512 C46.6546468,47.2257454 46.8511317,48.4787009 47.7438044,49.1301055 L51.4165169,51.810172 Z" id="Path-6" fill="#888CA7" fill-rule="nonzero"></path>
                    <path d="M23.7035779,32.2537276 C22.6839084,32.6787427 22.2012595,33.8513 22.6255514,34.8727076 C23.0498433,35.8941152 24.2204053,36.3775868 25.2400749,35.9525717 L33.7390858,32.4100432 C34.1298772,32.2471549 34.4684097,31.9797271 34.7176377,31.6370244 C35.4679794,30.6052618 35.241266,29.159544 34.2112591,28.4079233 L28.1046503,23.9517842 C27.2119776,23.3003796 25.9611543,23.4971995 25.3108581,24.3913937 C24.6605619,25.2855879 24.8570468,26.5385434 25.7497195,27.189948 L29.422432,29.8700145 L23.7035779,32.2537276 Z" id="Path-6-Copy" fill="#888CA7" fill-rule="nonzero" transform="translate(28.815881, 29.837199) scale(-1, -1) translate(-28.815881, -29.837199) "></path>
                </g>
            </g>
        </g>
    </g>
</svg>