<?xml version="1.0" encoding="UTF-8"?>
<svg width="25px" height="25px" viewBox="0 0 25 25" version="1.1" xmlns="http://www.w3.org/2000/svg" xmlns:xlink="http://www.w3.org/1999/xlink">
    <!-- Generator: Sketch 49.3 (51167) - http://www.bohemiancoding.com/sketch -->
    <title>icon verified@3x</title>
    <desc>Created with Sketch.</desc>
    <defs></defs>
    <g id="Hub" stroke="none" stroke-width="1" fill="none" fill-rule="evenodd">
        <g id="Service" transform="translate(-420.000000, -100.000000)" fill="#27D77F">
            <g id="icon-verified" transform="translate(420.000000, 100.000000)">
                <path d="M24.3052184,12.4574007 C23.5632529,11.6959002 23.3977169,10.5361673 23.8970034,9.59441673 C24.2534326,8.92293416 24.2778969,8.12168366 23.9645035,7.42893323 C23.650753,6.73595065 23.0339663,6.23045033 22.2971794,6.06195023 C21.2639634,5.82595008 20.5032479,4.94046738 20.4184263,3.87596671 C20.3582476,3.11671624 19.9491398,2.42898367 19.3137816,2.01723341 C18.6778877,1.60548672 17.8884222,1.51623845 17.1784746,1.77623504 C16.1824729,2.14073348 15.067989,1.81048328 14.4259879,0.961241674 C13.9677372,0.355746652 13.255236,0 12.4999848,0 C11.7444835,0 11.0322324,0.355746652 10.5739816,0.961491674 C9.93199844,1.81048328 8.81699661,2.14073348 7.82174499,1.77623504 C7.11149383,1.51623845 6.32149253,1.60548672 5.6862415,2.01723341 C5.05049046,2.42898367 4.64175765,3.11646624 4.58125755,3.87596671 C4.49650741,4.94046738 3.73550616,5.82570008 2.70275448,6.06195023 C1.96575327,6.23045033 1.34900405,6.73595065 1.03525532,7.42918323 C0.721254809,8.12193366 0.74625485,8.92293416 1.10275543,9.59466673 C1.60225446,10.5364173 1.43650419,11.6959002 0.694254765,12.4576507 C0.164756399,13.001151 -0.0829931127,13.7623836 0.0247567062,14.5166341 C0.132256525,15.2706346 0.582506368,15.9306171 1.24250388,16.3018674 C2.1675036,16.8218677 2.65025439,17.8873326 2.43425404,18.9325119 C2.28025379,19.678048 2.48025411,20.4535842 2.97500492,21.0298346 C3.46975573,21.6055493 4.20275693,21.9155494 4.9569903,21.8678708 C6.01424203,21.8009065 6.99149363,22.4342998 7.36999425,23.4318004 C7.64049469,24.1432294 8.22449564,24.6862655 8.94949683,24.901087 C9.67424801,25.11573 10.4572314,24.9768014 11.0659824,24.5255511 C11.9194838,23.8932293 13.0814857,23.8932293 13.9344871,24.5255511 C14.5437381,24.9768014 15.3259894,25.11573 16.0512406,24.901087 C16.7759739,24.6862655 17.3602249,24.1432294 17.6304753,23.4318004 C18.0093152,22.4342998 18.9868168,21.8010851 20.0437828,21.8678708 C20.7977126,21.9155494 21.5303924,21.6055493 22.0252146,21.0298346 C22.5202154,20.4535842 22.7200372,19.6784052 22.5662869,18.9325119 C22.3502152,17.8871541 22.8325374,16.8218677 23.7577175,16.3018674 C24.4178971,15.9308671 24.8684336,15.2706346 24.975398,14.5166341 C25.0827196,13.7621336 24.8352192,13.000901 24.3052184,12.4574007 Z M10.5963388,16.2721352 C10.9564287,16.6088854 11.518251,16.6019747 11.870448,16.2569745 L18.0984225,10.1566135 C18.4614588,9.80093471 18.4775303,9.22154149 18.1348511,8.84623769 C17.7746184,8.4518803 17.1592067,8.43482671 16.7777418,8.80863052 L11.2402506,14.2347411 L8.22367421,11.444775 C7.83112,11.0817034 7.21669043,11.1127391 6.86272556,11.5135429 C6.52142143,11.8999896 6.54949291,12.487865 6.92610066,12.8400438 L10.5963388,16.2721352 Z"></path>
            </g>
        </g>
    </g>
</svg>