<?xml version="1.0" standalone="no"?><!DOCTYPE svg PUBLIC "-//W3C//DTD SVG 1.1//EN" "http://www.w3.org/Graphics/SVG/1.1/DTD/svg11.dtd"><svg t="1566308422913" class="icon" viewBox="0 0 1024 1024" version="1.1" xmlns="http://www.w3.org/2000/svg" p-id="6758" xmlns:xlink="http://www.w3.org/1999/xlink" width="200" height="200"><defs><style type="text/css"></style></defs><path d="M1008.546805 635.910145c-68.350918 274.342323-346.149186 441.166348-620.448843 372.730098C113.926303 940.801317-53.068386 662.405725 15.453195 388.490062 83.718781 113.934409 361.602381-53.017614 635.731374 15.290638c274.342323 68.478916 441.25168 346.234518 372.815431 620.704839v-0.085332z m-270.929044-196.818217c10.239838-67.838926-41.556675-104.531678-112.638217-129.277953l23.039636-91.859879-56.105779-14.079777-22.399645 89.897243c-14.719767-3.711941-30.079524-7.125221-45.396615-10.666498l22.442312-90.750563-56.319108-14.079777-23.039636 92.371871c-12.159807-2.858621-24.106285-5.631911-35.839432-8.533198l-77.438774-19.199696-14.933097 60.031049s41.599341 9.599848 40.746022 10.069174c22.826305 5.802575 26.879574 20.735672 26.239584 32.682149l-63.017669 252.582668c-3.199949 7.082555-10.239838 17.322392-26.196918 13.397121 0.63999 0.85332-40.959351-10.239838-40.959352-10.239838l-28.159554 64.425647 72.958845 18.175712 39.679372 10.32517-23.039636 93.43852 56.319109 13.951779 23.039635-92.5852c15.359757 4.266599 30.079524 8.106538 44.799291 11.647815l-21.759656 91.902545 56.319108 14.079777 23.252965-93.438521c95.57182 18.218378 167.677345 10.96516 197.970199-75.689468 24.319615-69.844227-1.27998-110.078257-51.924511-136.360507 36.436756-8.234536 63.998987-32.426153 71.678865-82.345363h0.42666z m-128.424633 180.050482c-17.23706 69.972225-134.696534 31.999493-172.797264 22.612976l30.719513-123.731375c38.228728 9.813178 160.296129 28.586214 142.077751 101.118399z m17.493056-180.903802c-15.786417 63.572327-113.576868 31.359503-145.2777 23.466295l27.903559-112.638217c31.743497 7.679878 133.843214 22.356979 117.331475 88.915926v0.255996z" fill="" p-id="6759"></path></svg>