<svg class="icon" viewBox="0 0 1024 1024" xmlns="http://www.w3.org/2000/svg" width="200" height="200"><defs><style/></defs><path d="M902 128H760v-28c0-19.9-16.1-36-36-36s-36 16.1-36 36v28H336v-28c0-19.9-16.1-36-36-36s-36 16.1-36 36v28H122c-39.7 0-72 32.3-72 72v624c0 39.7 32.3 72 72 72h780c39.7 0 72-32.3 72-72V200c0-39.7-32.3-72-72-72zm-638 72v60c0 19.9 16.1 36 36 36s36-16.1 36-36v-60h352v60c0 19.9 16.1 36 36 36s36-16.1 36-36v-60h142v122H122V200h142zm638 624H122V394h780v430z"/><path d="M688 481H336c-19.9 0-36 16.1-36 36s16.1 36 36 36h352c19.9 0 36-16.1 36-36s-16.1-36-36-36zm0 190H336c-19.9 0-36 16.1-36 36s16.1 36 36 36h352c19.9 0 36-16.1 36-36s-16.1-36-36-36z"/></svg>