<?xml version="1.0" standalone="no"?><!DOCTYPE svg PUBLIC "-//W3C//DTD SVG 1.1//EN" "http://www.w3.org/Graphics/SVG/1.1/DTD/svg11.dtd"><svg t="1566308606189" class="icon" viewBox="0 0 1024 1024" version="1.1" xmlns="http://www.w3.org/2000/svg" p-id="8766" xmlns:xlink="http://www.w3.org/1999/xlink" width="200" height="200"><defs><style type="text/css"></style></defs><path d="M479 336.3c-78.8 0-143 64.1-143 143 0 78.8 64.1 143 143 143 78.8 0 143-64.1 143-143-0.1-78.9-64.2-143-143-143z" p-id="8767"></path><path d="M512 0C229.2 0 0 229.2 0 512s229.2 512 512 512 512-229.2 512-512S794.8 0 512 0z m237.5 749.2c-7 7-16.2 10.5-25.5 10.5s-18.4-3.5-25.5-10.5l-94.9-94.9c-36.2 25.9-79.4 39.8-124.7 39.8-57.4 0-111.4-22.4-152-63s-63-94.6-63-152 22.4-111.4 63-152 94.6-63 152-63c57.4 0 111.4 22.4 152 63s63 94.6 63 152c0 45.1-13.8 88.1-39.4 124.1l94.9 94.9c14.1 14.2 14.1 37 0.1 51.1z" p-id="8768"></path></svg>