<?xml version="1.0" encoding="UTF-8" standalone="no"?>
<svg viewBox="0 0 14 4" version="1.1" xmlns="http://www.w3.org/2000/svg" xmlns:xlink="http://www.w3.org/1999/xlink">
    <!-- Generator: Sketch 39 (31667) - http://www.bohemiancoding.com/sketch -->
    <title>more</title>
    <desc>Created with Sketch.</desc>
    <defs></defs>
    <g id="Note" stroke="none" stroke-width="1" fill="none" fill-rule="evenodd">
        <g id="more" transform="translate(-3.000000, -8.000000)" fill="#CCCCCC">
            <path d="M6.25,10 C6.25,10.690375 5.690375,11.25 5,11.25 C4.309625,11.25 3.75,10.690375 3.75,10 C3.75,9.309625 4.309625,8.75 5,8.75 C5.690375,8.75 6.25,9.309625 6.25,10" id="Fill-1"></path>
            <path d="M11.25,10 C11.25,10.690375 10.690375,11.25 10,11.25 C9.309625,11.25 8.75,10.690375 8.75,10 C8.75,9.309625 9.309625,8.75 10,8.75 C10.690375,8.75 11.25,9.309625 11.25,10" id="Fill-3"></path>
            <path d="M16.25,10 C16.25,10.690375 15.690375,11.25 15,11.25 C14.309625,11.25 13.75,10.690375 13.75,10 C13.75,9.309625 14.309625,8.75 15,8.75 C15.690375,8.75 16.25,9.309625 16.25,10" id="Fill-5"></path>
        </g>
    </g>
</svg>