<?xml version="1.0" encoding="UTF-8"?>
<svg width="70px" height="67px" viewBox="0 0 70 67" version="1.1" xmlns="http://www.w3.org/2000/svg" xmlns:xlink="http://www.w3.org/1999/xlink">
    <!-- Generator: Sketch 48.2 (47327) - http://www.bohemiancoding.com/sketch -->
    <title>Shape</title>
    <desc>Created with Sketch.</desc>
    <defs></defs>
    <g id="Asyncy_Landing-Page_Final" stroke="none" stroke-width="1" fill="none" fill-rule="evenodd" transform="translate(-1371.000000, -6878.000000)">
        <g id="ECOSYSTEM" transform="translate(378.000000, 6563.000000)" fill="#FFFFFF">
            <g id="CARDS" transform="translate(0.000000, 238.000000)">
                <g id="CARD" transform="translate(890.000000, 0.000000)">
                    <path d="M138,77 C119.025,77 103.5,92.4538976 103.5,111.341995 C103.5,126.581255 113.41875,139.459503 127.003125,143.96689 C128.728125,144.181527 129.375,143.322977 129.375,142.24979 C129.375,141.39124 129.375,139.244865 129.375,136.454578 C119.671875,138.600953 117.73125,131.947192 117.73125,131.947192 C116.221875,128.083717 113.85,127.01053 113.85,127.01053 C110.615625,124.864155 114.065625,124.864155 114.065625,124.864155 C117.515625,125.078793 119.45625,128.298355 119.45625,128.298355 C122.475,133.449654 127.434375,131.947192 129.590625,131.088642 C129.80625,128.942267 130.884375,127.439805 131.746875,126.581255 C123.984375,125.722705 116.00625,122.717781 116.00625,109.624895 C116.00625,105.976058 117.3,102.756496 119.45625,100.395484 C119.025,99.5369341 117.946875,96.1027346 119.8875,91.3807103 C119.8875,91.3807103 122.690625,90.5221604 129.375,94.8149098 C132.178125,93.9563599 134.98125,93.7417224 138,93.7417224 C141.01875,93.7417224 143.821875,94.1709974 146.625,94.8149098 C153.309375,90.307523 156.1125,91.1660728 156.1125,91.1660728 C158.053125,95.8880971 156.759375,99.3222966 156.54375,100.180846 C158.7,102.541859 159.99375,105.546783 159.99375,109.410258 C159.99375,122.503143 152.015625,125.508068 144.253125,126.366617 C145.546875,127.439805 146.625,129.586179 146.625,132.805741 C146.625,137.313128 146.625,141.176603 146.625,142.24979 C146.625,143.10834 147.271875,144.181527 148.996875,143.96689 C162.58125,139.459503 172.5,126.581255 172.5,111.341995 C172.5,92.4538976 156.975,77 138,77 Z" id="Shape"></path>
                </g>
            </g>
        </g>
    </g>
</svg>