<?xml version="1.0" encoding="UTF-8"?>
<svg width="70px" height="69px" viewBox="0 0 70 69" version="1.1" xmlns="http://www.w3.org/2000/svg" xmlns:xlink="http://www.w3.org/1999/xlink">
    <!-- Generator: Sketch 48.2 (47327) - http://www.bohemiancoding.com/sketch -->
    <title>logo-fb-simple</title>
    <desc>Created with Sketch.</desc>
    <defs></defs>
    <g id="Asyncy_Landing-Page_Final" stroke="none" stroke-width="1" fill="none" fill-rule="evenodd" transform="translate(-481.000000, -6874.000000)">
        <g id="ECOSYSTEM" transform="translate(378.000000, 6563.000000)" fill-rule="nonzero">
            <g id="CARDS" transform="translate(0.000000, 238.000000)">
                <g id="CARD">
                    <g id="logo-fb-simple" transform="translate(103.500000, 73.000000)">
                        <g id="logo-slack-copy">
                            <rect id="Rectangle-path" fill="#444444" transform="translate(34.521821, 34.589603) rotate(-108.518296) translate(-34.521821, -34.589603) " x="29.850056" y="29.6993074" width="9.34353042" height="9.78059207"></rect>
                            <rect id="Rectangle-path" fill="#FFFFFF" transform="translate(34.521965, 34.589603) rotate(-108.518296) translate(-34.521965, -34.589603) " x="29.8501998" y="29.6993074" width="9.34353042" height="9.78059207"></rect>
                            <path d="M66.125,25.0273973 C58.9375,1.29452055 48.73125,-4.17123288 25.0125,2.87671233 C1.29375,10.0684932 -4.16875,20.2808219 2.875,44.0136986 C10.0625,67.7465753 20.26875,73.2123288 43.9875,66.1643836 C67.70625,58.9726027 73.16875,48.760274 66.125,25.0273973 Z M54.05,40.4178082 L49.59375,41.8561644 L51.175,46.4589041 C51.75,48.3287671 50.74375,50.3424658 48.875,50.9178082 C48.44375,51.0616438 48.0125,51.0616438 47.58125,51.0616438 C46.14375,51.0616438 44.70625,50.0547945 44.275,48.6164384 L42.69375,44.0136986 L33.49375,47.0342466 L35.075,51.6369863 C35.65,53.5068493 34.64375,55.5205479 32.775,56.0958904 C32.34375,56.239726 31.9125,56.239726 31.48125,56.239726 C30.04375,56.239726 28.60625,55.2328767 28.175,53.7945205 L26.59375,49.1917808 L22.1375,50.630137 C21.70625,50.7739726 21.275,50.7739726 20.84375,50.7739726 C19.40625,50.7739726 17.96875,49.7671233 17.5375,48.3287671 C16.9625,46.4589041 17.96875,44.4452055 19.8375,43.869863 L24.29375,42.4315068 L21.5625,33.9452055 L17.10625,35.3835616 C16.675,35.5273973 16.24375,35.5273973 15.8125,35.5273973 C14.375,35.5273973 12.9375,34.5205479 12.50625,33.0821918 C11.93125,31.2123288 12.9375,29.1986301 14.80625,28.6232877 L19.2625,27.1849315 L17.68125,22.5821918 C17.10625,20.7123288 18.1125,18.6986301 19.98125,18.1232877 C21.85,17.5479452 23.8625,18.5547945 24.4375,20.4246575 L26.01875,25.0273973 L35.21875,22.0068493 L33.6375,17.4041096 C33.0625,15.5342466 34.06875,13.5205479 35.9375,12.9452055 C37.80625,12.369863 39.81875,13.3767123 40.39375,15.2465753 L41.975,19.8493151 L46.43125,18.4109589 C48.3,17.8356164 50.3125,18.8424658 50.8875,20.7123288 C51.4625,22.5821918 50.45625,24.5958904 48.5875,25.1712329 L44.13125,26.609589 L47.15,35.5273973 L51.60625,34.0890411 C53.475,33.5136986 55.4875,34.5205479 56.0625,36.390411 C57.06875,37.8287671 56.0625,39.8424658 54.05,40.4178082 Z" id="Shape" fill="#FFFFFF"></path>
                        </g>
                    </g>
                </g>
            </g>
        </g>
    </g>
</svg>