<?xml version="1.0" standalone="no"?><!DOCTYPE svg PUBLIC "-//W3C//DTD SVG 1.1//EN" "http://www.w3.org/Graphics/SVG/1.1/DTD/svg11.dtd"><svg t="1566308730074" class="icon" viewBox="0 0 1024 1024" version="1.1" xmlns="http://www.w3.org/2000/svg" p-id="9621" xmlns:xlink="http://www.w3.org/1999/xlink" width="200" height="200"><defs><style type="text/css"></style></defs><path d="M960 113.4v797c0 27.4-22.2 49.4-49.4 49.4H682.2V613h116.4l17.4-135.2h-134v-86.4c0-39.2 10.8-65.8 67-65.8h71.6v-121c-12.4-1.6-54.8-5.4-104.4-5.4-103.2 0-174 63-174 178.8v99.8h-116.8v135.2h116.8V960H113.4C86.2 960 64 937.8 64 910.6V113.4C64 86.2 86.2 64 113.4 64h797c27.4 0 49.6 22.2 49.6 49.4z" fill="" p-id="9622"></path></svg>