<?xml version="1.0" standalone="no"?><!DOCTYPE svg PUBLIC "-//W3C//DTD SVG 1.1//EN" "http://www.w3.org/Graphics/SVG/1.1/DTD/svg11.dtd"><svg t="1566308767504" class="icon" viewBox="0 0 1024 1024" version="1.1" xmlns="http://www.w3.org/2000/svg" p-id="10460" xmlns:xlink="http://www.w3.org/1999/xlink" width="200" height="200"><defs><style type="text/css"></style></defs><path d="M64 64v896h896V64H64z m744.4 212.2l-48 46c-4.2 3.2-6.2 8.4-5.4 13.4v338.6c-0.8 5.2 1.2 10.4 5.4 13.4l47 46v10.2h-236V734l48.6-47.2c4.8-4.8 4.8-6.2 4.8-13.4V399.6l-135.2 343.2h-18.2L314 399.6v230c-1.4 9.6 2 19.4 8.8 26.4l63.2 76.6v10.2H206.4v-10.2l63.2-76.6c6.8-7 9.8-16.8 8.2-26.4v-266c0.8-7.4-2-14.6-7.6-19.6L214 276.2V266h174.6l134.8 296L642 266.2h166.4v10z" fill="" p-id="10461"></path></svg>