<?xml version="1.0" standalone="no"?><!DOCTYPE svg PUBLIC "-//W3C//DTD SVG 1.1//EN" "http://www.w3.org/Graphics/SVG/1.1/DTD/svg11.dtd"><svg t="1566308829625" class="icon" viewBox="0 0 1024 1024" version="1.1" xmlns="http://www.w3.org/2000/svg" p-id="11328" xmlns:xlink="http://www.w3.org/1999/xlink" width="200" height="200"><defs><style type="text/css"></style></defs><path d="M167.590029 110.798646c11.262756 1.919788-16.936797 75.852958-1.194535 160.408955 13.566502 72.397339 184.001017 353.027687 176.961794 449.187735-5.46073 60.494654-145.391946 202.217672-160.110322 192.832042-16.083557-4.479505 42.491308-100.724878 20.733711-181.057342C178.810123 638.69769 28.768024 396.847061 28.938671 290.064185c0-78.156704 128.45515-184.29965 138.651358-179.265539zM488.109305 0.261518c14.334417 2.474393-21.58695 96.885302-1.450507 204.393431 17.278092 92.576445 234.68342 450.296946 225.767072 573.035394-7.081885 77.175479-185.494185 257.806201-204.308108 245.732867-20.435077-5.588716 54.223346-128.327164 26.535737-230.630534-32.209777-119.282829-223.463326-427.728772-223.33534-563.905736 0-99.743653 163.907235-235.024716 176.791146-228.625422z m330.800807 110.537128c11.518728 1.919788-16.766149 75.852958-0.981225 160.451617 13.566502 72.397339 184.001017 353.027687 176.961794 449.187735-5.332745 60.494654-145.391946 202.217672-160.152983 192.832042-16.083557-4.479505 42.491308-100.724878 20.819034-181.057342-25.341202-93.515008-175.340639-335.365637-175.127329-442.105851 0-78.156704 128.583136-184.29965 138.566033-179.265539h-0.085324z" fill="" p-id="11329"></path></svg>