<?xml version="1.0" standalone="no"?><!DOCTYPE svg PUBLIC "-//W3C//DTD SVG 1.1//EN" "http://www.w3.org/Graphics/SVG/1.1/DTD/svg11.dtd"><svg t="1566308852484" class="icon" viewBox="0 0 1024 1024" version="1.1" xmlns="http://www.w3.org/2000/svg" p-id="12049" xmlns:xlink="http://www.w3.org/1999/xlink" width="200" height="200"><defs><style type="text/css"></style></defs><path d="M962.267429 233.179429q-38.253714 56.027429-92.598857 95.451429 0.585143 7.972571 0.585143 23.990857 0 74.313143-21.723429 148.260571t-65.974857 141.970286-105.398857 120.32-147.456 83.456-184.539429 31.158857q-154.843429 0-283.428571-82.870857 19.968 2.267429 44.544 2.267429 128.585143 0 229.156571-78.848-59.977143-1.170286-107.446857-36.864t-65.170286-91.136q18.870857 2.852571 34.889143 2.852571 24.576 0 48.566857-6.290286-64-13.165714-105.984-63.707429t-41.984-117.394286l0-2.267429q38.838857 21.723429 83.456 23.405714-37.741714-25.161143-59.977143-65.682286t-22.308571-87.990857q0-50.322286 25.161143-93.110857 69.12 85.138286 168.301714 136.265143t212.260571 56.832q-4.534857-21.723429-4.534857-42.276571 0-76.580571 53.979429-130.56t130.56-53.979429q80.018286 0 134.875429 58.294857 62.317714-11.995429 117.174857-44.544-21.138286 65.682286-81.115429 101.741714 53.174857-5.705143 106.276571-28.598857z" p-id="12050"></path></svg>