<?xml version="1.0" standalone="no"?><!DOCTYPE svg PUBLIC "-//W3C//DTD SVG 1.1//EN" "http://www.w3.org/Graphics/SVG/1.1/DTD/svg11.dtd"><svg t="1566308875927" class="icon" viewBox="0 0 1024 1024" version="1.1" xmlns="http://www.w3.org/2000/svg" p-id="12773" xmlns:xlink="http://www.w3.org/1999/xlink" width="200" height="200"><defs><style type="text/css"></style></defs><path d="M1002.628571 265.257143a128.342857 128.342857 0 0 0-90.514285-90.628572C832.228571 153.142857 512 153.142857 512 153.142857s-320.228571 0-400.114286 21.371429A128.137143 128.137143 0 0 0 21.371429 265.142857C0 345.142857 0 512 0 512s0 166.857143 21.371429 246.742857c11.771429 44.114286 46.514286 78.857143 90.514285 90.628572C191.771429 870.857143 512 870.857143 512 870.857143s320.228571 0 400.114286-21.485714c44.114286-11.771429 78.742857-46.514286 90.514285-90.628572C1024 678.857143 1024 512 1024 512s0-166.857143-21.371429-246.742857zM410.285714 665.142857V358.857143l265.142857 152-265.142857 154.285714z" p-id="12774"></path></svg>