<?xml version="1.0" encoding="UTF-8"?>
<svg width="40px" height="125px" viewBox="0 0 40 125" version="1.1" xmlns="http://www.w3.org/2000/svg" xmlns:xlink="http://www.w3.org/1999/xlink">
    <!-- Generator: Sketch 52 (66869) - http://www.bohemiancoding.com/sketch -->
    <title>atoms / shapes / symbol_left</title>
    <desc>Created with Sketch.</desc>
    <g id="atoms-/-shapes-/-symbol_left" stroke="none" stroke-width="1" fill="none" fill-rule="evenodd">
        <path d="M33.6870731,60.7575705 C34.4974187,60.7049313 34.9025915,60.4709546 34.9025915,60.0556402 C34.9025915,59.6403259 34.4974187,59.4145405 33.6870731,59.378284 C25.7445924,58.6196764 22.3211094,53.7921737 22.3211094,43.7233822 L22.3211094,19.7927613 C22.3211094,8.41364768 16.8435365,3.17235896 4.86134591,3.17235896 L1.58617948,3.17235896 C0.710156743,3.17235896 3.65999552e-15,2.46220222 3.55271368e-15,1.58617948 L3.55271368e-15,1.58617948 C3.44543183e-15,0.710156743 0.710156743,1.60922766e-16 1.58617948,0 L3.28654372,0 C19.582323,0 25.6761228,5.79300332 25.6761228,21.1030835 L25.6761228,41.2406665 C25.6761228,52.9646018 29.2857158,56.010417 35.9980675,57.0564845 C36.7937163,57.0147311 39.35073,57.8065728 39.35073,60.3274861 C39.3290908,62.7890504 37.1985056,63.2007185 35.741108,63.2648236 C29.3002778,63.3853755 25.6761228,67.3091814 25.6761228,78.8951881 L25.6761228,102.963738 C25.6761228,118.618639 19.376914,124.6875 3.28654372,124.6875 L1.55169732,124.6875 C0.694718553,124.6875 1.59312848e-13,123.992781 3.55271368e-15,123.135803 L3.55271368e-15,123.135803 C1.14398395e-14,122.278824 0.694718553,121.584105 1.55169732,121.584105 L4.86134591,121.584105 C16.4327186,121.584105 22.3211094,115.929031 22.3211094,104.894739 L22.3211094,76.4814367 C22.3211094,66.2747165 25.7445924,61.5161781 33.6870731,60.7575705 Z" id="}-copy" fill="#03DAC5" transform="translate(19.675365, 62.343750) scale(-1, 1) translate(-19.675365, -62.343750) "></path>
    </g>
</svg>