<svg class="icon" viewBox="0 0 1024 1024" xmlns="http://www.w3.org/2000/svg" width="200" height="200"><defs><style/></defs><path d="M955.7 455.943a58.529 58.529 0 00-32.769-99.21L678.224 320.16a9.362 9.362 0 01-7.007-4.637L565.131 85.24a58.544 58.544 0 00-106.306 0L352.783 315.538a9.362 9.362 0 01-7.007 4.623l-244.722 36.571a58.514 58.514 0 00-32.768 99.226l179.317 179.624a6.875 6.875 0 012.165 5.193l-58.382 260.71a58.47 58.47 0 0057.11 71.3c10.4 0 20.816-2.764 30.12-8.338l228.966-137.435a10.693 10.693 0 019.172.16l242.557 137.963a58.47 58.47 0 0064.804-4.638 58.514 58.514 0 0020.583-61.615l-70.48-258.706a7.11 7.11 0 012.135-4.58l179.346-179.653zM716.565 651.25l71.68 263.037L544.84 775.84a69.28 69.28 0 00-65.682 0L248.496 914.286l58.909-263.037a65.243 65.243 0 00-18.388-56.993L109.714 414.618l244.707-36.572c22.338-3.335 41.604-17.379 51.215-37.376l106.35-230.956L618.363 340.67a67.803 67.803 0 0051.215 37.376l244.707 36.572-179.303 179.624a65.36 65.36 0 00-18.417 57.007z"/><path d="M494.548 292.147a14.629 14.629 0 00-19.85 5.837l-56.453 103.424a35.723 35.723 0 01-27.092 19.675l-98.699 14.746a14.629 14.629 0 004.301 28.935l98.7-14.745c21.489-3.219 39.847-16.648 48.8-35.27l56.115-102.765a14.629 14.629 0 00-5.822-19.837zm22.09-69.5a14.57 14.57 0 00-19.398 7.168l-10.606 23.025a14.629 14.629 0 1026.566 12.23l10.605-23.026a14.6 14.6 0 00-7.168-19.397z"/></svg>