<?xml version="1.0" standalone="no"?>
<!DOCTYPE svg PUBLIC "-//W3C//DTD SVG 1.1//EN" "http://www.w3.org/Graphics/SVG/1.1/DTD/svg11.dtd" >
<svg xmlns="http://www.w3.org/2000/svg" xmlns:xlink="http://www.w3.org/1999/xlink" version="1.1">
<metadata>
Created by FontForge 20161003 at Wed Mar 20 18:29:52 2019
 By www-data
Copyright (c) 2016 by Radomir Tinkov. All rights reserved.
</metadata>
<defs>
<font id="GilroyHeavy" horiz-adv-x="575" >
  <font-face 
    font-family="GilroyHeavy"
    font-weight="900"
    font-stretch="normal"
    units-per-em="1000"
    panose-1="0 0 10 0 0 0 0 0 0 0"
    ascent="800"
    descent="-200"
    x-height="500"
    cap-height="700"
    bbox="-487 -284 1253 990"
    underline-thickness="50"
    underline-position="-150"
    unicode-range="U+0020-FB02"
  />
<missing-glyph horiz-adv-x="500" 
d="M410 800v-1000h-317v1000h317zM333 733h-165v-33h65v-37h-66v-33h166v33h-66v37h66v33zM267 604h-100v-104h166v34h-66v70zM233 570v-36h-33v36h33zM333 473h-166v-33h66v-37h-66v-33h100v70h66v33zM333 413h-33v-66h-133v-34h166v100zM333 291h-100v-56h34v23h33v-47
h-100v80h-33v-113h166v113zM333 118h-166v-113h166v113zM300 85v-47h-100v47h100zM333 -18h-166v-33h70l-70 -47v-33h166v33h-102l70 47h32v33z" />
    <glyph glyph-name="fi" unicode="fi" 
d="M535 500v-500h-185v324h-97v-324h-185v324h-58v176h58q0 106 66 161t196 55q72 0 135 -16v-152q-67 10 -120 10q-92 0 -92 -58h282z" />
    <glyph glyph-name="fl" unicode="fl" 
d="M330 716q106 0 205 -16v-700h-185v562q-8 1 -25 1q-32 0 -52 -16t-20 -47h57v-176h-57v-324h-185v324h-58v176h58q0 106 66 161t196 55z" />
    <glyph glyph-name="f_f" unicode="ff" horiz-adv-x="615" 
d="M615 560q-36 3 -56.5 -11t-20.5 -39v-10h77v-176h-77v-324h-185v324h-100v-324h-185v324h-58v176h58q0 108 67 165.5t195 50.5v-166q-36 3 -56.5 -11t-20.5 -39h100v10q0 108 67 165.5t195 50.5v-166z" />
    <glyph glyph-name="f_f_i" unicode="ffi" horiz-adv-x="860" 
d="M820 500v-500h-185v324h-97v-324h-185v324h-100v-324h-185v324h-58v176h58q0 108 67 165.5t195 50.5v-166q-36 3 -56.5 -11t-20.5 -39h100v10q0 106 66 161t196 55q72 0 135 -16v-152q-67 10 -120 10q-92 0 -92 -58v-10h282z" />
    <glyph glyph-name="f_f_l" unicode="ffl" horiz-adv-x="860" 
d="M615 726q106 0 205 -16v-710h-185v572q-8 1 -25 1q-32 0 -52 -16t-20 -47v-10h57v-176h-57v-324h-185v324h-100v-324h-185v324h-58v176h58q0 108 67 165.5t195 50.5v-166q-36 3 -56.5 -11t-20.5 -39h100v10q0 106 66 161t196 55z" />
    <glyph glyph-name=".notdef" horiz-adv-x="500" 
d="M410 800v-1000h-317v1000h317zM333 733h-165v-33h65v-37h-66v-33h166v33h-66v37h66v33zM267 604h-100v-104h166v34h-66v70zM233 570v-36h-33v36h33zM333 473h-166v-33h66v-37h-66v-33h100v70h66v33zM333 413h-33v-66h-133v-34h166v100zM333 291h-100v-56h34v23h33v-47
h-100v80h-33v-113h166v113zM333 118h-166v-113h166v113zM300 85v-47h-100v47h100zM333 -18h-166v-33h70l-70 -47v-33h166v33h-102l70 47h32v33z" />
    <glyph glyph-name=".null" horiz-adv-x="0" 
 />
    <glyph glyph-name="nonmarkingreturn" horiz-adv-x="333" 
 />
    <glyph glyph-name="space" unicode=" " horiz-adv-x="200" 
 />
    <glyph glyph-name="exclam" unicode="!" horiz-adv-x="310" 
d="M75 260l-35 240v200h230v-200l-35 -240h-160zM155 -15q-48 0 -81.5 33.5t-33.5 81.5t33.5 81.5t81.5 33.5t81.5 -33.5t33.5 -81.5t-33.5 -81.5t-81.5 -33.5z" />
    <glyph glyph-name="quotedbl" unicode="&#x22;" horiz-adv-x="490" 
d="M70 420l-20 280h170l-20 -280h-130zM290 420l-20 280h170l-20 -280h-130z" />
    <glyph glyph-name="numbersign" unicode="#" horiz-adv-x="643" 
d="M602 380h-95l-10 -60h96l-21 -130h-97l-23 -140h-144l23 140h-72l-23 -140h-144l23 140h-95l21 130h96l10 60h-96l21 130h97l23 140h144l-23 -140h72l23 140h144l-23 -140h94zM353 320l10 60h-72l-10 -60h72z" />
    <glyph glyph-name="dollar" unicode="$" horiz-adv-x="565" 
d="M550 209q0 -97 -61 -155.5t-164 -67.5v-86h-70v85q-91 6 -154 49.5t-86 115.5l176 95q15 -61 64 -75v95l-4 1q-55 19 -90 36t-67 42.5t-47 61.5t-15 84q0 96 62 156.5t161 68.5v85h70v-86q150 -17 212 -151l-171 -92q-14 44 -41 56v-99q1 0 3 -1t3 -1q102 -37 136 -60
q83 -54 83 -157zM222 491q0 -22 33 -37v77q-33 -10 -33 -40zM325 169q35 7 35 36q0 21 -35 35v-71z" />
    <glyph glyph-name="percent" unicode="%" horiz-adv-x="868" 
d="M225 336q-83 0 -139 55.5t-56 134.5t56 134.5t139 55.5q82 0 137.5 -55.5t55.5 -134.5t-55.5 -134.5t-137.5 -55.5zM157 111l470 498l73 -42l-471 -497zM224 476q21 0 35 15t14 35q0 21 -14 35.5t-35 14.5t-34.5 -14.5t-13.5 -35.5t13.5 -35.5t34.5 -14.5zM645 -16
q-83 0 -139 55.5t-56 134.5t56 134.5t139 55.5q82 0 137.5 -55.5t55.5 -134.5t-55.5 -134.5t-137.5 -55.5zM644 124q21 0 35 15t14 35q0 21 -14 35.5t-35 14.5t-34.5 -14.5t-13.5 -35.5t13.5 -35.5t34.5 -14.5z" />
    <glyph glyph-name="ampersand" unicode="&#x26;" horiz-adv-x="683" 
d="M673 59l-151 -87l-55 61q-83 -49 -183 -49q-118 0 -186 62.5t-68 155.5q0 120 113 189q-36 54 -36 115q0 91 67 150.5t169 59.5q179 0 255 -162l-167 -97q-28 73 -76 73q-43 0 -43 -41q0 -4 0.5 -8t2.5 -8t3.5 -7.5t5.5 -8.5t6 -8.5t7.5 -10t8.5 -10t10 -11.5t11 -12
l105 -119q21 44 30 93l156 -91q-23 -74 -66 -137zM308 150q23 0 45 8l-98 107q-24 -23 -24 -53q0 -26 19.5 -44t57.5 -18z" />
    <glyph glyph-name="quotesingle" unicode="'" horiz-adv-x="270" 
d="M70 420l-20 280h170l-20 -280h-130z" />
    <glyph glyph-name="parenleft" unicode="(" horiz-adv-x="335" 
d="M150 -100q-110 220 -110 450t110 450h185q-110 -220 -110 -450t110 -450h-185z" />
    <glyph glyph-name="parenright" unicode=")" horiz-adv-x="335" 
d="M185 -100h-185q110 220 110 450t-110 450h185q110 -220 110 -450t-110 -450z" />
    <glyph glyph-name="asterisk" unicode="*" horiz-adv-x="410" 
d="M370 601v-104l-92 10l58 -71l-88 -54l-43 79l-43 -79l-88 54l58 71l-92 -10v104l92 -10l-58 71l88 54l43 -79l43 79l88 -54l-58 -71z" />
    <glyph glyph-name="plus" unicode="+" horiz-adv-x="560" 
d="M530 440v-180h-160v-160h-180v160h-160v180h160v160h180v-160h160z" />
    <glyph glyph-name="comma" unicode="," horiz-adv-x="315" 
d="M280 195l-90 -335h-150l30 335h210z" />
    <glyph glyph-name="hyphen" unicode="-" horiz-adv-x="500" 
d="M50 217v174h400v-174h-400z" />
    <glyph glyph-name="period" unicode="." horiz-adv-x="300" 
d="M150 -15q-48 0 -81.5 33.5t-33.5 81.5t33.5 81.5t81.5 33.5t81.5 -33.5t33.5 -81.5t-33.5 -81.5t-81.5 -33.5z" />
    <glyph glyph-name="slash" unicode="/" horiz-adv-x="520" 
d="M100 -100h-80l400 900h80z" />
    <glyph glyph-name="zero" unicode="0" horiz-adv-x="630" 
d="M315 -16q-141 0 -218 99.5t-77 266.5t77 266.5t218 99.5t218 -99.5t77 -266.5t-77 -266.5t-218 -99.5zM315 178q95 0 95 172t-95 172t-95 -172t95 -172z" />
    <glyph glyph-name="one" unicode="1" horiz-adv-x="427" 
d="M197 700h170v-700h-200v491l-121 -29l-46 167z" />
    <glyph glyph-name="two" unicode="2" horiz-adv-x="546" 
d="M20 0v146l228 247q6 7 17.5 19t16 17t12 13.5t10 14t5 12t2.5 13.5q0 17 -12 28.5t-35 11.5q-56 0 -83 -71l-176 96q35 83 103.5 126t152.5 43q103 0 176.5 -58.5t73.5 -161.5q0 -63 -27.5 -110t-86.5 -113l-71 -79h200v-194h-506z" />
    <glyph glyph-name="three" unicode="3" horiz-adv-x="545" 
d="M376 414q68 -20 108.5 -69.5t40.5 -124.5q0 -116 -74 -176t-186 -60q-92 0 -161 42t-99 124l176 101q21 -73 84 -73q27 0 43.5 14t16.5 38q0 50 -60 50h-43l-78 116l94 110h-211v194h460v-154z" />
    <glyph glyph-name="four" unicode="4" 
d="M570 282v-180h-70v-102h-196v102h-294v180l193 418h227l-196 -418h70v98h196v-98h70z" />
    <glyph glyph-name="five" unicode="5" horiz-adv-x="550" 
d="M295 455q104 0 172 -58.5t68 -168.5q0 -117 -74 -180.5t-186 -63.5q-99 0 -169.5 42t-100.5 124l176 101q21 -73 94 -73q27 0 43.5 13t16.5 38q0 49 -60 49h-230l29 422h421v-194h-238l-4 -51h42z" />
    <glyph glyph-name="six" unicode="6" horiz-adv-x="560" 
d="M337 474q98 -16 155.5 -81.5t57.5 -161.5q0 -110 -74 -178.5t-196 -68.5q-123 0 -196.5 68.5t-73.5 178.5q0 78 38 136l208 333h224zM280 163q70 0 70 68t-70 68t-70 -68t70 -68z" />
    <glyph glyph-name="seven" unicode="7" horiz-adv-x="490" 
d="M-10 700h490v-164l-208 -536h-220l196 506h-258v194z" />
    <glyph glyph-name="eight" unicode="8" horiz-adv-x="564" 
d="M454 366q95 -57 95 -169q0 -98 -69 -154.5t-198 -56.5t-198 56.5t-69 154.5q0 112 95 169q-71 53 -71 140q0 97 68 152.5t175 55.5t175 -55.5t68 -152.5q0 -87 -71 -140zM282 538q-63 0 -63 -51t63 -51q28 0 45.5 13t17.5 38t-17.5 38t-45.5 13zM282 166q32 0 49.5 15.5
t17.5 43.5t-17.5 43.5t-49.5 15.5t-49.5 -15.5t-17.5 -43.5t17.5 -43.5t49.5 -15.5z" />
    <glyph glyph-name="nine" unicode="9" horiz-adv-x="560" 
d="M550 469q0 -78 -38 -136l-208 -333h-224l143 226q-98 16 -155.5 81.5t-57.5 161.5q0 110 74 178.5t196 68.5q123 0 196.5 -68.5t73.5 -178.5zM280 537q-70 0 -70 -68t70 -68t70 68t-70 68z" />
    <glyph glyph-name="colon" unicode=":" horiz-adv-x="300" 
d="M150 285q-48 0 -81.5 33.5t-33.5 81.5t33.5 81.5t81.5 33.5t81.5 -33.5t33.5 -81.5t-33.5 -81.5t-81.5 -33.5zM150 -15q-48 0 -81.5 33.5t-33.5 81.5t33.5 81.5t81.5 33.5t81.5 -33.5t33.5 -81.5t-33.5 -81.5t-81.5 -33.5z" />
    <glyph glyph-name="semicolon" unicode=";" horiz-adv-x="320" 
d="M170 285q-48 0 -81.5 33.5t-33.5 81.5t33.5 81.5t81.5 33.5t81.5 -33.5t33.5 -81.5t-33.5 -81.5t-81.5 -33.5zM280 195l-90 -335h-150l30 335h210z" />
    <glyph glyph-name="less" unicode="&#x3c;" horiz-adv-x="510" 
d="M480 630v-194l-260 -86l260 -86v-194l-450 195v170z" />
    <glyph glyph-name="equal" unicode="=" horiz-adv-x="500" 
d="M30 375v180h440v-180h-440zM30 145v180h440v-180h-440z" />
    <glyph glyph-name="greater" unicode="&#x3e;" horiz-adv-x="510" 
d="M30 630l450 -195v-170l-450 -195v194l260 86l-260 86v194z" />
    <glyph glyph-name="question" unicode="?" horiz-adv-x="532" 
d="M165 260q0 43 21.5 80t47 58t47 45t21.5 45q0 16 -11 26t-30 10q-49 0 -82 -73l-169 96q36 85 105 127t154 42q101 0 167 -53.5t66 -143.5q0 -42 -16 -78t-39 -59.5t-46.5 -43.5t-39.5 -39.5t-16 -38.5h-180zM255 -15q-48 0 -81.5 33.5t-33.5 81.5t33.5 81.5t81.5 33.5
t81.5 -33.5t33.5 -81.5t-33.5 -81.5t-81.5 -33.5z" />
    <glyph glyph-name="at" unicode="@" horiz-adv-x="764" 
d="M389 612q106 0 188 -51.5t122 -128.5t40 -162q0 -229 -168 -229q-55 0 -92.5 23.5t-52.5 62.5q-36 -42 -94 -42q-69 0 -110.5 46t-41.5 119t41.5 119t110.5 46q51 0 86 -33v21h152v-236q0 -60 44 -60q33 0 54 38.5t21 124.5q0 125 -86.5 210.5t-213.5 85.5
q-133 0 -223.5 -91t-90.5 -225q0 -137 94 -226.5t238 -89.5q82 0 143 20v-49q-62 -17 -143 -17q-164 0 -273 102.5t-109 259.5q0 151 104.5 256.5t259.5 105.5zM375 203q19 0 30.5 13t11.5 34t-11.5 34t-30.5 13t-31 -13t-12 -34t12 -34t31 -13z" />
    <glyph glyph-name="A" unicode="A" horiz-adv-x="660" 
d="M455 0l-24 90h-202l-24 -90h-215l223 700h234l223 -700h-215zM272 250h116l-58 215z" />
    <glyph glyph-name="B" unicode="B" horiz-adv-x="605" 
d="M500 361q90 -51 90 -155q0 -96 -62.5 -151t-181.5 -55h-296v700h278q118 0 180 -51t62 -146q0 -91 -70 -142zM316 528h-66v-94l77 1q43 6 43 46q0 23 -16 35t-38 12zM334 172q24 0 40 14t16 36q0 42 -45 49l-95 1v-100h84z" />
    <glyph glyph-name="C" unicode="C" horiz-adv-x="718" 
d="M391 -16q-158 0 -262 105t-104 261t104 261t262 105q97 0 179 -46t128 -124l-174 -100q-17 34 -53 54t-80 20q-74 0 -120 -48t-46 -122t46 -122t120 -48q45 0 80.5 20t52.5 55l174 -100q-46 -79 -128 -125t-179 -46z" />
    <glyph glyph-name="D" unicode="D" horiz-adv-x="705" 
d="M340 700q145 0 242.5 -100.5t97.5 -249.5t-97.5 -249.5t-242.5 -100.5h-290v700h290zM340 194q61 0 100.5 43.5t39.5 112.5t-39.5 112.5t-100.5 43.5h-80v-312h80z" />
    <glyph glyph-name="E" unicode="E" horiz-adv-x="540" 
d="M250 184h260v-184h-460v700h455v-182h-255v-76h230v-180h-230v-78z" />
    <glyph glyph-name="F" unicode="F" horiz-adv-x="515" 
d="M485 506h-235v-91h230v-194h-230v-221h-200v700h435v-194z" />
    <glyph glyph-name="G" unicode="G" horiz-adv-x="772" 
d="M747 413v-83q0 -150 -96.5 -248t-253.5 -98q-164 0 -268 104.5t-104 260.5t104 261.5t260 105.5q98 0 179.5 -44t128.5 -119l-170 -97q-42 64 -134 64q-75 0 -121.5 -48t-46.5 -124q0 -72 43 -125.5t133 -53.5q104 0 139 74h-149v170h356z" />
    <glyph glyph-name="H" unicode="H" horiz-adv-x="670" 
d="M420 700h200v-700h-200v258h-170v-258h-200v700h200v-248h170v248z" />
    <glyph glyph-name="I" unicode="I" horiz-adv-x="300" 
d="M50 700h200v-700h-200v700z" />
    <glyph glyph-name="J" unicode="J" horiz-adv-x="567" 
d="M267 -16q-177 0 -247 144l168 99q24 -49 78 -49q61 0 61 57v465h200v-470q0 -115 -68 -180.5t-192 -65.5z" />
    <glyph glyph-name="K" unicode="K" horiz-adv-x="636" 
d="M646 0h-222l-174 300v-300h-200v700h200v-280l164 280h222l-208 -340z" />
    <glyph glyph-name="L" unicode="L" horiz-adv-x="490" 
d="M250 194h230v-194h-430v700h200v-506z" />
    <glyph glyph-name="M" unicode="M" horiz-adv-x="830" 
d="M780 700v-700h-200v341l-156 -262h-18l-156 262v-341h-200v700h200l165 -285l165 285h200z" />
    <glyph glyph-name="N" unicode="N" horiz-adv-x="680" 
d="M430 700h200v-700h-160l-220 320v-320h-200v700h160l220 -320v320z" />
    <glyph glyph-name="O" unicode="O" horiz-adv-x="792" 
d="M396 -16q-156 0 -263.5 105.5t-107.5 260.5t107.5 260.5t263.5 105.5t263.5 -105.5t107.5 -260.5t-107.5 -260.5t-263.5 -105.5zM396 180q74 0 122.5 48.5t48.5 121.5t-48.5 121.5t-122.5 48.5t-122.5 -48.5t-48.5 -121.5t48.5 -121.5t122.5 -48.5z" />
    <glyph glyph-name="P" unicode="P" horiz-adv-x="595" 
d="M330 700q109 0 182 -68.5t73 -182.5t-73 -182.5t-182 -68.5h-80v-198h-200v700h280zM330 392q23 0 39 15.5t16 41.5t-16 41.5t-39 15.5h-80v-114h80z" />
    <glyph glyph-name="Q" unicode="Q" horiz-adv-x="797" 
d="M767 350q0 -123 -71 -219l56 -61l-137 -120l-62 67q-74 -33 -157 -33q-156 0 -263.5 105.5t-107.5 260.5t107.5 260.5t263.5 105.5t263.5 -105.5t107.5 -260.5zM396 180h7l-86 94l138 119l100 -109q12 30 12 66q0 73 -48.5 121.5t-122.5 48.5t-122.5 -48.5t-48.5 -121.5
t48.5 -121.5t122.5 -48.5z" />
    <glyph glyph-name="R" unicode="R" horiz-adv-x="625" 
d="M411 0l-111 220h-50v-220h-200v700h280q115 0 190 -67.5t75 -178.5q0 -62 -28.5 -112t-79.5 -81l138 -261h-214zM250 516v-130h76q32 -1 50.5 16t18.5 48t-18.5 48.5t-50.5 17.5h-76z" />
    <glyph glyph-name="S" unicode="S" horiz-adv-x="585" 
d="M302 -16q-114 0 -190 47.5t-102 128.5l171 99q35 -89 126 -89q68 0 68 36q0 10 -5 18t-19 14t-24.5 9.5t-36.5 10.5t-39 11q-209 63 -209 225q0 96 69.5 159t182.5 63q89 0 159.5 -42t103.5 -121l-166 -97q-29 74 -96 74q-26 0 -39.5 -10.5t-13.5 -26.5q0 -22 23.5 -34
t90.5 -31q50 -15 82 -28.5t67 -38t52.5 -63t17.5 -90.5q0 -107 -73.5 -165.5t-199.5 -58.5z" />
    <glyph glyph-name="T" unicode="T" horiz-adv-x="550" 
d="M540 700v-194h-165v-506h-200v506h-165v194h530z" />
    <glyph glyph-name="U" unicode="U" horiz-adv-x="650" 
d="M325 -16q-127 0 -206 69t-79 181v466h200v-444q0 -78 85 -78t85 78v444h200v-466q0 -112 -79 -181t-206 -69z" />
    <glyph glyph-name="V" unicode="V" horiz-adv-x="670" 
d="M223 0l-223 700h220l115 -445l115 445h220l-223 -700h-224z" />
    <glyph glyph-name="W" unicode="W" horiz-adv-x="1010" 
d="M198 0l-198 700h220l95 -385l113 385h154l113 -385l95 385h220l-198 -700h-197l-110 374l-110 -374h-197z" />
    <glyph glyph-name="X" unicode="X" horiz-adv-x="645" 
d="M645 0h-222l-100 168l-101 -168h-222l212 354l-207 346h222l96 -160l95 160h222l-206 -346z" />
    <glyph glyph-name="Y" unicode="Y" horiz-adv-x="674" 
d="M674 700l-237 -434v-266h-200v266l-237 434h222l115 -246l115 246h222z" />
    <glyph glyph-name="Z" unicode="Z" horiz-adv-x="545" 
d="M292 194h233v-194h-495v154l223 352h-218v194h480v-154z" />
    <glyph glyph-name="bracketleft" unicode="[" horiz-adv-x="340" 
d="M320 624h-95v-548h95v-176h-280v900h280v-176z" />
    <glyph glyph-name="backslash" unicode="\" horiz-adv-x="520" 
d="M420 -100l-400 900h80l400 -900h-80z" />
    <glyph glyph-name="bracketright" unicode="]" horiz-adv-x="340" 
d="M300 800v-900h-280v176h95v548h-95v176h280z" />
    <glyph glyph-name="asciicircum" unicode="^" horiz-adv-x="580" 
d="M354 700l206 -370h-200l-70 147l-70 -147h-200l206 370h128z" />
    <glyph glyph-name="underscore" unicode="_" horiz-adv-x="510" 
d="M20 -191v174h470v-174h-470z" />
    <glyph glyph-name="grave" unicode="`" horiz-adv-x="330" 
d="M310 550l-80 150h-210l116 -150h174z" />
    <glyph glyph-name="a" unicode="a" horiz-adv-x="606" 
d="M381 500h185v-500h-185v45q-48 -59 -134 -59q-101 0 -165 75t-64 189t64 189t165 75q86 0 134 -59v45zM292 156q40 0 64.5 27t24.5 67t-24.5 67t-64.5 27t-64.5 -27t-24.5 -67t24.5 -67t64.5 -27z" />
    <glyph glyph-name="b" unicode="b" horiz-adv-x="606" 
d="M359 514q101 0 165 -75t64 -189t-64 -189t-165 -75q-86 0 -134 59v-45h-185v700h185v-245q48 59 134 59zM314 156q40 0 64.5 27t24.5 67t-24.5 67t-64.5 27t-64.5 -27t-24.5 -67t24.5 -67t64.5 -27z" />
    <glyph glyph-name="c" unicode="c" horiz-adv-x="525" 
d="M285 -14q-115 0 -191 75.5t-76 188.5t76 188.5t191 75.5q74 0 135.5 -35.5t94.5 -95.5l-156 -89q-25 42 -74 42q-35 0 -58.5 -24.5t-23.5 -61.5t23.5 -61.5t58.5 -24.5q52 0 74 43l156 -90q-33 -61 -94.5 -96t-135.5 -35z" />
    <glyph glyph-name="d" unicode="d" horiz-adv-x="606" 
d="M381 700h185v-700h-185v45q-48 -59 -134 -59q-101 0 -165 75t-64 189t64 189t165 75q86 0 134 -59v245zM292 156q40 0 64.5 27t24.5 67t-24.5 67t-64.5 27t-64.5 -27t-24.5 -67t24.5 -67t64.5 -27z" />
    <glyph glyph-name="e" unicode="e" horiz-adv-x="560" 
d="M205 187q24 -50 102 -50q46 0 85 32l121 -102q-75 -81 -212 -81q-128 0 -205.5 74.5t-77.5 187.5q0 114 75.5 190t190.5 76q114 0 187.5 -74.5t73.5 -187.5q0 -33 -8 -65h-332zM202 306h168q-17 60 -81 60q-65 0 -87 -60z" />
    <glyph glyph-name="f" unicode="f" horiz-adv-x="330" 
d="M330 550q-36 3 -56.5 -11t-20.5 -39h77v-176h-77v-324h-185v324h-58v176h58q0 108 67 165.5t195 50.5v-166z" />
    <glyph glyph-name="g" unicode="g" horiz-adv-x="613" 
d="M388 500h185v-485q0 -60 -22.5 -106t-60.5 -72.5t-83.5 -39.5t-95.5 -13q-88 0 -156 32t-101 90l150 87q36 -49 97 -49q35 0 61 17.5t26 53.5v50q-48 -59 -134 -59q-100 0 -164.5 73t-64.5 181t64.5 181t164.5 73q86 0 134 -59v45zM299 170q40 0 64.5 26t24.5 64
t-24.5 64t-64.5 26t-64.5 -26t-24.5 -64t24.5 -64t64.5 -26z" />
    <glyph glyph-name="h" unicode="h" 
d="M359 514q82 0 131.5 -56.5t49.5 -168.5v-289h-185v269q0 67 -62 67q-33 0 -50.5 -21t-17.5 -58v-257h-185v700h185v-249q46 63 134 63z" />
    <glyph glyph-name="i" unicode="i" horiz-adv-x="265" 
d="M133 538q-42 0 -72.5 30.5t-30.5 71.5t30.5 71.5t72.5 30.5q41 0 71.5 -30.5t30.5 -71.5t-30.5 -71.5t-71.5 -30.5zM40 0v500h185v-500h-185z" />
    <glyph glyph-name="j" unicode="j" horiz-adv-x="280" 
d="M148 538q-42 0 -72.5 30.5t-30.5 71.5t30.5 71.5t72.5 30.5q41 0 71.5 -30.5t30.5 -71.5t-30.5 -71.5t-71.5 -30.5zM55 0v500h185v-500q0 -118 -60.5 -170.5t-189.5 -45.5v166q65 -6 65 50z" />
    <glyph glyph-name="k" unicode="k" horiz-adv-x="550" 
d="M550 0h-205l-120 200v-200h-185v700h185v-394l105 194h210l-152 -250z" />
    <glyph glyph-name="l" unicode="l" horiz-adv-x="265" 
d="M40 0v730h185v-730h-185z" />
    <glyph glyph-name="m" unicode="m" horiz-adv-x="850" 
d="M630 514q87 0 136 -54.5t49 -155.5v-304h-185v279q0 57 -51 57q-59 0 -59 -74v-262h-185v279q0 57 -51 57q-59 0 -59 -74v-262h-185v500h185v-47q49 61 136 61q86 0 125 -62q54 62 144 62z" />
    <glyph glyph-name="n" unicode="n" 
d="M359 514q82 0 131.5 -56.5t49.5 -168.5v-289h-185v269q0 67 -62 67q-33 0 -50.5 -21t-17.5 -58v-257h-185v500h185v-49q46 63 134 63z" />
    <glyph glyph-name="o" unicode="o" horiz-adv-x="574" 
d="M287 -14q-112 0 -190.5 76t-78.5 188t78 188t191 76t191 -76t78 -188t-78 -188t-191 -76zM287 162q37 0 60.5 24.5t23.5 63.5t-23.5 63.5t-60.5 24.5t-60.5 -24.5t-23.5 -63.5t23.5 -63.5t60.5 -24.5z" />
    <glyph glyph-name="p" unicode="p" horiz-adv-x="606" 
d="M359 514q101 0 165 -75t64 -189t-64 -189t-165 -75q-86 0 -134 59v-245h-185v700h185v-45q48 59 134 59zM314 156q40 0 64.5 27t24.5 67t-24.5 67t-64.5 27t-64.5 -27t-24.5 -67t24.5 -67t64.5 -27z" />
    <glyph glyph-name="q" unicode="q" horiz-adv-x="606" 
d="M381 500h185v-700h-185v245q-48 -59 -134 -59q-101 0 -165 75t-64 189t64 189t165 75q86 0 134 -59v45zM292 156q40 0 64.5 27t24.5 67t-24.5 67t-64.5 27t-64.5 -27t-24.5 -67t24.5 -67t64.5 -27z" />
    <glyph glyph-name="r" unicode="r" horiz-adv-x="390" 
d="M225 403q14 51 55 79t95 28v-200q-60 8 -105 -23.5t-45 -100.5v-186h-185v500h185v-97z" />
    <glyph glyph-name="s" unicode="s" horiz-adv-x="484" 
d="M219 353q0 -12 18.5 -19t46.5 -10.5t60 -13.5t60 -25t46.5 -47.5t18.5 -78.5q0 -48 -21.5 -84t-56.5 -54t-71.5 -26.5t-75.5 -8.5q-181 0 -234 119l161 72q19 -51 71 -51q34 0 34 22q0 13 -25 21t-60 16.5t-70.5 23t-60.5 48.5t-25 85q0 82 62.5 127t144.5 45
q164 0 217 -127l-153 -55q-18 42 -56 42q-31 0 -31 -21z" />
    <glyph glyph-name="t" unicode="t" horiz-adv-x="400" 
d="M370 324h-105v-108q0 -25 12 -37t35.5 -13.5t57.5 0.5v-166q-157 -22 -223.5 27t-66.5 179v118h-70v176h70v85l185 55v-140h105v-176z" />
    <glyph glyph-name="u" unicode="u" 
d="M350 500h185v-500h-185v49q-46 -63 -134 -63q-82 0 -131.5 56.5t-49.5 168.5v289h185v-269q0 -67 62 -67q33 0 50.5 21t17.5 58v257z" />
    <glyph glyph-name="v" unicode="v" horiz-adv-x="570" 
d="M365 500h205l-190 -500h-190l-190 500h205l80 -250z" />
    <glyph glyph-name="w" unicode="w" horiz-adv-x="830" 
d="M615 500h195l-145 -500h-188l-62 235l-62 -235h-188l-145 500h195l58 -277l72 277h140l72 -277z" />
    <glyph glyph-name="x" unicode="x" horiz-adv-x="570" 
d="M570 0h-205l-80 112l-80 -112h-205l183 256l-175 244h205l72 -101l72 101h205l-174 -244z" />
    <glyph glyph-name="y" unicode="y" horiz-adv-x="570" 
d="M360 500h210l-170 -499q-37 -109 -115 -157.5t-206 -43.5v175q51 0 78 7.5t43 27.5l-200 490h210l89 -267z" />
    <glyph glyph-name="z" unicode="z" horiz-adv-x="495" 
d="M286 170h174v-170h-420v130l164 200h-154v170h400v-130z" />
    <glyph glyph-name="braceleft" unicode="{" horiz-adv-x="365" 
d="M345 -107q-120 -7 -180 44.5t-60 151.5v125q0 56 -75 50v175q75 -6 75 50v125q0 100 60 151.5t180 44.5v-166q-55 6 -55 -30v-125q0 -104 -83 -137q83 -35 83 -138v-125q0 -36 55 -30v-166z" />
    <glyph glyph-name="bar" unicode="|" horiz-adv-x="285" 
d="M50 -200v920h185v-920h-185z" />
    <glyph glyph-name="braceright" unicode="}" horiz-adv-x="365" 
d="M20 -107v166q55 -6 55 30v125q0 103 83 138q-83 33 -83 137v125q0 36 -55 30v166q120 7 180 -44.5t60 -151.5v-125q0 -56 75 -50v-175q-75 6 -75 -50v-125q0 -100 -60 -151.5t-180 -44.5z" />
    <glyph glyph-name="asciitilde" unicode="~" horiz-adv-x="612" 
d="M438 471l144 -65q-25 -119 -102.5 -163.5t-173.5 1.5q-69 32 -94 28t-38 -47l-144 65q25 119 102.5 163.5t173.5 -1.5q68 -32 93 -28t39 47z" />
    <glyph glyph-name="uni00A0" unicode="&#xa0;" horiz-adv-x="200" 
 />
    <glyph glyph-name="exclamdown" unicode="&#xa1;" horiz-adv-x="310" 
d="M155 515q48 0 81.5 -33.5t33.5 -81.5t-33.5 -81.5t-81.5 -33.5t-81.5 33.5t-33.5 81.5t33.5 81.5t81.5 33.5zM75 240h160l35 -240v-200h-230v200z" />
    <glyph glyph-name="cent" unicode="&#xa2;" horiz-adv-x="525" 
d="M288 264q49 2 71 43l156 -90q-33 -61 -94.5 -96t-135.5 -35q-25 0 -53 5l-29 -91h-65l35 109q-71 30 -113 94.5t-42 146.5q0 113 76 188.5t191 75.5q18 0 50 -4l29 90h65l-35 -108q79 -35 121 -109l-156 -89q-7 14 -21 24zM203 350q0 -41 27 -65l49 151q-33 -2 -54.5 -26
t-21.5 -60z" />
    <glyph glyph-name="sterling" unicode="&#xa3;" horiz-adv-x="570" 
d="M277 194h293v-194h-550v194h57v81h-47v140h47v67q0 112 70.5 173t164.5 61q179 0 249 -164l-173 -93q-21 69 -66 69q-22 0 -33.5 -16.5t-11.5 -42.5v-54h183v-140h-183v-81z" />
    <glyph glyph-name="currency" unicode="&#xa4;" horiz-adv-x="526" 
d="M480 350q0 -73 -44 -128l70 -69l-46 -46l-71 71q-55 -38 -126 -38t-126 38l-71 -71l-46 46l69 69q-43 56 -43 128t43 128l-69 69l46 46l71 -71q55 38 126 38t126 -38l71 71l46 -46l-70 -69q44 -55 44 -128zM263 308q20 0 31.5 11.5t11.5 30.5t-11.5 30.5t-31.5 11.5
t-31.5 -11.5t-11.5 -30.5t11.5 -30.5t31.5 -11.5z" />
    <glyph glyph-name="yen" unicode="&#xa5;" horiz-adv-x="654" 
d="M674 700l-176 -323h79v-100h-134l-6 -11v-31h140v-100h-140v-135h-200v135h-160v100h160v31l-6 11h-154v100h99l-176 323h222l115 -246l115 246h222z" />
    <glyph glyph-name="brokenbar" unicode="&#xa6;" horiz-adv-x="285" 
d="M50 350v370h185v-370h-185zM50 -200v370h185v-370h-185z" />
    <glyph glyph-name="section" unicode="&#xa7;" horiz-adv-x="537" 
d="M517 290q0 -74 -52 -119q32 -42 32 -106q0 -85 -66 -131t-162 -46q-175 0 -231 127l153 78q26 -57 78 -57q44 0 44 29q0 9 -6.5 16.5t-20.5 14t-27.5 11.5t-36 13t-38.5 14q-154 62 -154 186q0 77 55 122q-25 42 -25 97q0 84 62.5 130.5t145.5 46.5q156 0 221 -132
l-148 -70q-19 62 -63 62q-15 0 -24.5 -7.5t-9.5 -19.5q0 -11 7.5 -20t22.5 -17t30 -14t39.5 -15t41.5 -16q62 -27 97 -67.5t35 -109.5zM210 325q0 -23 35 -40q3 -1 31 -13q14 -6 46 -16q15 10 15 29q0 6 -2 11t-4.5 8t-9 7t-10.5 6t-14 6l-15 6q-10 5 -61 23
q-11 -11 -11 -27z" />
    <glyph glyph-name="dieresis" unicode="&#xa8;" horiz-adv-x="400" 
d="M105 530q-35 0 -60 25t-25 60t25 60t60 25t60 -25t25 -60t-25 -60t-60 -25zM305 530q-35 0 -60 25t-25 60t25 60t60 25t60 -25t25 -60t-25 -60t-60 -25z" />
    <glyph glyph-name="copyright" unicode="&#xa9;" horiz-adv-x="774" 
d="M387 -12q-150 0 -256 106t-106 256t106 256t256 106t256 -106t106 -256t-106 -256t-256 -106zM387 34q129 0 220.5 92.5t91.5 223.5t-91.5 223.5t-220.5 92.5t-220.5 -92.5t-91.5 -223.5t91.5 -223.5t220.5 -92.5zM390 153q-82 0 -140.5 58.5t-58.5 138.5t58.5 138.5
t140.5 58.5q52 0 96 -25.5t71 -72.5l-127 -73q-15 24 -44 24q-22 0 -36 -15t-14 -35t14 -35t36 -15q29 0 44 24l128 -73q-27 -47 -71.5 -72.5t-96.5 -25.5z" />
    <glyph glyph-name="guillemotleft" unicode="&#xab;" horiz-adv-x="577" 
d="M317 509l-115 -200l115 -200h-152l-115 200l115 200h152zM527 509l-115 -200l115 -200h-152l-115 200l115 200h152z" />
    <glyph glyph-name="logicalnot" unicode="&#xac;" horiz-adv-x="580" 
d="M30 440h520v-300h-190v120h-330v180z" />
    <glyph glyph-name="registered" unicode="&#xae;" horiz-adv-x="774" 
d="M387 712q150 0 256 -106t106 -256t-106 -256t-256 -106t-256 106t-106 256t106 256t256 106zM387 34q129 0 220.5 92.5t91.5 223.5t-91.5 223.5t-220.5 92.5t-220.5 -92.5t-91.5 -223.5t91.5 -223.5t220.5 -92.5zM566 406q0 -73 -51 -116l71 -125h-151l-48 92h-13v-92
h-142v370h194q57 0 98.5 -36.5t41.5 -92.5zM396 415h-22v-48h22q28 0 28 24t-28 24z" />
    <glyph glyph-name="macron" unicode="&#xaf;" horiz-adv-x="360" 
d="M20 549v140h320v-140h-320z" />
    <glyph glyph-name="degree" unicode="&#xb0;" horiz-adv-x="426" 
d="M213 450q-78 0 -130.5 52.5t-52.5 127.5q0 76 52 128t131 52t131 -52t52 -128q0 -75 -51.5 -127.5t-131.5 -52.5zM213 590q18 0 28.5 11t10.5 29q0 17 -11 28.5t-28 11.5t-28 -11.5t-11 -28.5t11 -28.5t28 -11.5z" />
    <glyph glyph-name="plusminus" unicode="&#xb1;" horiz-adv-x="560" 
d="M370 540h160v-180h-160v-130h-180v130h-160v180h160v130h180v-130zM30 0v180h500v-180h-500z" />
    <glyph glyph-name="acute" unicode="&#xb4;" horiz-adv-x="330" 
d="M20 550h174l116 150h-210z" />
    <glyph glyph-name="uni00B5" unicode="&#xb5;" horiz-adv-x="595" 
d="M570 160h15v-160h-80q-79 0 -120 50q-42 -66 -144 -66q-11 0 -16 1v-185h-185v700h185v-271q0 -67 62 -67q33 0 50.5 21t17.5 58v259h185v-310q0 -30 30 -30z" />
    <glyph glyph-name="paragraph" unicode="&#xb6;" horiz-adv-x="760" 
d="M740 700v-194h-72v-706h-180v706h-58v-706h-180v440q-96 0 -163 67.5t-67 162.5q0 96 67 163t163 67h490z" />
    <glyph glyph-name="periodcentered" unicode="&#xb7;" horiz-adv-x="300" 
d="M150 240q-48 0 -81.5 33.5t-33.5 81.5t33.5 81.5t81.5 33.5t81.5 -33.5t33.5 -81.5t-33.5 -81.5t-81.5 -33.5z" />
    <glyph glyph-name="cedilla" unicode="&#xb8;" horiz-adv-x="285" 
d="M212 -46q53 -22 53 -77q0 -56 -61 -83t-184 -20v114q95 -7 95 14q0 15 -53 20v78h150v-46z" />
    <glyph glyph-name="guillemotright" unicode="&#xbb;" horiz-adv-x="577" 
d="M202 509l115 -200l-115 -200h-152l115 200l-115 200h152zM412 509l115 -200l-115 -200h-152l115 200l-115 200h152z" />
    <glyph glyph-name="onequarter" unicode="&#xbc;" horiz-adv-x="825" 
d="M111 300v251l-78 -19l-33 120l132 48h121v-400h-142zM509 700h130l-410 -700h-130zM815 171v-120h-33v-51h-128v51h-190v120l110 229h147l-104 -229h37v66h128v-66h33z" />
    <glyph glyph-name="onehalf" unicode="&#xbd;" horiz-adv-x="810" 
d="M111 300v251l-78 -19l-33 120l132 48h121v-400h-142zM509 700h130l-410 -700h-130zM681 125h107v-125h-306v102l140 131q27 25 27 41q0 18 -20 18q-23 0 -39 -42l-116 66q50 98 162 98q61 0 106 -36.5t45 -95.5q0 -63 -70 -125z" />
    <glyph glyph-name="threequarters" unicode="&#xbe;" horiz-adv-x="869" 
d="M328 429q0 -68 -45.5 -105.5t-118.5 -37.5q-119 0 -164 98l114 65q15 -40 50 -40q28 0 28 20q0 19 -23 19h-32l-50 75l48 54h-114v123h292v-89l-64 -72q79 -30 79 -110zM553 700h130l-410 -700h-130zM859 171v-120h-33v-51h-128v51h-190v120l110 229h147l-104 -229h37v66
h128v-66h33z" />
    <glyph glyph-name="questiondown" unicode="&#xbf;" horiz-adv-x="532" 
d="M277 515q48 0 81.5 -33.5t33.5 -81.5t-33.5 -81.5t-81.5 -33.5t-81.5 33.5t-33.5 81.5t33.5 81.5t81.5 33.5zM367 240q0 -43 -21.5 -80t-47 -58t-47 -45t-21.5 -45q0 -16 11 -26t30 -10q49 0 82 73l169 -96q-36 -85 -105 -127t-154 -42q-101 0 -167 53.5t-66 143.5
q0 42 16 78t39 59.5t46.5 43.5t39.5 39.5t16 38.5h180z" />
    <glyph glyph-name="Agrave" unicode="&#xc0;" horiz-adv-x="660" 
d="M430 750h-174l-116 150h210zM455 0l-24 90h-202l-24 -90h-215l223 700h234l223 -700h-215zM272 250h116l-58 215z" />
    <glyph glyph-name="Aacute" unicode="&#xc1;" horiz-adv-x="660" 
d="M510 900l-116 -150h-174l80 150h210zM455 0l-24 90h-202l-24 -90h-215l223 700h234l223 -700h-215zM272 250h116l-58 215z" />
    <glyph glyph-name="Acircumflex" unicode="&#xc2;" horiz-adv-x="660" 
d="M325 798l-45 -58h-155l106 160h188l106 -160h-155zM455 0l-24 90h-202l-24 -90h-215l223 700h234l223 -700h-215zM272 250h116l-58 215z" />
    <glyph glyph-name="Atilde" unicode="&#xc3;" horiz-adv-x="660" 
d="M326 757q-5 2 -14 6.5t-13.5 6.5t-11 3.5t-9.5 -1.5t-5 -10t-2 -19h-120q0 60 17 99t45 53t58.5 14t62.5 -13q5 -2 14.5 -6.5t14 -6.5t11 -3.5t9.5 1.5t5 10t2 19h120q0 -61 -17 -100.5t-45 -53t-58.5 -13t-63.5 13.5zM455 0l-24 90h-202l-24 -90h-215l223 700h234
l223 -700h-215zM272 250h116l-58 215z" />
    <glyph glyph-name="Adieresis" unicode="&#xc4;" horiz-adv-x="660" 
d="M230 730q-35 0 -60 25t-25 60t25 60t60 25t60 -25t25 -60t-25 -60t-60 -25zM430 730q-35 0 -60 25t-25 60t25 60t60 25t60 -25t25 -60t-25 -60t-60 -25zM455 0l-24 90h-202l-24 -90h-215l223 700h234l223 -700h-215zM272 250h116l-58 215z" />
    <glyph glyph-name="Aring" unicode="&#xc5;" horiz-adv-x="660" 
d="M455 0l-24 90h-202l-24 -90h-215l219 686q-28 36 -28 84q0 60 42 100t107 40q67 0 108 -39.5t41 -100.5q0 -48 -27 -85l218 -685h-215zM330 800q-15 0 -23 -8.5t-8 -21.5t8 -21.5t23 -8.5q32 0 32 30t-32 30zM272 250h116l-58 215z" />
    <glyph glyph-name="AE" unicode="&#xc6;" horiz-adv-x="890" 
d="M635 184h225v-184h-420v90h-182l-48 -90h-220l389 700h476v-182h-220v-76h195v-180h-195v-78zM345 250h95v177z" />
    <glyph glyph-name="Ccedilla" unicode="&#xc7;" horiz-adv-x="718" 
d="M391 180q45 0 80.5 20t52.5 55l174 -100q-77 -130 -230 -163v-38q53 -22 53 -77q0 -56 -61 -83t-184 -20v114q95 -7 95 14q0 15 -53 20v69q-130 23 -211.5 123t-81.5 236q0 156 104 261t262 105q97 0 179 -46t128 -124l-174 -100q-17 34 -53 54t-80 20q-74 0 -120 -48
t-46 -122t46 -122t120 -48z" />
    <glyph glyph-name="Egrave" unicode="&#xc8;" horiz-adv-x="540" 
d="M378 750h-174l-116 150h210zM250 184h260v-184h-460v700h455v-182h-255v-76h230v-180h-230v-78z" />
    <glyph glyph-name="Eacute" unicode="&#xc9;" horiz-adv-x="540" 
d="M458 900l-116 -150h-174l80 150h210zM250 184h260v-184h-460v700h455v-182h-255v-76h230v-180h-230v-78z" />
    <glyph glyph-name="Ecircumflex" unicode="&#xca;" horiz-adv-x="540" 
d="M273 798l-45 -58h-155l106 160h188l106 -160h-155zM250 184h260v-184h-460v700h455v-182h-255v-76h230v-180h-230v-78z" />
    <glyph glyph-name="Edieresis" unicode="&#xcb;" horiz-adv-x="540" 
d="M178 730q-35 0 -60 25t-25 60t25 60t60 25t60 -25t25 -60t-25 -60t-60 -25zM378 730q-35 0 -60 25t-25 60t25 60t60 25t60 -25t25 -60t-25 -60t-60 -25zM250 184h260v-184h-460v700h455v-182h-255v-76h230v-180h-230v-78z" />
    <glyph glyph-name="Igrave" unicode="&#xcc;" horiz-adv-x="300" 
d="M250 750l-80 150h-210l116 -150h174zM50 700h200v-700h-200v700z" />
    <glyph glyph-name="Iacute" unicode="&#xcd;" horiz-adv-x="300" 
d="M40 750h174l116 150h-210zM50 700h200v-700h-200v700z" />
    <glyph glyph-name="Icircumflex" unicode="&#xce;" horiz-adv-x="300" 
d="M145 798l-45 -58h-155l106 160h188l106 -160h-155zM50 0v700h200v-700h-200z" />
    <glyph glyph-name="Idieresis" unicode="&#xcf;" horiz-adv-x="300" 
d="M50 730q-35 0 -60 25t-25 60t25 60t60 25t60 -25t25 -60t-25 -60t-60 -25zM250 730q-35 0 -60 25t-25 60t25 60t60 25t60 -25t25 -60t-25 -60t-60 -25zM50 700h200v-700h-200v700z" />
    <glyph glyph-name="Eth" unicode="&#xd0;" horiz-adv-x="725" 
d="M360 700q145 0 242.5 -100.5t97.5 -249.5t-97.5 -249.5t-242.5 -100.5h-290v258h-70v174h70v268h290zM360 194q61 0 100.5 43.5t39.5 112.5t-39.5 112.5t-100.5 43.5h-80v-74h120v-174h-120v-64h80z" />
    <glyph glyph-name="Ntilde" unicode="&#xd1;" horiz-adv-x="680" 
d="M146 743q0 60 17 99t45 53t58.5 14t62.5 -13q5 -2 14.5 -6.5t14 -6.5t11 -3.5t9.5 1.5t5 10t2 19h120q0 -61 -17 -100.5t-45 -53t-58.5 -13t-63.5 13.5q-5 2 -14 6.5t-13.5 6.5t-11 3.5t-9.5 -1.5t-5 -10t-2 -19h-120zM430 700h200v-700h-160l-220 320v-320h-200v700h160
l220 -320v320z" />
    <glyph glyph-name="Ograve" unicode="&#xd2;" horiz-adv-x="792" 
d="M496 760l-80 150h-210l116 -150h174zM396 -16q-156 0 -263.5 105.5t-107.5 260.5t107.5 260.5t263.5 105.5t263.5 -105.5t107.5 -260.5t-107.5 -260.5t-263.5 -105.5zM396 180q74 0 122.5 48.5t48.5 121.5t-48.5 121.5t-122.5 48.5t-122.5 -48.5t-48.5 -121.5
t48.5 -121.5t122.5 -48.5z" />
    <glyph glyph-name="Oacute" unicode="&#xd3;" horiz-adv-x="792" 
d="M286 760h174l116 150h-210zM396 -16q-156 0 -263.5 105.5t-107.5 260.5t107.5 260.5t263.5 105.5t263.5 -105.5t107.5 -260.5t-107.5 -260.5t-263.5 -105.5zM396 180q74 0 122.5 48.5t48.5 121.5t-48.5 121.5t-122.5 48.5t-122.5 -48.5t-48.5 -121.5t48.5 -121.5
t122.5 -48.5z" />
    <glyph glyph-name="Ocircumflex" unicode="&#xd4;" horiz-adv-x="792" 
d="M391 808l-45 -58h-155l106 160h188l106 -160h-155zM396 716q156 0 263.5 -105.5t107.5 -260.5t-107.5 -260.5t-263.5 -105.5t-263.5 105.5t-107.5 260.5t107.5 260.5t263.5 105.5zM396 180q74 0 122.5 48.5t48.5 121.5t-48.5 121.5t-122.5 48.5t-122.5 -48.5
t-48.5 -121.5t48.5 -121.5t122.5 -48.5z" />
    <glyph glyph-name="Otilde" unicode="&#xd5;" horiz-adv-x="792" 
d="M217 753q0 60 17 99t45 53t58.5 14t62.5 -13q5 -2 14.5 -6.5t14 -6.5t11 -3.5t9.5 1.5t5 10t2 19h120q0 -61 -17 -100.5t-45 -53t-58.5 -13t-63.5 13.5q-5 2 -14 6.5t-13.5 6.5t-11 3.5t-9.5 -1.5t-5 -10t-2 -19h-120zM396 -16q-156 0 -263.5 105.5t-107.5 260.5
t107.5 260.5t263.5 105.5t263.5 -105.5t107.5 -260.5t-107.5 -260.5t-263.5 -105.5zM396 180q74 0 122.5 48.5t48.5 121.5t-48.5 121.5t-122.5 48.5t-122.5 -48.5t-48.5 -121.5t48.5 -121.5t122.5 -48.5z" />
    <glyph glyph-name="Odieresis" unicode="&#xd6;" horiz-adv-x="792" 
d="M296 740q-35 0 -60 25t-25 60t25 60t60 25t60 -25t25 -60t-25 -60t-60 -25zM496 740q-35 0 -60 25t-25 60t25 60t60 25t60 -25t25 -60t-25 -60t-60 -25zM396 -16q-156 0 -263.5 105.5t-107.5 260.5t107.5 260.5t263.5 105.5t263.5 -105.5t107.5 -260.5t-107.5 -260.5
t-263.5 -105.5zM396 180q74 0 122.5 48.5t48.5 121.5t-48.5 121.5t-122.5 48.5t-122.5 -48.5t-48.5 -121.5t48.5 -121.5t122.5 -48.5z" />
    <glyph glyph-name="multiply" unicode="&#xd7;" horiz-adv-x="553" 
d="M523 469l-119 -119l119 -119l-127 -128l-119 120l-120 -120l-127 128l119 119l-119 119l127 128l120 -119l119 119z" />
    <glyph glyph-name="Oslash" unicode="&#xd8;" horiz-adv-x="797" 
d="M667 608q105 -107 105 -258q0 -155 -107.5 -260.5t-263.5 -105.5q-110 0 -200 56l-44 -54l-75 42l53 64q-105 107 -105 258q0 155 107.5 260.5t263.5 105.5q110 0 200 -56l44 54l75 -42zM230 350q0 -57 32 -102l212 257q-33 15 -73 15q-74 0 -122.5 -48.5t-48.5 -121.5z
M401 180q74 0 122.5 48.5t48.5 121.5q0 57 -32 102l-212 -257q33 -15 73 -15z" />
    <glyph glyph-name="Ugrave" unicode="&#xd9;" horiz-adv-x="650" 
d="M425 750l-80 150h-210l116 -150h174zM325 -16q-127 0 -206 69t-79 181v466h200v-444q0 -78 85 -78t85 78v444h200v-466q0 -112 -79 -181t-206 -69z" />
    <glyph glyph-name="Uacute" unicode="&#xda;" horiz-adv-x="650" 
d="M215 750h174l116 150h-210zM325 -16q-127 0 -206 69t-79 181v466h200v-444q0 -78 85 -78t85 78v444h200v-466q0 -112 -79 -181t-206 -69z" />
    <glyph glyph-name="Ucircumflex" unicode="&#xdb;" horiz-adv-x="650" 
d="M320 798l-45 -58h-155l106 160h188l106 -160h-155zM410 700h200v-466q0 -112 -79 -181t-206 -69t-206 69t-79 181v466h200v-444q0 -78 85 -78t85 78v444z" />
    <glyph glyph-name="Udieresis" unicode="&#xdc;" horiz-adv-x="650" 
d="M225 730q-35 0 -60 25t-25 60t25 60t60 25t60 -25t25 -60t-25 -60t-60 -25zM425 730q-35 0 -60 25t-25 60t25 60t60 25t60 -25t25 -60t-25 -60t-60 -25zM325 -16q-127 0 -206 69t-79 181v466h200v-444q0 -78 85 -78t85 78v444h200v-466q0 -112 -79 -181t-206 -69z" />
    <glyph glyph-name="Yacute" unicode="&#xdd;" horiz-adv-x="674" 
d="M517 900l-116 -150h-174l80 150h210zM674 700l-237 -434v-266h-200v266l-237 434h222l115 -246l115 246h222z" />
    <glyph glyph-name="Thorn" unicode="&#xde;" horiz-adv-x="595" 
d="M330 602q109 0 182 -68.5t73 -182.5t-73 -182.5t-182 -68.5h-80v-99h-200v700h200v-99h80zM330 294q23 0 39 15.5t16 41.5t-16 41.5t-39 15.5h-80v-114h80z" />
    <glyph glyph-name="germandbls" unicode="&#xdf;" horiz-adv-x="559" 
d="M271 -3v166q98 -13 98 38q0 32 -42.5 99.5t-42.5 91.5q0 19 17 53.5t17 60.5q0 50 -44 50q-24 0 -36.5 -16.5t-12.5 -42.5v-497h-185v488q0 109 66 168.5t174 59.5q109 0 171 -55.5t62 -127.5q0 -40 -22.5 -78t-22.5 -58q0 -23 21.5 -59t43 -84.5t21.5 -103.5
q0 -88 -66 -132t-217 -21z" />
    <glyph glyph-name="agrave" unicode="&#xe0;" horiz-adv-x="606" 
d="M403 550h-174l-116 150h210zM381 500h185v-500h-185v45q-48 -59 -134 -59q-101 0 -165 75t-64 189t64 189t165 75q86 0 134 -59v45zM292 156q40 0 64.5 27t24.5 67t-24.5 67t-64.5 27t-64.5 -27t-24.5 -67t24.5 -67t64.5 -27z" />
    <glyph glyph-name="aacute" unicode="&#xe1;" horiz-adv-x="606" 
d="M483 700l-116 -150h-174l80 150h210zM381 500h185v-500h-185v45q-48 -59 -134 -59q-101 0 -165 75t-64 189t64 189t165 75q86 0 134 -59v45zM292 156q40 0 64.5 27t24.5 67t-24.5 67t-64.5 27t-64.5 -27t-24.5 -67t24.5 -67t64.5 -27z" />
    <glyph glyph-name="acircumflex" unicode="&#xe2;" horiz-adv-x="606" 
d="M298 598l-45 -58h-155l106 160h188l106 -160h-155zM381 500h185v-500h-185v45q-48 -59 -134 -59q-101 0 -165 75t-64 189t64 189t165 75q86 0 134 -59v45zM292 156q40 0 64.5 27t24.5 67t-24.5 67t-64.5 27t-64.5 -27t-24.5 -67t24.5 -67t64.5 -27z" />
    <glyph glyph-name="atilde" unicode="&#xe3;" horiz-adv-x="606" 
d="M299 557q-5 2 -14 6.5t-13.5 6.5t-11 3.5t-9.5 -1.5t-5 -10t-2 -19h-120q0 60 17 99t45 53t58.5 14t62.5 -13q5 -2 14.5 -6.5t14 -6.5t11 -3.5t9.5 1.5t5 10t2 19h120q0 -61 -17 -100.5t-45 -53t-58.5 -13t-63.5 13.5zM381 500h185v-500h-185v45q-48 -59 -134 -59
q-101 0 -165 75t-64 189t64 189t165 75q86 0 134 -59v45zM292 156q40 0 64.5 27t24.5 67t-24.5 67t-64.5 27t-64.5 -27t-24.5 -67t24.5 -67t64.5 -27z" />
    <glyph glyph-name="adieresis" unicode="&#xe4;" horiz-adv-x="606" 
d="M203 530q-35 0 -60 25t-25 60t25 60t60 25t60 -25t25 -60t-25 -60t-60 -25zM403 530q-35 0 -60 25t-25 60t25 60t60 25t60 -25t25 -60t-25 -60t-60 -25zM381 500h185v-500h-185v45q-48 -59 -134 -59q-101 0 -165 75t-64 189t64 189t165 75q86 0 134 -59v45zM292 156
q40 0 64.5 27t24.5 67t-24.5 67t-64.5 27t-64.5 -27t-24.5 -67t24.5 -67t64.5 -27z" />
    <glyph glyph-name="aring" unicode="&#xe5;" horiz-adv-x="606" 
d="M303 530q-65 0 -107 40t-42 100t42 100t107 40q67 0 108 -39.5t41 -100.5t-41 -100.5t-108 -39.5zM303 700q-15 0 -23 -8.5t-8 -21.5t8 -21.5t23 -8.5q32 0 32 30t-32 30zM381 500h185v-500h-185v45q-48 -59 -134 -59q-101 0 -165 75t-64 189t64 189t165 75q86 0 134 -59
v45zM292 156q40 0 64.5 27t24.5 67t-24.5 67t-64.5 27t-64.5 -27t-24.5 -67t24.5 -67t64.5 -27z" />
    <glyph glyph-name="ae" unicode="&#xe6;" horiz-adv-x="922" 
d="M569 187q27 -60 105 -60q55 0 92 38l115 -93q-71 -86 -185 -86q-91 0 -150 57v-43h-165v34q-48 -48 -124 -48q-102 0 -170.5 75.5t-68.5 188.5t68.5 188.5t170.5 75.5q76 0 124 -48v34h165v-37q53 51 134 51q96 0 161.5 -75.5t65.5 -186.5q0 -33 -8 -65h-330zM564 306
h169q-17 60 -82 60q-64 0 -87 -60zM292 160q40 0 64.5 25t24.5 65t-24.5 65t-64.5 25t-64.5 -25t-24.5 -65t24.5 -65t64.5 -25z" />
    <glyph glyph-name="ccedilla" unicode="&#xe7;" horiz-adv-x="525" 
d="M285 164q52 0 74 43l156 -90q-50 -90 -151 -120v-43q53 -22 53 -77q0 -56 -61 -83t-184 -20v114q95 -7 95 14q0 15 -53 20v73q-88 22 -142 91.5t-54 163.5q0 113 76 188.5t191 75.5q74 0 135.5 -35.5t94.5 -95.5l-156 -89q-25 42 -74 42q-35 0 -58.5 -24.5t-23.5 -61.5
t23.5 -61.5t58.5 -24.5z" />
    <glyph glyph-name="egrave" unicode="&#xe8;" horiz-adv-x="560" 
d="M390 560h-174l-116 150h210zM205 187q24 -50 102 -50q46 0 85 32l121 -102q-75 -81 -212 -81q-128 0 -205.5 74.5t-77.5 187.5q0 114 75.5 190t190.5 76q114 0 187.5 -74.5t73.5 -187.5q0 -33 -8 -65h-332zM202 306h168q-17 60 -81 60q-65 0 -87 -60z" />
    <glyph glyph-name="eacute" unicode="&#xe9;" horiz-adv-x="560" 
d="M470 710l-116 -150h-174l80 150h210zM205 187q24 -50 102 -50q46 0 85 32l121 -102q-75 -81 -212 -81q-128 0 -205.5 74.5t-77.5 187.5q0 114 75.5 190t190.5 76q114 0 187.5 -74.5t73.5 -187.5q0 -33 -8 -65h-332zM202 306h168q-17 60 -81 60q-65 0 -87 -60z" />
    <glyph glyph-name="ecircumflex" unicode="&#xea;" horiz-adv-x="560" 
d="M285 608l-45 -58h-155l106 160h188l106 -160h-155zM205 187q24 -50 102 -50q46 0 85 32l121 -102q-75 -81 -212 -81q-128 0 -205.5 74.5t-77.5 187.5q0 114 75.5 190t190.5 76q114 0 187.5 -74.5t73.5 -187.5q0 -33 -8 -65h-332zM202 306h168q-17 60 -81 60
q-65 0 -87 -60z" />
    <glyph glyph-name="edieresis" unicode="&#xeb;" horiz-adv-x="560" 
d="M190 540q-35 0 -60 25t-25 60t25 60t60 25t60 -25t25 -60t-25 -60t-60 -25zM390 540q-35 0 -60 25t-25 60t25 60t60 25t60 -25t25 -60t-25 -60t-60 -25zM205 187q24 -50 102 -50q46 0 85 32l121 -102q-75 -81 -212 -81q-128 0 -205.5 74.5t-77.5 187.5q0 114 75.5 190
t190.5 76q114 0 187.5 -74.5t73.5 -187.5q0 -33 -8 -65h-332zM202 306h168q-17 60 -81 60q-65 0 -87 -60z" />
    <glyph glyph-name="igrave" unicode="&#xec;" horiz-adv-x="265" 
d="M220 550l-40 150h-210l76 -150h174zM225 0h-185v500h185v-500z" />
    <glyph glyph-name="iacute" unicode="&#xed;" horiz-adv-x="265" 
d="M40 550h174l76 150h-210zM40 0v500h185v-500h-185z" />
    <glyph glyph-name="icircumflex" unicode="&#xee;" horiz-adv-x="265" 
d="M132 593l-35 -53h-145l86 160h188l86 -160h-145zM40 0v500h185v-500h-185z" />
    <glyph glyph-name="idieresis" unicode="&#xef;" horiz-adv-x="265" 
d="M42 540q-33 0 -56.5 23.5t-23.5 56.5t23.5 56.5t56.5 23.5t56.5 -23.5t23.5 -56.5t-23.5 -56.5t-56.5 -23.5zM222 540q-33 0 -56.5 23.5t-23.5 56.5t23.5 56.5t56.5 23.5t56.5 -23.5t23.5 -56.5t-23.5 -56.5t-56.5 -23.5zM40 0v500h185v-500h-185z" />
    <glyph glyph-name="eth" unicode="&#xf0;" horiz-adv-x="562" 
d="M498 370q46 -63 46 -140q0 -110 -78.5 -178t-184.5 -68q-112 0 -187.5 67t-75.5 179q0 82 55 147t138 82l-25 36l-121 -38v140l39 12l-64 91h212l27 -36l143 45v-140l-59 -18zM281 149q35 0 56.5 20t21.5 57q0 24 -14 44q-24 29 -64 29q-35 0 -56.5 -19.5t-21.5 -53.5
q0 -37 21.5 -57t56.5 -20z" />
    <glyph glyph-name="ntilde" unicode="&#xf1;" 
d="M291 567q-5 2 -14 6.5t-13.5 6.5t-11 3.5t-9.5 -1.5t-5 -10t-2 -19h-120q0 60 17 99t45 53t58.5 14t62.5 -13q5 -2 14.5 -6.5t14 -6.5t11 -3.5t9.5 1.5t5 10t2 19h120q0 -61 -17 -100.5t-45 -53t-58.5 -13t-63.5 13.5zM359 514q82 0 131.5 -56.5t49.5 -168.5v-289h-185
v269q0 67 -62 67q-33 0 -50.5 -21t-17.5 -58v-257h-185v500h185v-49q46 63 134 63z" />
    <glyph glyph-name="ograve" unicode="&#xf2;" horiz-adv-x="574" 
d="M387 560l-80 150h-210l116 -150h174zM287 -14q-112 0 -190.5 76t-78.5 188t78 188t191 76t191 -76t78 -188t-78 -188t-191 -76zM287 162q37 0 60.5 24.5t23.5 63.5t-23.5 63.5t-60.5 24.5t-60.5 -24.5t-23.5 -63.5t23.5 -63.5t60.5 -24.5z" />
    <glyph glyph-name="oacute" unicode="&#xf3;" horiz-adv-x="574" 
d="M177 560h174l116 150h-210zM287 -14q-112 0 -190.5 76t-78.5 188t78 188t191 76t191 -76t78 -188t-78 -188t-191 -76zM287 162q37 0 60.5 24.5t23.5 63.5t-23.5 63.5t-60.5 24.5t-60.5 -24.5t-23.5 -63.5t23.5 -63.5t60.5 -24.5z" />
    <glyph glyph-name="ocircumflex" unicode="&#xf4;" horiz-adv-x="574" 
d="M282 608l-45 -58h-155l106 160h188l106 -160h-155zM287 514q113 0 191 -76t78 -188t-78 -188t-191 -76q-112 0 -190.5 76t-78.5 188t78 188t191 76zM287 162q37 0 60.5 24.5t23.5 63.5t-23.5 63.5t-60.5 24.5t-60.5 -24.5t-23.5 -63.5t23.5 -63.5t60.5 -24.5z" />
    <glyph glyph-name="otilde" unicode="&#xf5;" horiz-adv-x="574" 
d="M108 553q0 60 17 99t45 53t58.5 14t62.5 -13q5 -2 14.5 -6.5t14 -6.5t11 -3.5t9.5 1.5t5 10t2 19h120q0 -61 -17 -100.5t-45 -53t-58.5 -13t-63.5 13.5q-5 2 -14 6.5t-13.5 6.5t-11 3.5t-9.5 -1.5t-5 -10t-2 -19h-120zM287 -14q-112 0 -190.5 76t-78.5 188t78 188t191 76
t191 -76t78 -188t-78 -188t-191 -76zM287 162q37 0 60.5 24.5t23.5 63.5t-23.5 63.5t-60.5 24.5t-60.5 -24.5t-23.5 -63.5t23.5 -63.5t60.5 -24.5z" />
    <glyph glyph-name="odieresis" unicode="&#xf6;" horiz-adv-x="574" 
d="M187 540q-35 0 -60 25t-25 60t25 60t60 25t60 -25t25 -60t-25 -60t-60 -25zM387 540q-35 0 -60 25t-25 60t25 60t60 25t60 -25t25 -60t-25 -60t-60 -25zM287 -14q-112 0 -190.5 76t-78.5 188t78 188t191 76t191 -76t78 -188t-78 -188t-191 -76zM287 162q37 0 60.5 24.5
t23.5 63.5t-23.5 63.5t-60.5 24.5t-60.5 -24.5t-23.5 -63.5t23.5 -63.5t60.5 -24.5z" />
    <glyph glyph-name="divide" unicode="&#xf7;" horiz-adv-x="540" 
d="M270 462q-43 0 -71.5 28.5t-28.5 71.5t28.5 71.5t71.5 28.5t71.5 -28.5t28.5 -71.5t-28.5 -71.5t-71.5 -28.5zM30 260v180h480v-180h-480zM270 38q-43 0 -71.5 28.5t-28.5 71.5t28.5 71.5t71.5 28.5t71.5 -28.5t28.5 -71.5t-28.5 -71.5t-71.5 -28.5z" />
    <glyph glyph-name="oslash" unicode="&#xf8;" horiz-adv-x="574" 
d="M482 434q74 -76 74 -184q0 -112 -78 -188t-191 -76q-74 0 -140 37l-30 -37l-61 34l37 46q-75 77 -75 184q0 112 78 188t191 76q75 0 141 -37l30 37l61 -35zM203 250q0 -21 8 -40l101 125q-12 3 -25 3q-37 0 -60.5 -24.5t-23.5 -63.5zM287 162q37 0 60.5 24.5t23.5 63.5
q0 19 -7 38l-101 -123q12 -3 24 -3z" />
    <glyph glyph-name="ugrave" unicode="&#xf9;" 
d="M385 550h-174l-116 150h210zM350 500h185v-500h-185v49q-46 -63 -134 -63q-82 0 -131.5 56.5t-49.5 168.5v289h185v-269q0 -67 62 -67q33 0 50.5 21t17.5 58v257z" />
    <glyph glyph-name="uacute" unicode="&#xfa;" 
d="M465 700l-116 -150h-174l80 150h210zM350 500h185v-500h-185v49q-46 -63 -134 -63q-82 0 -131.5 56.5t-49.5 168.5v289h185v-269q0 -67 62 -67q33 0 50.5 21t17.5 58v257z" />
    <glyph glyph-name="ucircumflex" unicode="&#xfb;" 
d="M280 598l-45 -58h-155l106 160h188l106 -160h-155zM350 500h185v-500h-185v49q-46 -63 -134 -63q-82 0 -131.5 56.5t-49.5 168.5v289h185v-269q0 -67 62 -67q33 0 50.5 21t17.5 58v257z" />
    <glyph glyph-name="udieresis" unicode="&#xfc;" 
d="M185 530q-35 0 -60 25t-25 60t25 60t60 25t60 -25t25 -60t-25 -60t-60 -25zM385 530q-35 0 -60 25t-25 60t25 60t60 25t60 -25t25 -60t-25 -60t-60 -25zM350 500h185v-500h-185v49q-46 -63 -134 -63q-82 0 -131.5 56.5t-49.5 168.5v289h185v-269q0 -67 62 -67
q33 0 50.5 21t17.5 58v257z" />
    <glyph glyph-name="yacute" unicode="&#xfd;" horiz-adv-x="570" 
d="M471 700l-116 -150h-174l80 150h210zM360 500h210l-170 -499q-37 -109 -115 -157.5t-206 -43.5v175q51 0 78 7.5t43 27.5l-200 490h210l89 -267z" />
    <glyph glyph-name="thorn" unicode="&#xfe;" horiz-adv-x="606" 
d="M359 514q101 0 165 -75t64 -189t-64 -189t-165 -75q-86 0 -134 59v-245h-185v900h185v-245q48 59 134 59zM314 156q40 0 64.5 27t24.5 67t-24.5 67t-64.5 27t-64.5 -27t-24.5 -67t24.5 -67t64.5 -27z" />
    <glyph glyph-name="ydieresis" unicode="&#xff;" horiz-adv-x="570" 
d="M191 530q-35 0 -60 25t-25 60t25 60t60 25t60 -25t25 -60t-25 -60t-60 -25zM391 530q-35 0 -60 25t-25 60t25 60t60 25t60 -25t25 -60t-25 -60t-60 -25zM360 500h210l-170 -499q-37 -109 -115 -157.5t-206 -43.5v175q51 0 78 7.5t43 27.5l-200 490h210l89 -267z" />
    <glyph glyph-name="Amacron" unicode="&#x100;" horiz-adv-x="660" 
d="M490 889v-140h-320v140h320zM455 0l-24 90h-202l-24 -90h-215l223 700h234l223 -700h-215zM272 250h116l-58 215z" />
    <glyph glyph-name="amacron" unicode="&#x101;" horiz-adv-x="606" 
d="M463 689v-140h-320v140h320zM381 500h185v-500h-185v45q-48 -59 -134 -59q-101 0 -165 75t-64 189t64 189t165 75q86 0 134 -59v45zM292 156q40 0 64.5 27t24.5 67t-24.5 67t-64.5 27t-64.5 -27t-24.5 -67t24.5 -67t64.5 -27z" />
    <glyph glyph-name="Abreve" unicode="&#x102;" horiz-adv-x="660" 
d="M330 732q-89 0 -137 43t-48 127h150q0 -40 35 -40t35 40h150q0 -84 -48 -127t-137 -43zM455 0l-24 90h-202l-24 -90h-215l223 700h234l223 -700h-215zM272 250h116l-58 215z" />
    <glyph glyph-name="abreve" unicode="&#x103;" horiz-adv-x="606" 
d="M303 532q-89 0 -137 43t-48 127h150q0 -40 35 -40t35 40h150q0 -84 -48 -127t-137 -43zM381 500h185v-500h-185v45q-48 -59 -134 -59q-101 0 -165 75t-64 189t64 189t165 75q86 0 134 -59v45zM292 156q40 0 64.5 27t24.5 67t-24.5 67t-64.5 27t-64.5 -27t-24.5 -67
t24.5 -67t64.5 -27z" />
    <glyph glyph-name="Aogonek" unicode="&#x104;" horiz-adv-x="660" 
d="M630 -71q0 -19 21 -19q10 0 19 3v-110q-42 -17 -88 -17q-48 0 -79 23t-31 68q0 61 59 123h-76l-24 90h-202l-24 -90h-215l223 700h234l223 -700q-40 -41 -40 -71zM272 250h116l-58 215z" />
    <glyph glyph-name="aogonek" unicode="&#x105;" horiz-adv-x="606" 
d="M566 500v-500q-40 -41 -40 -71q0 -19 21 -19q10 0 19 3v-110q-42 -17 -88 -17q-48 0 -79 23t-31 68q0 61 59 123h-46v45q-48 -59 -134 -59q-101 0 -165 75t-64 189t64 189t165 75q86 0 134 -59v45h185zM292 156q40 0 64.5 27t24.5 67t-24.5 67t-64.5 27t-64.5 -27
t-24.5 -67t24.5 -67t64.5 -27z" />
    <glyph glyph-name="Cacute" unicode="&#x106;" horiz-adv-x="718" 
d="M281 760h174l116 150h-210zM391 -16q-158 0 -262 105t-104 261t104 261t262 105q97 0 179 -46t128 -124l-174 -100q-17 34 -53 54t-80 20q-74 0 -120 -48t-46 -122t46 -122t120 -48q45 0 80.5 20t52.5 55l174 -100q-46 -79 -128 -125t-179 -46z" />
    <glyph glyph-name="cacute" unicode="&#x107;" horiz-adv-x="525" 
d="M174 560h174l116 150h-210zM285 -14q-115 0 -191 75.5t-76 188.5t76 188.5t191 75.5q74 0 135.5 -35.5t94.5 -95.5l-156 -89q-25 42 -74 42q-35 0 -58.5 -24.5t-23.5 -61.5t23.5 -61.5t58.5 -24.5q52 0 74 43l156 -90q-33 -61 -94.5 -96t-135.5 -35z" />
    <glyph glyph-name="Cdotaccent" unicode="&#x10a;" horiz-adv-x="718" 
d="M391 750q-39 0 -67 28t-28 67t28 67t67 28t67 -28t28 -67t-28 -67t-67 -28zM391 -16q-158 0 -262 105t-104 261t104 261t262 105q97 0 179 -46t128 -124l-174 -100q-17 34 -53 54t-80 20q-74 0 -120 -48t-46 -122t46 -122t120 -48q45 0 80.5 20t52.5 55l174 -100
q-46 -79 -128 -125t-179 -46z" />
    <glyph glyph-name="cdotaccent" unicode="&#x10b;" horiz-adv-x="525" 
d="M284 550q-39 0 -67 28t-28 67t28 67t67 28t67 -28t28 -67t-28 -67t-67 -28zM285 -14q-115 0 -191 75.5t-76 188.5t76 188.5t191 75.5q74 0 135.5 -35.5t94.5 -95.5l-156 -89q-25 42 -74 42q-35 0 -58.5 -24.5t-23.5 -61.5t23.5 -61.5t58.5 -24.5q52 0 74 43l156 -90
q-33 -61 -94.5 -96t-135.5 -35z" />
    <glyph glyph-name="Ccaron" unicode="&#x10c;" horiz-adv-x="718" 
d="M292 750l-106 160h155l45 -58l45 58h155l-106 -160h-188zM391 180q45 0 80.5 20t52.5 55l174 -100q-46 -79 -128 -125t-179 -46q-158 0 -262 105t-104 261t104 261t262 105q97 0 179 -46t128 -124l-174 -100q-17 34 -53 54t-80 20q-74 0 -120 -48t-46 -122t46 -122
t120 -48z" />
    <glyph glyph-name="ccaron" unicode="&#x10d;" horiz-adv-x="525" 
d="M185 550l-106 160h155l45 -58l45 58h155l-106 -160h-188zM285 164q52 0 74 43l156 -90q-33 -61 -94.5 -96t-135.5 -35q-115 0 -191 75.5t-76 188.5t76 188.5t191 75.5q74 0 135.5 -35.5t94.5 -95.5l-156 -89q-25 42 -74 42q-35 0 -58.5 -24.5t-23.5 -61.5t23.5 -61.5
t58.5 -24.5z" />
    <glyph glyph-name="Dcaron" unicode="&#x10e;" horiz-adv-x="705" 
d="M231 740l-106 160h155l45 -58l45 58h155l-106 -160h-188zM340 700q145 0 242.5 -100.5t97.5 -249.5t-97.5 -249.5t-242.5 -100.5h-290v700h290zM340 194q61 0 100.5 43.5t39.5 112.5t-39.5 112.5t-100.5 43.5h-80v-312h80z" />
    <glyph glyph-name="dcaron" unicode="&#x10f;" horiz-adv-x="766" 
d="M381 455v245h185v-700h-185v45q-48 -59 -134 -59q-101 0 -165 75t-64 189t64 189t165 75q86 0 134 -59zM616 700h170l-40 -230h-140zM292 156q40 0 64.5 27t24.5 67t-24.5 67t-64.5 27t-64.5 -27t-24.5 -67t24.5 -67t64.5 -27z" />
    <glyph glyph-name="Dcroat" unicode="&#x110;" horiz-adv-x="725" 
d="M360 700q145 0 242.5 -100.5t97.5 -249.5t-97.5 -249.5t-242.5 -100.5h-290v258h-70v174h70v268h290zM360 194q61 0 100.5 43.5t39.5 112.5t-39.5 112.5t-100.5 43.5h-80v-74h120v-174h-120v-64h80z" />
    <glyph glyph-name="dcroat" unicode="&#x111;" horiz-adv-x="621" 
d="M621 645v-119h-55v-526h-185v33q-49 -47 -124 -47q-101 0 -170 74t-69 180t69 180t170 74q75 0 124 -47v79h-130v119h130v55h185v-55h55zM292 151q39 0 64 26t25 63t-25 63t-64 26t-64 -26t-25 -63t25 -63t64 -26z" />
    <glyph glyph-name="Emacron" unicode="&#x112;" horiz-adv-x="540" 
d="M438 889v-140h-320v140h320zM250 184h260v-184h-460v700h455v-182h-255v-76h230v-180h-230v-78z" />
    <glyph glyph-name="emacron" unicode="&#x113;" horiz-adv-x="560" 
d="M450 699v-140h-320v140h320zM205 187q24 -50 102 -50q46 0 85 32l121 -102q-75 -81 -212 -81q-128 0 -205.5 74.5t-77.5 187.5q0 114 75.5 190t190.5 76q114 0 187.5 -74.5t73.5 -187.5q0 -33 -8 -65h-332zM202 306h168q-17 60 -81 60q-65 0 -87 -60z" />
    <glyph glyph-name="Edotaccent" unicode="&#x116;" horiz-adv-x="540" 
d="M278 740q-39 0 -67 28t-28 67t28 67t67 28t67 -28t28 -67t-28 -67t-67 -28zM250 184h260v-184h-460v700h455v-182h-255v-76h230v-180h-230v-78z" />
    <glyph glyph-name="edotaccent" unicode="&#x117;" horiz-adv-x="560" 
d="M290 550q-39 0 -67 28t-28 67t28 67t67 28t67 -28t28 -67t-28 -67t-67 -28zM205 187q24 -50 102 -50q46 0 85 32l121 -102q-75 -81 -212 -81q-128 0 -205.5 74.5t-77.5 187.5q0 114 75.5 190t190.5 76q114 0 187.5 -74.5t73.5 -187.5q0 -33 -8 -65h-332zM202 306h168
q-17 60 -81 60q-65 0 -87 -60z" />
    <glyph glyph-name="Eogonek" unicode="&#x118;" horiz-adv-x="540" 
d="M510 184v-184q-40 -41 -40 -71q0 -19 21 -19q10 0 19 3v-110q-42 -17 -88 -17q-48 0 -79 23t-31 68q0 61 59 123h-321v700h455v-182h-255v-76h230v-180h-230v-78h260z" />
    <glyph glyph-name="eogonek" unicode="&#x119;" horiz-adv-x="560" 
d="M205 187q24 -50 102 -50q46 0 85 32l113 -96l8 4l-5 -6l5 -4q-16 -16 -25 -23q-68 -91 -68 -115q0 -19 21 -19q10 0 19 3v-110q-42 -17 -88 -17q-48 0 -79 23t-31 68q0 55 72 110q-11 -1 -33 -1q-128 0 -205.5 74.5t-77.5 187.5q0 114 75.5 190t190.5 76
q114 0 187.5 -74.5t73.5 -187.5q0 -33 -8 -65h-332zM202 306h168q-17 60 -81 60q-65 0 -87 -60z" />
    <glyph glyph-name="Ecaron" unicode="&#x11a;" horiz-adv-x="540" 
d="M179 740l-106 160h155l45 -58l45 58h155l-106 -160h-188zM250 184h260v-184h-460v700h455v-182h-255v-76h230v-180h-230v-78z" />
    <glyph glyph-name="ecaron" unicode="&#x11b;" horiz-adv-x="560" 
d="M191 550l-106 160h155l45 -58l45 58h155l-106 -160h-188zM205 187q24 -50 102 -50q46 0 85 32l121 -102q-75 -81 -212 -81q-128 0 -205.5 74.5t-77.5 187.5q0 114 75.5 190t190.5 76q114 0 187.5 -74.5t73.5 -187.5q0 -33 -8 -65h-332zM202 306h168q-17 60 -81 60
q-65 0 -87 -60z" />
    <glyph glyph-name="Gbreve" unicode="&#x11e;" horiz-adv-x="772" 
d="M391 742q-89 0 -137 43t-48 127h150q0 -40 35 -40t35 40h150q0 -84 -48 -127t-137 -43zM747 413v-83q0 -150 -96.5 -248t-253.5 -98q-164 0 -268 104.5t-104 260.5t104 261.5t260 105.5q98 0 179.5 -44t128.5 -119l-170 -97q-42 64 -134 64q-75 0 -121.5 -48t-46.5 -124
q0 -72 43 -125.5t133 -53.5q104 0 139 74h-149v170h356z" />
    <glyph glyph-name="gbreve" unicode="&#x11f;" horiz-adv-x="613" 
d="M309 542q-89 0 -137 43t-48 127h150q0 -40 35 -40t35 40h150q0 -84 -48 -127t-137 -43zM388 500h185v-485q0 -60 -22.5 -106t-60.5 -72.5t-83.5 -39.5t-95.5 -13q-88 0 -156 32t-101 90l150 87q36 -49 97 -49q35 0 61 17.5t26 53.5v50q-48 -59 -134 -59q-100 0 -164.5 73
t-64.5 181t64.5 181t164.5 73q86 0 134 -59v45zM299 170q40 0 64.5 26t24.5 64t-24.5 64t-64.5 26t-64.5 -26t-24.5 -64t24.5 -64t64.5 -26z" />
    <glyph glyph-name="Gdotaccent" unicode="&#x120;" horiz-adv-x="772" 
d="M391 750q-39 0 -67 28t-28 67t28 67t67 28t67 -28t28 -67t-28 -67t-67 -28zM747 413v-83q0 -150 -96.5 -248t-253.5 -98q-164 0 -268 104.5t-104 260.5t104 261.5t260 105.5q98 0 179.5 -44t128.5 -119l-170 -97q-42 64 -134 64q-75 0 -121.5 -48t-46.5 -124
q0 -72 43 -125.5t133 -53.5q104 0 139 74h-149v170h356z" />
    <glyph glyph-name="gdotaccent" unicode="&#x121;" horiz-adv-x="613" 
d="M309 550q-39 0 -67 28t-28 67t28 67t67 28t67 -28t28 -67t-28 -67t-67 -28zM388 500h185v-485q0 -60 -22.5 -106t-60.5 -72.5t-83.5 -39.5t-95.5 -13q-88 0 -156 32t-101 90l150 87q36 -49 97 -49q35 0 61 17.5t26 53.5v50q-48 -59 -134 -59q-100 0 -164.5 73t-64.5 181
t64.5 181t164.5 73q86 0 134 -59v45zM299 170q40 0 64.5 26t24.5 64t-24.5 64t-64.5 26t-64.5 -26t-24.5 -64t24.5 -64t64.5 -26z" />
    <glyph glyph-name="Gcommaaccent" unicode="&#x122;" horiz-adv-x="772" 
d="M747 413v-83q0 -150 -96.5 -248t-253.5 -98q-164 0 -268 104.5t-104 260.5t104 261.5t260 105.5q98 0 179.5 -44t128.5 -119l-170 -97q-42 64 -134 64q-75 0 -121.5 -48t-46.5 -124q0 -72 43 -125.5t133 -53.5q104 0 139 74h-149v170h356zM310 -284l10 230h170l-40 -230
h-140z" />
    <glyph glyph-name="gcommaaccent" unicode="&#x123;" horiz-adv-x="613" 
d="M386 800l-10 -230h-170l40 230h140zM388 500h185v-485q0 -60 -22.5 -106t-60.5 -72.5t-83.5 -39.5t-95.5 -13q-88 0 -156 32t-101 90l150 87q36 -49 97 -49q35 0 61 17.5t26 53.5v50q-48 -59 -134 -59q-100 0 -164.5 73t-64.5 181t64.5 181t164.5 73q86 0 134 -59v45z
M299 170q40 0 64.5 26t24.5 64t-24.5 64t-64.5 26t-64.5 -26t-24.5 -64t24.5 -64t64.5 -26z" />
    <glyph glyph-name="Hbar" unicode="&#x126;" horiz-adv-x="710" 
d="M700 603v-146h-60v-457h-200v183h-170v-183h-200v457h-60v146h60v97h200v-97h170v97h200v-97h60zM440 377v80h-170v-80h170z" />
    <glyph glyph-name="hbar" unicode="&#x127;" horiz-adv-x="590" 
d="M374 489q82 0 131.5 -56.5t49.5 -168.5v-264h-185v244q0 67 -62 67q-33 0 -50.5 -21t-17.5 -58v-232h-185v526h-55v119h55v55h185v-55h130v-119h-130v-100q46 63 134 63z" />
    <glyph glyph-name="Imacron" unicode="&#x12a;" horiz-adv-x="300" 
d="M-10 749v140h320v-140h-320zM50 700h200v-700h-200v700z" />
    <glyph glyph-name="imacron" unicode="&#x12b;" horiz-adv-x="265" 
d="M-7 549v140h280v-140h-280zM40 0v500h185v-500h-185z" />
    <glyph glyph-name="Iogonek" unicode="&#x12e;" horiz-adv-x="300" 
d="M250 700v-700q-40 -41 -40 -71q0 -19 21 -19q10 0 19 3v-110q-42 -17 -88 -17q-48 0 -79 23t-31 68q0 61 59 123h-61v700h200z" />
    <glyph glyph-name="iogonek" unicode="&#x12f;" horiz-adv-x="265" 
d="M133 538q-42 0 -72.5 30.5t-30.5 71.5t30.5 71.5t72.5 30.5q41 0 71.5 -30.5t30.5 -71.5t-30.5 -71.5t-71.5 -30.5zM193 -71q0 -19 21 -19q10 0 19 3v-110q-42 -17 -88 -17q-48 0 -79 23t-31 68q0 64 41 123h-36v500h185v-500q-32 -40 -32 -71z" />
    <glyph glyph-name="Idotaccent" unicode="&#x130;" horiz-adv-x="300" 
d="M150 740q-39 0 -67 28t-28 67t28 67t67 28t67 -28t28 -67t-28 -67t-67 -28zM50 700h200v-700h-200v700z" />
    <glyph glyph-name="dotlessi" unicode="&#x131;" horiz-adv-x="265" 
d="M40 0v500h185v-500h-185z" />
    <glyph glyph-name="Kcommaaccent" unicode="&#x136;" horiz-adv-x="636" 
d="M428 360l218 -360h-222l-174 300v-300h-200v700h200v-280l164 280h222zM226 -284l10 230h170l-40 -230h-140z" />
    <glyph glyph-name="kcommaaccent" unicode="&#x137;" horiz-adv-x="550" 
d="M225 200v-200h-185v700h185v-394l105 194h210l-152 -250l162 -250h-205zM194 -284l10 230h170l-40 -230h-140z" />
    <glyph glyph-name="Lacute" unicode="&#x139;" horiz-adv-x="490" 
d="M332 900l-116 -150h-174l80 150h210zM250 194h230v-194h-430v700h200v-506z" />
    <glyph glyph-name="lacute" unicode="&#x13a;" horiz-adv-x="265" 
d="M40 760h174l116 150h-210zM40 0v730h185v-730h-185z" />
    <glyph glyph-name="Lcommaaccent" unicode="&#x13b;" horiz-adv-x="490" 
d="M250 194h230v-194h-430v700h200v-506zM174 -284l10 230h170l-40 -230h-140z" />
    <glyph glyph-name="lcommaaccent" unicode="&#x13c;" horiz-adv-x="265" 
d="M40 0v730h185v-730h-185zM175 -284l40 230h-170l-10 -230h140z" />
    <glyph glyph-name="Lcaron" unicode="&#x13d;" horiz-adv-x="490" 
d="M250 700v-506h230v-194h-430v700h200zM480 700l-39 -210h-150l10 210h179z" />
    <glyph glyph-name="lcaron" unicode="&#x13e;" horiz-adv-x="421" 
d="M40 0v730h185v-730h-185zM401 500l40 230h-170l-10 -230h140z" />
    <glyph glyph-name="Lslash" unicode="&#x141;" horiz-adv-x="510" 
d="M270 194h230v-194h-430v197l-60 -34v193l60 34v310h200v-198l120 67v-193l-120 -67v-115z" />
    <glyph glyph-name="lslash" unicode="&#x142;" horiz-adv-x="290" 
d="M290 515v-173l-52 -31v-311h-185v202l-53 -31v173l53 31v355h185v-246z" />
    <glyph glyph-name="Nacute" unicode="&#x143;" horiz-adv-x="680" 
d="M215 750h174l116 150h-210zM430 700h200v-700h-160l-220 320v-320h-200v700h160l220 -320v320z" />
    <glyph glyph-name="nacute" unicode="&#x144;" 
d="M475 710l-116 -150h-174l80 150h210zM359 514q82 0 131.5 -56.5t49.5 -168.5v-289h-185v269q0 67 -62 67q-33 0 -50.5 -21t-17.5 -58v-257h-185v500h185v-49q46 63 134 63z" />
    <glyph glyph-name="Ncommaaccent" unicode="&#x145;" horiz-adv-x="680" 
d="M430 700h200v-700h-160l-220 320v-320h-200v700h160l220 -320v320zM404 -284l40 230h-170l-10 -230h140z" />
    <glyph glyph-name="ncommaaccent" unicode="&#x146;" 
d="M359 514q82 0 131.5 -56.5t49.5 -168.5v-289h-185v269q0 67 -62 67q-33 0 -50.5 -21t-17.5 -58v-257h-185v500h185v-49q46 63 134 63zM207 -284l10 230h170l-40 -230h-140z" />
    <glyph glyph-name="Ncaron" unicode="&#x147;" horiz-adv-x="680" 
d="M226 740l-106 160h155l45 -58l45 58h155l-106 -160h-188zM430 700h200v-700h-160l-220 320v-320h-200v700h160l220 -320v320z" />
    <glyph glyph-name="ncaron" unicode="&#x148;" 
d="M196 550l-106 160h155l45 -58l45 58h155l-106 -160h-188zM359 514q82 0 131.5 -56.5t49.5 -168.5v-289h-185v269q0 67 -62 67q-33 0 -50.5 -21t-17.5 -58v-257h-185v500h185v-49q46 63 134 63z" />
    <glyph glyph-name="Eng" unicode="&#x14a;" horiz-adv-x="680" 
d="M430 700h200v-700q0 -118 -60.5 -170.5t-189.5 -45.5v166q65 -6 65 50v36l-195 284v-320h-200v700h160l220 -320v320z" />
    <glyph glyph-name="eng" unicode="&#x14b;" 
d="M359 514q82 0 131.5 -56.5t49.5 -168.5v-289q0 -114 -55.5 -163t-174.5 -40v157q22 -1 33.5 9.5t11.5 36.5v269q0 67 -62 67q-33 0 -50.5 -21t-17.5 -58v-257h-185v500h185v-49q46 63 134 63z" />
    <glyph glyph-name="Omacron" unicode="&#x14c;" horiz-adv-x="792" 
d="M236 759v140h320v-140h-320zM396 -16q-156 0 -263.5 105.5t-107.5 260.5t107.5 260.5t263.5 105.5t263.5 -105.5t107.5 -260.5t-107.5 -260.5t-263.5 -105.5zM396 180q74 0 122.5 48.5t48.5 121.5t-48.5 121.5t-122.5 48.5t-122.5 -48.5t-48.5 -121.5t48.5 -121.5
t122.5 -48.5z" />
    <glyph glyph-name="omacron" unicode="&#x14d;" horiz-adv-x="574" 
d="M127 559v140h320v-140h-320zM287 -14q-112 0 -190.5 76t-78.5 188t78 188t191 76t191 -76t78 -188t-78 -188t-191 -76zM287 162q37 0 60.5 24.5t23.5 63.5t-23.5 63.5t-60.5 24.5t-60.5 -24.5t-23.5 -63.5t23.5 -63.5t60.5 -24.5z" />
    <glyph glyph-name="Ohungarumlaut" unicode="&#x150;" horiz-adv-x="792" 
d="M186 750h168l86 160h-174zM389 750h168l96 160h-174zM396 -16q-156 0 -263.5 105.5t-107.5 260.5t107.5 260.5t263.5 105.5t263.5 -105.5t107.5 -260.5t-107.5 -260.5t-263.5 -105.5zM396 180q74 0 122.5 48.5t48.5 121.5t-48.5 121.5t-122.5 48.5t-122.5 -48.5
t-48.5 -121.5t48.5 -121.5t122.5 -48.5z" />
    <glyph glyph-name="ohungarumlaut" unicode="&#x151;" horiz-adv-x="574" 
d="M77 550h168l86 160h-174zM280 550h168l96 160h-174zM287 -14q-112 0 -190.5 76t-78.5 188t78 188t191 76t191 -76t78 -188t-78 -188t-191 -76zM287 162q37 0 60.5 24.5t23.5 63.5t-23.5 63.5t-60.5 24.5t-60.5 -24.5t-23.5 -63.5t23.5 -63.5t60.5 -24.5z" />
    <glyph glyph-name="OE" unicode="&#x152;" horiz-adv-x="955" 
d="M705 184h220v-184h-420q-51 -16 -109 -16q-156 0 -263.5 105.5t-107.5 260.5t107.5 260.5t263.5 105.5q58 0 109 -16h415v-182h-215v-76h190v-180h-190v-78zM505 201v298q-47 21 -109 21q-74 0 -122.5 -48.5t-48.5 -121.5t48.5 -121.5t122.5 -48.5q62 0 109 21z" />
    <glyph glyph-name="oe" unicode="&#x153;" horiz-adv-x="910" 
d="M555 187q24 -50 102 -50q46 0 85 32l121 -102q-75 -81 -212 -81q-116 0 -187 79q-68 -79 -187 -79q-115 0 -187 79t-72 183q0 106 71.5 186t187.5 80q119 0 187 -79q73 79 190 79q103 0 172 -75t69 -187q0 -33 -8 -65h-332zM552 306h168q-17 60 -81 60q-65 0 -87 -60z
M287 162q37 0 60.5 24.5t23.5 63.5t-23.5 63.5t-60.5 24.5t-60.5 -24.5t-23.5 -63.5t23.5 -63.5t60.5 -24.5z" />
    <glyph glyph-name="Racute" unicode="&#x154;" horiz-adv-x="625" 
d="M470 900l-116 -150h-174l80 150h210zM411 0l-111 220h-50v-220h-200v700h280q115 0 190 -67.5t75 -178.5q0 -62 -28.5 -112t-79.5 -81l138 -261h-214zM250 516v-130h76q32 -1 50.5 16t18.5 48t-18.5 48.5t-50.5 17.5h-76z" />
    <glyph glyph-name="racute" unicode="&#x155;" horiz-adv-x="390" 
d="M372 700l-116 -150h-174l80 150h210zM225 403q14 51 55 79t95 28v-200q-60 8 -105 -23.5t-45 -100.5v-186h-185v500h185v-97z" />
    <glyph glyph-name="Rcommaaccent" unicode="&#x156;" horiz-adv-x="625" 
d="M250 220v-220h-200v700h280q115 0 190 -67.5t75 -178.5q0 -62 -28.5 -112t-79.5 -81l138 -261h-214l-111 220h-50zM326 516h-76v-130h76q32 -1 50.5 16t18.5 48t-18.5 48.5t-50.5 17.5zM234 -284l10 230h170l-40 -230h-140z" />
    <glyph glyph-name="rcommaaccent" unicode="&#x157;" horiz-adv-x="390" 
d="M225 403q14 51 55 79t95 28v-200q-60 8 -105 -23.5t-45 -100.5v-186h-185v500h185v-97zM32 -284l10 230h170l-40 -230h-140z" />
    <glyph glyph-name="Rcaron" unicode="&#x158;" horiz-adv-x="625" 
d="M191 740l-106 160h155l45 -58l45 58h155l-106 -160h-188zM411 0l-111 220h-50v-220h-200v700h280q115 0 190 -67.5t75 -178.5q0 -62 -28.5 -112t-79.5 -81l138 -261h-214zM250 516v-130h76q32 -1 50.5 16t18.5 48t-18.5 48.5t-50.5 17.5h-76z" />
    <glyph glyph-name="rcaron" unicode="&#x159;" horiz-adv-x="390" 
d="M93 540l-106 160h155l45 -58l45 58h155l-106 -160h-188zM225 403q14 51 55 79t95 28v-200q-60 8 -105 -23.5t-45 -100.5v-186h-185v500h185v-97z" />
    <glyph glyph-name="Sacute" unicode="&#x15a;" horiz-adv-x="585" 
d="M176 760h174l116 150h-210zM302 -16q-114 0 -190 47.5t-102 128.5l171 99q35 -89 126 -89q68 0 68 36q0 10 -5 18t-19 14t-24.5 9.5t-36.5 10.5t-39 11q-209 63 -209 225q0 96 69.5 159t182.5 63q89 0 159.5 -42t103.5 -121l-166 -97q-29 74 -96 74q-26 0 -39.5 -10.5
t-13.5 -26.5q0 -22 23.5 -34t90.5 -31q50 -15 82 -28.5t67 -38t52.5 -63t17.5 -90.5q0 -107 -73.5 -165.5t-199.5 -58.5z" />
    <glyph glyph-name="sacute" unicode="&#x15b;" horiz-adv-x="484" 
d="M419 710l-116 -150h-174l80 150h210zM219 353q0 -12 18.5 -19t46.5 -10.5t60 -13.5t60 -25t46.5 -47.5t18.5 -78.5q0 -48 -21.5 -84t-56.5 -54t-71.5 -26.5t-75.5 -8.5q-181 0 -234 119l161 72q19 -51 71 -51q34 0 34 22q0 13 -25 21t-60 16.5t-70.5 23t-60.5 48.5
t-25 85q0 82 62.5 127t144.5 45q164 0 217 -127l-153 -55q-18 42 -56 42q-31 0 -31 -21z" />
    <glyph glyph-name="Scedilla" unicode="&#x15e;" horiz-adv-x="585" 
d="M575 208q0 -89 -51 -144.5t-143 -72.5v-37q53 -22 53 -77q0 -56 -61 -83t-184 -20v114q95 -7 95 14q0 15 -53 20v67q-85 14 -142 59t-79 112l171 99q35 -89 126 -89q68 0 68 36q0 10 -5 18t-19 14t-24.5 9.5t-36.5 10.5t-39 11q-209 63 -209 225q0 96 69.5 159t182.5 63
q89 0 159.5 -42t103.5 -121l-166 -97q-29 74 -96 74q-26 0 -39.5 -10.5t-13.5 -26.5q0 -22 23.5 -34t90.5 -31q50 -15 82 -28.5t67 -38t52.5 -63t17.5 -90.5z" />
    <glyph glyph-name="scedilla" unicode="&#x15f;" horiz-adv-x="484" 
d="M469 159q0 -126 -138 -162v-43q53 -22 53 -77q0 -56 -61 -83t-184 -20v114q95 -7 95 14q0 15 -53 20v68q-127 16 -171 115l161 72q19 -51 71 -51q34 0 34 22q0 13 -25 21t-60 16.5t-70.5 23t-60.5 48.5t-25 85q0 82 62.5 127t144.5 45q164 0 217 -127l-153 -55
q-18 42 -56 42q-31 0 -31 -21q0 -12 18.5 -19t46.5 -10.5t60 -13.5t60 -25t46.5 -47.5t18.5 -78.5z" />
    <glyph glyph-name="Scaron" unicode="&#x160;" horiz-adv-x="585" 
d="M187 750l-106 160h155l45 -58l45 58h155l-106 -160h-188zM356 428q50 -15 82 -28.5t67 -38t52.5 -63t17.5 -90.5q0 -107 -73.5 -165.5t-199.5 -58.5q-114 0 -190 47.5t-102 128.5l171 99q35 -89 126 -89q68 0 68 36q0 10 -5 18t-19 14t-24.5 9.5t-36.5 10.5t-39 11
q-209 63 -209 225q0 96 69.5 159t182.5 63q89 0 159.5 -42t103.5 -121l-166 -97q-29 74 -96 74q-26 0 -39.5 -10.5t-13.5 -26.5q0 -22 23.5 -34t90.5 -31z" />
    <glyph glyph-name="scaron" unicode="&#x161;" horiz-adv-x="484" 
d="M140 550l-106 160h155l45 -58l45 58h155l-106 -160h-188zM219 353q0 -12 18.5 -19t46.5 -10.5t60 -13.5t60 -25t46.5 -47.5t18.5 -78.5q0 -48 -21.5 -84t-56.5 -54t-71.5 -26.5t-75.5 -8.5q-181 0 -234 119l161 72q19 -51 71 -51q34 0 34 22q0 13 -25 21t-60 16.5
t-70.5 23t-60.5 48.5t-25 85q0 82 62.5 127t144.5 45q164 0 217 -127l-153 -55q-18 42 -56 42q-31 0 -31 -21z" />
    <glyph glyph-name="uni0162" unicode="&#x162;" horiz-adv-x="550" 
d="M540 700v-194h-165v-506h-200v506h-165v194h530zM177 -284l10 230h170l-40 -230h-140z" />
    <glyph glyph-name="uni0163" unicode="&#x163;" horiz-adv-x="400" 
d="M370 324h-105v-108q0 -25 12 -37t35.5 -13.5t57.5 0.5v-166q-157 -22 -223.5 27t-66.5 179v118h-70v176h70v85l185 55v-140h105v-176zM139 -274l10 230h170l-40 -230h-140z" />
    <glyph glyph-name="Tcaron" unicode="&#x164;" horiz-adv-x="550" 
d="M176 740l-106 160h155l45 -58l45 58h155l-106 -160h-188zM540 700v-194h-165v-506h-200v506h-165v194h530z" />
    <glyph glyph-name="tcaron" unicode="&#x165;" horiz-adv-x="446" 
d="M306 722h160l-40 -190h-130zM265 640v-140h105v-176h-105v-108q0 -25 12 -37t35.5 -13.5t57.5 0.5v-166q-157 -22 -223.5 27t-66.5 179v118h-70v176h70v85z" />
    <glyph glyph-name="Tbar" unicode="&#x166;" horiz-adv-x="550" 
d="M540 506h-165v-94h100v-174h-100v-238h-200v238h-100v174h100v94h-165v194h530v-194z" />
    <glyph glyph-name="tbar" unicode="&#x167;" horiz-adv-x="400" 
d="M370 354h-105v-34h70v-120h-69q6 -25 29.5 -31t74.5 -3v-166q-155 -22 -221.5 25.5t-68.5 174.5h-45v120h45v34h-70v146h70v85l185 55v-140h105v-146z" />
    <glyph glyph-name="Umacron" unicode="&#x16a;" horiz-adv-x="650" 
d="M165 749v140h320v-140h-320zM325 -16q-127 0 -206 69t-79 181v466h200v-444q0 -78 85 -78t85 78v444h200v-466q0 -112 -79 -181t-206 -69z" />
    <glyph glyph-name="umacron" unicode="&#x16b;" 
d="M445 689v-140h-320v140h320zM350 500h185v-500h-185v49q-46 -63 -134 -63q-82 0 -131.5 56.5t-49.5 168.5v289h185v-269q0 -67 62 -67q33 0 50.5 21t17.5 58v257z" />
    <glyph glyph-name="Uring" unicode="&#x16e;" horiz-adv-x="650" 
d="M325 710q-65 0 -107 40t-42 100t42 100t107 40q67 0 108 -39.5t41 -100.5t-41 -100.5t-108 -39.5zM325 820q32 0 32 30t-32 30q-15 0 -23 -8.5t-8 -21.5t8 -21.5t23 -8.5zM325 -16q-127 0 -206 69t-79 181v466h200v-444q0 -78 85 -78t85 78v444h200v-466q0 -112 -79 -181
t-206 -69z" />
    <glyph glyph-name="uring" unicode="&#x16f;" 
d="M285 530q-65 0 -107 40t-42 100t42 100t107 40q67 0 108 -39.5t41 -100.5t-41 -100.5t-108 -39.5zM285 700q-15 0 -23 -8.5t-8 -21.5t8 -21.5t23 -8.5q32 0 32 30t-32 30zM350 500h185v-500h-185v49q-46 -63 -134 -63q-82 0 -131.5 56.5t-49.5 168.5v289h185v-269
q0 -67 62 -67q33 0 50.5 21t17.5 58v257z" />
    <glyph glyph-name="Uhungarumlaut" unicode="&#x170;" horiz-adv-x="650" 
d="M115 740h168l86 160h-174zM318 740h168l96 160h-174zM325 -16q-127 0 -206 69t-79 181v466h200v-444q0 -78 85 -78t85 78v444h200v-466q0 -112 -79 -181t-206 -69z" />
    <glyph glyph-name="uhungarumlaut" unicode="&#x171;" 
d="M329 700l-86 -160h-168l80 160h174zM446 540h-168l90 160h174zM350 243v257h185v-500h-185v49q-46 -63 -134 -63q-82 0 -131.5 56.5t-49.5 168.5v289h185v-269q0 -67 62 -67q33 0 50.5 21t17.5 58z" />
    <glyph glyph-name="Uogonek" unicode="&#x172;" horiz-adv-x="650" 
d="M410 700h200v-466q0 -119 -89 -189q-47 -41 -66 -66.5t-19 -49.5q0 -19 21 -19q10 0 19 3v-110q-42 -17 -88 -17q-48 0 -79 23t-31 68q0 51 45 107q-126 1 -204.5 70t-78.5 180v466h200v-444q0 -78 85 -78t85 78v444z" />
    <glyph glyph-name="uogonek" unicode="&#x173;" 
d="M535 500v-500q-40 -41 -40 -71q0 -19 21 -19q10 0 19 3v-110q-42 -17 -88 -17q-48 0 -79 23t-31 68q0 61 59 123h-46v49q-46 -63 -134 -63q-82 0 -131.5 56.5t-49.5 168.5v289h185v-269q0 -67 62 -67q33 0 50.5 21t17.5 58v257h185z" />
    <glyph glyph-name="Wcircumflex" unicode="&#x174;" horiz-adv-x="1010" 
d="M525 798l-45 -58h-155l106 160h188l106 -160h-155zM790 700h220l-198 -700h-197l-110 374l-110 -374h-197l-198 700h220l95 -385l113 385h154l113 -385z" />
    <glyph glyph-name="wcircumflex" unicode="&#x175;" horiz-adv-x="830" 
d="M410 598l-45 -58h-155l106 160h188l106 -160h-155zM615 500h195l-145 -500h-188l-62 235l-62 -235h-188l-145 500h195l58 -277l72 277h140l72 -277z" />
    <glyph glyph-name="Ycircumflex" unicode="&#x176;" horiz-adv-x="674" 
d="M332 798l-45 -58h-155l106 160h188l106 -160h-155zM674 700l-237 -434v-266h-200v266l-237 434h222l115 -246l115 246h222z" />
    <glyph glyph-name="ycircumflex" unicode="&#x177;" horiz-adv-x="570" 
d="M286 598l-45 -58h-155l106 160h188l106 -160h-155zM360 500h210l-170 -499q-37 -109 -115 -157.5t-206 -43.5v175q51 0 78 7.5t43 27.5l-200 490h210l89 -267z" />
    <glyph glyph-name="Ydieresis" unicode="&#x178;" horiz-adv-x="674" 
d="M237 730q-35 0 -60 25t-25 60t25 60t60 25t60 -25t25 -60t-25 -60t-60 -25zM437 730q-35 0 -60 25t-25 60t25 60t60 25t60 -25t25 -60t-25 -60t-60 -25zM674 700l-237 -434v-266h-200v266l-237 434h222l115 -246l115 246h222z" />
    <glyph glyph-name="Zacute" unicode="&#x179;" horiz-adv-x="545" 
d="M461 900l-116 -150h-174l80 150h210zM292 194h233v-194h-495v154l223 352h-218v194h480v-154z" />
    <glyph glyph-name="zacute" unicode="&#x17a;" horiz-adv-x="495" 
d="M430 700l-116 -150h-174l80 150h210zM286 170h174v-170h-420v130l164 200h-154v170h400v-130z" />
    <glyph glyph-name="Zdotaccent" unicode="&#x17b;" horiz-adv-x="545" 
d="M281 740q-39 0 -67 28t-28 67t28 67t67 28t67 -28t28 -67t-28 -67t-67 -28zM292 194h233v-194h-495v154l223 352h-218v194h480v-154z" />
    <glyph glyph-name="zdotaccent" unicode="&#x17c;" horiz-adv-x="495" 
d="M250 540q-39 0 -67 28t-28 67t28 67t67 28t67 -28t28 -67t-28 -67t-67 -28zM286 170h174v-170h-420v130l164 200h-154v170h400v-130z" />
    <glyph glyph-name="Zcaron" unicode="&#x17d;" horiz-adv-x="545" 
d="M182 740l-106 160h155l45 -58l45 58h155l-106 -160h-188zM292 194h233v-194h-495v154l223 352h-218v194h480v-154z" />
    <glyph glyph-name="zcaron" unicode="&#x17e;" horiz-adv-x="495" 
d="M151 540l-106 160h155l45 -58l45 58h155l-106 -160h-188zM286 170h174v-170h-420v130l164 200h-154v170h400v-130z" />
    <glyph glyph-name="florin" unicode="&#x192;" horiz-adv-x="482" 
d="M186 538q13 75 57.5 120t105.5 53.5t133 -4.5v-180q-34 14 -63.5 -0.5t-36.5 -51.5l-6 -37h65v-176h-95l-50 -292q-13 -75 -57.5 -120t-105.5 -53.5t-133 4.5v180q34 -14 63.5 0.5t36.5 51.5l39 229h-58v176h88z" />
    <glyph glyph-name="Scommaaccent" unicode="&#x218;" horiz-adv-x="585" 
d="M302 -16q-114 0 -190 47.5t-102 128.5l171 99q35 -89 126 -89q68 0 68 36q0 10 -5 18t-19 14t-24.5 9.5t-36.5 10.5t-39 11q-209 63 -209 225q0 96 69.5 159t182.5 63q89 0 159.5 -42t103.5 -121l-166 -97q-29 74 -96 74q-26 0 -39.5 -10.5t-13.5 -26.5q0 -22 23.5 -34
t90.5 -31q50 -15 82 -28.5t67 -38t52.5 -63t17.5 -90.5q0 -107 -73.5 -165.5t-199.5 -58.5zM363 -284l40 230h-170l-10 -230h140z" />
    <glyph glyph-name="scommaaccent" unicode="&#x219;" horiz-adv-x="484" 
d="M219 353q0 -12 18.5 -19t46.5 -10.5t60 -13.5t60 -25t46.5 -47.5t18.5 -78.5q0 -48 -21.5 -84t-56.5 -54t-71.5 -26.5t-75.5 -8.5q-181 0 -234 119l161 72q19 -51 71 -51q34 0 34 22q0 13 -25 21t-60 16.5t-70.5 23t-60.5 48.5t-25 85q0 82 62.5 127t144.5 45
q164 0 217 -127l-153 -55q-18 42 -56 42q-31 0 -31 -21zM173 -284l10 230h170l-40 -230h-140z" />
    <glyph glyph-name="uni021A" unicode="&#x21a;" horiz-adv-x="550" 
d="M540 700v-194h-165v-506h-200v506h-165v194h530zM177 -284l10 230h170l-40 -230h-140z" />
    <glyph glyph-name="uni021B" unicode="&#x21b;" horiz-adv-x="400" 
d="M370 324h-105v-108q0 -25 12 -37t35.5 -13.5t57.5 0.5v-166q-157 -22 -223.5 27t-66.5 179v118h-70v176h70v85l185 55v-140h105v-176zM139 -274l10 230h170l-40 -230h-140z" />
    <glyph glyph-name="circumflex" unicode="&#x2c6;" horiz-adv-x="440" 
d="M420 540h-155l-45 58l-45 -58h-155l106 160h188z" />
    <glyph glyph-name="caron" unicode="&#x2c7;" horiz-adv-x="440" 
d="M265 700h155l-106 -160h-188l-106 160h155l45 -58z" />
    <glyph glyph-name="breve" unicode="&#x2d8;" horiz-adv-x="410" 
d="M205 532q-89 0 -137 43t-48 127h150q0 -40 35 -40t35 40h150q0 -84 -48 -127t-137 -43z" />
    <glyph glyph-name="dotaccent" unicode="&#x2d9;" horiz-adv-x="230" 
d="M115 540q-39 0 -67 28t-28 67t28 67t67 28t67 -28t28 -67t-28 -67t-67 -28z" />
    <glyph glyph-name="ring" unicode="&#x2da;" horiz-adv-x="338" 
d="M169 530q-65 0 -107 40t-42 100t42 100t107 40q67 0 108 -39.5t41 -100.5t-41 -100.5t-108 -39.5zM169 640q32 0 32 30t-32 30q-15 0 -23 -8.5t-8 -21.5t8 -21.5t23 -8.5z" />
    <glyph glyph-name="ogonek" unicode="&#x2db;" horiz-adv-x="238" 
d="M130 -214q-48 0 -79 23t-31 68q0 61 59 123h139q-40 -41 -40 -71q0 -19 21 -19q10 0 19 3v-110q-42 -17 -88 -17z" />
    <glyph glyph-name="tilde" unicode="&#x2dc;" horiz-adv-x="399" 
d="M20 543q0 60 17 99t45 53t58.5 14t62.5 -13q5 -2 14.5 -6.5t14 -6.5t11 -3.5t9.5 1.5t5 10t2 19h120q0 -61 -17 -100.5t-45 -53t-58.5 -13t-63.5 13.5q-5 2 -14 6.5t-13.5 6.5t-11 3.5t-9.5 -1.5t-5 -10t-2 -19h-120z" />
    <glyph glyph-name="hungarumlaut" unicode="&#x2dd;" horiz-adv-x="507" 
d="M20 540h168l86 160h-174zM223 540h168l96 160h-174z" />
    <glyph glyph-name="gravecomb" unicode="&#x300;" horiz-adv-x="0" 
d="M-20 550l-80 150h-210l116 -150h174z" />
    <glyph glyph-name="acutecomb" unicode="&#x301;" horiz-adv-x="0" 
d="M-280 550h174l116 150h-210z" />
    <glyph glyph-name="uni0302" unicode="&#x302;" horiz-adv-x="0" 
d="M-20 540h-155l-45 58l-45 -58h-155l106 160h188z" />
    <glyph glyph-name="tildecomb" unicode="&#x303;" horiz-adv-x="0" 
d="M-379 543q0 60 17 99t45 53t58.5 14t62.5 -13q5 -2 14.5 -6.5t14 -6.5t11 -3.5t9.5 1.5t5 10t2 19h120q0 -61 -17 -100.5t-45 -53t-58.5 -13t-63.5 13.5q-5 2 -14 6.5t-13.5 6.5t-11 3.5t-9.5 -1.5t-5 -10t-2 -19h-120z" />
    <glyph glyph-name="uni0304" unicode="&#x304;" horiz-adv-x="0" 
d="M-340 549v140h320v-140h-320z" />
    <glyph glyph-name="uni0306" unicode="&#x306;" horiz-adv-x="0" 
d="M-215 532q-89 0 -137 43t-48 127h150q0 -40 35 -40t35 40h150q0 -84 -48 -127t-137 -43z" />
    <glyph glyph-name="uni0307" unicode="&#x307;" horiz-adv-x="0" 
d="M-115 540q-39 0 -67 28t-28 67t28 67t67 28t67 -28t28 -67t-28 -67t-67 -28z" />
    <glyph glyph-name="uni0308" unicode="&#x308;" horiz-adv-x="0" 
d="M-305 530q-35 0 -60 25t-25 60t25 60t60 25t60 -25t25 -60t-25 -60t-60 -25zM-105 530q-35 0 -60 25t-25 60t25 60t60 25t60 -25t25 -60t-25 -60t-60 -25z" />
    <glyph glyph-name="uni030A" unicode="&#x30a;" horiz-adv-x="0" 
d="M-169 530q-65 0 -107 40t-42 100t42 100t107 40q67 0 108 -39.5t41 -100.5t-41 -100.5t-108 -39.5zM-169 640q32 0 32 30t-32 30q-15 0 -23 -8.5t-8 -21.5t8 -21.5t23 -8.5z" />
    <glyph glyph-name="uni030B" unicode="&#x30b;" horiz-adv-x="0" 
d="M-487 540h168l86 160h-174zM-284 540h168l96 160h-174z" />
    <glyph glyph-name="uni030C" unicode="&#x30c;" horiz-adv-x="0" 
d="M-175 700h155l-106 -160h-188l-106 160h155l45 -58z" />
    <glyph glyph-name="uni0312" unicode="&#x312;" horiz-adv-x="0" 
d="M-160 990l-40 -230h170l10 230h-140z" />
    <glyph glyph-name="uni0326" unicode="&#x326;" horiz-adv-x="0" 
d="M-60 -284l40 230h-170l-10 -230h140z" />
    <glyph glyph-name="uni0327" unicode="&#x327;" horiz-adv-x="0" 
d="M-73 -46q53 -22 53 -77q0 -56 -61 -83t-184 -20v114q95 -7 95 14q0 15 -53 20v78h150v-46z" />
    <glyph glyph-name="uni0328" unicode="&#x328;" horiz-adv-x="0" 
d="M-108 -214q-48 0 -79 23t-31 68q0 61 59 123h139q-40 -41 -40 -71q0 -19 21 -19q10 0 19 3v-110q-42 -17 -88 -17z" />
    <glyph glyph-name="uni0394" unicode="&#x394;" horiz-adv-x="660" 
d="M442 700l228 -700h-680l228 700h224zM248 160h164l-82 305z" />
    <glyph glyph-name="uni03A9" unicode="&#x3a9;" horiz-adv-x="782" 
d="M762 370q0 -108 -70 -186h54v-184h-284v194q46 20 73 61.5t27 94.5q0 73 -48.5 121.5t-122.5 48.5t-122.5 -48.5t-48.5 -121.5q0 -53 27 -94.5t73 -61.5v-194h-284v184h54q-70 78 -70 186q0 153 106.5 249.5t264.5 96.5t264.5 -96.5t106.5 -249.5z" />
    <glyph glyph-name="pi" unicode="&#x3c0;" horiz-adv-x="650" 
d="M640 500v-176h-70v-324h-185v324h-120v-324h-185v324h-70v176h630z" />
    <glyph glyph-name="uni0401" unicode="&#x401;" horiz-adv-x="540" 
d="M178 730q-35 0 -60 25t-25 60t25 60t60 25t60 -25t25 -60t-25 -60t-60 -25zM378 730q-35 0 -60 25t-25 60t25 60t60 25t60 -25t25 -60t-25 -60t-60 -25zM250 184h260v-184h-460v700h455v-182h-255v-76h230v-180h-230v-78z" />
    <glyph glyph-name="uni0402" unicode="&#x402;" horiz-adv-x="705" 
d="M494 434q85 0 130.5 -49t45.5 -146v-39q0 -118 -59 -170.5t-181 -45.5v171q25 -3 35 8t10 37v14q0 42 -45 42q-30 0 -65 -12v-244h-200v506h-155v194h530v-194h-175v-89q74 17 129 17z" />
    <glyph glyph-name="uni0403" unicode="&#x403;" horiz-adv-x="480" 
d="M426 899l-116 -150h-174l80 150h210zM480 700v-194h-230v-506h-200v700h430z" />
    <glyph glyph-name="uni0404" unicode="&#x404;" horiz-adv-x="718" 
d="M386 175q47 0 83.5 21.5t54.5 58.5l174 -100q-45 -79 -127.5 -125t-179.5 -46q-161 0 -263.5 104.5t-102.5 261.5t102.5 261.5t263.5 104.5q96 0 178.5 -46.5t128.5 -123.5l-174 -100q-18 35 -55 57t-83 22q-104 0 -146 -85h211v-180h-211q42 -85 146 -85z" />
    <glyph glyph-name="uni0405" unicode="&#x405;" horiz-adv-x="585" 
d="M302 -16q-114 0 -190 47.5t-102 128.5l171 99q35 -89 126 -89q68 0 68 36q0 10 -5 18t-19 14t-24.5 9.5t-36.5 10.5t-39 11q-209 63 -209 225q0 96 69.5 159t182.5 63q89 0 159.5 -42t103.5 -121l-166 -97q-29 74 -96 74q-26 0 -39.5 -10.5t-13.5 -26.5q0 -22 23.5 -34
t90.5 -31q50 -15 82 -28.5t67 -38t52.5 -63t17.5 -90.5q0 -107 -73.5 -165.5t-199.5 -58.5z" />
    <glyph glyph-name="uni0406" unicode="&#x406;" horiz-adv-x="300" 
d="M50 700h200v-700h-200v700z" />
    <glyph glyph-name="uni0407" unicode="&#x407;" horiz-adv-x="300" 
d="M50 730q-35 0 -60 25t-25 60t25 60t60 25t60 -25t25 -60t-25 -60t-60 -25zM250 730q-35 0 -60 25t-25 60t25 60t60 25t60 -25t25 -60t-25 -60t-60 -25zM50 700h200v-700h-200v700z" />
    <glyph glyph-name="uni0408" unicode="&#x408;" horiz-adv-x="567" 
d="M267 -16q-177 0 -247 144l168 99q24 -49 78 -49q61 0 61 57v465h200v-470q0 -115 -68 -180.5t-192 -65.5z" />
    <glyph glyph-name="uni0409" unicode="&#x409;" horiz-adv-x="925" 
d="M660 481q105 0 180 -64.5t75 -176.5t-75 -176.5t-180 -64.5h-200v1h-60v506h-104v-246q0 -83 -24.5 -139.5t-68.5 -83.5t-93.5 -36t-109.5 -3v186q53 -3 74.5 17t21.5 83v416h504v-219h60zM660 193q55 0 55 47t-55 47h-60v-94h60z" />
    <glyph glyph-name="uni040A" unicode="&#x40a;" horiz-adv-x="935" 
d="M670 482q105 0 180 -64.5t75 -176.5t-75 -176.5t-180 -64.5h-260v288h-160v-288h-200v700h200v-218h160v218h200v-218h60zM670 194q55 0 55 47t-55 47h-60v-94h60z" />
    <glyph glyph-name="uni040B" unicode="&#x40b;" horiz-adv-x="710" 
d="M494 444q85 0 130.5 -49t45.5 -146v-249h-195v224q0 42 -45 42q-30 0 -65 -12v-254h-200v506h-155v194h530v-194h-175v-79q74 17 129 17z" />
    <glyph glyph-name="uni040C" unicode="&#x40c;" horiz-adv-x="636" 
d="M496 899l-116 -150h-174l80 150h210zM646 0h-222l-174 300v-300h-200v700h200v-280l164 280h222l-208 -340z" />
    <glyph glyph-name="uni040E" unicode="&#x40e;" horiz-adv-x="650" 
d="M510 898v-150h-350v150h350zM440 700h210l-202 -474q-50 -117 -131.5 -174t-212.5 -52v186q91 -7 138 35l-232 479h210l121 -266z" />
    <glyph glyph-name="uni040F" unicode="&#x40f;" horiz-adv-x="650" 
d="M400 700h200v-700h-175v-134h-200v134h-175v700h200v-506h150v506z" />
    <glyph glyph-name="uni0410" unicode="&#x410;" horiz-adv-x="660" 
d="M455 0l-24 90h-202l-24 -90h-215l223 700h234l223 -700h-215zM272 250h116l-58 215z" />
    <glyph glyph-name="uni0411" unicode="&#x411;" horiz-adv-x="600" 
d="M360 444q107 0 168.5 -59.5t61.5 -159.5q0 -101 -62 -163t-168 -62h-310v700h480v-194h-280v-62h110zM345 180q20 0 32.5 12t12.5 33t-12.5 33t-32.5 12h-95v-90h95z" />
    <glyph glyph-name="uni0412" unicode="&#x412;" horiz-adv-x="605" 
d="M500 361q90 -51 90 -155q0 -96 -62.5 -151t-181.5 -55h-296v700h278q118 0 180 -51t62 -146q0 -91 -70 -142zM316 528h-66v-94l77 1q43 6 43 46q0 23 -16 35t-38 12zM334 172q24 0 40 14t16 36q0 42 -45 49l-95 1v-100h84z" />
    <glyph glyph-name="uni0413" unicode="&#x413;" horiz-adv-x="480" 
d="M480 700v-194h-230v-506h-200v700h430z" />
    <glyph glyph-name="uni0414" unicode="&#x414;" horiz-adv-x="715" 
d="M630 194h75v-328h-200v134h-300v-134h-200v328h74q42 76 42 212v294h509v-506zM286 194h144v322h-109v-112q0 -130 -35 -210z" />
    <glyph glyph-name="uni0415" unicode="&#x415;" horiz-adv-x="540" 
d="M250 184h260v-184h-460v700h455v-182h-255v-76h230v-180h-230v-78z" />
    <glyph glyph-name="uni0416" unicode="&#x416;" horiz-adv-x="932" 
d="M932 0h-222l-144 298v-298h-200v298l-144 -298h-222l193 352l-183 348h222l134 -295v295h200v-295l134 295h222l-183 -348z" />
    <glyph glyph-name="uni0417" unicode="&#x417;" horiz-adv-x="561" 
d="M452 359q94 -52 94 -163q0 -95 -70.5 -153.5t-195.5 -58.5q-110 0 -178 44t-97 117l169 99q31 -70 106 -70q66 0 66 48q0 41 -50 45l-106 1v170l83 1q52 3 52 45q0 46 -61 46q-65 0 -88 -62l-166 97q30 72 101 111.5t158 39.5q114 0 185 -58.5t71 -154.5q0 -95 -73 -144z
" />
    <glyph glyph-name="uni0418" unicode="&#x418;" horiz-adv-x="680" 
d="M430 0v320l-220 -320h-160v700h200v-320l220 320h160v-700h-200z" />
    <glyph glyph-name="uni0419" unicode="&#x419;" horiz-adv-x="680" 
d="M165 749v150h350v-150h-350zM430 0v320l-220 -320h-160v700h200v-320l220 320h160v-700h-200z" />
    <glyph glyph-name="uni041A" unicode="&#x41a;" horiz-adv-x="636" 
d="M646 0h-222l-174 300v-300h-200v700h200v-280l164 280h222l-208 -340z" />
    <glyph glyph-name="uni041B" unicode="&#x41b;" horiz-adv-x="660" 
d="M0 0v186q53 -5 74.5 15t21.5 83v416h514v-700h-200v506h-114v-246q0 -83 -24.5 -139.5t-68 -83t-93.5 -35t-110 -2.5z" />
    <glyph glyph-name="uni041C" unicode="&#x41c;" horiz-adv-x="830" 
d="M780 700v-700h-200v341l-156 -262h-18l-156 262v-341h-200v700h200l165 -285l165 285h200z" />
    <glyph glyph-name="uni041D" unicode="&#x41d;" horiz-adv-x="670" 
d="M420 700h200v-700h-200v258h-170v-258h-200v700h200v-248h170v248z" />
    <glyph glyph-name="uni041E" unicode="&#x41e;" horiz-adv-x="792" 
d="M396 -16q-156 0 -263.5 105.5t-107.5 260.5t107.5 260.5t263.5 105.5t263.5 -105.5t107.5 -260.5t-107.5 -260.5t-263.5 -105.5zM396 180q74 0 122.5 48.5t48.5 121.5t-48.5 121.5t-122.5 48.5t-122.5 -48.5t-48.5 -121.5t48.5 -121.5t122.5 -48.5z" />
    <glyph glyph-name="uni041F" unicode="&#x41f;" horiz-adv-x="650" 
d="M600 700v-700h-200v506h-150v-506h-200v700h550z" />
    <glyph glyph-name="uni0420" unicode="&#x420;" horiz-adv-x="595" 
d="M330 700q109 0 182 -68.5t73 -182.5t-73 -182.5t-182 -68.5h-80v-198h-200v700h280zM330 392q23 0 39 15.5t16 41.5t-16 41.5t-39 15.5h-80v-114h80z" />
    <glyph glyph-name="uni0421" unicode="&#x421;" horiz-adv-x="718" 
d="M391 -16q-158 0 -262 105t-104 261t104 261t262 105q97 0 179 -46t128 -124l-174 -100q-17 34 -53 54t-80 20q-74 0 -120 -48t-46 -122t46 -122t120 -48q45 0 80.5 20t52.5 55l174 -100q-46 -79 -128 -125t-179 -46z" />
    <glyph glyph-name="uni0422" unicode="&#x422;" horiz-adv-x="550" 
d="M540 700v-194h-165v-506h-200v506h-165v194h530z" />
    <glyph glyph-name="uni0423" unicode="&#x423;" horiz-adv-x="650" 
d="M440 700h210l-202 -474q-50 -117 -131.5 -174t-212.5 -52v186q91 -7 138 35l-232 479h210l121 -266z" />
    <glyph glyph-name="uni0424" unicode="&#x424;" horiz-adv-x="844" 
d="M824 350q0 -117 -80 -192t-227 -94v-84h-190v84q-147 19 -227 94t-80 192t80 192t227 94v84h190v-84q147 -19 227 -94t80 -192zM220 350q0 -44 25 -68.5t82 -34.5v212q-57 -10 -82 -36.5t-25 -72.5zM517 247q57 10 82 34.5t25 68.5q0 46 -25 72.5t-82 36.5v-212z" />
    <glyph glyph-name="uni0425" unicode="&#x425;" horiz-adv-x="645" 
d="M645 0h-222l-100 168l-101 -168h-222l212 354l-207 346h222l96 -160l95 160h222l-206 -346z" />
    <glyph glyph-name="uni0426" unicode="&#x426;" horiz-adv-x="715" 
d="M620 194h85v-328h-200v134h-455v700h210v-506h150v506h210v-506z" />
    <glyph glyph-name="uni0427" unicode="&#x427;" horiz-adv-x="660" 
d="M410 700h200v-700h-200v218q-58 -16 -119 -16q-117 0 -184 65.5t-67 182.5v250h200v-236q0 -32 20.5 -50t54.5 -18q49 0 95 13v291z" />
    <glyph glyph-name="uni0428" unicode="&#x428;" horiz-adv-x="960" 
d="M710 700h200v-700h-860v700h200v-506h130v506h200v-506h130v506z" />
    <glyph glyph-name="uni0429" unicode="&#x429;" horiz-adv-x="1005" 
d="M910 194h85v-328h-200v134h-745v700h200v-506h130v506h200v-506h130v506h200v-506z" />
    <glyph glyph-name="uni042A" unicode="&#x42a;" horiz-adv-x="705" 
d="M160 -1v507h-160v194l360 -1v-198h80q109 0 182 -68.5t73 -182.5t-73 -182.5t-182 -68.5h-280zM360 193h80q23 0 39 15.5t16 41.5t-16 41.5t-39 15.5h-80v-114z" />
    <glyph glyph-name="uni042B" unicode="&#x42b;" horiz-adv-x="890" 
d="M50 -1v700h200v-198h80q109 0 182 -68.5t73 -182.5t-73 -182.5t-182 -68.5h-280zM640 -1v700h200v-700h-200zM250 193h80q23 0 39 15.5t16 41.5t-16 41.5t-39 15.5h-80v-114z" />
    <glyph glyph-name="uni042C" unicode="&#x42c;" horiz-adv-x="595" 
d="M330 502q109 0 182 -68.5t73 -182.5t-73 -182.5t-182 -68.5h-280v700h200v-198h80zM330 194q23 0 39 15.5t16 41.5t-16 41.5t-39 15.5h-80v-114h80z" />
    <glyph glyph-name="uni042D" unicode="&#x42d;" horiz-adv-x="718" 
d="M327 716q161 0 263.5 -104.5t102.5 -261.5t-102.5 -261.5t-263.5 -104.5q-97 0 -179.5 46t-127.5 125l174 100q18 -37 54.5 -58.5t83.5 -21.5q104 0 146 85h-211v180h211q-42 85 -146 85q-46 0 -83 -22t-55 -57l-174 100q46 77 128.5 123.5t178.5 46.5z" />
    <glyph glyph-name="uni042E" unicode="&#x42e;" horiz-adv-x="1077" 
d="M681 716q156 0 263.5 -105.5t107.5 -260.5t-107.5 -260.5t-263.5 -105.5q-131 0 -227.5 77.5t-124.5 201.5h-79v-263h-200v700h200v-243h85q32 116 126 187.5t220 71.5zM681 180q74 0 122.5 48.5t48.5 121.5t-48.5 121.5t-122.5 48.5t-122.5 -48.5t-48.5 -121.5
t48.5 -121.5t122.5 -48.5z" />
    <glyph glyph-name="uni042F" unicode="&#x42f;" horiz-adv-x="635" 
d="M585 700v-700h-200v220h-25l-130 -220h-220l155 252q-58 29 -91.5 81.5t-33.5 120.5q0 111 75 178.5t190 67.5h280zM309 516q-32 0 -50.5 -17.5t-18.5 -48.5t18.5 -48t50.5 -16h76v130h-76z" />
    <glyph glyph-name="uni0430" unicode="&#x430;" horiz-adv-x="606" 
d="M381 500h185v-500h-185v45q-48 -59 -134 -59q-101 0 -165 75t-64 189t64 189t165 75q86 0 134 -59v45zM292 156q40 0 64.5 27t24.5 67t-24.5 67t-64.5 27t-64.5 -27t-24.5 -67t24.5 -67t64.5 -27z" />
    <glyph glyph-name="uni0431" unicode="&#x431;" horiz-adv-x="572" 
d="M300 -16q-128 0 -204 76t-76 206q0 125 43.5 202.5t134.5 121.5q101 49 137 74t52 62l149 -85q-16 -54 -54.5 -84.5t-118.5 -63.5q-71 -29 -100 -47.5t-43 -46.5q48 39 121 39q90 0 155.5 -60.5t65.5 -159.5q0 -102 -71 -168t-191 -66zM296 139q35 0 58 21.5t23 54.5
q0 34 -24 56t-59 22q-33 0 -57.5 -20.5t-24.5 -54.5q0 -35 24 -57t60 -22z" />
    <glyph glyph-name="uni0432" unicode="&#x432;" horiz-adv-x="525" 
d="M437 255q73 -33 73 -109q0 -68 -45.5 -107t-134.5 -39h-290v500h275q89 0 134.5 -38.5t45.5 -106.5q0 -66 -58 -100zM281 371h-61v-62h61q34 0 34 30q0 32 -34 32zM290 129q34 0 34 32q0 30 -34 30h-70v-62h70z" />
    <glyph glyph-name="uni0433" unicode="&#x433;" horiz-adv-x="420" 
d="M410 500v-176h-185v-324h-185v500h370z" />
    <glyph glyph-name="uni0434" unicode="&#x434;" horiz-adv-x="600" 
d="M525 176h65v-310h-175v134h-240v-134h-175v310h56q36 59 36 167v157h433v-324zM245 176h100v160h-73q-1 -95 -27 -160z" />
    <glyph glyph-name="uni0435" unicode="&#x435;" horiz-adv-x="560" 
d="M205 187q24 -50 102 -50q46 0 85 32l121 -102q-75 -81 -212 -81q-128 0 -205.5 74.5t-77.5 187.5q0 114 75.5 190t190.5 76q114 0 187.5 -74.5t73.5 -187.5q0 -33 -8 -65h-332zM202 306h168q-17 60 -81 60q-65 0 -87 -60z" />
    <glyph glyph-name="uni0436" unicode="&#x436;" horiz-adv-x="789" 
d="M789 0h-202l-100 192v-192h-185v192l-100 -192h-202l144 250l-134 250h202l90 -187v187h185v-187l90 187h202l-134 -250z" />
    <glyph glyph-name="uni0437" unicode="&#x437;" horiz-adv-x="460" 
d="M368 256q77 -37 77 -120q0 -67 -59.5 -109.5t-156.5 -42.5q-80 0 -135.5 27.5t-88.5 93.5l139 81q24 -54 77 -54q14 0 26 7t12 20q0 27 -34 27h-50v134h50q10 0 17.5 8t7.5 18q0 28 -39 28q-46 0 -62 -51l-139 74q38 63 90 90t131 27q86 0 142.5 -43t56.5 -106
q0 -74 -62 -109z" />
    <glyph glyph-name="uni0438" unicode="&#x438;" horiz-adv-x="580" 
d="M391 500h149v-500h-180v215l-171 -215h-149v500h180v-215z" />
    <glyph glyph-name="uni0439" unicode="&#x439;" horiz-adv-x="580" 
d="M115 549v150h350v-150h-350zM391 500h149v-500h-180v215l-171 -215h-149v500h180v-215z" />
    <glyph glyph-name="uni043A" unicode="&#x43a;" horiz-adv-x="550" 
d="M550 0h-205l-120 200v-200h-185v500h185v-194l105 194h210l-152 -250z" />
    <glyph glyph-name="uni043B" unicode="&#x43b;" horiz-adv-x="582" 
d="M542 500v-500h-185v324h-90v-117q0 -122 -61 -171.5t-196 -35.5v170q37 -10 54.5 8.5t17.5 68.5v253h460z" />
    <glyph glyph-name="uni043C" unicode="&#x43c;" horiz-adv-x="658" 
d="M618 500v-500h-180v220l-100 -155h-18l-100 155v-220h-180v500h180l109 -170l109 170h180z" />
    <glyph glyph-name="uni043D" unicode="&#x43d;" horiz-adv-x="570" 
d="M345 500h185v-500h-185v162h-120v-162h-185v500h185v-162h120v162z" />
    <glyph glyph-name="uni043E" unicode="&#x43e;" horiz-adv-x="574" 
d="M287 -14q-112 0 -190.5 76t-78.5 188t78 188t191 76t191 -76t78 -188t-78 -188t-191 -76zM287 162q37 0 60.5 24.5t23.5 63.5t-23.5 63.5t-60.5 24.5t-60.5 -24.5t-23.5 -63.5t23.5 -63.5t60.5 -24.5z" />
    <glyph glyph-name="uni043F" unicode="&#x43f;" horiz-adv-x="570" 
d="M530 500v-500h-185v324h-120v-324h-185v500h490z" />
    <glyph glyph-name="uni0440" unicode="&#x440;" horiz-adv-x="606" 
d="M359 514q101 0 165 -75t64 -189t-64 -189t-165 -75q-86 0 -134 59v-245h-185v700h185v-45q48 59 134 59zM314 156q40 0 64.5 27t24.5 67t-24.5 67t-64.5 27t-64.5 -27t-24.5 -67t24.5 -67t64.5 -27z" />
    <glyph glyph-name="uni0441" unicode="&#x441;" horiz-adv-x="525" 
d="M285 -14q-115 0 -191 75.5t-76 188.5t76 188.5t191 75.5q74 0 135.5 -35.5t94.5 -95.5l-156 -89q-25 42 -74 42q-35 0 -58.5 -24.5t-23.5 -61.5t23.5 -61.5t58.5 -24.5q52 0 74 43l156 -90q-33 -61 -94.5 -96t-135.5 -35z" />
    <glyph glyph-name="uni0442" unicode="&#x442;" horiz-adv-x="470" 
d="M465 500v-176h-136v-324h-186v324h-138v176h460z" />
    <glyph glyph-name="uni0443" unicode="&#x443;" horiz-adv-x="570" 
d="M360 500h210l-166 -485q-39 -115 -123.5 -167.5t-201.5 -47.5v175q51 0 78 7.5t43 27.5l-200 490h210l89 -267z" />
    <glyph glyph-name="uni0444" unicode="&#x444;" horiz-adv-x="730" 
d="M712 250q0 -101 -64.5 -171t-192.5 -89v-190h-180v190q-128 19 -192.5 89t-64.5 171q0 100 64.5 169.5t192.5 88.5v192h180v-192q128 -19 192.5 -88.5t64.5 -169.5zM202 250q0 -66 73 -86v172q-73 -20 -73 -86zM455 164q73 20 73 86t-73 86v-172z" />
    <glyph glyph-name="uni0445" unicode="&#x445;" horiz-adv-x="570" 
d="M570 0h-205l-80 112l-80 -112h-205l183 256l-175 244h205l72 -101l72 101h205l-174 -244z" />
    <glyph glyph-name="uni0446" unicode="&#x446;" horiz-adv-x="615" 
d="M520 176h85v-310h-175v134h-390v500h185v-324h110v324h185v-324z" />
    <glyph glyph-name="uni0447" unicode="&#x447;" horiz-adv-x="540" 
d="M315 500h185v-500h-185v130q-46 -11 -90 -11q-91 0 -148 50.5t-57 140.5v190h185v-150q0 -61 65 -61q24 0 45 6v205z" />
    <glyph glyph-name="uni0448" unicode="&#x448;" horiz-adv-x="830" 
d="M605 500h185v-500h-750v500h185v-324h100v324h180v-324h100v324z" />
    <glyph glyph-name="uni0449" unicode="&#x449;" horiz-adv-x="875" 
d="M780 176h85v-310h-175v134h-650v500h185v-324h95v324h180v-324h95v324h185v-324z" />
    <glyph glyph-name="uni044A" unicode="&#x44a;" horiz-adv-x="580" 
d="M374 370q91 0 143.5 -49.5t52.5 -135.5t-52.5 -135.5t-143.5 -49.5h-264v324h-110v176h295v-130h79zM351 150q39 0 39 35t-39 35h-56v-70h56z" />
    <glyph glyph-name="uni044B" unicode="&#x44b;" horiz-adv-x="755" 
d="M304 370q91 0 143.5 -49.5t52.5 -135.5t-52.5 -135.5t-143.5 -49.5h-264v500h185v-130h79zM530 500h185v-500h-185v500zM281 150q39 0 39 35t-39 35h-56v-70h56z" />
    <glyph glyph-name="uni044C" unicode="&#x44c;" horiz-adv-x="510" 
d="M304 370q91 0 143.5 -49.5t52.5 -135.5t-52.5 -135.5t-143.5 -49.5h-264v500h185v-130h79zM281 150q39 0 39 35t-39 35h-56v-70h56z" />
    <glyph glyph-name="uni044D" unicode="&#x44d;" horiz-adv-x="520" 
d="M235 514q117 0 192 -75t75 -189t-75 -189t-192 -75q-74 0 -135.5 35t-94.5 96l146 84q12 -58 89 -58q54 0 81 37h-130v140h130q-27 37 -81 37q-36 0 -58.5 -16.5t-29.5 -40.5l-147 83q33 60 95 95.5t135 35.5z" />
    <glyph glyph-name="uni044E" unicode="&#x44e;" horiz-adv-x="798" 
d="M511 514q113 0 191 -76t78 -188t-78 -188t-191 -76q-87 0 -153 48.5t-92 127.5h-41v-162h-185v500h185v-162h40q26 79 92 127.5t154 48.5zM511 162q37 0 60.5 24.5t23.5 63.5t-23.5 63.5t-60.5 24.5t-60.5 -24.5t-23.5 -63.5t23.5 -63.5t60.5 -24.5z" />
    <glyph glyph-name="uni044F" unicode="&#x44f;" horiz-adv-x="541" 
d="M501 500v-500h-185v140h-13l-88 -140h-210l117 170q-81 51 -81 145q0 86 52.5 135.5t143.5 49.5h264zM260 350q-39 0 -39 -35t39 -35h56v70h-56z" />
    <glyph glyph-name="uni0451" unicode="&#x451;" horiz-adv-x="560" 
d="M190 540q-35 0 -60 25t-25 60t25 60t60 25t60 -25t25 -60t-25 -60t-60 -25zM390 540q-35 0 -60 25t-25 60t25 60t60 25t60 -25t25 -60t-25 -60t-60 -25zM205 187q24 -50 102 -50q46 0 85 32l121 -102q-75 -81 -212 -81q-128 0 -205.5 74.5t-77.5 187.5q0 114 75.5 190
t190.5 76q114 0 187.5 -74.5t73.5 -187.5q0 -33 -8 -65h-332zM202 306h168q-17 60 -81 60q-65 0 -87 -60z" />
    <glyph glyph-name="uni0452" unicode="&#x452;" horiz-adv-x="590" 
d="M374 489q82 0 131.5 -56.5t49.5 -168.5v-264q0 -118 -60.5 -170.5t-189.5 -45.5v166q65 -6 65 50v244q0 67 -62 67q-33 0 -50.5 -21t-17.5 -58v-232h-185v531h-55v119h55v50h185v-50h130v-119h-130v-105q46 63 134 63z" />
    <glyph glyph-name="uni0453" unicode="&#x453;" horiz-adv-x="420" 
d="M376 700l-116 -150h-174l80 150h210zM410 500v-176h-185v-324h-185v500h370z" />
    <glyph glyph-name="uni0454" unicode="&#x454;" horiz-adv-x="520" 
d="M280 143q77 0 89 58l146 -84q-33 -61 -94.5 -96t-135.5 -35q-117 0 -192 75t-75 189t75 189t192 75q73 0 135 -35.5t95 -95.5l-147 -83q-7 24 -29.5 40.5t-58.5 16.5q-54 0 -81 -37h130v-140h-130q27 -37 81 -37z" />
    <glyph glyph-name="uni0455" unicode="&#x455;" horiz-adv-x="484" 
d="M219 353q0 -12 18.5 -19t46.5 -10.5t60 -13.5t60 -25t46.5 -47.5t18.5 -78.5q0 -48 -21.5 -84t-56.5 -54t-71.5 -26.5t-75.5 -8.5q-181 0 -234 119l161 72q19 -51 71 -51q34 0 34 22q0 13 -25 21t-60 16.5t-70.5 23t-60.5 48.5t-25 85q0 82 62.5 127t144.5 45
q164 0 217 -127l-153 -55q-18 42 -56 42q-31 0 -31 -21z" />
    <glyph glyph-name="uni0456" unicode="&#x456;" horiz-adv-x="265" 
d="M133 538q-42 0 -72.5 30.5t-30.5 71.5t30.5 71.5t72.5 30.5q41 0 71.5 -30.5t30.5 -71.5t-30.5 -71.5t-71.5 -30.5zM40 0v500h185v-500h-185z" />
    <glyph glyph-name="uni0457" unicode="&#x457;" horiz-adv-x="265" 
d="M31 530q-35 0 -60 25t-25 60t25 60t60 25t60 -25t25 -60t-25 -60t-60 -25zM231 530q-35 0 -60 25t-25 60t25 60t60 25t60 -25t25 -60t-25 -60t-60 -25zM40 0v500h185v-500h-185z" />
    <glyph glyph-name="uni0458" unicode="&#x458;" horiz-adv-x="280" 
d="M148 538q-42 0 -72.5 30.5t-30.5 71.5t30.5 71.5t72.5 30.5q41 0 71.5 -30.5t30.5 -71.5t-30.5 -71.5t-71.5 -30.5zM55 0v500h185v-500q0 -118 -60.5 -170.5t-189.5 -45.5v166q65 -6 65 50z" />
    <glyph glyph-name="uni0459" unicode="&#x459;" horiz-adv-x="802" 
d="M606 360q79 0 132.5 -48.5t53.5 -131.5t-53.5 -131.5t-132.5 -48.5h-254v324h-85v-117q0 -121 -61 -172t-196 -43v170q38 -5 55 15.5t17 69.5v253h455v-140h69zM583 150q12 0 20.5 8.5t8.5 21.5t-8.5 21.5t-20.5 8.5h-46v-60h46z" />
    <glyph glyph-name="uni045A" unicode="&#x45a;" horiz-adv-x="775" 
d="M579 360q79 0 132.5 -48.5t53.5 -131.5t-53.5 -131.5t-132.5 -48.5h-254v194h-110v-194h-185v500h185v-140h110v140h185v-140h69zM556 150q12 0 20.5 8.5t8.5 21.5t-8.5 21.5t-20.5 8.5h-46v-60h46z" />
    <glyph glyph-name="uni045B" unicode="&#x45b;" horiz-adv-x="590" 
d="M374 489q82 0 131.5 -56.5t49.5 -168.5v-264h-185v244q0 67 -62 67q-33 0 -50.5 -21t-17.5 -58v-232h-185v526h-55v119h55v55h185v-55h130v-119h-130v-100q46 63 134 63z" />
    <glyph glyph-name="uni045C" unicode="&#x45c;" horiz-adv-x="550" 
d="M436 700l-116 -150h-174l80 150h210zM550 0h-205l-120 200v-200h-185v500h185v-194l105 194h210l-152 -250z" />
    <glyph glyph-name="uni045E" unicode="&#x45e;" horiz-adv-x="570" 
d="M466 699v-150h-350v150h350zM360 500h210l-166 -485q-39 -115 -123.5 -167.5t-201.5 -47.5v175q51 0 78 7.5t43 27.5l-200 490h210l89 -267z" />
    <glyph glyph-name="uni045F" unicode="&#x45f;" horiz-adv-x="570" 
d="M345 500h185v-500h-157v-134h-175v134h-158v500h185v-324h120v324z" />
    <glyph glyph-name="uni0490" unicode="&#x490;" horiz-adv-x="480" 
d="M280 820h200v-314h-230v-506h-200v700h230v120z" />
    <glyph glyph-name="uni0491" unicode="&#x491;" horiz-adv-x="420" 
d="M235 604h175v-280h-185v-324h-185v500h195v104z" />
    <glyph glyph-name="Wgrave" unicode="&#x1e80;" horiz-adv-x="1010" 
d="M630 750l-80 150h-210l116 -150h174zM198 0l-198 700h220l95 -385l113 385h154l113 -385l95 385h220l-198 -700h-197l-110 374l-110 -374h-197z" />
    <glyph glyph-name="wgrave" unicode="&#x1e81;" horiz-adv-x="830" 
d="M515 550h-174l-116 150h210zM615 500h195l-145 -500h-188l-62 235l-62 -235h-188l-145 500h195l58 -277l72 277h140l72 -277z" />
    <glyph glyph-name="Wacute" unicode="&#x1e82;" horiz-adv-x="1010" 
d="M420 750h174l116 150h-210zM198 0l-198 700h220l95 -385l113 385h154l113 -385l95 385h220l-198 -700h-197l-110 374l-110 -374h-197z" />
    <glyph glyph-name="wacute" unicode="&#x1e83;" horiz-adv-x="830" 
d="M595 700l-116 -150h-174l80 150h210zM615 500h195l-145 -500h-188l-62 235l-62 -235h-188l-145 500h195l58 -277l72 277h140l72 -277z" />
    <glyph glyph-name="Wdieresis" unicode="&#x1e84;" horiz-adv-x="1010" 
d="M430 730q-35 0 -60 25t-25 60t25 60t60 25t60 -25t25 -60t-25 -60t-60 -25zM630 730q-35 0 -60 25t-25 60t25 60t60 25t60 -25t25 -60t-25 -60t-60 -25zM198 0l-198 700h220l95 -385l113 385h154l113 -385l95 385h220l-198 -700h-197l-110 374l-110 -374h-197z" />
    <glyph glyph-name="wdieresis" unicode="&#x1e85;" horiz-adv-x="830" 
d="M315 530q-35 0 -60 25t-25 60t25 60t60 25t60 -25t25 -60t-25 -60t-60 -25zM515 530q-35 0 -60 25t-25 60t25 60t60 25t60 -25t25 -60t-25 -60t-60 -25zM615 500h195l-145 -500h-188l-62 235l-62 -235h-188l-145 500h195l58 -277l72 277h140l72 -277z" />
    <glyph glyph-name="Ygrave" unicode="&#x1ef2;" horiz-adv-x="674" 
d="M437 750h-174l-116 150h210zM674 700l-237 -434v-266h-200v266l-237 434h222l115 -246l115 246h222z" />
    <glyph glyph-name="ygrave" unicode="&#x1ef3;" horiz-adv-x="570" 
d="M391 550h-174l-116 150h210zM360 500h210l-170 -499q-37 -109 -115 -157.5t-206 -43.5v175q51 0 78 7.5t43 27.5l-200 490h210l89 -267z" />
    <glyph glyph-name="endash" unicode="&#x2013;" horiz-adv-x="640" 
d="M50 217v174h540v-174h-540z" />
    <glyph glyph-name="emdash" unicode="&#x2014;" horiz-adv-x="740" 
d="M50 217v174h640v-174h-640z" />
    <glyph glyph-name="quoteleft" unicode="&#x2018;" horiz-adv-x="315" 
d="M35 365l90 335h150l-30 -335h-210z" />
    <glyph glyph-name="quoteright" unicode="&#x2019;" horiz-adv-x="315" 
d="M280 700l-90 -335h-150l30 335h210z" />
    <glyph glyph-name="quotesinglbase" unicode="&#x201a;" horiz-adv-x="315" 
d="M280 195l-90 -335h-150l30 335h210z" />
    <glyph glyph-name="quotedblleft" unicode="&#x201c;" horiz-adv-x="565" 
d="M35 365l90 335h150l-30 -335h-210zM285 365l90 335h150l-30 -335h-210z" />
    <glyph glyph-name="quotedblright" unicode="&#x201d;" horiz-adv-x="565" 
d="M280 700l-90 -335h-150l30 335h210zM530 700l-90 -335h-150l30 335h210z" />
    <glyph glyph-name="quotedblbase" unicode="&#x201e;" horiz-adv-x="565" 
d="M280 195l-90 -335h-150l30 335h210zM530 195l-90 -335h-150l30 335h210z" />
    <glyph glyph-name="dagger" unicode="&#x2020;" horiz-adv-x="460" 
d="M430 590v-174h-107v-416h-185v416h-108v174h108v110h185v-110h107z" />
    <glyph glyph-name="daggerdbl" unicode="&#x2021;" horiz-adv-x="460" 
d="M430 416h-107v-132h107v-174h-107v-110h-185v110h-108v174h108v132h-108v174h108v110h185v-110h107v-174z" />
    <glyph glyph-name="bullet" unicode="&#x2022;" horiz-adv-x="420" 
d="M211 170q-75 0 -128 53t-53 128q0 74 53 126.5t128 52.5q74 0 126.5 -52.5t52.5 -126.5q0 -75 -52.5 -128t-126.5 -53z" />
    <glyph glyph-name="ellipsis" unicode="&#x2026;" horiz-adv-x="820" 
d="M150 -15q-48 0 -81.5 33.5t-33.5 81.5t33.5 81.5t81.5 33.5t81.5 -33.5t33.5 -81.5t-33.5 -81.5t-81.5 -33.5zM410 -15q-48 0 -81.5 33.5t-33.5 81.5t33.5 81.5t81.5 33.5t81.5 -33.5t33.5 -81.5t-33.5 -81.5t-81.5 -33.5zM670 -15q-48 0 -81.5 33.5t-33.5 81.5
t33.5 81.5t81.5 33.5t81.5 -33.5t33.5 -81.5t-33.5 -81.5t-81.5 -33.5z" />
    <glyph glyph-name="perthousand" unicode="&#x2030;" horiz-adv-x="1283" 
d="M225 336q-83 0 -139 55.5t-56 134.5t56 134.5t139 55.5q82 0 137.5 -55.5t55.5 -134.5t-55.5 -134.5t-137.5 -55.5zM157 111l470 498l73 -42l-471 -497zM224 476q21 0 35 15t14 35q0 21 -14 35.5t-35 14.5t-34.5 -14.5t-13.5 -35.5t13.5 -35.5t34.5 -14.5zM645 -16
q-83 0 -139 55.5t-56 134.5t56 134.5t139 55.5q82 0 137.5 -55.5t55.5 -134.5t-55.5 -134.5t-137.5 -55.5zM1060 -16q-83 0 -139 55.5t-56 134.5t56 134.5t139 55.5q82 0 137.5 -55.5t55.5 -134.5t-55.5 -134.5t-137.5 -55.5zM644 124q21 0 35 15t14 35q0 21 -14 35.5
t-35 14.5t-34.5 -14.5t-13.5 -35.5t13.5 -35.5t34.5 -14.5zM1059 124q21 0 35 15t14 35q0 21 -14 35.5t-35 14.5t-34.5 -14.5t-13.5 -35.5t13.5 -35.5t34.5 -14.5z" />
    <glyph glyph-name="guilsinglleft" unicode="&#x2039;" horiz-adv-x="367" 
d="M317 509l-115 -200l115 -200h-152l-115 200l115 200h152z" />
    <glyph glyph-name="guilsinglright" unicode="&#x203a;" horiz-adv-x="367" 
d="M202 509l115 -200l-115 -200h-152l115 200l-115 200h152z" />
    <glyph glyph-name="fraction" unicode="&#x2044;" horiz-adv-x="180" 
d="M-50 0h-130l410 700h130z" />
    <glyph glyph-name="Euro" unicode="&#x20ac;" horiz-adv-x="643" 
d="M462 246l171 -97q-79 -165 -258 -165q-117 0 -194 70t-101 192h-70v84h60v20v18h-60v84h69q24 123 101 193.5t195 70.5q176 0 253 -157l-167 -96q-32 59 -86 59q-65 0 -90 -70h140v-84h-155v-18v-20h155v-84h-139q25 -68 89 -68q56 0 87 68z" />
    <glyph glyph-name="uni20BD" unicode="&#x20bd;" horiz-adv-x="615" 
d="M350 233h-80v-39h200v-100h-200v-93h-200v93h-60v100h60v39h-60v180h60v288h280q109 0 182 -62.5t73 -168.5q0 -118 -71 -177.5t-184 -59.5zM270 507v-94h80q55 0 55 47t-55 47h-80z" />
    <glyph glyph-name="uni2116" unicode="&#x2116;" horiz-adv-x="1066" 
d="M863 356q-78 0 -130.5 52.5t-52.5 127.5q0 76 52 128t131 52t131 -52t52 -128q0 -75 -51.5 -127.5t-131.5 -52.5zM430 700h200v-700h-160l-220 320v-320h-200v700h160l220 -320v320zM863 496q18 0 28.5 11t10.5 29q0 17 -11 28.5t-28 11.5t-28 -11.5t-11 -28.5t11 -28.5
t28 -11.5zM696 146v180h334v-180h-334z" />
    <glyph glyph-name="trademark" unicode="&#x2122;" horiz-adv-x="486" 
d="M203 700v-77h-46v-123h-80v123h-47v77h173zM379 700h77v-200h-77v87l-37 -58h-8l-37 58v-87h-77v200h77l41 -64z" />
    <glyph glyph-name="estimated" unicode="&#x212e;" horiz-adv-x="780" 
d="M390 710q163 0 266.5 -104t103.5 -256q0 -15 -15 -15h-560q-15 0 -15 -15v-192q0 -11 7 -19q84 -89 233 -89q145 0 231 97q7 9 18 9h37q10 0 13 -6t-4 -13q-109 -117 -295 -117q-176 0 -283 103.5t-107 256.5q0 152 103.5 256t266.5 104zM610 572q0 11 -7 19
q-84 89 -213 89t-213 -89q-7 -8 -7 -19v-192q0 -15 15 -15h410q15 0 15 15v192z" />
    <glyph glyph-name="oneeighth" unicode="&#x215b;" horiz-adv-x="803" 
d="M111 300v251l-78 -19l-33 120l132 48h121v-400h-142zM509 700h130l-410 -700h-130zM734 209q59 -34 59 -99q0 -57 -43.5 -90.5t-118.5 -33.5t-118.5 33.5t-43.5 90.5q0 65 59 99q-45 31 -45 83q0 56 42 89t106 33t106 -33t42 -89q0 -52 -45 -83zM631 303q-25 0 -25 -23
q0 -21 25 -21t25 21q0 23 -25 23zM631 98q32 0 32 29q0 28 -32 28t-32 -28q0 -29 32 -29z" />
    <glyph glyph-name="threeeighths" unicode="&#x215c;" horiz-adv-x="847" 
d="M328 429q0 -68 -45.5 -105.5t-118.5 -37.5q-119 0 -164 98l114 65q15 -40 50 -40q28 0 28 20q0 19 -23 19h-32l-50 75l48 54h-114v123h292v-89l-64 -72q79 -30 79 -110zM553 700h130l-410 -700h-130zM778 209q59 -34 59 -99q0 -57 -43.5 -90.5t-118.5 -33.5t-118.5 33.5
t-43.5 90.5q0 65 59 99q-45 31 -45 83q0 56 42 89t106 33t106 -33t42 -89q0 -52 -45 -83zM675 303q-25 0 -25 -23q0 -21 25 -21t25 21q0 23 -25 23zM675 98q32 0 32 29q0 28 -32 28t-32 -28q0 -29 32 -29z" />
    <glyph glyph-name="fiveeighths" unicode="&#x215d;" horiz-adv-x="854" 
d="M320 423q0 -68 -44 -102.5t-114 -34.5q-118 0 -162 98l115 55q13 -35 45 -35q29 0 29 21t-26 21h-136l17 254h261v-123h-144l-1 -24h8q70 0 111 -32.5t41 -97.5zM560 700h130l-410 -700h-130zM785 209q59 -34 59 -99q0 -57 -43.5 -90.5t-118.5 -33.5t-118.5 33.5
t-43.5 90.5q0 65 59 99q-45 31 -45 83q0 56 42 89t106 33t106 -33t42 -89q0 -52 -45 -83zM682 303q-25 0 -25 -23q0 -21 25 -21t25 21q0 23 -25 23zM682 98q32 0 32 29q0 28 -32 28t-32 -28q0 -29 32 -29z" />
    <glyph glyph-name="seveneighths" unicode="&#x215e;" horiz-adv-x="834" 
d="M193 300h-145l101 277h-149v123h300v-106zM540 700h130l-410 -700h-130zM765 209q59 -34 59 -99q0 -57 -43.5 -90.5t-118.5 -33.5t-118.5 33.5t-43.5 90.5q0 65 59 99q-45 31 -45 83q0 56 42 89t106 33t106 -33t42 -89q0 -52 -45 -83zM662 303q-25 0 -25 -23
q0 -21 25 -21t25 21q0 23 -25 23zM662 98q32 0 32 29q0 28 -32 28t-32 -28q0 -29 32 -29z" />
    <glyph glyph-name="arrowleft" unicode="&#x2190;" horiz-adv-x="780" 
d="M750 437v-175h-394l212 -212h-238l-300 300l300 300h238l-213 -213h395z" />
    <glyph glyph-name="arrowup" unicode="&#x2191;" horiz-adv-x="660" 
d="M630 400v-238l-207 207v-369h-185v370l-208 -208v238l300 300z" />
    <glyph glyph-name="arrowright" unicode="&#x2192;" horiz-adv-x="780" 
d="M450 650l300 -300l-300 -300h-238l212 212h-394v175h395l-213 213h238z" />
    <glyph glyph-name="arrowdown" unicode="&#x2193;" horiz-adv-x="660" 
d="M423 331l207 207v-238l-300 -300l-300 300v238l208 -208v370h185v-369z" />
    <glyph glyph-name="arrowboth" unicode="&#x2194;" horiz-adv-x="1180" 
d="M860 640l290 -290l-290 -290h-238l202 202h-468l202 -202h-238l-290 290l290 290h238l-203 -203h470l-203 203h238z" />
    <glyph glyph-name="arrowupdn" unicode="&#x2195;" horiz-adv-x="640" 
d="M610 372l-197 197v-438l197 197v-238l-290 -290l-290 290v238l198 -198v440l-198 -198v238l290 290l290 -290v-238z" />
    <glyph glyph-name="uni2196" unicode="&#x2196;" horiz-adv-x="660" 
d="M630 163l-131 -131l-301 301v-293l-168 168v424h424l168 -168h-294z" />
    <glyph glyph-name="uni2197" unicode="&#x2197;" horiz-adv-x="660" 
d="M206 632h424v-424l-168 -168v293l-301 -301l-131 131l302 301h-294z" />
    <glyph glyph-name="uni2198" unicode="&#x2198;" horiz-adv-x="660" 
d="M462 654l168 -168v-424h-424l-168 168h294l-302 301l131 131l301 -301v293z" />
    <glyph glyph-name="uni2199" unicode="&#x2199;" horiz-adv-x="660" 
d="M630 531l-302 -301h294l-168 -168h-424v424l168 168v-293l301 301z" />
    <glyph glyph-name="partialdiff" unicode="&#x2202;" horiz-adv-x="581" 
d="M237 716q129 0 216.5 -100.5t87.5 -265.5q0 -178 -79.5 -272t-215.5 -94q-103 0 -164.5 62t-61.5 154q0 103 63.5 169t167.5 66q48 0 94 -18q-22 122 -129 125q-63 1 -120 -31v169q56 36 141 36zM260 154q66 0 84 104q-34 17 -73 17q-29 0 -47.5 -18t-18.5 -47
q0 -24 16 -40t39 -16z" />
    <glyph glyph-name="emptyset" unicode="&#x2205;" horiz-adv-x="804" 
d="M659 605q105 -107 105 -255q0 -150 -106 -256t-256 -106q-88 0 -166 40l-36 -48h-140l85 115q-105 107 -105 255q0 150 106 256t256 106q88 0 166 -40l36 48h140zM170 350q0 -85 53 -149l268 365q-41 18 -89 18q-97 0 -164.5 -68t-67.5 -166zM402 116q97 0 164.5 68
t67.5 166q0 85 -53 149l-268 -365q40 -18 89 -18z" />
    <glyph glyph-name="product" unicode="&#x220f;" horiz-adv-x="620" 
d="M50 -200v900h520v-900h-185v724h-150v-724h-185z" />
    <glyph glyph-name="summation" unicode="&#x2211;" horiz-adv-x="550" 
d="M20 -200v155l186 305l-171 284v156h470v-184h-238l154 -256l-168 -276h267v-184h-500z" />
    <glyph glyph-name="minus" unicode="&#x2212;" horiz-adv-x="560" 
d="M30 260v180h500v-180h-500z" />
    <glyph glyph-name="radical" unicode="&#x221a;" horiz-adv-x="700" 
d="M241 0l-108 172h-113v172h218l77 -133l195 589h190l-280 -800h-179z" />
    <glyph glyph-name="infinity" unicode="&#x221e;" horiz-adv-x="830" 
d="M597 555q88 0 145.5 -57.5t57.5 -147.5t-57.5 -147.5t-145.5 -57.5q-99 0 -182 91q-83 -91 -182 -91q-88 0 -145.5 57.5t-57.5 147.5t57.5 147.5t145.5 57.5q99 0 182 -91q83 91 182 91zM258 315q34 0 68 35q-34 35 -68 35q-15 0 -26.5 -9t-11.5 -26t11.5 -26t26.5 -9z
M572 315q15 0 26.5 9t11.5 26t-11.5 26t-26.5 9q-34 0 -68 -35q34 -35 68 -35z" />
    <glyph glyph-name="integral" unicode="&#x222b;" horiz-adv-x="482" 
d="M0 -204v180q34 -14 63.5 0.5t36.5 51.5l86 505q13 75 57.5 120t105.5 53.5t133 -4.5v-180q-34 14 -63.5 -0.5t-36.5 -51.5l-86 -505q-13 -75 -57.5 -120t-105.5 -53.5t-133 4.5z" />
    <glyph glyph-name="approxequal" unicode="&#x2248;" horiz-adv-x="578" 
d="M289 372q-43 19 -78.5 22.5t-60 -4.5t-53.5 -27l-67 50q22 114 92.5 153t166.5 -6q49 -22 72 -27.5t36 4t21 40.5l130 -59q-22 -114 -92.5 -152.5t-166.5 6.5zM160 119l-130 59q22 114 92.5 152.5t166.5 -6.5q43 -19 78.5 -22.5t60 4.5t53.5 27l67 -50
q-22 -114 -92.5 -153t-166.5 6q-49 22 -72 27.5t-36 -4t-21 -40.5z" />
    <glyph glyph-name="notequal" unicode="&#x2260;" horiz-adv-x="500" 
d="M470 375h-169l-22 -50h191v-180h-269l-41 -95h-80l41 95h-91v180h169l22 50h-191v180h269l41 95h80l-41 -95h91v-180z" />
    <glyph glyph-name="lessequal" unicode="&#x2264;" horiz-adv-x="510" 
d="M480 700v-194l-280 -56l280 -56v-194l-450 145v210zM30 0v180h450v-180h-450z" />
    <glyph glyph-name="greaterequal" unicode="&#x2265;" horiz-adv-x="510" 
d="M30 700l450 -145v-210l-450 -145v194l280 56l-280 56v194zM30 0v180h450v-180h-450z" />
    <glyph glyph-name="lozenge" unicode="&#x25ca;" horiz-adv-x="620" 
d="M216 0l-186 350l186 350h188l186 -350l-186 -350h-188zM310 212l73 138l-73 138l-73 -138z" />
    <glyph glyph-name="i.loclTRK" horiz-adv-x="265" 
d="M131 540q-39 0 -67 28t-28 67t28 67t67 28t67 -28t28 -67t-28 -67t-67 -28zM40 0v500h185v-500h-185z" />
    <glyph glyph-name="f_f_j" horiz-adv-x="860" 
d="M820 500v-500q0 -118 -60.5 -170.5t-189.5 -45.5v166q65 -6 65 50v324h-97v-324h-185v324h-100v-324h-185v324h-58v176h58q0 108 67 165.5t195 50.5v-166q-36 3 -56.5 -11t-20.5 -39h100v10q0 106 66 161t196 55q72 0 135 -16v-152q-67 10 -120 10q-92 0 -92 -58v-10h282
z" />
    <glyph glyph-name="f_j" 
d="M535 500v-500q0 -118 -60.5 -170.5t-189.5 -45.5v166q65 -6 65 50v324h-97v-324h-185v324h-58v176h58q0 106 66 161t196 55q72 0 135 -16v-152q-67 10 -120 10q-92 0 -92 -58h282z" />
    <glyph glyph-name="uni0414.loclBGR" horiz-adv-x="740" 
d="M654 194h81v-328h-200v134h-330v-134h-200v328h81l172 506h224zM290 194h160l-80 281z" />
    <glyph glyph-name="uni041B.loclBGR" horiz-adv-x="670" 
d="M223 700h224l223 -700h-220l-115 445l-115 -445h-220z" />
    <glyph glyph-name="uni0424.loclBGR" horiz-adv-x="874" 
d="M849 350q0 -141 -86 -235.5t-231 -118.5v-96h-190v96q-145 24 -231 118.5t-86 235.5t86 235.5t231 118.5v96h190v-96q145 -24 231 -118.5t86 -235.5zM225 350q0 -129 117 -164v328q-117 -35 -117 -164zM532 186q117 35 117 164t-117 164v-328z" />
    <glyph glyph-name="uni0414.ss01" horiz-adv-x="715" 
d="M630 194h75v-194h-700v194h74q42 76 42 212v294h509v-506zM286 194h144v322h-109v-112q0 -130 -35 -210z" />
    <glyph glyph-name="uni0426.ss01" horiz-adv-x="715" 
d="M620 194h85v-194h-655v700h210v-506h150v506h210v-506z" />
    <glyph glyph-name="uni0429.ss01" horiz-adv-x="1005" 
d="M910 194h85v-194h-945v700h200v-506h130v506h200v-506h130v506h200v-506z" />
    <glyph glyph-name="uni0414.loclBGR.ss01" horiz-adv-x="740" 
d="M654 194h81v-194h-730v194h81l172 506h224zM290 194h160l-80 281z" />
    <glyph glyph-name="uni0432.loclBGR" horiz-adv-x="558" 
d="M440 405q100 -52 100 -187q0 -107 -68.5 -169.5t-186.5 -62.5q-111 0 -178 65.5t-67 176.5v239q0 114 65.5 180.5t175.5 66.5q97 0 153 -51t56 -135q0 -70 -50 -123zM270 544q-45 0 -45 -62v-61l9 2q19 4 39 6q36 33 36 68q0 47 -39 47zM290 160q30 0 47.5 15.5
t17.5 42.5q0 35 -24.5 50.5t-67.5 6.5l-38 -8v-39q0 -31 17.5 -49.5t47.5 -18.5z" />
    <glyph glyph-name="uni0433.loclBGR" horiz-adv-x="479" 
d="M318 177l151 -72q-53 -119 -234 -119q-39 0 -74 8.5t-68 27t-53 54t-20 83.5q0 46 18 78.5t45.5 47.5t59 25t59 13.5t45.5 10.5t18 19q0 21 -31 21q-38 0 -56 -42l-153 55q53 127 221 127q82 0 142.5 -45t60.5 -127q0 -51 -24.5 -85t-59 -48.5t-69 -23t-59 -16.5
t-24.5 -21q0 -22 34 -22q52 0 71 51z" />
    <glyph glyph-name="uni0434.loclBGR" horiz-adv-x="613" 
d="M388 500h185v-485q0 -60 -22.5 -106t-60.5 -72.5t-83.5 -39.5t-95.5 -13q-88 0 -156 32t-101 90l150 87q36 -49 97 -49q35 0 61 17.5t26 53.5v50q-48 -59 -134 -59q-100 0 -164.5 73t-64.5 181t64.5 181t164.5 73q86 0 134 -59v45zM299 170q40 0 64.5 26t24.5 64
t-24.5 64t-64.5 26t-64.5 -26t-24.5 -64t24.5 -64t64.5 -26z" />
    <glyph glyph-name="uni0436.loclBGR" horiz-adv-x="789" 
d="M789 0h-202l-100 192v-192h-185v192l-100 -192h-202l144 250l-134 250h202l90 -187v387h185v-387l90 187h202l-134 -250z" />
    <glyph glyph-name="uni0438.loclBGR" 
d="M350 500h185v-500h-185v49q-46 -63 -134 -63q-82 0 -131.5 56.5t-49.5 168.5v289h185v-269q0 -67 62 -67q33 0 50.5 21t17.5 58v257z" />
    <glyph glyph-name="uni0439.loclBGR" 
d="M460 699v-150h-350v150h350zM350 500h185v-500h-185v49q-46 -63 -134 -63q-82 0 -131.5 56.5t-49.5 168.5v289h185v-269q0 -67 62 -67q33 0 50.5 21t17.5 58v257z" />
    <glyph glyph-name="uni043A.loclBGR" horiz-adv-x="550" 
d="M550 0h-205l-120 200v-200h-185v700h185v-394l105 194h210l-152 -250z" />
    <glyph glyph-name="uni043B.loclBGR" horiz-adv-x="570" 
d="M570 0h-205l-80 250l-80 -250h-205l190 500h190z" />
    <glyph glyph-name="uni043F.loclBGR" 
d="M359 514q82 0 131.5 -56.5t49.5 -168.5v-289h-185v269q0 67 -62 67q-33 0 -50.5 -21t-17.5 -58v-257h-185v500h185v-49q46 63 134 63z" />
    <glyph glyph-name="uni0442.loclBGR" horiz-adv-x="850" 
d="M630 514q87 0 136 -54.5t49 -155.5v-304h-185v279q0 57 -51 57q-59 0 -59 -74v-262h-185v279q0 57 -51 57q-59 0 -59 -74v-262h-185v500h185v-47q49 61 136 61q86 0 125 -62q54 62 144 62z" />
    <glyph glyph-name="uni0446.loclBGR" horiz-adv-x="620" 
d="M565 166h45v-300h-170v148q-38 15 -60 46q-52 -74 -164 -74q-82 0 -131.5 56.5t-49.5 168.5v289h185v-269q0 -67 62 -67q33 0 50.5 21t17.5 58v257h185v-304q0 -30 30 -30z" />
    <glyph glyph-name="uni0448.loclBGR" horiz-adv-x="850" 
d="M625 500h185v-500h-185v47q-49 -61 -136 -61q-86 0 -125 62q-54 -62 -144 -62q-87 0 -136 54.5t-49 155.5v304h185v-279q0 -57 51 -57q59 0 59 74v262h185v-279q0 -57 51 -57q59 0 59 74v262z" />
    <glyph glyph-name="uni0449.loclBGR" horiz-adv-x="895" 
d="M840 166h45v-300h-170v148q-37 15 -59 44q-55 -72 -157 -72q-89 0 -133 65q-53 -65 -146 -65q-87 0 -136 54.5t-49 155.5v304h185v-279q0 -57 51 -57q59 0 59 74v262h185v-279q0 -57 51 -57q59 0 59 74v262h185v-304q0 -30 30 -30z" />
    <glyph glyph-name="uni044C.loclBGR" horiz-adv-x="495" 
d="M270 378q105 0 160 -54t55 -144q0 -86 -60 -141t-165 -55q-110 0 -167.5 54.5t-57.5 151.5v310h180v-122h55zM260 149q45 0 45 38q0 40 -45 40h-45v-32q0 -46 45 -46z" />
    <glyph glyph-name="uni044A.loclBGR" horiz-adv-x="570" 
d="M345 378q105 0 160 -54t55 -144q0 -86 -60 -141t-165 -55q-110 0 -167.5 54.5t-57.5 151.5v140h-110v170h290v-122h55zM335 149q45 0 45 38q0 40 -45 40h-45v-32q0 -46 45 -46z" />
    <glyph glyph-name="uni044E.loclBGR" horiz-adv-x="798" 
d="M511 514q113 0 191 -76t78 -188t-78 -188t-191 -76q-87 0 -153 48.5t-92 127.5h-41v-162h-185v700h185v-362h40q26 79 92 127.5t154 48.5zM511 162q37 0 60.5 24.5t23.5 63.5t-23.5 63.5t-60.5 24.5t-60.5 -24.5t-23.5 -63.5t23.5 -63.5t60.5 -24.5z" />
    <glyph glyph-name="zero.sinf" horiz-adv-x="410" 
d="M205 -174q-85 0 -137.5 58t-52.5 156t52.5 156t137.5 58t137.5 -58t52.5 -156t-52.5 -156t-137.5 -58zM205 -33q43 0 43 73t-43 73t-43 -73t43 -73z" />
    <glyph glyph-name="one.sinf" horiz-adv-x="283" 
d="M132 240h121v-400h-142v251l-78 -19l-33 120z" />
    <glyph glyph-name="two.sinf" horiz-adv-x="349" 
d="M23 -160v102l140 131q27 25 27 41q0 18 -20 18q-23 0 -39 -42l-116 66q50 98 162 98q61 0 106 -36.5t45 -95.5q0 -63 -70 -125l-36 -32h107v-125h-306z" />
    <glyph glyph-name="three.sinf" horiz-adv-x="338" 
d="M249 79q79 -30 79 -110q0 -68 -45.5 -105.5t-118.5 -37.5q-119 0 -164 98l114 65q15 -40 50 -40q28 0 28 20q0 19 -23 19h-32l-50 75l48 54h-114v123h292v-89z" />
    <glyph glyph-name="four.sinf" horiz-adv-x="366" 
d="M356 11v-120h-33v-51h-128v51h-190v120l110 229h147l-104 -229h37v66h128v-66h33z" />
    <glyph glyph-name="five.sinf" horiz-adv-x="330" 
d="M168 93q70 0 111 -32.5t41 -97.5q0 -68 -44 -102.5t-114 -34.5q-118 0 -162 98l115 55q13 -35 45 -35q29 0 29 21t-26 21h-136l17 254h261v-123h-144l-1 -24h8z" />
    <glyph glyph-name="six.sinf" horiz-adv-x="344" 
d="M218 115q55 -12 85.5 -50t30.5 -92q0 -66 -43.5 -106.5t-118.5 -40.5t-118.5 40.5t-43.5 106.5q0 45 22 81l110 186h148zM172 -57q31 0 31 30t-31 30t-31 -30t31 -30z" />
    <glyph glyph-name="seven.sinf" horiz-adv-x="310" 
d="M0 240h300v-106l-107 -294h-145l101 277h-149v123z" />
    <glyph glyph-name="eight.sinf" horiz-adv-x="344" 
d="M275 49q59 -34 59 -99q0 -57 -43.5 -90.5t-118.5 -33.5t-118.5 33.5t-43.5 90.5q0 65 59 99q-45 31 -45 83q0 56 42 89t106 33t106 -33t42 -89q0 -52 -45 -83zM172 143q-25 0 -25 -23q0 -21 25 -21t25 21q0 23 -25 23zM172 -62q32 0 32 29q0 28 -32 28t-32 -28
q0 -29 32 -29z" />
    <glyph glyph-name="nine.sinf" horiz-adv-x="344" 
d="M334 107q0 -45 -22 -81l-110 -186h-148l72 125q-55 12 -85.5 50t-30.5 92q0 66 43.5 106.5t118.5 40.5t118.5 -40.5t43.5 -106.5zM172 137q-31 0 -31 -30t31 -30t31 30t-31 30z" />
    <glyph glyph-name="zero.tf" horiz-adv-x="600" 
d="M300 -16q-141 0 -218 99.5t-77 266.5t77 266.5t218 99.5t218 -99.5t77 -266.5t-77 -266.5t-218 -99.5zM300 178q95 0 95 172t-95 172t-95 -172t95 -172z" />
    <glyph glyph-name="one.tf" horiz-adv-x="600" 
d="M417 194h168v-194h-560v194h192v297l-121 -29l-46 167l197 71h170v-506z" />
    <glyph glyph-name="two.tf" horiz-adv-x="600" 
d="M32 0v146l268 237q58 52 58 87q0 24 -17.5 38t-45.5 14q-71 0 -102 -89l-173 100q32 90 106.5 136.5t168.5 46.5q108 0 185.5 -63t77.5 -175q0 -60 -25 -106t-79 -94l-94 -84h213v-194h-541z" />
    <glyph glyph-name="three.tf" horiz-adv-x="600" 
d="M419 414q74 -19 115 -68.5t41 -125.5q0 -117 -75 -176.5t-200 -59.5q-103 0 -180 47.5t-105 140.5l176 100q24 -94 109 -94q75 0 75 52q0 26 -19 38t-61 12h-37l-81 119l99 107h-229v194h490v-154z" />
    <glyph glyph-name="four.tf" horiz-adv-x="600" 
d="M585 282v-180h-70v-102h-196v102h-314v180l213 418h227l-213 -418h87v108h196v-108h70z" />
    <glyph glyph-name="five.tf" horiz-adv-x="600" 
d="M310 453q126 0 198 -55.5t72 -173.5q0 -115 -77.5 -177.5t-202.5 -62.5q-99 0 -174.5 44.5t-106.5 130.5l178 96q22 -77 103 -77q80 0 80 51q0 47 -80 47h-243l29 424h449v-194h-264l-3 -53h42z" />
    <glyph glyph-name="six.tf" horiz-adv-x="600" 
d="M355 484q107 -14 168.5 -81.5t61.5 -166.5q0 -111 -76.5 -181.5t-208.5 -70.5t-208.5 70.5t-76.5 181.5q0 80 39 138l1 2l2 2l218 322h225zM300 163q40 0 62.5 19.5t22.5 53.5t-22.5 53.5t-62.5 19.5t-62.5 -19.5t-22.5 -53.5t22.5 -53.5t62.5 -19.5z" />
    <glyph glyph-name="seven.tf" horiz-adv-x="600" 
d="M20 700h550v-164l-238 -536h-220l222 506h-314v194z" />
    <glyph glyph-name="eight.tf" horiz-adv-x="600" 
d="M482 366q100 -58 100 -169q0 -98 -73 -154.5t-209 -56.5t-209 56.5t-73 154.5q0 111 100 169q-76 51 -76 140q0 97 72 152.5t186 55.5t186 -55.5t72 -152.5q0 -89 -76 -140zM300 538q-78 0 -78 -51t78 -51t78 51t-78 51zM300 166q82 0 82 59t-82 59t-82 -59t82 -59z" />
    <glyph glyph-name="nine.tf" horiz-adv-x="600" 
d="M546 326l-1 -2l-2 -2l-218 -322h-225l145 216q-107 14 -168.5 81.5t-61.5 166.5q0 111 76.5 181.5t208.5 70.5t208.5 -70.5t76.5 -181.5q0 -80 -39 -138zM215 464q0 -34 22.5 -53.5t62.5 -19.5t62.5 19.5t22.5 53.5t-22.5 53.5t-62.5 19.5t-62.5 -19.5t-22.5 -53.5z" />
    <glyph glyph-name="zero.dnom" horiz-adv-x="410" 
d="M205 -14q-85 0 -137.5 58t-52.5 156t52.5 156t137.5 58t137.5 -58t52.5 -156t-52.5 -156t-137.5 -58zM205 127q43 0 43 73t-43 73t-43 -73t43 -73z" />
    <glyph glyph-name="one.dnom" horiz-adv-x="279" 
d="M132 400h121v-400h-142v251l-78 -19l-33 120z" />
    <glyph glyph-name="two.dnom" horiz-adv-x="351" 
d="M23 0v102l140 131q27 25 27 41q0 18 -20 18q-23 0 -39 -42l-116 66q50 98 162 98q61 0 106 -36.5t45 -95.5q0 -63 -70 -125l-36 -32h107v-125h-306z" />
    <glyph glyph-name="three.dnom" horiz-adv-x="323" 
d="M249 239q79 -30 79 -110q0 -68 -45.5 -105.5t-118.5 -37.5q-119 0 -164 98l114 65q15 -40 50 -40q28 0 28 20q0 19 -23 19h-32l-50 75l48 54h-114v123h292v-89z" />
    <glyph glyph-name="four.dnom" horiz-adv-x="366" 
d="M356 171v-120h-33v-51h-128v51h-190v120l110 229h147l-104 -229h37v66h128v-66h33z" />
    <glyph glyph-name="five.dnom" horiz-adv-x="330" 
d="M168 253q70 0 111 -32.5t41 -97.5q0 -68 -44 -102.5t-114 -34.5q-118 0 -162 98l115 55q13 -35 45 -35q29 0 29 21t-26 21h-136l17 254h261v-123h-144l-1 -24h8z" />
    <glyph glyph-name="six.dnom" horiz-adv-x="344" 
d="M218 275q55 -12 85.5 -50t30.5 -92q0 -66 -43.5 -106.5t-118.5 -40.5t-118.5 40.5t-43.5 106.5q0 45 22 81l110 186h148zM172 103q31 0 31 30t-31 30t-31 -30t31 -30z" />
    <glyph glyph-name="seven.dnom" horiz-adv-x="310" 
d="M0 400h300v-106l-107 -294h-145l101 277h-149v123z" />
    <glyph glyph-name="eight.dnom" horiz-adv-x="344" 
d="M275 209q59 -34 59 -99q0 -57 -43.5 -90.5t-118.5 -33.5t-118.5 33.5t-43.5 90.5q0 65 59 99q-45 31 -45 83q0 56 42 89t106 33t106 -33t42 -89q0 -52 -45 -83zM172 303q-25 0 -25 -23q0 -21 25 -21t25 21q0 23 -25 23zM172 98q32 0 32 29q0 28 -32 28t-32 -28
q0 -29 32 -29z" />
    <glyph glyph-name="nine.dnom" horiz-adv-x="344" 
d="M329 267q0 -45 -22 -81l-110 -186h-148l72 125q-55 12 -85.5 50t-30.5 92q0 66 43.5 106.5t118.5 40.5t118.5 -40.5t43.5 -106.5zM167 297q-31 0 -31 -30t31 -30t31 30t-31 30z" />
    <glyph glyph-name="zero.numr" horiz-adv-x="410" 
d="M205 286q-85 0 -137.5 58t-52.5 156t52.5 156t137.5 58t137.5 -58t52.5 -156t-52.5 -156t-137.5 -58zM205 427q43 0 43 73t-43 73t-43 -73t43 -73z" />
    <glyph glyph-name="one.numr" horiz-adv-x="279" 
d="M132 700h121v-400h-142v251l-78 -19l-33 120z" />
    <glyph glyph-name="two.numr" horiz-adv-x="351" 
d="M23 300v102l140 131q27 25 27 41q0 18 -20 18q-23 0 -39 -42l-116 66q50 98 162 98q61 0 106 -36.5t45 -95.5q0 -63 -70 -125l-36 -32h107v-125h-306z" />
    <glyph glyph-name="three.numr" horiz-adv-x="323" 
d="M249 539q79 -30 79 -110q0 -68 -45.5 -105.5t-118.5 -37.5q-119 0 -164 98l114 65q15 -40 50 -40q28 0 28 20q0 19 -23 19h-32l-50 75l48 54h-114v123h292v-89z" />
    <glyph glyph-name="four.numr" horiz-adv-x="366" 
d="M356 471v-120h-33v-51h-128v51h-190v120l110 229h147l-104 -229h37v66h128v-66h33z" />
    <glyph glyph-name="five.numr" horiz-adv-x="330" 
d="M168 553q70 0 111 -32.5t41 -97.5q0 -68 -44 -102.5t-114 -34.5q-118 0 -162 98l115 55q13 -35 45 -35q29 0 29 21t-26 21h-136l17 254h261v-123h-144l-1 -24h8z" />
    <glyph glyph-name="six.numr" horiz-adv-x="344" 
d="M218 575q55 -12 85.5 -50t30.5 -92q0 -66 -43.5 -106.5t-118.5 -40.5t-118.5 40.5t-43.5 106.5q0 45 22 81l110 186h148zM172 403q31 0 31 30t-31 30t-31 -30t31 -30z" />
    <glyph glyph-name="seven.numr" horiz-adv-x="310" 
d="M0 700h300v-106l-107 -294h-145l101 277h-149v123z" />
    <glyph glyph-name="eight.numr" horiz-adv-x="344" 
d="M275 509q59 -34 59 -99q0 -57 -43.5 -90.5t-118.5 -33.5t-118.5 33.5t-43.5 90.5q0 65 59 99q-45 31 -45 83q0 56 42 89t106 33t106 -33t42 -89q0 -52 -45 -83zM172 603q-25 0 -25 -23q0 -21 25 -21t25 21q0 23 -25 23zM172 398q32 0 32 29q0 28 -32 28t-32 -28
q0 -29 32 -29z" />
    <glyph glyph-name="nine.numr" horiz-adv-x="344" 
d="M329 567q0 -45 -22 -81l-110 -186h-148l72 125q-55 12 -85.5 50t-30.5 92q0 66 43.5 106.5t118.5 40.5t118.5 -40.5t43.5 -106.5zM167 597q-31 0 -31 -30t31 -30t31 30t-31 30z" />
    <glyph glyph-name="zero.sups" horiz-adv-x="410" 
d="M205 446q-85 0 -137.5 58t-52.5 156t52.5 156t137.5 58t137.5 -58t52.5 -156t-52.5 -156t-137.5 -58zM205 587q43 0 43 73t-43 73t-43 -73t43 -73z" />
    <glyph glyph-name="one.sups" horiz-adv-x="279" 
d="M132 860h121v-400h-142v251l-78 -19l-33 120z" />
    <glyph glyph-name="two.sups" horiz-adv-x="351" 
d="M23 460v102l140 131q27 25 27 41q0 18 -20 18q-23 0 -39 -42l-116 66q50 98 162 98q61 0 106 -36.5t45 -95.5q0 -63 -70 -125l-36 -32h107v-125h-306z" />
    <glyph glyph-name="three.sups" horiz-adv-x="323" 
d="M249 699q79 -30 79 -110q0 -68 -45.5 -105.5t-118.5 -37.5q-119 0 -164 98l114 65q15 -40 50 -40q28 0 28 20q0 19 -23 19h-32l-50 75l48 54h-114v123h292v-89z" />
    <glyph glyph-name="four.sups" horiz-adv-x="366" 
d="M356 631v-120h-33v-51h-128v51h-190v120l110 229h147l-104 -229h37v66h128v-66h33z" />
    <glyph glyph-name="five.sups" horiz-adv-x="330" 
d="M168 713q70 0 111 -32.5t41 -97.5q0 -68 -44 -102.5t-114 -34.5q-118 0 -162 98l115 55q13 -35 45 -35q29 0 29 21t-26 21h-136l17 254h261v-123h-144l-1 -24h8z" />
    <glyph glyph-name="six.sups" horiz-adv-x="344" 
d="M218 735q55 -12 85.5 -50t30.5 -92q0 -66 -43.5 -106.5t-118.5 -40.5t-118.5 40.5t-43.5 106.5q0 45 22 81l110 186h148zM172 563q31 0 31 30t-31 30t-31 -30t31 -30z" />
    <glyph glyph-name="seven.sups" horiz-adv-x="310" 
d="M0 860h300v-106l-107 -294h-145l101 277h-149v123z" />
    <glyph glyph-name="eight.sups" horiz-adv-x="344" 
d="M275 669q59 -34 59 -99q0 -57 -43.5 -90.5t-118.5 -33.5t-118.5 33.5t-43.5 90.5q0 65 59 99q-45 31 -45 83q0 56 42 89t106 33t106 -33t42 -89q0 -52 -45 -83zM172 763q-25 0 -25 -23q0 -21 25 -21t25 21q0 23 -25 23zM172 558q32 0 32 29q0 28 -32 28t-32 -28
q0 -29 32 -29z" />
    <glyph glyph-name="nine.sups" horiz-adv-x="344" 
d="M329 727q0 -45 -22 -81l-110 -186h-148l72 125q-55 12 -85.5 50t-30.5 92q0 66 43.5 106.5t118.5 40.5t118.5 -40.5t43.5 -106.5zM167 757q-31 0 -31 -30t31 -30t31 30t-31 30z" />
    <glyph glyph-name="cent.tf" horiz-adv-x="600" 
d="M333 264q49 2 71 43l156 -90q-33 -61 -94.5 -96t-135.5 -35q-25 0 -53 5l-29 -91h-65l35 109q-71 30 -113 94.5t-42 146.5q0 113 76 188.5t191 75.5q18 0 50 -4l29 90h65l-35 -108q79 -35 121 -109l-156 -89q-8 14 -21 24zM248 350q0 -41 27 -65l49 151q-33 -2 -54.5 -26
t-21.5 -60z" />
    <glyph glyph-name="dollar.tf" horiz-adv-x="600" 
d="M580 208q0 -98 -64 -156t-176 -67v-85h-70v85q-100 7 -165 51.5t-90 118.5l176 95q19 -62 79 -78v95q-121 39 -177 87.5t-56 137.5q0 98 63.5 157t169.5 66v85h70v-86q160 -17 227 -161l-171 -92q-14 49 -56 66v-99q1 0 3 -1t3 -1q45 -15 76 -27t63.5 -31t51.5 -40
t31 -51.5t12 -68.5zM232 493q0 -24 38 -41v80q-38 -9 -38 -39zM340 167q45 6 45 35q0 24 -45 42v-77z" />
    <glyph glyph-name="Euro.tf" horiz-adv-x="600" 
d="M426 236l169 -97q-31 -71 -93 -113t-147 -42q-111 0 -184.5 70t-96.5 192h-69v84h60v20v18h-60v84h69q22 122 94.5 193t181.5 71q166 0 240 -160l-169 -97q-12 32 -28 47.5t-43 15.5q-51 0 -72 -70h117v-84h-130v-18v-20h130v-84h-116q22 -68 76 -68q45 0 71 58z" />
    <glyph glyph-name="florin.tf" horiz-adv-x="600" 
d="M590 527q-56 14 -92.5 0t-45.5 -51l-9 -38h107v-176h-147l-68 -292q-13 -56 -46.5 -96t-77 -58t-96.5 -23t-105 8v180q110 -27 129 52l57 229h-106v176h150l25 100q28 110 120 151.5t205 17.5v-180z" />
    <glyph glyph-name="uni20BD.tf" horiz-adv-x="600" 
d="M335 233h-70v-39h190v-100h-190v-93h-200v93h-55v100h55v39h-55v180h55v288h270q109 0 182 -62.5t73 -168.5q0 -118 -71 -177.5t-184 -59.5zM265 507v-94h70q55 0 55 47t-55 47h-70z" />
    <glyph glyph-name="sterling.tf" horiz-adv-x="600" 
d="M277 194h313v-194h-570v194h57v81h-47v140h47v62q0 113 71.5 176t171.5 63q94 0 157.5 -39.5t103.5 -124.5l-173 -93q-11 36 -27.5 52.5t-44.5 16.5q-30 0 -44.5 -18.5t-14.5 -45.5v-49h203v-140h-203v-81z" />
    <glyph glyph-name="yen.tf" horiz-adv-x="600" 
d="M600 700l-166 -323h116v-100h-150v-42h150v-100h-150v-135h-200v135h-150v100h150v42h-150v100h116l-166 323h222l78 -190l78 190h222z" />
    <glyph glyph-name="brevecy" horiz-adv-x="430" 
d="M40 549v150h350v-150h-350z" />
    </font>
</defs>
</svg>
