<?xml version="1.0" standalone="no"?>
<!DOCTYPE svg PUBLIC "-//W3C//DTD SVG 1.1//EN" "http://www.w3.org/Graphics/SVG/1.1/DTD/svg11.dtd" >
<svg xmlns="http://www.w3.org/2000/svg" xmlns:xlink="http://www.w3.org/1999/xlink" version="1.1">
<metadata>
Created by FontForge 20161003 at Wed Mar 20 18:30:08 2019
 By www-data
Copyright (c) 2016 by Radomir Tinkov. All rights reserved.
</metadata>
<defs>
<font id="GilroySemiBold" horiz-adv-x="630" >
  <font-face 
    font-family="GilroySemiBold"
    font-weight="600"
    font-stretch="normal"
    units-per-em="1000"
    panose-1="0 0 7 0 0 0 0 0 0 0"
    ascent="800"
    descent="-200"
    x-height="500"
    cap-height="700"
    bbox="-382 -255 1064 970"
    underline-thickness="50"
    underline-position="-150"
    unicode-range="U+0020-FB02"
  />
<missing-glyph horiz-adv-x="500" 
d="M410 800v-1000h-317v1000h317zM333 733h-165v-33h65v-37h-66v-33h166v33h-66v37h66v33zM267 604h-100v-104h166v34h-66v70zM233 570v-36h-33v36h33zM333 473h-166v-33h66v-37h-66v-33h100v70h66v33zM333 413h-33v-66h-133v-34h166v100zM333 291h-100v-56h34v23h33v-47
h-100v80h-33v-113h166v113zM333 118h-166v-113h166v113zM300 85v-47h-100v47h100zM333 -18h-166v-33h70l-70 -47v-33h166v33h-102l70 47h32v33z" />
    <glyph glyph-name="fi" unicode="fi" horiz-adv-x="543" 
d="M481 500v-500h-108v396h-166v-396h-108v396h-76v104h76v10q0 203 226 203q53 0 111 -13v-99q-53 8 -111 8q-60 0 -89 -22t-29 -77v-10h274z" />
    <glyph glyph-name="fl" unicode="fl" horiz-adv-x="543" 
d="M325 713q71 0 156 -18v-695h-108v617q-16 1 -48 1q-118 0 -118 -108v-10h93v-104h-93v-396h-108v396h-76v104h76v10q0 203 226 203z" />
    <glyph glyph-name="f_f" unicode="ff" horiz-adv-x="600" 
d="M600 619q-118 11 -118 -99v-20h118v-104h-118v-396h-108v396h-167v-396h-108v396h-76v104h76v10q0 103 57.5 156.5t168.5 46.5v-104q-118 11 -118 -99v-10h167v20q0 103 57.5 156.5t168.5 46.5v-104z" />
    <glyph glyph-name="f_f_i" unicode="ffi" horiz-adv-x="818" 
d="M756 500v-500h-108v396h-166v-396h-108v396h-167v-396h-108v396h-76v104h76v10q0 103 57.5 156.5t168.5 46.5v-104q-118 11 -118 -99v-10h167v20q0 203 226 203q53 0 111 -13v-99q-53 8 -111 8q-60 0 -89 -22t-29 -77v-20h274z" />
    <glyph glyph-name="f_f_l" unicode="ffl" horiz-adv-x="818" 
d="M600 723q71 0 156 -18v-705h-108v627q-16 1 -48 1q-118 0 -118 -108v-20h93v-104h-93v-396h-108v396h-167v-396h-108v396h-76v104h76v10q0 103 57.5 156.5t168.5 46.5v-104q-118 11 -118 -99v-10h167v20q0 203 226 203z" />
    <glyph glyph-name=".notdef" horiz-adv-x="500" 
d="M410 800v-1000h-317v1000h317zM333 733h-165v-33h65v-37h-66v-33h166v33h-66v37h66v33zM267 604h-100v-104h166v34h-66v70zM233 570v-36h-33v36h33zM333 473h-166v-33h66v-37h-66v-33h100v70h66v33zM333 413h-33v-66h-133v-34h166v100zM333 291h-100v-56h34v23h33v-47
h-100v80h-33v-113h166v113zM333 118h-166v-113h166v113zM300 85v-47h-100v47h100zM333 -18h-166v-33h70l-70 -47v-33h166v33h-102l70 47h32v33z" />
    <glyph glyph-name=".null" horiz-adv-x="0" 
 />
    <glyph glyph-name="nonmarkingreturn" horiz-adv-x="333" 
 />
    <glyph glyph-name="space" unicode=" " horiz-adv-x="250" 
 />
    <glyph glyph-name="exclam" unicode="!" horiz-adv-x="255" 
d="M85 220l-22 280v200h130v-200l-23 -280h-85zM128 -12q-31 0 -53 22t-22 53t21.5 53t53.5 22q31 0 53 -22t22 -53t-22 -53t-53 -22z" />
    <glyph glyph-name="quotedbl" unicode="&#x22;" horiz-adv-x="355" 
d="M60 480l-15 220h105l-15 -220h-75zM220 480l-15 220h105l-15 -220h-75z" />
    <glyph glyph-name="numbersign" unicode="#" horiz-adv-x="610" 
d="M571 400h-112l-16 -100h112l-13 -85h-113l-28 -165h-89l28 165h-112l-28 -165h-89l28 165h-114l14 85h114l16 100h-114l14 85h115l27 165h89l-27 -165h112l27 165h89l-27 -165h111zM354 300l16 100h-112l-16 -100h112z" />
    <glyph glyph-name="dollar" unicode="$" horiz-adv-x="549" 
d="M519 192q0 -85 -54.5 -138.5t-142.5 -64.5v-89h-65v88q-83 5 -142 45t-85 109l99 57q35 -88 128 -98v208q-45 17 -73 30.5t-59.5 37.5t-47 58.5t-15.5 80.5q0 84 56 136t139 60v88h65v-89q134 -18 186 -137l-97 -56q-26 65 -89 79v-198q32 -12 48.5 -19t44 -21t42.5 -28
t31.5 -34t23.5 -46.5t7 -58.5zM177 516q0 -31 18.5 -51t61.5 -40v174q-37 -6 -58.5 -28t-21.5 -55zM322 102q40 8 61 32t21 57t-20 53.5t-62 39.5v-182z" />
    <glyph glyph-name="percent" unicode="%" horiz-adv-x="747" 
d="M214 393q-70 0 -117 46.5t-47 113.5t47 113.5t117 46.5t116.5 -46t46.5 -114q0 -67 -46.5 -113.5t-116.5 -46.5zM213 481q32 0 52 21t20 51q0 31 -20 52t-52 21q-31 0 -51 -21t-20 -52q0 -30 20 -51t51 -21zM109 103l461 513l54 -31l-461 -514zM534 -12q-70 0 -117 46.5
t-47 113.5t47 113.5t117 46.5q69 0 116 -46.5t47 -113.5t-47 -113.5t-116 -46.5zM533 76q32 0 52 21t20 51q0 31 -20 52t-52 21q-31 0 -51 -21t-20 -52q0 -30 20 -51t51 -21z" />
    <glyph glyph-name="ampersand" unicode="&#x26;" horiz-adv-x="668" 
d="M645 35l-93 -54l-67 72q-83 -66 -195 -66q-107 0 -173.5 55t-66.5 150q0 63 31.5 116t91.5 85q-40 55 -40 122q0 88 61.5 143t151.5 55q72 0 130 -38t86 -108l-98 -56q-14 42 -45 66t-72 24q-42 0 -70.5 -24.5t-28.5 -64.5q0 -21 9 -42t19.5 -34.5t31.5 -35.5l170 -184
q25 51 36 122l98 -56q-18 -84 -58 -148zM296 94q67 0 116 37l-172 185q-74 -37 -74 -115q0 -49 34 -78t96 -29z" />
    <glyph glyph-name="quotesingle" unicode="'" horiz-adv-x="195" 
d="M60 480l-15 220h105l-15 -220h-75z" />
    <glyph glyph-name="parenleft" unicode="(" horiz-adv-x="293" 
d="M165 -100q-110 220 -110 450t110 450h108q-110 -220 -110 -450t110 -450h-108z" />
    <glyph glyph-name="parenright" unicode=")" horiz-adv-x="293" 
d="M128 -100h-108q110 220 110 450t-110 450h108q110 -220 110 -450t-110 -450z" />
    <glyph glyph-name="asterisk" unicode="*" horiz-adv-x="396" 
d="M341 609v-72l-90 6l53 -72l-62 -38l-44 83l-44 -83l-62 38l54 72l-91 -6v72l91 -6l-54 72l62 38l44 -83l44 83l62 -38l-53 -72z" />
    <glyph glyph-name="plus" unicode="+" horiz-adv-x="550" 
d="M495 401v-102h-169v-169h-102v169h-169v102h169v169h102v-169h169z" />
    <glyph glyph-name="comma" unicode="," horiz-adv-x="265" 
d="M213 120l-70 -260h-90l40 260h120z" />
    <glyph glyph-name="hyphen" unicode="-" horiz-adv-x="510" 
d="M70 252v104h370v-104h-370z" />
    <glyph glyph-name="period" unicode="." horiz-adv-x="255" 
d="M128 -12q-31 0 -53 22t-22 53t21.5 53t53.5 22q31 0 53 -22t22 -53t-22 -53t-53 -22z" />
    <glyph glyph-name="slash" unicode="/" horiz-adv-x="525" 
d="M90 -100h-55l400 900h55z" />
    <glyph glyph-name="zero" unicode="0" 
d="M315 -13q-130 0 -202.5 99t-72.5 264t72.5 264t202.5 99t202.5 -99t72.5 -264t-72.5 -264t-202.5 -99zM315 99q78 0 119 65t41 186t-41 186t-119 65q-77 0 -118.5 -65t-41.5 -186t41.5 -186t118.5 -65z" />
    <glyph glyph-name="one" unicode="1" horiz-adv-x="372" 
d="M197 700h100v-700h-115v577l-141 -40l-28 98z" />
    <glyph glyph-name="two" unicode="2" horiz-adv-x="529" 
d="M31 0v90l244 249q89 89 89 154q0 51 -30.5 79.5t-77.5 28.5q-88 0 -130 -87l-97 57q33 70 93 106t133 36q92 0 158 -58t66 -158q0 -107 -119 -228l-158 -158h290v-111h-461z" />
    <glyph glyph-name="three" unicode="3" horiz-adv-x="540" 
d="M334 414q76 -18 123.5 -70.5t47.5 -131.5q0 -105 -71 -165t-174 -60q-80 0 -143.5 37t-91.5 108l98 57q31 -90 137 -90q60 0 95 30.5t35 82.5t-35 82t-95 30h-26l-46 69l151 199h-293v108h430v-98z" />
    <glyph glyph-name="four" unicode="4" horiz-adv-x="580" 
d="M563 233v-107h-80v-126h-116v126h-344v107l241 467h125l-241 -467h219v182h116v-182h80z" />
    <glyph glyph-name="five" unicode="5" horiz-adv-x="545" 
d="M275 436q100 0 169 -59.5t69 -164.5t-71 -165t-174 -60q-83 0 -147 38.5t-91 111.5l99 57q28 -95 139 -95q59 0 94.5 30.5t35.5 82.5t-35 82t-93 30h-204l27 376h390v-108h-284l-12 -156h88z" />
    <glyph glyph-name="six" unicode="6" horiz-adv-x="545" 
d="M273 465q109 0 178 -66.5t69 -172.5t-69 -172.5t-178 -66.5q-110 0 -179 66.5t-69 172.5q0 80 42 141l222 333h131l-160 -235h13zM273 96q58 0 95 35.5t37 94.5t-37 94.5t-95 35.5q-59 0 -96 -35.5t-37 -94.5t37 -94.5t96 -35.5z" />
    <glyph glyph-name="seven" unicode="7" horiz-adv-x="490" 
d="M15 700h445v-100l-246 -600h-121l242 590h-320v110z" />
    <glyph glyph-name="eight" unicode="8" horiz-adv-x="561" 
d="M423 364q103 -57 103 -170q0 -96 -67 -151.5t-178 -55.5t-178.5 55.5t-67.5 151.5q0 54 27 98.5t76 71.5q-79 52 -79 148t64 148.5t158 52.5q93 0 157.5 -52.5t64.5 -148.5t-80 -148zM281 604q-47 0 -77 -25t-30 -72q0 -45 30.5 -71t76.5 -26q45 0 76 26t31 71
q0 47 -30.5 72t-76.5 25zM281 96q58 0 94 28.5t36 80.5t-36 80.5t-94 28.5q-59 0 -95 -28.5t-36 -80.5t36 -80.5t95 -28.5z" />
    <glyph glyph-name="nine" unicode="9" horiz-adv-x="545" 
d="M520 474q0 -80 -42 -141l-221 -333h-132l160 235h-12q-109 0 -178.5 66.5t-69.5 172.5t69.5 172.5t178.5 66.5t178 -66.5t69 -172.5zM140 474q0 -58 37.5 -94t95.5 -36t95 35.5t37 94.5t-37 94.5t-95 35.5t-95.5 -35.5t-37.5 -94.5z" />
    <glyph glyph-name="colon" unicode=":" horiz-adv-x="255" 
d="M128 363q-31 0 -53 22t-22 53q0 32 21.5 53.5t53.5 21.5q31 0 53 -22t22 -53t-22 -53t-53 -22zM128 -12q-31 0 -53 22t-22 53t21.5 53t53.5 22q31 0 53 -22t22 -53t-22 -53t-53 -22z" />
    <glyph glyph-name="semicolon" unicode=";" horiz-adv-x="268" 
d="M141 363q-31 0 -53 22t-22 53q0 32 22 53.5t53 21.5t53 -22t22 -53t-22 -53t-53 -22zM213 120l-70 -260h-90l40 260h120z" />
    <glyph glyph-name="less" unicode="&#x3c;" horiz-adv-x="525" 
d="M475 585v-114l-303 -121l303 -121v-114l-425 185v100z" />
    <glyph glyph-name="equal" unicode="=" horiz-adv-x="530" 
d="M50 402v102h430v-102h-430zM50 197v102h430v-102h-430z" />
    <glyph glyph-name="greater" unicode="&#x3e;" horiz-adv-x="525" 
d="M50 585l425 -185v-100l-425 -185v114l303 121l-303 121v114z" />
    <glyph glyph-name="question" unicode="?" horiz-adv-x="546" 
d="M200 220q0 41 18 76t44 60.5t52 49t44 51t18 57.5q0 42 -29 64.5t-78 22.5q-47 0 -81 -24t-49 -68l-99 56q28 71 90.5 109.5t141.5 38.5q89 0 154 -51t65 -141q0 -42 -18 -78.5t-44 -62.5t-52 -50.5t-44 -52.5t-18 -57h-115zM258 -12q-31 0 -53 22t-22 53t21.5 53
t53.5 22q31 0 53 -22t22 -53t-22 -53t-53 -22z" />
    <glyph glyph-name="at" unicode="@" horiz-adv-x="784" 
d="M399 612q106 0 188 -51.5t122 -128.5t40 -162q0 -105 -44 -160t-110 -55q-99 0 -125 82q-38 -49 -103 -49q-66 0 -109 46.5t-43 115.5q0 70 43 116.5t109 46.5q58 0 96 -40v30h92v-226q0 -81 61 -81q43 0 70.5 43.5t27.5 130.5q0 132 -90.5 221t-224.5 89
q-137 0 -233 -95t-96 -235q0 -143 98.5 -236.5t248.5 -93.5q95 0 167 26v-34q-74 -24 -167 -24q-164 0 -273 102.5t-109 259.5q0 151 104.5 256.5t259.5 105.5zM386 172q33 0 55 21.5t22 56.5t-22 57t-55 22q-34 0 -56 -22t-22 -57t22 -56.5t56 -21.5z" />
    <glyph glyph-name="A" unicode="A" horiz-adv-x="655" 
d="M526 0l-49 141h-298l-49 -141h-125l254 700h138l253 -700h-124zM217 249h222l-111 316z" />
    <glyph glyph-name="B" unicode="B" horiz-adv-x="610" 
d="M482 363q46 -24 72 -66t26 -97q0 -86 -61 -143t-149 -57h-300v700h278q86 0 145.5 -55.5t59.5 -138.5q0 -91 -71 -143zM348 592h-163v-184h163q38 0 64 26.5t26 65.5t-26 65.5t-64 26.5zM370 108q40 0 67.5 28.5t27.5 69.5t-27.5 69.5t-67.5 28.5h-185v-196h185z" />
    <glyph glyph-name="C" unicode="C" horiz-adv-x="732" 
d="M401 -13q-158 0 -262 104.5t-104 258.5t104 258.5t262 104.5q95 0 175.5 -45t125.5 -122l-100 -58q-28 52 -81.5 82.5t-119.5 30.5q-112 0 -181.5 -71t-69.5 -180t69.5 -180t181.5 -71q66 0 120 30.5t81 82.5l100 -57q-44 -77 -124.5 -122.5t-176.5 -45.5z" />
    <glyph glyph-name="D" unicode="D" horiz-adv-x="715" 
d="M345 700q144 0 239.5 -101t95.5 -249q0 -147 -95.5 -248.5t-239.5 -101.5h-275v700h275zM345 110q99 0 161.5 68t62.5 172q0 105 -62.5 172.5t-161.5 67.5h-160v-480h160z" />
    <glyph glyph-name="E" unicode="E" horiz-adv-x="530" 
d="M185 110h310v-110h-425v700h420v-110h-305v-182h280v-109h-280v-189z" />
    <glyph glyph-name="F" unicode="F" horiz-adv-x="518" 
d="M480 590h-295v-196h285v-110h-285v-284h-115v700h410v-110z" />
    <glyph glyph-name="G" unicode="G" horiz-adv-x="786" 
d="M751 362v-48q0 -144 -95 -235.5t-248 -91.5q-162 0 -267.5 105t-105.5 258q0 152 105.5 257.5t261.5 105.5q98 0 179 -45t126 -121l-99 -57q-28 50 -83 80.5t-123 30.5q-110 0 -181 -72t-71 -180t71.5 -179t187.5 -71q93 0 151.5 43.5t74.5 116.5h-234v103h350z" />
    <glyph glyph-name="H" unicode="H" horiz-adv-x="670" 
d="M485 700h115v-700h-115v303h-300v-303h-115v700h115v-287h300v287z" />
    <glyph glyph-name="I" unicode="I" horiz-adv-x="255" 
d="M70 700h115v-700h-115v700z" />
    <glyph glyph-name="J" unicode="J" horiz-adv-x="564" 
d="M260 -13q-163 0 -225 128l99 58q34 -74 127 -74q60 0 92.5 29.5t32.5 83.5v488h115v-488q0 -108 -68 -166.5t-173 -58.5z" />
    <glyph glyph-name="K" unicode="K" horiz-adv-x="603" 
d="M598 0h-137l-276 333v-333h-115v700h115v-314l266 314h137l-283 -341z" />
    <glyph glyph-name="L" unicode="L" horiz-adv-x="485" 
d="M185 110h285v-110h-400v700h115v-590z" />
    <glyph glyph-name="M" unicode="M" horiz-adv-x="810" 
d="M740 700v-700h-115v499l-213 -352h-14l-213 353v-500h-115v700h124l211 -350l212 350h123z" />
    <glyph glyph-name="N" unicode="N" horiz-adv-x="675" 
d="M490 700h115v-700h-90l-330 475v-475h-115v700h90l330 -475v475z" />
    <glyph glyph-name="O" unicode="O" horiz-adv-x="796" 
d="M398 -13q-152 0 -257.5 105.5t-105.5 257.5t105.5 257.5t257.5 105.5t257.5 -105.5t105.5 -257.5t-105.5 -257.5t-257.5 -105.5zM398 99q105 0 176.5 71.5t71.5 179.5t-71.5 179.5t-176.5 71.5t-176.5 -71.5t-71.5 -179.5t71.5 -179.5t176.5 -71.5z" />
    <glyph glyph-name="P" unicode="P" horiz-adv-x="590" 
d="M328 700q99 0 165.5 -66t66.5 -164q0 -97 -66.5 -163.5t-165.5 -66.5h-143v-240h-115v700h258zM328 348q51 0 84 34.5t33 87.5t-33 87.5t-84 34.5h-143v-244h143z" />
    <glyph glyph-name="Q" unicode="Q" horiz-adv-x="801" 
d="M761 350q0 -140 -92 -242l74 -76l-81 -73l-77 79q-88 -51 -187 -51q-151 0 -257 105.5t-106 257.5t106 257.5t257 105.5t257 -105.5t106 -257.5zM398 99q56 0 105 23l-128 131l81 73l134 -137q56 69 56 161q0 107 -72 179t-176 72t-176 -72t-72 -179t72 -179t176 -72z
" />
    <glyph glyph-name="R" unicode="R" horiz-adv-x="613" 
d="M469 0l-148 255h-136v-255h-115v700h280q94 0 159.5 -65.5t65.5 -159.5q0 -67 -38.5 -122.5t-100.5 -80.5l159 -272h-126zM185 592v-234h165q46 0 78 34t32 83t-32 83t-78 34h-165z" />
    <glyph glyph-name="S" unicode="S" horiz-adv-x="581" 
d="M303 -13q-101 0 -171.5 46t-98.5 126l99 58q42 -118 174 -118q65 0 97.5 25.5t32.5 66.5q0 43 -35 65.5t-124 49.5q-50 15 -81 28t-65.5 36.5t-51.5 58.5t-17 82q0 93 66 147.5t159 54.5q84 0 147 -41t97 -113l-97 -56q-44 98 -147 98q-50 0 -80 -23.5t-30 -63.5
q0 -39 30.5 -61.5t110.5 -47.5q40 -13 58.5 -19.5t52 -20.5t50.5 -28t36.5 -35t27.5 -48t8 -61q0 -95 -68.5 -150.5t-179.5 -55.5z" />
    <glyph glyph-name="T" unicode="T" horiz-adv-x="540" 
d="M525 700v-110h-197v-590h-115v590h-198v110h510z" />
    <glyph glyph-name="U" unicode="U" horiz-adv-x="655" 
d="M328 -13q-117 0 -191 66.5t-74 178.5v468h115v-461q0 -64 37.5 -102t112.5 -38t112.5 38t37.5 102v461h115v-468q0 -112 -74 -178.5t-191 -66.5z" />
    <glyph glyph-name="V" unicode="V" horiz-adv-x="634" 
d="M248 0l-243 700h126l186 -561l187 561h125l-243 -700h-138z" />
    <glyph glyph-name="W" unicode="W" horiz-adv-x="999" 
d="M218 0l-198 700h121l147 -547l159 547h106l158 -547l147 547h121l-198 -700h-133l-148 511l-149 -511h-133z" />
    <glyph glyph-name="X" unicode="X" horiz-adv-x="600" 
d="M585 0h-131l-154 253l-154 -253h-131l220 360l-207 340h130l142 -233l142 233h131l-207 -340z" />
    <glyph glyph-name="Y" unicode="Y" horiz-adv-x="613" 
d="M608 700l-244 -422v-278h-115v278l-244 422h131l171 -310l170 310h131z" />
    <glyph glyph-name="Z" unicode="Z" horiz-adv-x="530" 
d="M181 110h322v-110h-465v95l314 495h-307v110h450v-95z" />
    <glyph glyph-name="bracketleft" unicode="[" horiz-adv-x="300" 
d="M280 696h-117v-692h117v-104h-225v900h225v-104z" />
    <glyph glyph-name="backslash" unicode="\" horiz-adv-x="525" 
d="M435 -100l-400 900h55l400 -900h-55z" />
    <glyph glyph-name="bracketright" unicode="]" horiz-adv-x="300" 
d="M245 800v-900h-225v104h117v692h-117v104h225z" />
    <glyph glyph-name="asciicircum" unicode="^" horiz-adv-x="540" 
d="M314 700l186 -320h-118l-112 197l-111 -197h-119l186 320h88z" />
    <glyph glyph-name="underscore" unicode="_" horiz-adv-x="520" 
d="M35 -161v104h450v-104h-450z" />
    <glyph glyph-name="grave" unicode="`" horiz-adv-x="250" 
d="M230 565l-80 135h-130l106 -135h104z" />
    <glyph glyph-name="a" unicode="a" 
d="M459 500h108v-500h-108v72q-61 -85 -175 -85q-103 0 -176 76.5t-73 186.5q0 111 73 187t176 76q114 0 175 -84v71zM301 90q68 0 113 45.5t45 114.5t-45 114.5t-113 45.5t-113 -45.5t-45 -114.5t45 -114.5t113 -45.5z" />
    <glyph glyph-name="b" unicode="b" 
d="M346 513q103 0 176 -76t73 -187q0 -110 -73 -186.5t-176 -76.5q-114 0 -175 85v-72h-108v700h108v-271q61 84 175 84zM329 90q68 0 113 45.5t45 114.5t-45 114.5t-113 45.5t-113 -45.5t-45 -114.5t45 -114.5t113 -45.5z" />
    <glyph glyph-name="c" unicode="c" horiz-adv-x="542" 
d="M299 -13q-113 0 -188.5 76t-75.5 187q0 112 75.5 187.5t188.5 75.5q73 0 133 -35t90 -94l-93 -54q-17 36 -51.5 56.5t-79.5 20.5q-66 0 -110.5 -45t-44.5 -112t44.5 -112t110.5 -45q44 0 79.5 21t53.5 56l93 -53q-32 -60 -92 -95t-133 -35z" />
    <glyph glyph-name="d" unicode="d" 
d="M459 700h108v-700h-108v72q-61 -85 -175 -85q-103 0 -176 76.5t-73 186.5q0 111 73 187t176 76q114 0 175 -84v271zM301 90q68 0 113 45.5t45 114.5t-45 114.5t-113 45.5t-113 -45.5t-45 -114.5t45 -114.5t113 -45.5z" />
    <glyph glyph-name="e" unicode="e" horiz-adv-x="582" 
d="M148 204q12 -57 55 -87.5t105 -30.5q86 0 129 62l89 -52q-74 -109 -219 -109q-122 0 -197 74.5t-75 188.5q0 112 74 187.5t190 75.5q110 0 180.5 -77t70.5 -187q0 -17 -4 -45h-398zM147 292h294q-11 61 -50.5 92t-92.5 31q-60 0 -100 -33t-51 -90z" />
    <glyph glyph-name="f" unicode="f" horiz-adv-x="325" 
d="M325 609q-118 11 -118 -99v-10h118v-104h-118v-396h-108v396h-76v104h76v10q0 103 57.5 156.5t168.5 46.5v-104z" />
    <glyph glyph-name="g" unicode="g" 
d="M461 500h106v-477q0 -114 -75 -175t-182 -61q-173 0 -237 121l93 54q39 -77 146 -77q70 0 109.5 36.5t39.5 101.5v61q-61 -87 -174 -87q-106 0 -179 75.5t-73 182.5t73 182.5t179 75.5q113 0 174 -87v74zM302 98q68 0 113.5 45t45.5 112t-45.5 112t-113.5 45t-113.5 -45
t-45.5 -112t45.5 -112t113.5 -45z" />
    <glyph glyph-name="h" unicode="h" horiz-adv-x="571" 
d="M326 513q86 0 139 -55t53 -151v-307h-108v296q0 56 -30 86t-82 30q-57 0 -92 -35.5t-35 -108.5v-268h-108v700h108v-264q49 77 155 77z" />
    <glyph glyph-name="i" unicode="i" horiz-adv-x="233" 
d="M117 575q-28 0 -48.5 20.5t-20.5 48.5t20 48.5t49 20.5t49 -20.5t20 -48.5t-20.5 -48.5t-48.5 -20.5zM63 0v500h108v-500h-108z" />
    <glyph glyph-name="j" unicode="j" horiz-adv-x="253" 
d="M136 575q-28 0 -48.5 20.5t-20.5 48.5t20.5 48.5t48.5 20.5t48.5 -20.5t20.5 -48.5t-20.5 -48.5t-48.5 -20.5zM82 -20v520h108v-520q0 -208 -205 -193v104q50 -5 73.5 16t23.5 73z" />
    <glyph glyph-name="k" unicode="k" horiz-adv-x="515" 
d="M505 0h-129l-205 231v-231h-108v700h108v-421l194 221h132l-220 -245z" />
    <glyph glyph-name="l" unicode="l" horiz-adv-x="233" 
d="M63 0v730h108v-730h-108z" />
    <glyph glyph-name="m" unicode="m" horiz-adv-x="851" 
d="M609 513q85 0 137 -55t52 -148v-310h-108v303q0 52 -26 80.5t-71 28.5q-50 0 -79.5 -33t-29.5 -99v-280h-108v303q0 52 -24.5 80.5t-69.5 28.5q-49 0 -80 -33.5t-31 -98.5v-280h-108v500h108v-60q48 73 143 73q96 0 142 -79q50 79 153 79z" />
    <glyph glyph-name="n" unicode="n" horiz-adv-x="571" 
d="M326 513q86 0 139 -55t53 -151v-307h-108v296q0 56 -30 86t-82 30q-57 0 -92 -35.5t-35 -108.5v-268h-108v500h108v-64q49 77 155 77z" />
    <glyph glyph-name="o" unicode="o" horiz-adv-x="598" 
d="M299 -13q-110 0 -187 76t-77 187t77 187t187 76q111 0 187.5 -76t76.5 -187t-76.5 -187t-187.5 -76zM299 92q66 0 111 45t45 113t-45 113t-111 45t-111 -45t-45 -113t45 -113t111 -45z" />
    <glyph glyph-name="p" unicode="p" 
d="M346 513q103 0 176 -76.5t73 -186.5q0 -111 -73 -187t-176 -76q-114 0 -175 84v-271h-108v700h108v-72q61 85 175 85zM329 90q68 0 113 45.5t45 114.5t-45 114.5t-113 45.5t-113 -45.5t-45 -114.5t45 -114.5t113 -45.5z" />
    <glyph glyph-name="q" unicode="q" 
d="M459 500h108v-700h-108v271q-61 -84 -175 -84q-103 0 -176 76t-73 187q0 110 73 186.5t176 76.5q114 0 175 -85v72zM301 90q68 0 113 45.5t45 114.5t-45 114.5t-113 45.5t-113 -45.5t-45 -114.5t45 -114.5t113 -45.5z" />
    <glyph glyph-name="r" unicode="r" horiz-adv-x="342" 
d="M171 416q41 93 154 93v-117q-62 4 -108 -29.5t-46 -110.5v-252h-108v500h108v-84z" />
    <glyph glyph-name="s" unicode="s" horiz-adv-x="461" 
d="M160 362q0 -25 27.5 -39.5t67 -25t79.5 -24.5t67.5 -47.5t27.5 -84.5q0 -72 -55.5 -113t-139.5 -41q-74 0 -127 31t-77 86l93 54q26 -72 111 -72t85 56q0 24 -27.5 39t-67 25.5t-79.5 24.5t-67.5 46.5t-27.5 82.5q0 69 52.5 111t130.5 42q62 0 110.5 -27.5t74.5 -76.5
l-91 -51q-26 57 -94 57q-31 0 -52 -13.5t-21 -39.5z" />
    <glyph glyph-name="t" unicode="t" horiz-adv-x="382" 
d="M342 396h-124v-240q0 -31 14 -44.5t41.5 -15t68.5 0.5v-97q-124 -15 -178 21.5t-54 134.5v240h-92v104h92v108l108 32v-140h124v-104z" />
    <glyph glyph-name="u" unicode="u" horiz-adv-x="571" 
d="M400 500h108v-500h-108v64q-49 -77 -155 -77q-86 0 -139 55t-53 151v307h108v-296q0 -56 30 -86t82 -30q57 0 92 35.5t35 108.5v268z" />
    <glyph glyph-name="v" unicode="v" horiz-adv-x="525" 
d="M402 500h118l-195 -500h-125l-195 500h118l140 -380z" />
    <glyph glyph-name="w" unicode="w" horiz-adv-x="770" 
d="M639 500h114l-157 -500h-106l-104 337l-105 -337h-106l-157 500h114l97 -345l105 345h103l104 -345z" />
    <glyph glyph-name="x" unicode="x" horiz-adv-x="520" 
d="M510 0h-125l-124 171l-125 -171h-126l188 257l-178 243h125l115 -158l115 158h126l-178 -244z" />
    <glyph glyph-name="y" unicode="y" horiz-adv-x="520" 
d="M400 500h115l-192 -516q-72 -194 -244 -184v101q51 -3 82 21.5t51 76.5l5 10l-212 491h118l149 -363z" />
    <glyph glyph-name="z" unicode="z" horiz-adv-x="473" 
d="M192 102h243v-102h-390v72l234 326h-224v102h370v-72z" />
    <glyph glyph-name="braceleft" unicode="{" horiz-adv-x="357" 
d="M337 -108q-200 -15 -200 179v154q0 47 -21 61.5t-66 12.5v105q45 -2 66 12.5t21 61.5v154q0 193 200 178v-104q-48 6 -70 -10t-22 -64v-154q0 -96 -65 -126q65 -32 65 -127v-154q0 -48 22 -64t70 -11v-104z" />
    <glyph glyph-name="bar" unicode="|" horiz-adv-x="248" 
d="M70 -200v920h108v-920h-108z" />
    <glyph glyph-name="braceright" unicode="}" horiz-adv-x="357" 
d="M20 -108v104q48 -5 70 11t22 64v154q0 95 65 127q-65 30 -65 126v154q0 48 -22 64t-70 10v104q200 15 200 -178v-154q0 -47 21 -61.5t66 -12.5v-105q-45 2 -66 -12.5t-21 -61.5v-154q0 -194 -200 -179z" />
    <glyph glyph-name="asciitilde" unicode="~" horiz-adv-x="597" 
d="M457 433l90 -43q-26 -94 -92.5 -119.5t-157.5 22.5q-76 39 -108 33t-49 -61l-90 43q26 94 93.5 119.5t157.5 -22.5q77 -39 107.5 -32.5t48.5 60.5z" />
    <glyph glyph-name="uni00A0" unicode="&#xa0;" horiz-adv-x="250" 
 />
    <glyph glyph-name="exclamdown" unicode="&#xa1;" horiz-adv-x="255" 
d="M128 512q31 0 53 -22t22 -53t-22 -53t-53 -22q-32 0 -53.5 22t-21.5 53t22 53t53 22zM85 280h85l23 -280v-200h-130v200z" />
    <glyph glyph-name="cent" unicode="&#xa2;" horiz-adv-x="542" 
d="M431 270l93 -53q-32 -60 -92 -95t-133 -35q-35 0 -64 7l-30 -94h-55l36 111q-69 31 -110 95t-41 144q0 112 75.5 187.5t188.5 75.5q27 0 48 -4l29 91h55l-34 -105q85 -34 125 -111l-93 -54q-20 43 -65 63l-96 -297q15 -3 30 -3q44 0 79.5 21t53.5 56zM143 350
q0 -44 20.5 -80t55.5 -56l94 292q-5 1 -15 1q-66 0 -110.5 -45t-44.5 -112z" />
    <glyph glyph-name="sterling" unicode="&#xa3;" horiz-adv-x="583" 
d="M230 111h340v-111h-535v111h80v168h-65v101h65v118q0 104 64 159.5t151 55.5q74 0 128 -37t81 -104l-98 -56q-29 85 -108 85q-44 0 -73.5 -27t-29.5 -80v-114h213v-101h-213v-168z" />
    <glyph glyph-name="currency" unicode="&#xa4;" horiz-adv-x="546" 
d="M487 350q0 -75 -46 -132l70 -70l-36 -36l-70 71q-57 -44 -132 -44q-74 0 -131 44l-71 -71l-36 36l70 70q-46 57 -46 132q0 76 46 133l-70 69l36 36l71 -70q57 43 131 43q75 0 132 -43l70 70l36 -36l-69 -70q45 -58 45 -132zM273 242q46 0 76.5 30.5t30.5 77.5t-30.5 77.5
t-76.5 30.5t-76.5 -30.5t-30.5 -77.5t30.5 -77.5t76.5 -30.5z" />
    <glyph glyph-name="yen" unicode="&#xa5;" horiz-adv-x="593" 
d="M608 700l-198 -343h112v-73h-155l-3 -6v-44h158v-73h-158v-161h-115v161h-177v73h177v44l-3 6h-174v73h131l-198 343h131l171 -310l170 310h131z" />
    <glyph glyph-name="brokenbar" unicode="&#xa6;" horiz-adv-x="248" 
d="M70 350v370h108v-370h-108zM70 -200v370h108v-370h-108z" />
    <glyph glyph-name="section" unicode="&#xa7;" horiz-adv-x="531" 
d="M494 277q0 -76 -61 -127q37 -40 37 -101q0 -74 -54.5 -117.5t-139.5 -43.5q-164 0 -218 129l96 54q28 -86 122 -86q39 0 62.5 17t23.5 47q0 11 -4 20.5t-13.5 18t-18.5 15t-26 14.5t-27.5 13t-32.5 13.5t-33 13.5q-71 29 -112.5 68.5t-41.5 104.5q0 76 64 125
q-33 41 -33 99q0 73 53 116t132 43q65 0 116 -32t77 -92l-89 -49q-33 76 -104 76q-33 0 -55 -16.5t-22 -45.5q0 -8 2 -15.5t7.5 -14.5t10.5 -12.5t15.5 -12t17.5 -10.5t21 -10.5t21.5 -10t24 -10.5t24.5 -10q73 -30 115.5 -68.5t42.5 -102.5zM161 335q0 -32 24 -53t69 -38
q97 -38 100 -39q32 24 32 62q0 33 -26 53.5t-74 39.5q-6 2 -39.5 15.5t-51.5 21.5q-34 -22 -34 -62z" />
    <glyph glyph-name="dieresis" unicode="&#xa8;" horiz-adv-x="350" 
d="M80 558q-25 0 -42.5 17.5t-17.5 42.5t17.5 42.5t42.5 17.5t42.5 -17.5t17.5 -42.5t-17.5 -42.5t-42.5 -17.5zM270 558q-25 0 -42.5 17.5t-17.5 42.5t17.5 42.5t42.5 17.5t42.5 -17.5t17.5 -42.5t-17.5 -42.5t-42.5 -17.5z" />
    <glyph glyph-name="copyright" unicode="&#xa9;" horiz-adv-x="794" 
d="M397 -12q-150 0 -256 106t-106 256t106 256t256 106t256 -106t106 -256t-106 -256t-256 -106zM397 20q136 0 231.5 96.5t95.5 233.5t-95.5 233.5t-231.5 96.5q-135 0 -231 -96.5t-96 -233.5q0 -136 96 -233t231 -97zM400 156q-82 0 -139 57t-57 137t57 137.5t139 57.5
q53 0 97 -25.5t70 -69.5l-83 -48q-11 22 -34 35t-51 13q-45 0 -72.5 -29.5t-27.5 -70.5q0 -40 27.5 -70t72.5 -30q61 0 86 49l82 -48q-25 -44 -69.5 -69.5t-97.5 -25.5z" />
    <glyph glyph-name="guillemotleft" unicode="&#xab;" horiz-adv-x="527" 
d="M282 494l-110 -185l110 -185h-107l-110 185l110 185h107zM462 494l-110 -185l110 -185h-107l-110 185l110 185h107z" />
    <glyph glyph-name="logicalnot" unicode="&#xac;" horiz-adv-x="540" 
d="M50 401h440v-220h-108v118h-332v102z" />
    <glyph glyph-name="registered" unicode="&#xae;" horiz-adv-x="794" 
d="M397 712q150 0 256 -106t106 -256t-106 -256t-256 -106t-256 106t-106 256t106 256t256 106zM397 20q136 0 231.5 96.5t95.5 233.5t-95.5 233.5t-231.5 96.5q-135 0 -231 -96.5t-96 -233.5q0 -136 96 -233t231 -97zM549 414q0 -75 -59 -110l76 -139h-100l-59 117h-45
v-117h-92v370h137q62 0 102 -34.5t40 -86.5zM362 450v-88h40q26 0 40.5 12t14.5 32q0 44 -55 44h-40z" />
    <glyph glyph-name="macron" unicode="&#xaf;" horiz-adv-x="320" 
d="M20 570v89h280v-89h-280z" />
    <glyph glyph-name="degree" unicode="&#xb0;" horiz-adv-x="396" 
d="M198 490q-70 0 -116.5 46.5t-46.5 113.5t46.5 113.5t116.5 46.5t116.5 -46.5t46.5 -113.5t-46 -113.5t-117 -46.5zM198 580q31 0 50 20t19 50t-19.5 50t-49.5 20t-49.5 -20t-19.5 -50t19.5 -50t49.5 -20z" />
    <glyph glyph-name="plusminus" unicode="&#xb1;" horiz-adv-x="550" 
d="M326 484h169v-102h-169v-152h-102v152h-169v102h169v151h102v-151zM55 65v102h440v-102h-440z" />
    <glyph glyph-name="acute" unicode="&#xb4;" horiz-adv-x="250" 
d="M20 565h104l106 135h-130z" />
    <glyph glyph-name="uni00B5" unicode="&#xb5;" horiz-adv-x="613" 
d="M551 102h37v-102h-56q-76 0 -107 58q-50 -71 -151 -71q-60 0 -103 29v-216h-108v700h108v-296q0 -55 30 -85.5t81 -30.5q58 0 93 35.5t35 109.5v267h108v-365q0 -15 9 -24t24 -9z" />
    <glyph glyph-name="paragraph" unicode="&#xb6;" horiz-adv-x="639" 
d="M595 700v-96h-61v-804h-102v804h-90v-804h-102v480q-87 0 -148.5 62t-61.5 148q0 88 61.5 149t148.5 61h355z" />
    <glyph glyph-name="periodcentered" unicode="&#xb7;" horiz-adv-x="255" 
d="M128 273q-31 0 -53 22t-22 53q0 32 21.5 53.5t53.5 21.5q31 0 53 -22t22 -53t-22 -53t-53 -22z" />
    <glyph glyph-name="cedilla" unicode="&#xb8;" horiz-adv-x="255" 
d="M157 -46q34 -6 56 -26.5t22 -52.5q0 -104 -215 -91v79q121 -10 121 25q0 27 -73 30v82h89v-46z" />
    <glyph glyph-name="guillemotright" unicode="&#xbb;" horiz-adv-x="527" 
d="M172 494l110 -185l-110 -185h-107l110 185l-110 185h107zM352 494l110 -185l-110 -185h-107l110 185l-110 185h107z" />
    <glyph glyph-name="onequarter" unicode="&#xbc;" horiz-adv-x="817" 
d="M204 300h-92v306l-85 -25l-22 76l119 43h80v-400zM521 700h80l-400 -700h-80zM800 152v-84h-44v-68h-89v68h-193v84l135 248h99l-132 -248h91v79h89v-79h44z" />
    <glyph glyph-name="onehalf" unicode="&#xbd;" horiz-adv-x="812" 
d="M204 300h-92v306l-85 -25l-22 76l119 43h80v-400zM521 700h80l-400 -700h-80zM625 85h155v-85h-293v64l157 151q37 35 37 69q0 20 -14 32t-38 12q-48 0 -70 -54l-75 42q19 45 56 71t90 26q63 0 103 -35t40 -89q0 -65 -66 -128z" />
    <glyph glyph-name="threequarters" unicode="&#xbe;" horiz-adv-x="905" 
d="M319 419q0 -62 -41 -97t-111 -35q-112 0 -152 87l78 45q20 -50 74 -50q29 0 44 13.5t15 36.5t-16.5 36.5t-45.5 13.5h-14l-36 55l75 91h-158v85h270v-72l-78 -93q46 -11 71 -41.5t25 -74.5zM609 700h80l-400 -700h-80zM888 152v-84h-44v-68h-89v68h-193v84l135 248h99
l-132 -248h91v79h89v-79h44z" />
    <glyph glyph-name="questiondown" unicode="&#xbf;" horiz-adv-x="546" 
d="M288 512q31 0 53 -22t22 -53t-21.5 -53t-53.5 -22q-31 0 -53 22t-22 53t22 53t53 22zM346 280q0 -41 -18 -76t-44 -60.5t-52 -49t-44 -51t-18 -57.5q0 -42 29 -64.5t78 -22.5q47 0 81 24t49 68l99 -56q-28 -71 -90.5 -109.5t-141.5 -38.5q-89 0 -154 51t-65 141
q0 42 18 78.5t44 62.5t52 50.5t44 52.5t18 57h115z" />
    <glyph glyph-name="Agrave" unicode="&#xc0;" horiz-adv-x="655" 
d="M403 765h-104l-106 135h130zM526 0l-49 141h-298l-49 -141h-125l254 700h138l253 -700h-124zM217 249h222l-111 316z" />
    <glyph glyph-name="Aacute" unicode="&#xc1;" horiz-adv-x="655" 
d="M468 900l-106 -135h-104l80 135h130zM526 0l-49 141h-298l-49 -141h-125l254 700h138l253 -700h-124zM217 249h222l-111 316z" />
    <glyph glyph-name="Acircumflex" unicode="&#xc2;" horiz-adv-x="655" 
d="M326 834l-53 -74h-110l106 140h113l106 -140h-110zM526 0l-49 141h-298l-49 -141h-125l254 700h138l253 -700h-124zM217 249h222l-111 316z" />
    <glyph glyph-name="Atilde" unicode="&#xc3;" horiz-adv-x="655" 
d="M320 790q-33 26 -48 22.5t-15 -45.5h-89q0 70 26 105t63.5 34t79.5 -29q32 -26 47 -22.5t15 45.5h89q0 -70 -25.5 -105t-63 -34t-79.5 29zM526 0l-49 141h-298l-49 -141h-125l254 700h138l253 -700h-124zM217 249h222l-111 316z" />
    <glyph glyph-name="Adieresis" unicode="&#xc4;" horiz-adv-x="655" 
d="M233 758q-25 0 -42.5 17.5t-17.5 42.5t17.5 42.5t42.5 17.5t42.5 -17.5t17.5 -42.5t-17.5 -42.5t-42.5 -17.5zM423 758q-25 0 -42.5 17.5t-17.5 42.5t17.5 42.5t42.5 17.5t42.5 -17.5t17.5 -42.5t-17.5 -42.5t-42.5 -17.5zM526 0l-49 141h-298l-49 -141h-125l254 700h138
l253 -700h-124zM217 249h222l-111 316z" />
    <glyph glyph-name="Aring" unicode="&#xc5;" horiz-adv-x="655" 
d="M526 0l-49 141h-298l-49 -141h-125l246 677q-43 32 -43 88q0 48 33.5 80.5t85.5 32.5q53 0 86.5 -32t33.5 -81q0 -55 -42 -88l245 -677h-124zM327 807q-20 0 -31.5 -11.5t-11.5 -30.5q0 -18 11.5 -29.5t31.5 -11.5q21 0 32.5 11.5t11.5 29.5q0 19 -11.5 30.5t-32.5 11.5z
M217 249h222l-111 316z" />
    <glyph glyph-name="AE" unicode="&#xc6;" horiz-adv-x="880" 
d="M563 110h282v-110h-395v141h-236l-84 -141h-130l419 700h421v-110h-277v-182h257v-109h-257v-189zM278 249h172v288z" />
    <glyph glyph-name="Ccedilla" unicode="&#xc7;" horiz-adv-x="732" 
d="M401 99q66 0 120 30.5t81 82.5l100 -57q-38 -68 -105.5 -111.5t-149.5 -53.5v-36q34 -6 56 -26.5t22 -52.5q0 -104 -215 -91v79q121 -10 121 25q0 27 -73 30v71q-142 15 -232.5 117t-90.5 244q0 154 104 258.5t262 104.5q95 0 175.5 -45t125.5 -122l-100 -58
q-28 52 -81.5 82.5t-119.5 30.5q-112 0 -181.5 -71t-69.5 -180t69.5 -180t181.5 -71z" />
    <glyph glyph-name="Egrave" unicode="&#xc8;" horiz-adv-x="530" 
d="M356 765h-104l-106 135h130zM185 110h310v-110h-425v700h420v-110h-305v-182h280v-109h-280v-189z" />
    <glyph glyph-name="Eacute" unicode="&#xc9;" horiz-adv-x="530" 
d="M421 900l-106 -135h-104l80 135h130zM185 110h310v-110h-425v700h420v-110h-305v-182h280v-109h-280v-189z" />
    <glyph glyph-name="Ecircumflex" unicode="&#xca;" horiz-adv-x="530" 
d="M279 834l-53 -74h-110l106 140h113l106 -140h-110zM185 110h310v-110h-425v700h420v-110h-305v-182h280v-109h-280v-189z" />
    <glyph glyph-name="Edieresis" unicode="&#xcb;" horiz-adv-x="530" 
d="M186 758q-25 0 -42.5 17.5t-17.5 42.5t17.5 42.5t42.5 17.5t42.5 -17.5t17.5 -42.5t-17.5 -42.5t-42.5 -17.5zM376 758q-25 0 -42.5 17.5t-17.5 42.5t17.5 42.5t42.5 17.5t42.5 -17.5t17.5 -42.5t-17.5 -42.5t-42.5 -17.5zM185 110h310v-110h-425v700h420v-110h-305v-182
h280v-109h-280v-189z" />
    <glyph glyph-name="Igrave" unicode="&#xcc;" horiz-adv-x="255" 
d="M203 765l-80 135h-130l106 -135h104zM70 700h115v-700h-115v700z" />
    <glyph glyph-name="Iacute" unicode="&#xcd;" horiz-adv-x="255" 
d="M58 765h104l106 135h-130zM70 700h115v-700h-115v700z" />
    <glyph glyph-name="Icircumflex" unicode="&#xce;" horiz-adv-x="255" 
d="M126 834l-53 -74h-110l106 140h113l106 -140h-110zM70 0v700h115v-700h-115z" />
    <glyph glyph-name="Idieresis" unicode="&#xcf;" horiz-adv-x="255" 
d="M33 758q-25 0 -42.5 17.5t-17.5 42.5t17.5 42.5t42.5 17.5t42.5 -17.5t17.5 -42.5t-17.5 -42.5t-42.5 -17.5zM223 758q-25 0 -42.5 17.5t-17.5 42.5t17.5 42.5t42.5 17.5t42.5 -17.5t17.5 -42.5t-17.5 -42.5t-42.5 -17.5zM70 700h115v-700h-115v700z" />
    <glyph glyph-name="Eth" unicode="&#xd0;" horiz-adv-x="745" 
d="M375 700q144 0 239.5 -101t95.5 -249q0 -147 -95.5 -248.5t-239.5 -101.5h-275v293h-75v104h75v303h275zM375 110q99 0 161.5 68t62.5 172q0 105 -62.5 172.5t-161.5 67.5h-160v-193h180v-104h-180v-183h160z" />
    <glyph glyph-name="Ntilde" unicode="&#xd1;" horiz-adv-x="675" 
d="M173 767q0 70 26 105t63.5 34t79.5 -29q32 -26 47 -22.5t15 45.5h89q0 -70 -25.5 -105t-63 -34t-79.5 29q-33 26 -48 22.5t-15 -45.5h-89zM490 700h115v-700h-90l-330 475v-475h-115v700h90l330 -475v475z" />
    <glyph glyph-name="Ograve" unicode="&#xd2;" horiz-adv-x="796" 
d="M473 770l-80 135h-130l106 -135h104zM398 -13q-152 0 -257.5 105.5t-105.5 257.5t105.5 257.5t257.5 105.5t257.5 -105.5t105.5 -257.5t-105.5 -257.5t-257.5 -105.5zM398 99q105 0 176.5 71.5t71.5 179.5t-71.5 179.5t-176.5 71.5t-176.5 -71.5t-71.5 -179.5
t71.5 -179.5t176.5 -71.5z" />
    <glyph glyph-name="Oacute" unicode="&#xd3;" horiz-adv-x="796" 
d="M328 770h104l106 135h-130zM398 -13q-152 0 -257.5 105.5t-105.5 257.5t105.5 257.5t257.5 105.5t257.5 -105.5t105.5 -257.5t-105.5 -257.5t-257.5 -105.5zM398 99q105 0 176.5 71.5t71.5 179.5t-71.5 179.5t-176.5 71.5t-176.5 -71.5t-71.5 -179.5t71.5 -179.5
t176.5 -71.5z" />
    <glyph glyph-name="Ocircumflex" unicode="&#xd4;" horiz-adv-x="796" 
d="M396 839l-53 -74h-110l106 140h113l106 -140h-110zM398 713q152 0 257.5 -105.5t105.5 -257.5t-105.5 -257.5t-257.5 -105.5t-257.5 105.5t-105.5 257.5t105.5 257.5t257.5 105.5zM398 99q105 0 176.5 71.5t71.5 179.5t-71.5 179.5t-176.5 71.5t-176.5 -71.5
t-71.5 -179.5t71.5 -179.5t176.5 -71.5z" />
    <glyph glyph-name="Otilde" unicode="&#xd5;" horiz-adv-x="796" 
d="M238 772q0 70 26 105t63.5 34t79.5 -29q32 -26 47 -22.5t15 45.5h89q0 -70 -25.5 -105t-63 -34t-79.5 29q-33 26 -48 22.5t-15 -45.5h-89zM398 -13q-152 0 -257.5 105.5t-105.5 257.5t105.5 257.5t257.5 105.5t257.5 -105.5t105.5 -257.5t-105.5 -257.5t-257.5 -105.5z
M398 99q105 0 176.5 71.5t71.5 179.5t-71.5 179.5t-176.5 71.5t-176.5 -71.5t-71.5 -179.5t71.5 -179.5t176.5 -71.5z" />
    <glyph glyph-name="Odieresis" unicode="&#xd6;" horiz-adv-x="796" 
d="M303 763q-25 0 -42.5 17.5t-17.5 42.5t17.5 42.5t42.5 17.5t42.5 -17.5t17.5 -42.5t-17.5 -42.5t-42.5 -17.5zM493 763q-25 0 -42.5 17.5t-17.5 42.5t17.5 42.5t42.5 17.5t42.5 -17.5t17.5 -42.5t-17.5 -42.5t-42.5 -17.5zM398 -13q-152 0 -257.5 105.5t-105.5 257.5
t105.5 257.5t257.5 105.5t257.5 -105.5t105.5 -257.5t-105.5 -257.5t-257.5 -105.5zM398 99q105 0 176.5 71.5t71.5 179.5t-71.5 179.5t-176.5 71.5t-176.5 -71.5t-71.5 -179.5t71.5 -179.5t176.5 -71.5z" />
    <glyph glyph-name="multiply" unicode="&#xd7;" horiz-adv-x="498" 
d="M448 478l-128 -128l128 -128l-72 -70l-127 127l-127 -127l-72 70l128 128l-128 128l72 70l127 -127l127 127z" />
    <glyph glyph-name="Oslash" unicode="&#xd8;" horiz-adv-x="804" 
d="M665 606q104 -104 104 -256t-105.5 -257.5t-257.5 -105.5q-115 0 -206 63l-48 -57l-61 35l56 66q-104 106 -104 256q0 152 105.5 257.5t257.5 105.5q115 0 206 -63l48 57l61 -35zM158 350q0 -98 61 -169l321 383q-61 37 -134 37q-105 0 -176.5 -71.5t-71.5 -179.5z
M406 99q105 0 176.5 71.5t71.5 179.5q0 98 -61 169l-321 -383q61 -37 134 -37z" />
    <glyph glyph-name="Ugrave" unicode="&#xd9;" horiz-adv-x="655" 
d="M403 765l-80 135h-130l106 -135h104zM328 -13q-117 0 -191 66.5t-74 178.5v468h115v-461q0 -64 37.5 -102t112.5 -38t112.5 38t37.5 102v461h115v-468q0 -112 -74 -178.5t-191 -66.5z" />
    <glyph glyph-name="Uacute" unicode="&#xda;" horiz-adv-x="655" 
d="M258 765h104l106 135h-130zM328 -13q-117 0 -191 66.5t-74 178.5v468h115v-461q0 -64 37.5 -102t112.5 -38t112.5 38t37.5 102v461h115v-468q0 -112 -74 -178.5t-191 -66.5z" />
    <glyph glyph-name="Ucircumflex" unicode="&#xdb;" horiz-adv-x="655" 
d="M326 834l-53 -74h-110l106 140h113l106 -140h-110zM478 700h115v-468q0 -112 -74 -178.5t-191 -66.5t-191 66.5t-74 178.5v468h115v-461q0 -64 37.5 -102t112.5 -38t112.5 38t37.5 102v461z" />
    <glyph glyph-name="Udieresis" unicode="&#xdc;" horiz-adv-x="655" 
d="M233 758q-25 0 -42.5 17.5t-17.5 42.5t17.5 42.5t42.5 17.5t42.5 -17.5t17.5 -42.5t-17.5 -42.5t-42.5 -17.5zM423 758q-25 0 -42.5 17.5t-17.5 42.5t17.5 42.5t42.5 17.5t42.5 -17.5t17.5 -42.5t-17.5 -42.5t-42.5 -17.5zM328 -13q-117 0 -191 66.5t-74 178.5v468h115
v-461q0 -64 37.5 -102t112.5 -38t112.5 38t37.5 102v461h115v-468q0 -112 -74 -178.5t-191 -66.5z" />
    <glyph glyph-name="Yacute" unicode="&#xdd;" horiz-adv-x="613" 
d="M445 900l-106 -135h-104l80 135h130zM608 700l-244 -422v-278h-115v278l-244 422h131l171 -310l170 310h131z" />
    <glyph glyph-name="Thorn" unicode="&#xde;" horiz-adv-x="590" 
d="M330 580q98 0 164 -66t66 -164q0 -97 -66.5 -163.5t-163.5 -66.5h-145v-120h-115v700h115v-120h145zM330 228q49 0 82 34.5t33 87.5t-32.5 87.5t-82.5 34.5h-145v-244h145z" />
    <glyph glyph-name="germandbls" unicode="&#xdf;" horiz-adv-x="530" 
d="M283 -5v96q122 -10 122 68q0 26 -20 58.5t-43.5 59t-43.5 58.5t-20 57q0 28 35.5 73.5t35.5 74.5q0 33 -22.5 53t-59.5 20q-41 0 -68.5 -25t-27.5 -77v-511h-108v510q0 94 57 148.5t151 54.5q85 0 135.5 -46.5t50.5 -113.5q0 -35 -17.5 -65t-34.5 -52.5t-17 -38.5
q0 -20 19.5 -48.5t43 -55t43 -67.5t19.5 -82q0 -75 -56 -117.5t-174 -31.5z" />
    <glyph glyph-name="agrave" unicode="&#xe0;" 
d="M383 565h-104l-106 135h130zM459 500h108v-500h-108v72q-61 -85 -175 -85q-103 0 -176 76.5t-73 186.5q0 111 73 187t176 76q114 0 175 -84v71zM301 90q68 0 113 45.5t45 114.5t-45 114.5t-113 45.5t-113 -45.5t-45 -114.5t45 -114.5t113 -45.5z" />
    <glyph glyph-name="aacute" unicode="&#xe1;" 
d="M448 700l-106 -135h-104l80 135h130zM459 500h108v-500h-108v72q-61 -85 -175 -85q-103 0 -176 76.5t-73 186.5q0 111 73 187t176 76q114 0 175 -84v71zM301 90q68 0 113 45.5t45 114.5t-45 114.5t-113 45.5t-113 -45.5t-45 -114.5t45 -114.5t113 -45.5z" />
    <glyph glyph-name="acircumflex" unicode="&#xe2;" 
d="M306 634l-53 -74h-110l106 140h113l106 -140h-110zM459 500h108v-500h-108v72q-61 -85 -175 -85q-103 0 -176 76.5t-73 186.5q0 111 73 187t176 76q114 0 175 -84v71zM301 90q68 0 113 45.5t45 114.5t-45 114.5t-113 45.5t-113 -45.5t-45 -114.5t45 -114.5t113 -45.5z
" />
    <glyph glyph-name="atilde" unicode="&#xe3;" 
d="M300 590q-33 26 -48 22.5t-15 -45.5h-89q0 70 26 105t63.5 34t79.5 -29q32 -26 47 -22.5t15 45.5h89q0 -70 -25.5 -105t-63 -34t-79.5 29zM459 500h108v-500h-108v72q-61 -85 -175 -85q-103 0 -176 76.5t-73 186.5q0 111 73 187t176 76q114 0 175 -84v71zM301 90
q68 0 113 45.5t45 114.5t-45 114.5t-113 45.5t-113 -45.5t-45 -114.5t45 -114.5t113 -45.5z" />
    <glyph glyph-name="adieresis" unicode="&#xe4;" 
d="M213 558q-25 0 -42.5 17.5t-17.5 42.5t17.5 42.5t42.5 17.5t42.5 -17.5t17.5 -42.5t-17.5 -42.5t-42.5 -17.5zM403 558q-25 0 -42.5 17.5t-17.5 42.5t17.5 42.5t42.5 17.5t42.5 -17.5t17.5 -42.5t-17.5 -42.5t-42.5 -17.5zM459 500h108v-500h-108v72q-61 -85 -175 -85
q-103 0 -176 76.5t-73 186.5q0 111 73 187t176 76q114 0 175 -84v71zM301 90q68 0 113 45.5t45 114.5t-45 114.5t-113 45.5t-113 -45.5t-45 -114.5t45 -114.5t113 -45.5z" />
    <glyph glyph-name="aring" unicode="&#xe5;" 
d="M308 543q-52 0 -85.5 32t-33.5 80t33.5 80.5t85.5 32.5q53 0 86.5 -32t33.5 -81t-33.5 -80.5t-86.5 -31.5zM308 697q-20 0 -31.5 -11.5t-11.5 -30.5q0 -18 11.5 -29.5t31.5 -11.5q21 0 32.5 11.5t11.5 29.5q0 19 -11.5 30.5t-32.5 11.5zM459 500h108v-500h-108v72
q-61 -85 -175 -85q-103 0 -176 76.5t-73 186.5q0 111 73 187t176 76q114 0 175 -84v71zM301 90q68 0 113 45.5t45 114.5t-45 114.5t-113 45.5t-113 -45.5t-45 -114.5t45 -114.5t113 -45.5z" />
    <glyph glyph-name="ae" unicode="&#xe6;" horiz-adv-x="1006" 
d="M573 204q12 -57 54.5 -87.5t102.5 -30.5q88 0 131 62l89 -52q-74 -109 -206 -109q-119 0 -182 87v-74h-103v72q-61 -85 -175 -85q-103 0 -176 76.5t-73 186.5q0 111 73 187t176 76q114 0 175 -84v71h103v-74q63 87 176 87q110 0 173 -75.5t63 -188.5q0 -17 -4 -45h-397z
M572 293h293q-10 61 -49 91.5t-92 30.5q-61 0 -101 -32.5t-51 -89.5zM301 90q68 0 113 45.5t45 114.5t-45 114.5t-113 45.5t-113 -45.5t-45 -114.5t45 -114.5t113 -45.5z" />
    <glyph glyph-name="ccedilla" unicode="&#xe7;" horiz-adv-x="542" 
d="M524 117q-26 -50 -73.5 -83t-105.5 -43v-37q34 -6 56 -26.5t22 -52.5q0 -104 -215 -91v79q121 -10 121 25q0 27 -73 30v72q-97 15 -159 87.5t-62 172.5q0 112 75.5 187.5t188.5 75.5q73 0 133 -35t90 -94l-93 -54q-17 36 -51.5 56.5t-79.5 20.5q-66 0 -110.5 -45
t-44.5 -112t44.5 -112t110.5 -45q44 0 79.5 21t53.5 56z" />
    <glyph glyph-name="egrave" unicode="&#xe8;" horiz-adv-x="582" 
d="M368 568h-104l-106 135h130zM148 204q12 -57 55 -87.5t105 -30.5q86 0 129 62l89 -52q-74 -109 -219 -109q-122 0 -197 74.5t-75 188.5q0 112 74 187.5t190 75.5q110 0 180.5 -77t70.5 -187q0 -17 -4 -45h-398zM147 292h294q-11 61 -50.5 92t-92.5 31q-60 0 -100 -33
t-51 -90z" />
    <glyph glyph-name="eacute" unicode="&#xe9;" horiz-adv-x="582" 
d="M433 703l-106 -135h-104l80 135h130zM148 204q12 -57 55 -87.5t105 -30.5q86 0 129 62l89 -52q-74 -109 -219 -109q-122 0 -197 74.5t-75 188.5q0 112 74 187.5t190 75.5q110 0 180.5 -77t70.5 -187q0 -17 -4 -45h-398zM147 292h294q-11 61 -50.5 92t-92.5 31
q-60 0 -100 -33t-51 -90z" />
    <glyph glyph-name="ecircumflex" unicode="&#xea;" horiz-adv-x="582" 
d="M291 637l-53 -74h-110l106 140h113l106 -140h-110zM148 204q12 -57 55 -87.5t105 -30.5q86 0 129 62l89 -52q-74 -109 -219 -109q-122 0 -197 74.5t-75 188.5q0 112 74 187.5t190 75.5q110 0 180.5 -77t70.5 -187q0 -17 -4 -45h-398zM147 292h294q-11 61 -50.5 92
t-92.5 31q-60 0 -100 -33t-51 -90z" />
    <glyph glyph-name="edieresis" unicode="&#xeb;" horiz-adv-x="582" 
d="M198 561q-25 0 -42.5 17.5t-17.5 42.5t17.5 42.5t42.5 17.5t42.5 -17.5t17.5 -42.5t-17.5 -42.5t-42.5 -17.5zM388 561q-25 0 -42.5 17.5t-17.5 42.5t17.5 42.5t42.5 17.5t42.5 -17.5t17.5 -42.5t-17.5 -42.5t-42.5 -17.5zM148 204q12 -57 55 -87.5t105 -30.5
q86 0 129 62l89 -52q-74 -109 -219 -109q-122 0 -197 74.5t-75 188.5q0 112 74 187.5t190 75.5q110 0 180.5 -77t70.5 -187q0 -17 -4 -45h-398zM147 292h294q-11 61 -50.5 92t-92.5 31q-60 0 -100 -33t-51 -90z" />
    <glyph glyph-name="igrave" unicode="&#xec;" horiz-adv-x="233" 
d="M167 560l-45 140h-125l66 -140h104zM171 0h-108v500h108v-500z" />
    <glyph glyph-name="iacute" unicode="&#xed;" horiz-adv-x="233" 
d="M64 560h104l66 140h-125zM63 0v500h108v-500h-108z" />
    <glyph glyph-name="icircumflex" unicode="&#xee;" horiz-adv-x="233" 
d="M117 622l-38 -62h-110l91 140h113l91 -140h-110zM63 0v500h108v-500h-108z" />
    <glyph glyph-name="idieresis" unicode="&#xef;" horiz-adv-x="233" 
d="M37 560q-25 0 -43 17.5t-18 42.5t18 42.5t43 17.5t42.5 -17.5t17.5 -42.5t-17.5 -42.5t-42.5 -17.5zM197 560q-25 0 -42.5 17.5t-17.5 42.5t17.5 42.5t42.5 17.5t42.5 -17.5t17.5 -42.5t-17.5 -42.5t-42.5 -17.5zM63 0v500h108v-500h-108z" />
    <glyph glyph-name="eth" unicode="&#xf0;" horiz-adv-x="576" 
d="M495 370q46 -61 46 -140q0 -109 -74 -175.5t-179 -66.5t-179 66.5t-74 175.5q0 108 80.5 175t187.5 50h1l-66 91l-123 -65v80l80 43l-70 96h124l36 -49l117 62v-80l-74 -39zM288 90q62 0 103.5 38t41.5 102q0 49 -24 81l-1 1q-40 54 -119 54q-64 0 -105 -37t-41 -99
q0 -64 41.5 -102t103.5 -38z" />
    <glyph glyph-name="ntilde" unicode="&#xf1;" horiz-adv-x="571" 
d="M288 595q-33 26 -48 22.5t-15 -45.5h-89q0 70 26 105t63.5 34t79.5 -29q32 -26 47 -22.5t15 45.5h89q0 -70 -25.5 -105t-63 -34t-79.5 29zM326 513q86 0 139 -55t53 -151v-307h-108v296q0 56 -30 86t-82 30q-57 0 -92 -35.5t-35 -108.5v-268h-108v500h108v-64
q49 77 155 77z" />
    <glyph glyph-name="ograve" unicode="&#xf2;" horiz-adv-x="598" 
d="M374 570l-80 135h-130l106 -135h104zM299 -13q-110 0 -187 76t-77 187t77 187t187 76q111 0 187.5 -76t76.5 -187t-76.5 -187t-187.5 -76zM299 92q66 0 111 45t45 113t-45 113t-111 45t-111 -45t-45 -113t45 -113t111 -45z" />
    <glyph glyph-name="oacute" unicode="&#xf3;" horiz-adv-x="598" 
d="M229 570h104l106 135h-130zM299 -13q-110 0 -187 76t-77 187t77 187t187 76q111 0 187.5 -76t76.5 -187t-76.5 -187t-187.5 -76zM299 92q66 0 111 45t45 113t-45 113t-111 45t-111 -45t-45 -113t45 -113t111 -45z" />
    <glyph glyph-name="ocircumflex" unicode="&#xf4;" horiz-adv-x="598" 
d="M297 639l-53 -74h-110l106 140h113l106 -140h-110zM299 513q111 0 187.5 -76t76.5 -187t-76.5 -187t-187.5 -76q-110 0 -187 76t-77 187t77 187t187 76zM299 92q66 0 111 45t45 113t-45 113t-111 45t-111 -45t-45 -113t45 -113t111 -45z" />
    <glyph glyph-name="otilde" unicode="&#xf5;" horiz-adv-x="598" 
d="M139 572q0 70 26 105t63.5 34t79.5 -29q32 -26 47 -22.5t15 45.5h89q0 -70 -25.5 -105t-63 -34t-79.5 29q-33 26 -48 22.5t-15 -45.5h-89zM299 -13q-110 0 -187 76t-77 187t77 187t187 76q111 0 187.5 -76t76.5 -187t-76.5 -187t-187.5 -76zM299 92q66 0 111 45t45 113
t-45 113t-111 45t-111 -45t-45 -113t45 -113t111 -45z" />
    <glyph glyph-name="odieresis" unicode="&#xf6;" horiz-adv-x="598" 
d="M204 563q-25 0 -42.5 17.5t-17.5 42.5t17.5 42.5t42.5 17.5t42.5 -17.5t17.5 -42.5t-17.5 -42.5t-42.5 -17.5zM394 563q-25 0 -42.5 17.5t-17.5 42.5t17.5 42.5t42.5 17.5t42.5 -17.5t17.5 -42.5t-17.5 -42.5t-42.5 -17.5zM299 -13q-110 0 -187 76t-77 187t77 187t187 76
q111 0 187.5 -76t76.5 -187t-76.5 -187t-187.5 -76zM299 92q66 0 111 45t45 113t-45 113t-111 45t-111 -45t-45 -113t45 -113t111 -45z" />
    <glyph glyph-name="divide" unicode="&#xf7;" horiz-adv-x="570" 
d="M285 470q-31 0 -51.5 20.5t-20.5 51.5t20.5 52t51.5 21t52 -21t21 -52t-21 -51.5t-52 -20.5zM50 299v102h470v-102h-470zM285 86q-31 0 -51.5 20.5t-20.5 51.5t20.5 52t51.5 21t52 -21t21 -52t-21 -51.5t-52 -20.5z" />
    <glyph glyph-name="oslash" unicode="&#xf8;" horiz-adv-x="598" 
d="M493 431q70 -77 70 -181q0 -111 -76.5 -187t-187.5 -76q-82 0 -149 45l-34 -40l-51 29l41 48q-71 76 -71 181q0 111 77 187t187 76q83 0 150 -45l34 40l51 -29zM143 250q0 -58 33 -100l203 237q-37 21 -80 21q-66 0 -111 -45t-45 -113zM299 92q66 0 111 45t45 113
q0 57 -33 99l-202 -236q34 -21 79 -21z" />
    <glyph glyph-name="ugrave" unicode="&#xf9;" horiz-adv-x="571" 
d="M355 565h-104l-106 135h130zM400 500h108v-500h-108v64q-49 -77 -155 -77q-86 0 -139 55t-53 151v307h108v-296q0 -56 30 -86t82 -30q57 0 92 35.5t35 108.5v268z" />
    <glyph glyph-name="uacute" unicode="&#xfa;" horiz-adv-x="571" 
d="M420 700l-106 -135h-104l80 135h130zM400 500h108v-500h-108v64q-49 -77 -155 -77q-86 0 -139 55t-53 151v307h108v-296q0 -56 30 -86t82 -30q57 0 92 35.5t35 108.5v268z" />
    <glyph glyph-name="ucircumflex" unicode="&#xfb;" horiz-adv-x="571" 
d="M278 634l-53 -74h-110l106 140h113l106 -140h-110zM400 500h108v-500h-108v64q-49 -77 -155 -77q-86 0 -139 55t-53 151v307h108v-296q0 -56 30 -86t82 -30q57 0 92 35.5t35 108.5v268z" />
    <glyph glyph-name="udieresis" unicode="&#xfc;" horiz-adv-x="571" 
d="M185 558q-25 0 -42.5 17.5t-17.5 42.5t17.5 42.5t42.5 17.5t42.5 -17.5t17.5 -42.5t-17.5 -42.5t-42.5 -17.5zM375 558q-25 0 -42.5 17.5t-17.5 42.5t17.5 42.5t42.5 17.5t42.5 -17.5t17.5 -42.5t-17.5 -42.5t-42.5 -17.5zM400 500h108v-500h-108v64q-49 -77 -155 -77
q-86 0 -139 55t-53 151v307h108v-296q0 -56 30 -86t82 -30q57 0 92 35.5t35 108.5v268z" />
    <glyph glyph-name="yacute" unicode="&#xfd;" horiz-adv-x="520" 
d="M400 700l-106 -135h-104l80 135h130zM400 500h115l-192 -516q-72 -194 -244 -184v101q51 -3 82 21.5t51 76.5l5 10l-212 491h118l149 -363z" />
    <glyph glyph-name="thorn" unicode="&#xfe;" 
d="M346 513q103 0 176 -76t73 -187q0 -110 -73 -186.5t-176 -76.5q-114 0 -175 85v-272h-108v900h108v-271q61 84 175 84zM329 90q68 0 113 45.5t45 114.5t-45 114.5t-113 45.5t-113 -45.5t-45 -114.5t45 -114.5t113 -45.5z" />
    <glyph glyph-name="ydieresis" unicode="&#xff;" horiz-adv-x="520" 
d="M165 558q-25 0 -42.5 17.5t-17.5 42.5t17.5 42.5t42.5 17.5t42.5 -17.5t17.5 -42.5t-17.5 -42.5t-42.5 -17.5zM355 558q-25 0 -42.5 17.5t-17.5 42.5t17.5 42.5t42.5 17.5t42.5 -17.5t17.5 -42.5t-17.5 -42.5t-42.5 -17.5zM400 500h115l-192 -516q-72 -194 -244 -184v101
q51 -3 82 21.5t51 76.5l5 10l-212 491h118l149 -363z" />
    <glyph glyph-name="Amacron" unicode="&#x100;" horiz-adv-x="655" 
d="M468 859v-89h-280v89h280zM526 0l-49 141h-298l-49 -141h-125l254 700h138l253 -700h-124zM217 249h222l-111 316z" />
    <glyph glyph-name="amacron" unicode="&#x101;" 
d="M448 659v-89h-280v89h280zM459 500h108v-500h-108v72q-61 -85 -175 -85q-103 0 -176 76.5t-73 186.5q0 111 73 187t176 76q114 0 175 -84v71zM301 90q68 0 113 45.5t45 114.5t-45 114.5t-113 45.5t-113 -45.5t-45 -114.5t45 -114.5t113 -45.5z" />
    <glyph glyph-name="Abreve" unicode="&#x102;" horiz-adv-x="655" 
d="M328 752q-75 0 -116.5 36.5t-41.5 103.5h98q0 -59 60 -59q59 0 59 59h98q0 -67 -41.5 -103.5t-115.5 -36.5zM526 0l-49 141h-298l-49 -141h-125l254 700h138l253 -700h-124zM217 249h222l-111 316z" />
    <glyph glyph-name="abreve" unicode="&#x103;" 
d="M308 552q-75 0 -116.5 36.5t-41.5 103.5h98q0 -59 60 -59q59 0 59 59h98q0 -67 -41.5 -103.5t-115.5 -36.5zM459 500h108v-500h-108v72q-61 -85 -175 -85q-103 0 -176 76.5t-73 186.5q0 111 73 187t176 76q114 0 175 -84v71zM301 90q68 0 113 45.5t45 114.5t-45 114.5
t-113 45.5t-113 -45.5t-45 -114.5t45 -114.5t113 -45.5z" />
    <glyph glyph-name="Aogonek" unicode="&#x104;" horiz-adv-x="655" 
d="M618 -133q12 -1 32 6v-72q-34 -14 -73 -14q-42 0 -66.5 22t-24.5 61q0 62 68 130h-28l-49 141h-298l-49 -141h-125l254 700h138l253 -700q-60 -60 -60 -105q-1 -28 28 -28zM217 249h222l-111 316z" />
    <glyph glyph-name="aogonek" unicode="&#x105;" 
d="M567 0q-60 -60 -60 -105q-1 -28 28 -28q12 -1 32 6v-72q-34 -14 -73 -14q-42 0 -66.5 22t-24.5 61q0 58 64 130h-8v72q-61 -85 -175 -85q-103 0 -176 76.5t-73 186.5q0 111 73 187t176 76q114 0 175 -84v71h108v-500zM301 90q68 0 113 45.5t45 114.5t-45 114.5t-113 45.5
t-113 -45.5t-45 -114.5t45 -114.5t113 -45.5z" />
    <glyph glyph-name="Cacute" unicode="&#x106;" horiz-adv-x="732" 
d="M331 770h104l106 135h-130zM401 -13q-158 0 -262 104.5t-104 258.5t104 258.5t262 104.5q95 0 175.5 -45t125.5 -122l-100 -58q-28 52 -81.5 82.5t-119.5 30.5q-112 0 -181.5 -71t-69.5 -180t69.5 -180t181.5 -71q66 0 120 30.5t81 82.5l100 -57q-44 -77 -124.5 -122.5
t-176.5 -45.5z" />
    <glyph glyph-name="cacute" unicode="&#x107;" horiz-adv-x="542" 
d="M225 565h104l106 135h-130zM299 -13q-113 0 -188.5 76t-75.5 187q0 112 75.5 187.5t188.5 75.5q73 0 133 -35t90 -94l-93 -54q-17 36 -51.5 56.5t-79.5 20.5q-66 0 -110.5 -45t-44.5 -112t44.5 -112t110.5 -45q44 0 79.5 21t53.5 56l93 -53q-32 -60 -92 -95t-133 -35z
" />
    <glyph glyph-name="Cdotaccent" unicode="&#x10a;" horiz-adv-x="732" 
d="M401 763q-29 0 -49.5 20.5t-20.5 49.5t20.5 49.5t49.5 20.5t49.5 -20.5t20.5 -49.5t-20.5 -49.5t-49.5 -20.5zM401 -13q-158 0 -262 104.5t-104 258.5t104 258.5t262 104.5q95 0 175.5 -45t125.5 -122l-100 -58q-28 52 -81.5 82.5t-119.5 30.5q-112 0 -181.5 -71
t-69.5 -180t69.5 -180t181.5 -71q66 0 120 30.5t81 82.5l100 -57q-44 -77 -124.5 -122.5t-176.5 -45.5z" />
    <glyph glyph-name="cdotaccent" unicode="&#x10b;" horiz-adv-x="542" 
d="M295 558q-29 0 -49.5 20.5t-20.5 49.5q0 28 20.5 49t49.5 21t49.5 -20.5t20.5 -49.5t-20.5 -49.5t-49.5 -20.5zM299 -13q-113 0 -188.5 76t-75.5 187q0 112 75.5 187.5t188.5 75.5q73 0 133 -35t90 -94l-93 -54q-17 36 -51.5 56.5t-79.5 20.5q-66 0 -110.5 -45
t-44.5 -112t44.5 -112t110.5 -45q44 0 79.5 21t53.5 56l93 -53q-32 -60 -92 -95t-133 -35z" />
    <glyph glyph-name="Ccaron" unicode="&#x10c;" horiz-adv-x="732" 
d="M342 765l-106 140h110l53 -73l52 73h110l-106 -140h-113zM401 99q66 0 120 30.5t81 82.5l100 -57q-44 -77 -124.5 -122.5t-176.5 -45.5q-158 0 -262 104.5t-104 258.5t104 258.5t262 104.5q95 0 175.5 -45t125.5 -122l-100 -58q-28 52 -81.5 82.5t-119.5 30.5
q-112 0 -181.5 -71t-69.5 -180t69.5 -180t181.5 -71z" />
    <glyph glyph-name="ccaron" unicode="&#x10d;" horiz-adv-x="542" 
d="M236 560l-106 140h110l53 -73l52 73h110l-106 -140h-113zM431 170l93 -53q-32 -60 -92 -95t-133 -35q-113 0 -188.5 76t-75.5 187q0 112 75.5 187.5t188.5 75.5q73 0 133 -35t90 -94l-93 -54q-17 36 -51.5 56.5t-79.5 20.5q-66 0 -110.5 -45t-44.5 -112t44.5 -112
t110.5 -45q44 0 79.5 21t53.5 56z" />
    <glyph glyph-name="Dcaron" unicode="&#x10e;" horiz-adv-x="715" 
d="M281 760l-106 140h110l53 -73l52 73h110l-106 -140h-113zM345 700q144 0 239.5 -101t95.5 -249q0 -147 -95.5 -248.5t-239.5 -101.5h-275v700h275zM345 110q99 0 161.5 68t62.5 172q0 105 -62.5 172.5t-161.5 67.5h-160v-480h160z" />
    <glyph glyph-name="dcaron" unicode="&#x10f;" horiz-adv-x="724" 
d="M459 429v271h108v-700h-108v72q-61 -85 -175 -85q-103 0 -176 76.5t-73 186.5q0 111 73 187t176 76q114 0 175 -84zM631 700h103l-30 -190h-83zM301 90q68 0 113 45.5t45 114.5t-45 114.5t-113 45.5t-113 -45.5t-45 -114.5t45 -114.5t113 -45.5z" />
    <glyph glyph-name="Dcroat" unicode="&#x110;" horiz-adv-x="745" 
d="M375 700q144 0 239.5 -101t95.5 -249q0 -147 -95.5 -248.5t-239.5 -101.5h-275v293h-75v104h75v303h275zM375 110q99 0 161.5 68t62.5 172q0 105 -62.5 172.5t-161.5 67.5h-160v-193h180v-104h-180v-183h160z" />
    <glyph glyph-name="dcroat" unicode="&#x111;" horiz-adv-x="637" 
d="M632 635v-74h-65v-561h-108v72q-61 -85 -175 -85q-103 0 -176 76.5t-73 186.5q0 111 73 187t176 76q114 0 175 -84v132h-162v74h162v65h108v-65h65zM301 90q68 0 113 45.5t45 114.5t-45 114.5t-113 45.5t-113 -45.5t-45 -114.5t45 -114.5t113 -45.5z" />
    <glyph glyph-name="Emacron" unicode="&#x112;" horiz-adv-x="530" 
d="M421 859v-89h-280v89h280zM185 110h310v-110h-425v700h420v-110h-305v-182h280v-109h-280v-189z" />
    <glyph glyph-name="emacron" unicode="&#x113;" horiz-adv-x="582" 
d="M433 662v-89h-280v89h280zM148 204q12 -57 55 -87.5t105 -30.5q86 0 129 62l89 -52q-74 -109 -219 -109q-122 0 -197 74.5t-75 188.5q0 112 74 187.5t190 75.5q110 0 180.5 -77t70.5 -187q0 -17 -4 -45h-398zM147 292h294q-11 61 -50.5 92t-92.5 31q-60 0 -100 -33
t-51 -90z" />
    <glyph glyph-name="Edotaccent" unicode="&#x116;" horiz-adv-x="530" 
d="M281 758q-29 0 -49.5 20.5t-20.5 49.5q0 28 20.5 49t49.5 21t49.5 -20.5t20.5 -49.5t-20.5 -49.5t-49.5 -20.5zM185 110h310v-110h-425v700h420v-110h-305v-182h280v-109h-280v-189z" />
    <glyph glyph-name="edotaccent" unicode="&#x117;" horiz-adv-x="582" 
d="M293 561q-29 0 -49.5 20.5t-20.5 49.5t20.5 49.5t49.5 20.5t49.5 -20.5t20.5 -49.5t-20.5 -49.5t-49.5 -20.5zM148 204q12 -57 55 -87.5t105 -30.5q86 0 129 62l89 -52q-74 -109 -219 -109q-122 0 -197 74.5t-75 188.5q0 112 74 187.5t190 75.5q110 0 180.5 -77
t70.5 -187q0 -17 -4 -45h-398zM147 292h294q-11 61 -50.5 92t-92.5 31q-60 0 -100 -33t-51 -90z" />
    <glyph glyph-name="Eogonek" unicode="&#x118;" horiz-adv-x="530" 
d="M463 -133q12 -1 33 6v-72q-34 -14 -74 -14q-41 0 -66 22t-25 61q0 60 68 130h-329v700h420v-110h-305v-182h280v-109h-280v-189h310v-110h1q-61 -59 -61 -105q0 -28 28 -28z" />
    <glyph glyph-name="eogonek" unicode="&#x119;" horiz-adv-x="582" 
d="M148 204q12 -57 55 -87.5t105 -30.5q86 0 129 62l89 -52q-17 -26 -36 -42q-97 -106 -97 -159q0 -28 28 -28q12 -1 33 6v-72q-34 -14 -74 -14q-41 0 -66 22t-25 61q0 61 65 120q-22 -3 -47 -3q-122 0 -197 74.5t-75 188.5q0 112 74 187.5t190 75.5q110 0 180.5 -77
t70.5 -187q0 -17 -4 -45h-398zM147 292h294q-11 61 -50.5 92t-92.5 31q-60 0 -100 -33t-51 -90z" />
    <glyph glyph-name="Ecaron" unicode="&#x11a;" horiz-adv-x="530" 
d="M222 760l-106 140h110l53 -73l52 73h110l-106 -140h-113zM185 110h310v-110h-425v700h420v-110h-305v-182h280v-109h-280v-189z" />
    <glyph glyph-name="ecaron" unicode="&#x11b;" horiz-adv-x="582" 
d="M234 563l-106 140h110l53 -73l52 73h110l-106 -140h-113zM148 204q12 -57 55 -87.5t105 -30.5q86 0 129 62l89 -52q-74 -109 -219 -109q-122 0 -197 74.5t-75 188.5q0 112 74 187.5t190 75.5q110 0 180.5 -77t70.5 -187q0 -17 -4 -45h-398zM147 292h294q-11 61 -50.5 92
t-92.5 31q-60 0 -100 -33t-51 -90z" />
    <glyph glyph-name="Gbreve" unicode="&#x11e;" horiz-adv-x="786" 
d="M396 757q-75 0 -116.5 36.5t-41.5 103.5h98q0 -59 60 -59q59 0 59 59h98q0 -67 -41.5 -103.5t-115.5 -36.5zM751 362v-48q0 -144 -95 -235.5t-248 -91.5q-162 0 -267.5 105t-105.5 258q0 152 105.5 257.5t261.5 105.5q98 0 179 -45t126 -121l-99 -57q-28 50 -83 80.5
t-123 30.5q-110 0 -181 -72t-71 -180t71.5 -179t187.5 -71q93 0 151.5 43.5t74.5 116.5h-234v103h350z" />
    <glyph glyph-name="gbreve" unicode="&#x11f;" 
d="M301 557q-75 0 -116.5 36.5t-41.5 103.5h98q0 -59 60 -59q59 0 59 59h98q0 -67 -41.5 -103.5t-115.5 -36.5zM461 500h106v-477q0 -114 -75 -175t-182 -61q-173 0 -237 121l93 54q39 -77 146 -77q70 0 109.5 36.5t39.5 101.5v61q-61 -87 -174 -87q-106 0 -179 75.5
t-73 182.5t73 182.5t179 75.5q113 0 174 -87v74zM302 98q68 0 113.5 45t45.5 112t-45.5 112t-113.5 45t-113.5 -45t-45.5 -112t45.5 -112t113.5 -45z" />
    <glyph glyph-name="Gdotaccent" unicode="&#x120;" horiz-adv-x="786" 
d="M396 763q-29 0 -49.5 20.5t-20.5 49.5t21 49.5t49 20.5q29 0 49.5 -20.5t20.5 -49.5t-20.5 -49.5t-49.5 -20.5zM751 362v-48q0 -144 -95 -235.5t-248 -91.5q-162 0 -267.5 105t-105.5 258q0 152 105.5 257.5t261.5 105.5q98 0 179 -45t126 -121l-99 -57q-28 50 -83 80.5
t-123 30.5q-110 0 -181 -72t-71 -180t71.5 -179t187.5 -71q93 0 151.5 43.5t74.5 116.5h-234v103h350z" />
    <glyph glyph-name="gdotaccent" unicode="&#x121;" 
d="M301 563q-29 0 -49.5 20.5t-20.5 49.5t20.5 49.5t49.5 20.5t49.5 -20.5t20.5 -49.5t-20.5 -49.5t-49.5 -20.5zM461 500h106v-477q0 -114 -75 -175t-182 -61q-173 0 -237 121l93 54q39 -77 146 -77q70 0 109.5 36.5t39.5 101.5v61q-61 -87 -174 -87q-106 0 -179 75.5
t-73 182.5t73 182.5t179 75.5q113 0 174 -87v74zM302 98q68 0 113.5 45t45.5 112t-45.5 112t-113.5 45t-113.5 -45t-45.5 -112t45.5 -112t113.5 -45z" />
    <glyph glyph-name="Gcommaaccent" unicode="&#x122;" horiz-adv-x="786" 
d="M751 362v-48q0 -144 -95 -235.5t-248 -91.5q-162 0 -267.5 105t-105.5 258q0 152 105.5 257.5t261.5 105.5q98 0 179 -45t126 -121l-99 -57q-28 50 -83 80.5t-123 30.5q-110 0 -181 -72t-71 -180t71.5 -179t187.5 -71q93 0 151.5 43.5t74.5 116.5h-234v103h350zM356 -255
l10 190h103l-30 -190h-83z" />
    <glyph glyph-name="gcommaaccent" unicode="&#x123;" 
d="M356 775l-10 -190h-103l30 190h83zM461 500h106v-477q0 -114 -75 -175t-182 -61q-173 0 -237 121l93 54q39 -77 146 -77q70 0 109.5 36.5t39.5 101.5v61q-61 -87 -174 -87q-106 0 -179 75.5t-73 182.5t73 182.5t179 75.5q113 0 174 -87v74zM302 98q68 0 113.5 45
t45.5 112t-45.5 112t-113.5 45t-113.5 -45t-45.5 -112t45.5 -112t113.5 -45z" />
    <glyph glyph-name="Hbar" unicode="&#x126;" horiz-adv-x="715" 
d="M685 591v-86h-62v-505h-115v290h-300v-290h-115v505h-63v86h63v109h115v-109h300v109h115v-109h62zM508 400v105h-300v-105h300z" />
    <glyph glyph-name="hbar" unicode="&#x127;" horiz-adv-x="578" 
d="M334 513q85 0 138 -55t53 -151v-307h-108v296q0 56 -30 86t-81 30q-58 0 -93 -35.5t-35 -108.5v-268h-108v561h-65v74h65v65h108v-65h142v-74h-142v-125q50 77 156 77z" />
    <glyph glyph-name="Imacron" unicode="&#x12a;" horiz-adv-x="255" 
d="M-12 770v89h280v-89h-280zM70 700h115v-700h-115v700z" />
    <glyph glyph-name="imacron" unicode="&#x12b;" horiz-adv-x="233" 
d="M7 570v94h220v-94h-220zM63 0v500h108v-500h-108z" />
    <glyph glyph-name="Iogonek" unicode="&#x12e;" horiz-adv-x="255" 
d="M176 -133q12 -1 32 6v-72q-34 -14 -73 -14q-42 0 -66.5 22t-24.5 61q0 59 43 130h-17v700h115v-700q-37 -63 -37 -105q-1 -28 28 -28z" />
    <glyph glyph-name="iogonek" unicode="&#x12f;" horiz-adv-x="233" 
d="M117 575q-28 0 -48.5 20.5t-20.5 48.5t20 48.5t49 20.5t49 -20.5t20 -48.5t-20.5 -48.5t-48.5 -20.5zM162 -133q12 -1 33 6v-72q-34 -14 -74 -14q-41 0 -66 24t-25 64q0 54 41 125h-8v500h108v-500q-37 -60 -37 -100q0 -33 28 -33z" />
    <glyph glyph-name="Idotaccent" unicode="&#x130;" horiz-adv-x="255" 
d="M128 758q-29 0 -49.5 20.5t-20.5 49.5q0 28 21 49t49 21q29 0 49.5 -20.5t20.5 -49.5t-20.5 -49.5t-49.5 -20.5zM70 700h115v-700h-115v700z" />
    <glyph glyph-name="dotlessi" unicode="&#x131;" horiz-adv-x="233" 
d="M63 0v500h108v-500h-108z" />
    <glyph glyph-name="Kcommaaccent" unicode="&#x136;" horiz-adv-x="603" 
d="M305 359l293 -359h-137l-276 333v-333h-115v700h115v-314l266 314h137zM250 -255l10 190h103l-30 -190h-83z" />
    <glyph glyph-name="kcommaaccent" unicode="&#x137;" horiz-adv-x="515" 
d="M277 255l228 -255h-129l-205 231v-231h-108v700h108v-421l194 221h132zM218 -255l10 190h103l-30 -190h-83z" />
    <glyph glyph-name="Lacute" unicode="&#x139;" horiz-adv-x="485" 
d="M282 900l-106 -135h-104l80 135h130zM185 110h285v-110h-400v700h115v-590z" />
    <glyph glyph-name="lacute" unicode="&#x13a;" horiz-adv-x="233" 
d="M61 765h104l106 135h-130zM63 0v730h108v-730h-108z" />
    <glyph glyph-name="Lcommaaccent" unicode="&#x13b;" horiz-adv-x="485" 
d="M185 110h285v-110h-400v700h115v-590zM221 -255l10 190h103l-30 -190h-83z" />
    <glyph glyph-name="lcommaaccent" unicode="&#x13c;" horiz-adv-x="233" 
d="M63 0v730h108v-730h-108zM140 -255l30 190h-103l-10 -190h83z" />
    <glyph glyph-name="Lcaron" unicode="&#x13d;" horiz-adv-x="485" 
d="M185 110h285v-110h-400v700h115v-590zM382 700l-30 -180h-88l10 180h108z" />
    <glyph glyph-name="lcaron" unicode="&#x13e;" horiz-adv-x="327" 
d="M63 0v730h108v-730h-108zM307 540l30 190h-103l-10 -190h83z" />
    <glyph glyph-name="Lslash" unicode="&#x141;" horiz-adv-x="505" 
d="M205 110h285v-110h-400v222l-60 -36v113l60 36v365h115v-297l145 86v-113l-145 -86v-180z" />
    <glyph glyph-name="lslash" unicode="&#x142;" horiz-adv-x="255" 
d="M240 480v-103l-58 -40v-337h-108v263l-59 -40v103l59 40v364h108v-290z" />
    <glyph glyph-name="Nacute" unicode="&#x143;" horiz-adv-x="675" 
d="M263 765h104l106 135h-130zM490 700h115v-700h-90l-330 475v-475h-115v700h90l330 -475v475z" />
    <glyph glyph-name="nacute" unicode="&#x144;" horiz-adv-x="571" 
d="M436 705l-106 -135h-104l80 135h130zM326 513q86 0 139 -55t53 -151v-307h-108v296q0 56 -30 86t-82 30q-57 0 -92 -35.5t-35 -108.5v-268h-108v500h108v-64q49 77 155 77z" />
    <glyph glyph-name="Ncommaaccent" unicode="&#x145;" horiz-adv-x="675" 
d="M490 700h115v-700h-90l-330 475v-475h-115v700h90l330 -475v475zM364 -255l30 190h-103l-10 -190h83z" />
    <glyph glyph-name="ncommaaccent" unicode="&#x146;" horiz-adv-x="571" 
d="M326 513q86 0 139 -55t53 -151v-307h-108v296q0 56 -30 86t-82 30q-57 0 -92 -35.5t-35 -108.5v-268h-108v500h108v-64q49 77 155 77zM236 -255l10 190h103l-30 -190h-83z" />
    <glyph glyph-name="Ncaron" unicode="&#x147;" horiz-adv-x="675" 
d="M274 760l-106 140h110l53 -73l52 73h110l-106 -140h-113zM490 700h115v-700h-90l-330 475v-475h-115v700h90l330 -475v475z" />
    <glyph glyph-name="ncaron" unicode="&#x148;" horiz-adv-x="571" 
d="M237 565l-106 140h110l53 -73l52 73h110l-106 -140h-113zM326 513q86 0 139 -55t53 -151v-307h-108v296q0 56 -30 86t-82 30q-57 0 -92 -35.5t-35 -108.5v-268h-108v500h108v-64q49 77 155 77z" />
    <glyph glyph-name="Eng" unicode="&#x14a;" horiz-adv-x="675" 
d="M490 700h115v-700q0 -104 -59.5 -154t-165.5 -46v106q55 0 82.5 21t27.5 78v31l-305 439v-475h-115v700h90l330 -475v475z" />
    <glyph glyph-name="eng" unicode="&#x14b;" horiz-adv-x="571" 
d="M326 513q86 0 139 -55t53 -151v-327q0 -99 -50.5 -149.5t-149.5 -43.5v104q46 -5 69 15.5t23 73.5v316q0 56 -30 86t-82 30q-57 0 -92 -35.5t-35 -108.5v-268h-108v500h108v-64q49 77 155 77z" />
    <glyph glyph-name="Omacron" unicode="&#x14c;" horiz-adv-x="796" 
d="M258 775v89h280v-89h-280zM398 -13q-152 0 -257.5 105.5t-105.5 257.5t105.5 257.5t257.5 105.5t257.5 -105.5t105.5 -257.5t-105.5 -257.5t-257.5 -105.5zM398 99q105 0 176.5 71.5t71.5 179.5t-71.5 179.5t-176.5 71.5t-176.5 -71.5t-71.5 -179.5t71.5 -179.5
t176.5 -71.5z" />
    <glyph glyph-name="omacron" unicode="&#x14d;" horiz-adv-x="598" 
d="M159 575v89h280v-89h-280zM299 -13q-110 0 -187 76t-77 187t77 187t187 76q111 0 187.5 -76t76.5 -187t-76.5 -187t-187.5 -76zM299 92q66 0 111 45t45 113t-45 113t-111 45t-111 -45t-45 -113t45 -113t111 -45z" />
    <glyph glyph-name="Ohungarumlaut" unicode="&#x150;" horiz-adv-x="796" 
d="M238 765h108l81 135h-114zM401 765h108l91 135h-114zM398 -13q-152 0 -257.5 105.5t-105.5 257.5t105.5 257.5t257.5 105.5t257.5 -105.5t105.5 -257.5t-105.5 -257.5t-257.5 -105.5zM398 99q105 0 176.5 71.5t71.5 179.5t-71.5 179.5t-176.5 71.5t-176.5 -71.5
t-71.5 -179.5t71.5 -179.5t176.5 -71.5z" />
    <glyph glyph-name="ohungarumlaut" unicode="&#x151;" horiz-adv-x="598" 
d="M139 565h108l81 135h-114zM302 565h108l91 135h-114zM299 -13q-110 0 -187 76t-77 187t77 187t187 76q111 0 187.5 -76t76.5 -187t-76.5 -187t-187.5 -76zM299 92q66 0 111 45t45 113t-45 113t-111 45t-111 -45t-45 -113t45 -113t111 -45z" />
    <glyph glyph-name="OE" unicode="&#x152;" horiz-adv-x="916" 
d="M601 110h280v-110h-395q-45 -13 -98 -13q-151 0 -252 105t-101 258t101 258t252 105q53 0 98 -13h390v-110h-275v-182h255v-109h-255v-189zM486 114v472q-41 15 -98 15q-104 0 -171 -71t-67 -180t67 -180t171 -71q53 0 98 15z" />
    <glyph glyph-name="oe" unicode="&#x153;" horiz-adv-x="1002" 
d="M568 204q13 -58 56.5 -88t101.5 -30q88 0 131 62l89 -52q-74 -109 -218 -109q-75 0 -131.5 32.5t-88.5 90.5q-31 -57 -86 -90t-125 -33q-112 0 -187 76t-75 187q0 112 75 187.5t187 75.5q70 0 125 -32.5t86 -89.5q31 57 86.5 89.5t128.5 32.5q109 0 178 -76.5t69 -187.5
q0 -17 -4 -45h-398zM567 293h294q-11 60 -50.5 91t-91.5 31q-60 0 -100.5 -32.5t-51.5 -89.5zM299 92q66 0 111 45t45 113t-45 113t-111 45q-68 0 -112 -45t-44 -113t44 -113t112 -45z" />
    <glyph glyph-name="Racute" unicode="&#x154;" horiz-adv-x="613" 
d="M440 900l-106 -135h-104l80 135h130zM469 0l-148 255h-136v-255h-115v700h280q94 0 159.5 -65.5t65.5 -159.5q0 -67 -38.5 -122.5t-100.5 -80.5l159 -272h-126zM185 592v-234h165q46 0 78 34t32 83t-32 83t-78 34h-165z" />
    <glyph glyph-name="racute" unicode="&#x155;" horiz-adv-x="342" 
d="M330 700l-106 -135h-104l80 135h130zM171 416q41 93 154 93v-117q-62 4 -108 -29.5t-46 -110.5v-252h-108v500h108v-84z" />
    <glyph glyph-name="Rcommaaccent" unicode="&#x156;" horiz-adv-x="613" 
d="M436 272l159 -272h-126l-148 255h-136v-255h-115v700h280q94 0 159.5 -65.5t65.5 -159.5q0 -67 -38.5 -122.5t-100.5 -80.5zM185 592v-234h165q46 0 78 34t32 83t-32 83t-78 34h-165zM268 -255l10 190h103l-30 -190h-83z" />
    <glyph glyph-name="rcommaaccent" unicode="&#x157;" horiz-adv-x="342" 
d="M171 416q41 93 154 93v-117q-62 4 -108 -29.5t-46 -110.5v-252h-108v500h108v-84zM58 -255l10 190h103l-30 -190h-83z" />
    <glyph glyph-name="Rcaron" unicode="&#x158;" horiz-adv-x="613" 
d="M241 760l-106 140h110l53 -73l52 73h110l-106 -140h-113zM469 0l-148 255h-136v-255h-115v700h280q94 0 159.5 -65.5t65.5 -159.5q0 -67 -38.5 -122.5t-100.5 -80.5l159 -272h-126zM185 592v-234h165q46 0 78 34t32 83t-32 83t-78 34h-165z" />
    <glyph glyph-name="rcaron" unicode="&#x159;" horiz-adv-x="342" 
d="M131 560l-106 140h110l53 -73l52 73h110l-106 -140h-113zM171 416q41 93 154 93v-117q-62 4 -108 -29.5t-46 -110.5v-252h-108v500h108v-84z" />
    <glyph glyph-name="Sacute" unicode="&#x15a;" horiz-adv-x="581" 
d="M219 770h104l106 135h-130zM303 -13q-101 0 -171.5 46t-98.5 126l99 58q42 -118 174 -118q65 0 97.5 25.5t32.5 66.5q0 43 -35 65.5t-124 49.5q-50 15 -81 28t-65.5 36.5t-51.5 58.5t-17 82q0 93 66 147.5t159 54.5q84 0 147 -41t97 -113l-97 -56q-44 98 -147 98
q-50 0 -80 -23.5t-30 -63.5q0 -39 30.5 -61.5t110.5 -47.5q40 -13 58.5 -19.5t52 -20.5t50.5 -28t36.5 -35t27.5 -48t8 -61q0 -95 -68.5 -150.5t-179.5 -55.5z" />
    <glyph glyph-name="sacute" unicode="&#x15b;" horiz-adv-x="461" 
d="M371 705l-106 -135h-104l80 135h130zM160 362q0 -25 27.5 -39.5t67 -25t79.5 -24.5t67.5 -47.5t27.5 -84.5q0 -72 -55.5 -113t-139.5 -41q-74 0 -127 31t-77 86l93 54q26 -72 111 -72t85 56q0 24 -27.5 39t-67 25.5t-79.5 24.5t-67.5 46.5t-27.5 82.5q0 69 52.5 111
t130.5 42q62 0 110.5 -27.5t74.5 -76.5l-91 -51q-26 57 -94 57q-31 0 -52 -13.5t-21 -39.5z" />
    <glyph glyph-name="Scedilla" unicode="&#x15e;" horiz-adv-x="581" 
d="M551 193q0 -86 -56 -139.5t-151 -64.5v-35q34 -6 56 -26.5t22 -52.5q0 -104 -215 -91v79q121 -10 121 25q0 27 -73 30v72q-82 10 -139.5 54.5t-82.5 114.5l99 58q42 -118 174 -118q65 0 97.5 25.5t32.5 66.5q0 43 -35 65.5t-124 49.5q-50 15 -81 28t-65.5 36.5
t-51.5 58.5t-17 82q0 93 66 147.5t159 54.5q84 0 147 -41t97 -113l-97 -56q-44 98 -147 98q-50 0 -80 -23.5t-30 -63.5q0 -39 30.5 -61.5t110.5 -47.5q40 -13 58.5 -19.5t52 -20.5t50.5 -28t36.5 -35t27.5 -48t8 -61z" />
    <glyph glyph-name="scedilla" unicode="&#x15f;" horiz-adv-x="461" 
d="M429 141q0 -61 -40 -100t-106 -50v-37q34 -6 56 -26.5t22 -52.5q0 -104 -215 -91v79q121 -10 121 25q0 27 -73 30v72q-119 15 -164 114l93 54q26 -72 111 -72t85 56q0 24 -27.5 39t-67 25.5t-79.5 24.5t-67.5 46.5t-27.5 82.5q0 69 52.5 111t130.5 42q62 0 110.5 -27.5
t74.5 -76.5l-91 -51q-26 57 -94 57q-31 0 -52 -13.5t-21 -39.5q0 -25 27.5 -39.5t67 -25t79.5 -24.5t67.5 -47.5t27.5 -84.5z" />
    <glyph glyph-name="Scaron" unicode="&#x160;" horiz-adv-x="581" 
d="M230 765l-106 140h110l53 -73l52 73h110l-106 -140h-113zM318 405q40 -13 58.5 -19.5t52 -20.5t50.5 -28t36.5 -35t27.5 -48t8 -61q0 -95 -68.5 -150.5t-179.5 -55.5q-101 0 -171.5 46t-98.5 126l99 58q42 -118 174 -118q65 0 97.5 25.5t32.5 66.5q0 43 -35 65.5
t-124 49.5q-50 15 -81 28t-65.5 36.5t-51.5 58.5t-17 82q0 93 66 147.5t159 54.5q84 0 147 -41t97 -113l-97 -56q-44 98 -147 98q-50 0 -80 -23.5t-30 -63.5q0 -39 30.5 -61.5t110.5 -47.5z" />
    <glyph glyph-name="scaron" unicode="&#x161;" horiz-adv-x="461" 
d="M172 565l-106 140h110l53 -73l52 73h110l-106 -140h-113zM160 362q0 -25 27.5 -39.5t67 -25t79.5 -24.5t67.5 -47.5t27.5 -84.5q0 -72 -55.5 -113t-139.5 -41q-74 0 -127 31t-77 86l93 54q26 -72 111 -72t85 56q0 24 -27.5 39t-67 25.5t-79.5 24.5t-67.5 46.5t-27.5 82.5
q0 69 52.5 111t130.5 42q62 0 110.5 -27.5t74.5 -76.5l-91 -51q-26 57 -94 57q-31 0 -52 -13.5t-21 -39.5z" />
    <glyph glyph-name="uni0162" unicode="&#x162;" horiz-adv-x="540" 
d="M525 700v-110h-197v-590h-115v590h-198v110h510zM213 -255l10 190h103l-30 -190h-83z" />
    <glyph glyph-name="uni0163" unicode="&#x163;" horiz-adv-x="382" 
d="M342 396h-124v-240q0 -31 14 -44.5t41.5 -15t68.5 0.5v-97q-124 -15 -178 21.5t-54 134.5v240h-92v104h92v108l108 32v-140h124v-104zM173 -255l10 190h103l-30 -190h-83z" />
    <glyph glyph-name="Tcaron" unicode="&#x164;" horiz-adv-x="540" 
d="M211 760l-106 140h110l53 -73l52 73h110l-106 -140h-113zM525 700v-110h-197v-590h-115v590h-198v110h510z" />
    <glyph glyph-name="tcaron" unicode="&#x165;" horiz-adv-x="396" 
d="M276 723h103l-30 -175h-83zM218 640v-140h124v-104h-124v-240q0 -31 14 -44.5t41.5 -15t68.5 0.5v-97q-124 -15 -178 21.5t-54 134.5v240h-92v104h92v108z" />
    <glyph glyph-name="Tbar" unicode="&#x166;" horiz-adv-x="540" 
d="M525 590h-197v-193h127v-104h-127v-293h-115v293h-128v104h128v193h-198v110h510v-110z" />
    <glyph glyph-name="tbar" unicode="&#x167;" horiz-adv-x="382" 
d="M342 396h-124v-98h86v-87h-86v-55q0 -31 14 -44.5t41.5 -15t68.5 0.5v-97q-124 -15 -178 21.5t-54 134.5v55h-61v87h61v98h-92v104h92v108l108 32v-140h124v-104z" />
    <glyph glyph-name="Umacron" unicode="&#x16a;" horiz-adv-x="655" 
d="M188 770v89h280v-89h-280zM328 -13q-117 0 -191 66.5t-74 178.5v468h115v-461q0 -64 37.5 -102t112.5 -38t112.5 38t37.5 102v461h115v-468q0 -112 -74 -178.5t-191 -66.5z" />
    <glyph glyph-name="umacron" unicode="&#x16b;" horiz-adv-x="571" 
d="M420 659v-89h-280v89h280zM400 500h108v-500h-108v64q-49 -77 -155 -77q-86 0 -139 55t-53 151v307h108v-296q0 -56 30 -86t82 -30q57 0 92 35.5t35 108.5v268z" />
    <glyph glyph-name="Uring" unicode="&#x16e;" horiz-adv-x="655" 
d="M327 713q-52 0 -85.5 32t-33.5 80t33.5 80.5t85.5 32.5q53 0 86.5 -32t33.5 -81t-33.5 -80.5t-86.5 -31.5zM327 784q21 0 32.5 11.5t11.5 29.5q0 19 -11.5 30.5t-32.5 11.5q-20 0 -31.5 -11.5t-11.5 -30.5q0 -18 11.5 -29.5t31.5 -11.5zM328 -13q-117 0 -191 66.5
t-74 178.5v468h115v-461q0 -64 37.5 -102t112.5 -38t112.5 38t37.5 102v461h115v-468q0 -112 -74 -178.5t-191 -66.5z" />
    <glyph glyph-name="uring" unicode="&#x16f;" horiz-adv-x="571" 
d="M280 543q-52 0 -85.5 32t-33.5 80t33.5 80.5t85.5 32.5q53 0 86.5 -32t33.5 -81t-33.5 -80.5t-86.5 -31.5zM280 697q-20 0 -31.5 -11.5t-11.5 -30.5q0 -18 11.5 -29.5t31.5 -11.5q21 0 32.5 11.5t11.5 29.5q0 19 -11.5 30.5t-32.5 11.5zM400 500h108v-500h-108v64
q-49 -77 -155 -77q-86 0 -139 55t-53 151v307h108v-296q0 -56 30 -86t82 -30q57 0 92 35.5t35 108.5v268z" />
    <glyph glyph-name="Uhungarumlaut" unicode="&#x170;" horiz-adv-x="655" 
d="M168 760h108l81 135h-114zM331 760h108l91 135h-114zM328 -13q-117 0 -191 66.5t-74 178.5v468h115v-461q0 -64 37.5 -102t112.5 -38t112.5 38t37.5 102v461h115v-468q0 -112 -74 -178.5t-191 -66.5z" />
    <glyph glyph-name="uhungarumlaut" unicode="&#x171;" horiz-adv-x="571" 
d="M309 695l-81 -135h-108l75 135h114zM391 560h-108l85 135h114zM400 500h108v-500h-108v64q-49 -77 -155 -77q-86 0 -139 55t-53 151v307h108v-296q0 -56 30 -86t82 -30q57 0 92 35.5t35 108.5v268z" />
    <glyph glyph-name="Uogonek" unicode="&#x172;" horiz-adv-x="655" 
d="M478 700h115v-468q0 -121 -89 -191q-57 -53 -79.5 -84.5t-23.5 -61.5q0 -26 28 -28q12 -1 33 6v-72q-34 -14 -74 -14q-41 0 -66 22t-25 61q0 55 57 118q-9 -1 -26 -1q-117 0 -191 66.5t-74 178.5v468h115v-461q0 -64 37.5 -102t112.5 -38t112.5 38t37.5 102v461z" />
    <glyph glyph-name="uogonek" unicode="&#x173;" horiz-adv-x="571" 
d="M508 0q-60 -60 -60 -105q-1 -28 28 -28q12 -1 32 6v-72q-34 -14 -73 -14q-42 0 -66.5 22t-24.5 61q0 55 64 130h-8v64q-49 -77 -155 -77q-86 0 -139 55t-53 151v307h108v-296q0 -56 30 -86t82 -30q57 0 92 35.5t35 108.5v268h108v-500z" />
    <glyph glyph-name="Wcircumflex" unicode="&#x174;" horiz-adv-x="999" 
d="M517 834l-53 -74h-110l106 140h113l106 -140h-110zM858 700h121l-198 -700h-133l-148 511l-149 -511h-133l-198 700h121l147 -547l159 547h106l158 -547z" />
    <glyph glyph-name="wcircumflex" unicode="&#x175;" horiz-adv-x="770" 
d="M383 634l-53 -74h-110l106 140h113l106 -140h-110zM639 500h114l-157 -500h-106l-104 337l-105 -337h-106l-157 500h114l97 -345l105 345h103l104 -345z" />
    <glyph glyph-name="Ycircumflex" unicode="&#x176;" horiz-adv-x="613" 
d="M303 834l-53 -74h-110l106 140h113l106 -140h-110zM608 700l-244 -422v-278h-115v278l-244 422h131l171 -310l170 310h131z" />
    <glyph glyph-name="ycircumflex" unicode="&#x177;" horiz-adv-x="520" 
d="M258 634l-53 -74h-110l106 140h113l106 -140h-110zM400 500h115l-192 -516q-72 -194 -244 -184v101q51 -3 82 21.5t51 76.5l5 10l-212 491h118l149 -363z" />
    <glyph glyph-name="Ydieresis" unicode="&#x178;" horiz-adv-x="613" 
d="M210 758q-25 0 -42.5 17.5t-17.5 42.5t17.5 42.5t42.5 17.5t42.5 -17.5t17.5 -42.5t-17.5 -42.5t-42.5 -17.5zM400 758q-25 0 -42.5 17.5t-17.5 42.5t17.5 42.5t42.5 17.5t42.5 -17.5t17.5 -42.5t-17.5 -42.5t-42.5 -17.5zM608 700l-244 -422v-278h-115v278l-244 422h131
l171 -310l170 310h131z" />
    <glyph glyph-name="Zacute" unicode="&#x179;" horiz-adv-x="530" 
d="M410 900l-106 -135h-104l80 135h130zM181 110h322v-110h-465v95l314 495h-307v110h450v-95z" />
    <glyph glyph-name="zacute" unicode="&#x17a;" horiz-adv-x="473" 
d="M381 700l-106 -135h-104l80 135h130zM192 102h243v-102h-390v72l234 326h-224v102h370v-72z" />
    <glyph glyph-name="Zdotaccent" unicode="&#x17b;" horiz-adv-x="530" 
d="M270 758q-29 0 -49.5 20.5t-20.5 49.5q0 28 21 49t49 21q29 0 49.5 -20.5t20.5 -49.5t-20.5 -49.5t-49.5 -20.5zM181 110h322v-110h-465v95l314 495h-307v110h450v-95z" />
    <glyph glyph-name="zdotaccent" unicode="&#x17c;" horiz-adv-x="473" 
d="M241 558q-29 0 -49.5 20.5t-20.5 49.5q0 28 20.5 49t49.5 21t49.5 -20.5t20.5 -49.5t-20.5 -49.5t-49.5 -20.5zM192 102h243v-102h-390v72l234 326h-224v102h370v-72z" />
    <glyph glyph-name="Zcaron" unicode="&#x17d;" horiz-adv-x="530" 
d="M211 760l-106 140h110l53 -73l52 73h110l-106 -140h-113zM181 110h322v-110h-465v95l314 495h-307v110h450v-95z" />
    <glyph glyph-name="zcaron" unicode="&#x17e;" horiz-adv-x="473" 
d="M182 560l-106 140h110l53 -73l52 73h110l-106 -140h-113zM192 102h243v-102h-390v72l234 326h-224v102h370v-72z" />
    <glyph glyph-name="florin" unicode="&#x192;" horiz-adv-x="441" 
d="M441 597q-40 19 -74.5 2.5t-41.5 -62.5l-23 -133h99v-104h-116l-60 -351q-17 -100 -78 -137t-147 -13v107q40 -19 74.5 -2.5t41.5 62.5l57 334h-93v104h110l26 150q17 100 78 137t147 13v-107z" />
    <glyph glyph-name="Scommaaccent" unicode="&#x218;" horiz-adv-x="581" 
d="M303 -13q-101 0 -171.5 46t-98.5 126l99 58q42 -118 174 -118q65 0 97.5 25.5t32.5 66.5q0 43 -35 65.5t-124 49.5q-50 15 -81 28t-65.5 36.5t-51.5 58.5t-17 82q0 93 66 147.5t159 54.5q84 0 147 -41t97 -113l-97 -56q-44 98 -147 98q-50 0 -80 -23.5t-30 -63.5
q0 -39 30.5 -61.5t110.5 -47.5q40 -13 58.5 -19.5t52 -20.5t50.5 -28t36.5 -35t27.5 -48t8 -61q0 -95 -68.5 -150.5t-179.5 -55.5zM331 -255l30 190h-103l-10 -190h83z" />
    <glyph glyph-name="scommaaccent" unicode="&#x219;" horiz-adv-x="461" 
d="M160 362q0 -25 27.5 -39.5t67 -25t79.5 -24.5t67.5 -47.5t27.5 -84.5q0 -72 -55.5 -113t-139.5 -41q-74 0 -127 31t-77 86l93 54q26 -72 111 -72t85 56q0 24 -27.5 39t-67 25.5t-79.5 24.5t-67.5 46.5t-27.5 82.5q0 69 52.5 111t130.5 42q62 0 110.5 -27.5t74.5 -76.5
l-91 -51q-26 57 -94 57q-31 0 -52 -13.5t-21 -39.5zM187 -255l10 190h103l-30 -190h-83z" />
    <glyph glyph-name="uni021A" unicode="&#x21a;" horiz-adv-x="540" 
d="M525 700v-110h-197v-590h-115v590h-198v110h510zM213 -255l10 190h103l-30 -190h-83z" />
    <glyph glyph-name="uni021B" unicode="&#x21b;" horiz-adv-x="382" 
d="M342 396h-124v-240q0 -31 14 -44.5t41.5 -15t68.5 0.5v-97q-124 -15 -178 21.5t-54 134.5v240h-92v104h92v108l108 32v-140h124v-104zM173 -255l10 190h103l-30 -190h-83z" />
    <glyph glyph-name="circumflex" unicode="&#x2c6;" horiz-adv-x="365" 
d="M345 560h-110l-52 74l-53 -74h-110l106 140h113z" />
    <glyph glyph-name="caron" unicode="&#x2c7;" horiz-adv-x="365" 
d="M235 700h110l-106 -140h-113l-106 140h110l53 -73z" />
    <glyph glyph-name="breve" unicode="&#x2d8;" horiz-adv-x="355" 
d="M178 552q-75 0 -116.5 36.5t-41.5 103.5h98q0 -59 60 -59q59 0 59 59h98q0 -67 -41.5 -103.5t-115.5 -36.5z" />
    <glyph glyph-name="dotaccent" unicode="&#x2d9;" horiz-adv-x="185" 
d="M90 558q-29 0 -49.5 20.5t-20.5 49.5q0 28 21 49t49 21q29 0 49.5 -20.5t20.5 -49.5t-20.5 -49.5t-49.5 -20.5z" />
    <glyph glyph-name="ring" unicode="&#x2da;" horiz-adv-x="279" 
d="M139 543q-52 0 -85.5 32t-33.5 80t33.5 80.5t85.5 32.5q53 0 86.5 -32t33.5 -81t-33.5 -80.5t-86.5 -31.5zM139 614q21 0 32.5 11.5t11.5 29.5q0 19 -11.5 30.5t-32.5 11.5q-20 0 -31.5 -11.5t-11.5 -30.5q0 -18 11.5 -29.5t31.5 -11.5z" />
    <glyph glyph-name="ogonek" unicode="&#x2db;" horiz-adv-x="205" 
d="M111 -213q-41 0 -66 22t-25 61q0 60 68 130h97q-61 -59 -61 -105q0 -28 28 -28q12 -1 33 6v-72q-34 -14 -74 -14z" />
    <glyph glyph-name="tilde" unicode="&#x2dc;" horiz-adv-x="360" 
d="M20 567q0 70 26 105t63.5 34t79.5 -29q32 -26 47 -22.5t15 45.5h89q0 -70 -25.5 -105t-63 -34t-79.5 29q-33 26 -48 22.5t-15 -45.5h-89z" />
    <glyph glyph-name="hungarumlaut" unicode="&#x2dd;" horiz-adv-x="402" 
d="M20 560h108l81 135h-114zM183 560h108l91 135h-114z" />
    <glyph glyph-name="gravecomb" unicode="&#x300;" horiz-adv-x="0" 
d="M-20 565l-80 135h-130l106 -135h104z" />
    <glyph glyph-name="acutecomb" unicode="&#x301;" horiz-adv-x="0" 
d="M-230 565h104l106 135h-130z" />
    <glyph glyph-name="uni0302" unicode="&#x302;" horiz-adv-x="0" 
d="M-20 560h-110l-52 74l-53 -74h-110l106 140h113z" />
    <glyph glyph-name="tildecomb" unicode="&#x303;" horiz-adv-x="0" 
d="M-335 567q0 70 26 105t63.5 34t79.5 -29q32 -26 47 -22.5t15 45.5h89q0 -70 -25.5 -105t-63 -34t-79.5 29q-33 26 -48 22.5t-15 -45.5h-89z" />
    <glyph glyph-name="uni0304" unicode="&#x304;" horiz-adv-x="0" 
d="M-300 570v89h280v-89h-280z" />
    <glyph glyph-name="uni0306" unicode="&#x306;" horiz-adv-x="0" 
d="M-177 552q-75 0 -116.5 36.5t-41.5 103.5h98q0 -59 60 -59q59 0 59 59h98q0 -67 -41.5 -103.5t-115.5 -36.5z" />
    <glyph glyph-name="uni0307" unicode="&#x307;" horiz-adv-x="0" 
d="M-90 558q-29 0 -49.5 20.5t-20.5 49.5q0 28 21 49t49 21q29 0 49.5 -20.5t20.5 -49.5t-20.5 -49.5t-49.5 -20.5z" />
    <glyph glyph-name="uni0308" unicode="&#x308;" horiz-adv-x="0" 
d="M-270 558q-25 0 -42.5 17.5t-17.5 42.5t17.5 42.5t42.5 17.5t42.5 -17.5t17.5 -42.5t-17.5 -42.5t-42.5 -17.5zM-80 558q-25 0 -42.5 17.5t-17.5 42.5t17.5 42.5t42.5 17.5t42.5 -17.5t17.5 -42.5t-17.5 -42.5t-42.5 -17.5z" />
    <glyph glyph-name="uni030A" unicode="&#x30a;" horiz-adv-x="0" 
d="M-142 543q-52 0 -85.5 32t-33.5 80t33.5 80.5t85.5 32.5q53 0 86.5 -32t33.5 -81t-33.5 -80.5t-86.5 -31.5zM-142 614q21 0 32.5 11.5t11.5 29.5q0 19 -11.5 30.5t-32.5 11.5q-20 0 -31.5 -11.5t-11.5 -30.5q0 -18 11.5 -29.5t31.5 -11.5z" />
    <glyph glyph-name="uni030B" unicode="&#x30b;" horiz-adv-x="0" 
d="M-382 560h108l81 135h-114zM-219 560h108l91 135h-114z" />
    <glyph glyph-name="uni030C" unicode="&#x30c;" horiz-adv-x="0" 
d="M-130 700h110l-106 -140h-113l-106 140h110l53 -73z" />
    <glyph glyph-name="uni0312" unicode="&#x312;" horiz-adv-x="0" 
d="M-103 970l-30 -190h103l10 190h-83z" />
    <glyph glyph-name="uni0326" unicode="&#x326;" horiz-adv-x="0" 
d="M-50 -255l30 190h-103l-10 -190h83z" />
    <glyph glyph-name="uni0327" unicode="&#x327;" horiz-adv-x="0" 
d="M-98 -46q34 -6 56 -26.5t22 -52.5q0 -104 -215 -91v79q121 -10 121 25q0 27 -73 30v82h89v-46z" />
    <glyph glyph-name="uni0328" unicode="&#x328;" horiz-adv-x="0" 
d="M-99 -213q-41 0 -66 22t-25 61q0 60 68 130h97q-61 -59 -61 -105q0 -28 28 -28q12 -1 33 6v-72q-34 -14 -74 -14z" />
    <glyph glyph-name="uni0394" unicode="&#x394;" horiz-adv-x="645" 
d="M392 700l248 -700h-635l249 700h138zM167 108h312l-156 461z" />
    <glyph glyph-name="uni03A9" unicode="&#x3a9;" horiz-adv-x="786" 
d="M756 360q0 -76 -32 -141t-89 -109h108v-110h-275v110q77 23 125 88t48 152q0 108 -71.5 179.5t-176.5 71.5t-176.5 -71.5t-71.5 -179.5q0 -87 48 -152t126 -88v-110h-276v110h108q-121 94 -121 250q0 148 105.5 250.5t257.5 102.5t257.5 -102.5t105.5 -250.5z" />
    <glyph glyph-name="pi" unicode="&#x3c0;" horiz-adv-x="660" 
d="M635 500v-102h-80v-398h-108v398h-229v-398h-108v398h-85v102h610z" />
    <glyph glyph-name="uni0401" unicode="&#x401;" horiz-adv-x="530" 
d="M186 758q-25 0 -42.5 17.5t-17.5 42.5t17.5 42.5t42.5 17.5t42.5 -17.5t17.5 -42.5t-17.5 -42.5t-42.5 -17.5zM376 758q-25 0 -42.5 17.5t-17.5 42.5t17.5 42.5t42.5 17.5t42.5 -17.5t17.5 -42.5t-17.5 -42.5t-42.5 -17.5zM185 110h310v-110h-425v700h420v-110h-305v-182
h280v-109h-280v-189z" />
    <glyph glyph-name="uni0402" unicode="&#x402;" horiz-adv-x="702" 
d="M458 468q86 0 137.5 -49.5t51.5 -143.5v-91q0 -208 -205 -193v107q49 -4 69.5 15.5t20.5 70.5v82q0 98 -93 98q-66 0 -126 -24v-340h-115v590h-183v110h505v-110h-207v-148q73 26 145 26z" />
    <glyph glyph-name="uni0403" unicode="&#x403;" horiz-adv-x="480" 
d="M411 899l-106 -135h-104l80 135h130zM465 700v-110h-280v-590h-115v700h395z" />
    <glyph glyph-name="uni0404" unicode="&#x404;" horiz-adv-x="730" 
d="M398 99q66 0 120 30.5t82 82.5l100 -57q-45 -77 -125.5 -122.5t-176.5 -45.5q-158 0 -260.5 104.5t-102.5 258.5t102.5 258.5t260.5 104.5q96 0 176.5 -45t125.5 -122l-100 -58q-28 52 -82 82.5t-120 30.5q-97 0 -162 -54t-81 -143h336v-108h-336q16 -89 81 -143t162 -54
z" />
    <glyph glyph-name="uni0405" unicode="&#x405;" horiz-adv-x="581" 
d="M303 -13q-101 0 -171.5 46t-98.5 126l99 58q42 -118 174 -118q65 0 97.5 25.5t32.5 66.5q0 43 -35 65.5t-124 49.5q-50 15 -81 28t-65.5 36.5t-51.5 58.5t-17 82q0 93 66 147.5t159 54.5q84 0 147 -41t97 -113l-97 -56q-44 98 -147 98q-50 0 -80 -23.5t-30 -63.5
q0 -39 30.5 -61.5t110.5 -47.5q40 -13 58.5 -19.5t52 -20.5t50.5 -28t36.5 -35t27.5 -48t8 -61q0 -95 -68.5 -150.5t-179.5 -55.5z" />
    <glyph glyph-name="uni0406" unicode="&#x406;" horiz-adv-x="255" 
d="M70 700h115v-700h-115v700z" />
    <glyph glyph-name="uni0407" unicode="&#x407;" horiz-adv-x="255" 
d="M33 758q-25 0 -42.5 17.5t-17.5 42.5t17.5 42.5t42.5 17.5t42.5 -17.5t17.5 -42.5t-17.5 -42.5t-42.5 -17.5zM223 758q-25 0 -42.5 17.5t-17.5 42.5t17.5 42.5t42.5 17.5t42.5 -17.5t17.5 -42.5t-17.5 -42.5t-42.5 -17.5zM70 700h115v-700h-115v700z" />
    <glyph glyph-name="uni0408" unicode="&#x408;" horiz-adv-x="564" 
d="M260 -13q-163 0 -225 128l99 58q34 -74 127 -74q60 0 92.5 29.5t32.5 83.5v488h115v-488q0 -108 -68 -166.5t-173 -58.5z" />
    <glyph glyph-name="uni0409" unicode="&#x409;" horiz-adv-x="973" 
d="M715 425q96 0 162 -60t66 -152q0 -93 -66 -153t-162 -60h-237v590h-219v-293q0 -92 -19.5 -155.5t-55.5 -94.5t-77.5 -42t-93.5 -7v107q66 -9 98.5 32.5t32.5 157.5v405h449v-275h122zM715 108q49 0 81 28.5t32 76.5t-32 76t-81 28h-122v-209h122z" />
    <glyph glyph-name="uni040A" unicode="&#x40a;" horiz-adv-x="965" 
d="M708 425q96 0 161.5 -60t65.5 -152q0 -93 -65.5 -153t-161.5 -60h-238v317h-285v-317h-115v700h115v-275h285v275h115v-275h123zM708 108q49 0 80.5 28.5t31.5 76.5t-31.5 76t-80.5 28h-123v-209h123z" />
    <glyph glyph-name="uni040B" unicode="&#x40b;" horiz-adv-x="707" 
d="M458 468q86 0 137.5 -49.5t51.5 -143.5v-275h-115v266q0 98 -93 98q-66 0 -126 -24v-340h-115v590h-183v110h505v-110h-207v-148q73 26 145 26z" />
    <glyph glyph-name="uni040C" unicode="&#x40c;" horiz-adv-x="603" 
d="M441 899l-106 -135h-104l80 135h130zM598 0h-137l-276 333v-333h-115v700h115v-314l266 314h137l-283 -341z" />
    <glyph glyph-name="uni040E" unicode="&#x40e;" horiz-adv-x="590" 
d="M439 863v-94h-280v94h280zM464 700h116l-217 -520q-80 -191 -259 -180v107q59 -6 95.5 18t58.5 80l-233 495h116l170 -369z" />
    <glyph glyph-name="uni040F" unicode="&#x40f;" horiz-adv-x="655" 
d="M470 700h115v-700h-200v-134h-115v134h-200v700h115v-590h285v590z" />
    <glyph glyph-name="uni0410" unicode="&#x410;" horiz-adv-x="655" 
d="M526 0l-49 141h-298l-49 -141h-125l254 700h138l253 -700h-124zM217 249h222l-111 316z" />
    <glyph glyph-name="uni0411" unicode="&#x411;" horiz-adv-x="585" 
d="M335 430q97 0 161 -61t64 -154t-64 -154t-161 -61h-265v700h430v-110h-315v-160h150zM335 108q47 0 78.5 29.5t31.5 77.5t-31.5 77.5t-78.5 29.5h-150v-214h150z" />
    <glyph glyph-name="uni0412" unicode="&#x412;" horiz-adv-x="610" 
d="M482 363q46 -24 72 -66t26 -97q0 -86 -61 -143t-149 -57h-300v700h278q86 0 145.5 -55.5t59.5 -138.5q0 -91 -71 -143zM348 592h-163v-184h163q38 0 64 26.5t26 65.5t-26 65.5t-64 26.5zM370 108q40 0 67.5 28.5t27.5 69.5t-27.5 69.5t-67.5 28.5h-185v-196h185z" />
    <glyph glyph-name="uni0413" unicode="&#x413;" horiz-adv-x="480" 
d="M465 700v-110h-280v-590h-115v700h395z" />
    <glyph glyph-name="uni0414" unicode="&#x414;" horiz-adv-x="700" 
d="M595 110h75v-244h-115v134h-425v-134h-115v244h65q61 80 61 241v349h454v-590zM206 110h274v482h-224v-243q0 -156 -50 -239z" />
    <glyph glyph-name="uni0415" unicode="&#x415;" horiz-adv-x="530" 
d="M185 110h310v-110h-425v700h420v-110h-305v-182h280v-109h-280v-189z" />
    <glyph glyph-name="uni0416" unicode="&#x416;" horiz-adv-x="886" 
d="M871 0h-129l-241 328v-328h-115v328l-241 -328h-130l262 358l-252 342h130l231 -318v318h115v-318l231 318h129l-251 -342z" />
    <glyph glyph-name="uni0417" unicode="&#x417;" horiz-adv-x="563" 
d="M426 363q107 -51 107 -169q0 -92 -69.5 -149.5t-181.5 -57.5q-192 0 -254 162l99 57q31 -111 155 -111q66 0 101 28.5t35 76.5q0 47 -33.5 75.5t-94.5 28.5h-85v104h62q59 0 92 27t33 72t-30 71.5t-86 26.5q-104 0 -140 -95l-98 57q68 146 238 146q103 0 167 -55.5
t64 -144.5q0 -99 -81 -150z" />
    <glyph glyph-name="uni0418" unicode="&#x418;" horiz-adv-x="675" 
d="M490 0v475l-330 -475h-90v700h115v-475l330 475h90v-700h-115z" />
    <glyph glyph-name="uni0419" unicode="&#x419;" horiz-adv-x="675" 
d="M198 770v94h280v-94h-280zM490 0v475l-330 -475h-90v700h115v-475l330 475h90v-700h-115z" />
    <glyph glyph-name="uni041A" unicode="&#x41a;" horiz-adv-x="603" 
d="M598 0h-137l-276 333v-333h-115v700h115v-314l266 314h137l-283 -341z" />
    <glyph glyph-name="uni041B" unicode="&#x41b;" horiz-adv-x="683" 
d="M13 0v106q66 -9 98.5 32t32.5 157v405h469v-700h-115v590h-239v-293q0 -92 -19.5 -155t-55.5 -94.5t-77.5 -42t-93.5 -5.5z" />
    <glyph glyph-name="uni041C" unicode="&#x41c;" horiz-adv-x="810" 
d="M740 700v-700h-115v499l-213 -352h-14l-213 353v-500h-115v700h124l211 -350l212 350h123z" />
    <glyph glyph-name="uni041D" unicode="&#x41d;" horiz-adv-x="670" 
d="M485 700h115v-700h-115v303h-300v-303h-115v700h115v-287h300v287z" />
    <glyph glyph-name="uni041E" unicode="&#x41e;" horiz-adv-x="796" 
d="M398 -13q-152 0 -257.5 105.5t-105.5 257.5t105.5 257.5t257.5 105.5t257.5 -105.5t105.5 -257.5t-105.5 -257.5t-257.5 -105.5zM398 99q105 0 176.5 71.5t71.5 179.5t-71.5 179.5t-176.5 71.5t-176.5 -71.5t-71.5 -179.5t71.5 -179.5t176.5 -71.5z" />
    <glyph glyph-name="uni041F" unicode="&#x41f;" horiz-adv-x="655" 
d="M585 700v-700h-115v590h-285v-590h-115v700h515z" />
    <glyph glyph-name="uni0420" unicode="&#x420;" horiz-adv-x="590" 
d="M328 700q99 0 165.5 -66t66.5 -164q0 -97 -66.5 -163.5t-165.5 -66.5h-143v-240h-115v700h258zM328 348q51 0 84 34.5t33 87.5t-33 87.5t-84 34.5h-143v-244h143z" />
    <glyph glyph-name="uni0421" unicode="&#x421;" horiz-adv-x="732" 
d="M401 -13q-158 0 -262 104.5t-104 258.5t104 258.5t262 104.5q95 0 175.5 -45t125.5 -122l-100 -58q-28 52 -81.5 82.5t-119.5 30.5q-112 0 -181.5 -71t-69.5 -180t69.5 -180t181.5 -71q66 0 120 30.5t81 82.5l100 -57q-44 -77 -124.5 -122.5t-176.5 -45.5z" />
    <glyph glyph-name="uni0422" unicode="&#x422;" horiz-adv-x="540" 
d="M525 700v-110h-197v-590h-115v590h-198v110h510z" />
    <glyph glyph-name="uni0423" unicode="&#x423;" horiz-adv-x="590" 
d="M464 700h116l-217 -520q-80 -191 -259 -180v107q59 -6 95.5 18t58.5 80l-233 495h116l170 -369z" />
    <glyph glyph-name="uni0424" unicode="&#x424;" horiz-adv-x="814" 
d="M789 350q0 -121 -88.5 -194.5t-236.5 -85.5v-80h-113v80q-149 12 -237.5 85.5t-88.5 194.5t88.5 194.5t237.5 85.5v80h113v-80q148 -12 236.5 -85.5t88.5 -194.5zM140 350q0 -78 54.5 -122t156.5 -53v350q-211 -19 -211 -175zM464 175q210 21 210 175q0 156 -210 175
v-350z" />
    <glyph glyph-name="uni0425" unicode="&#x425;" horiz-adv-x="600" 
d="M585 0h-131l-154 253l-154 -253h-131l220 360l-207 340h130l142 -233l142 233h131l-207 -340z" />
    <glyph glyph-name="uni0426" unicode="&#x426;" horiz-adv-x="690" 
d="M585 110h75v-244h-115v134h-475v700h115v-590h285v590h115v-590z" />
    <glyph glyph-name="uni0427" unicode="&#x427;" 
d="M445 700h115v-700h-115v269q-73 -33 -154 -33q-105 0 -170.5 58.5t-65.5 155.5v250h115v-238q0 -54 33 -85t90 -31q83 0 152 34v320z" />
    <glyph glyph-name="uni0428" unicode="&#x428;" horiz-adv-x="945" 
d="M760 700h115v-700h-805v700h115v-590h230v590h115v-590h230v590z" />
    <glyph glyph-name="uni0429" unicode="&#x429;" horiz-adv-x="980" 
d="M875 110h75v-244h-115v134h-765v700h115v-590h230v590h115v-590h230v590h115v-590z" />
    <glyph glyph-name="uni042A" unicode="&#x42a;" horiz-adv-x="695" 
d="M175 0v590h-175v110h290v-240h143q99 0 165.5 -66.5t66.5 -163.5t-66.5 -163.5t-165.5 -66.5h-258zM290 108h143q51 0 84 34.5t33 87.5t-33 87.5t-84 34.5h-143v-244z" />
    <glyph glyph-name="uni042B" unicode="&#x42b;" horiz-adv-x="813" 
d="M70 0v700h115v-240h143q99 0 165.5 -66.5t66.5 -163.5t-66.5 -163.5t-165.5 -66.5h-258zM628 0v700h115v-700h-115zM185 108h143q51 0 84 34.5t33 87.5t-33 87.5t-84 34.5h-143v-244z" />
    <glyph glyph-name="uni042C" unicode="&#x42c;" horiz-adv-x="590" 
d="M328 460q99 0 165.5 -66.5t66.5 -163.5q0 -98 -66.5 -164t-165.5 -66h-258v700h115v-240h143zM328 108q51 0 84 34.5t33 87.5t-33 87.5t-84 34.5h-143v-244h143z" />
    <glyph glyph-name="uni042D" unicode="&#x42d;" horiz-adv-x="730" 
d="M332 713q158 0 260.5 -104.5t102.5 -258.5t-102.5 -258.5t-260.5 -104.5q-96 0 -176.5 45.5t-125.5 122.5l100 57q28 -52 82 -82.5t120 -30.5q97 0 162 54t81 143h-336v108h336q-16 89 -81 143t-162 54q-66 0 -120 -30.5t-82 -82.5l-100 58q45 77 125.5 122t176.5 45z
" />
    <glyph glyph-name="uni042E" unicode="&#x42e;" horiz-adv-x="1050" 
d="M652 713q152 0 257.5 -105.5t105.5 -257.5t-105.5 -257.5t-257.5 -105.5q-139 0 -239.5 90.5t-116.5 227.5h-111v-305h-115v700h115v-285h114q22 129 120.5 213.5t232.5 84.5zM652 99q105 0 176.5 71.5t71.5 179.5t-71.5 179.5t-176.5 71.5q-106 0 -177 -71t-71 -180
q0 -108 71.5 -179.5t176.5 -71.5z" />
    <glyph glyph-name="uni042F" unicode="&#x42f;" horiz-adv-x="623" 
d="M553 700v-700h-115v255h-111l-169 -255h-130l178 265q-69 21 -113.5 79.5t-44.5 130.5q0 94 65.5 159.5t159.5 65.5h280zM273 358h165v234h-165q-46 0 -78 -34t-32 -83t32 -83t78 -34z" />
    <glyph glyph-name="uni0430" unicode="&#x430;" 
d="M459 500h108v-500h-108v72q-61 -85 -175 -85q-103 0 -176 76.5t-73 186.5q0 111 73 187t176 76q114 0 175 -84v71zM301 90q68 0 113 45.5t45 114.5t-45 114.5t-113 45.5t-113 -45.5t-45 -114.5t45 -114.5t113 -45.5z" />
    <glyph glyph-name="uni0431" unicode="&#x431;" horiz-adv-x="567" 
d="M295 -13q-115 0 -187.5 74.5t-72.5 190.5q0 127 38 196.5t154 126.5q19 9 56.5 26t51.5 24.5t35 22t31 31t16 39.5l88 -51q-4 -22 -13 -40.5t-26 -34.5t-29.5 -26t-41.5 -24t-42.5 -20t-50.5 -21q-66 -26 -96.5 -53.5t-42.5 -68.5q60 68 163 68q88 0 153.5 -63t65.5 -163
q0 -102 -69.5 -168t-180.5 -66zM294 88q63 0 103 37.5t40 95.5q0 59 -39.5 97t-102.5 38q-56 0 -101 -35.5t-45 -94.5q0 -60 42 -99t103 -39z" />
    <glyph glyph-name="uni0432" unicode="&#x432;" horiz-adv-x="508" 
d="M409 257q74 -34 74 -115q0 -63 -42.5 -102.5t-121.5 -39.5h-256v500h236q77 0 119.5 -38.5t42.5 -99.5q0 -71 -52 -105zM291 408h-125v-111h125q66 0 66 56q0 55 -66 55zM309 94q68 0 68 59q0 26 -18 40.5t-50 14.5h-143v-114h143z" />
    <glyph glyph-name="uni0433" unicode="&#x433;" horiz-adv-x="408" 
d="M398 500v-104h-227v-396h-108v500h335z" />
    <glyph glyph-name="uni0434" unicode="&#x434;" horiz-adv-x="595" 
d="M503 102h67v-236h-106v134h-343v-134h-106v236h61q46 65 46 181v217h381v-398zM195 102h202v299h-169v-118q0 -107 -33 -181z" />
    <glyph glyph-name="uni0435" unicode="&#x435;" horiz-adv-x="582" 
d="M148 204q12 -57 55 -87.5t105 -30.5q86 0 129 62l89 -52q-74 -109 -219 -109q-122 0 -197 74.5t-75 188.5q0 112 74 187.5t190 75.5q110 0 180.5 -77t70.5 -187q0 -17 -4 -45h-398zM147 292h294q-11 61 -50.5 92t-92.5 31q-60 0 -100 -33t-51 -90z" />
    <glyph glyph-name="uni0436" unicode="&#x436;" horiz-adv-x="722" 
d="M707 0h-123l-170 231v-231h-106v229l-170 -229h-123l195 255l-185 245h123l160 -219v219h106v-220l160 220h123l-185 -245z" />
    <glyph glyph-name="uni0437" unicode="&#x437;" horiz-adv-x="449" 
d="M344 256q80 -36 80 -119q0 -64 -52 -107t-145 -43q-151 0 -204 120l88 52q27 -75 117 -75q42 0 66 17.5t24 46.5q0 26 -19 41.5t-53 15.5h-71v95h53q33 0 51.5 15.5t18.5 42.5q0 26 -21 42.5t-56 16.5q-75 0 -104 -66l-88 50q56 112 190 112q84 0 133.5 -42.5
t49.5 -103.5q0 -75 -58 -111z" />
    <glyph glyph-name="uni0438" unicode="&#x438;" horiz-adv-x="570" 
d="M425 500h83v-500h-106v318l-256 -318h-83v500h106v-317z" />
    <glyph glyph-name="uni0439" unicode="&#x439;" horiz-adv-x="570" 
d="M145 570v94h280v-94h-280zM425 500h83v-500h-106v318l-256 -318h-83v500h106v-317z" />
    <glyph glyph-name="uni043A" unicode="&#x43a;" horiz-adv-x="515" 
d="M505 0h-129l-205 231v-231h-108v500h108v-221l194 221h132l-220 -245z" />
    <glyph glyph-name="uni043B" unicode="&#x43b;" horiz-adv-x="548" 
d="M485 500v-500h-108v396h-167v-186q0 -119 -52 -169t-148 -41v101q46 -8 69 19t23 95v285h383z" />
    <glyph glyph-name="uni043C" unicode="&#x43c;" horiz-adv-x="635" 
d="M573 500v-500h-105v329l-144 -229h-13l-143 228v-328h-105v500h110l145 -231l145 231h110z" />
    <glyph glyph-name="uni043D" unicode="&#x43d;" horiz-adv-x="570" 
d="M400 500h108v-500h-108v199h-229v-199h-108v500h108v-199h229v199z" />
    <glyph glyph-name="uni043E" unicode="&#x43e;" horiz-adv-x="598" 
d="M299 -13q-110 0 -187 76t-77 187t77 187t187 76q111 0 187.5 -76t76.5 -187t-76.5 -187t-187.5 -76zM299 92q66 0 111 45t45 113t-45 113t-111 45t-111 -45t-45 -113t45 -113t111 -45z" />
    <glyph glyph-name="uni043F" unicode="&#x43f;" horiz-adv-x="570" 
d="M508 500v-500h-108v398h-229v-398h-108v500h445z" />
    <glyph glyph-name="uni0440" unicode="&#x440;" 
d="M346 513q103 0 176 -76.5t73 -186.5q0 -111 -73 -187t-176 -76q-114 0 -175 84v-271h-108v700h108v-72q61 85 175 85zM329 90q68 0 113 45.5t45 114.5t-45 114.5t-113 45.5t-113 -45.5t-45 -114.5t45 -114.5t113 -45.5z" />
    <glyph glyph-name="uni0441" unicode="&#x441;" horiz-adv-x="542" 
d="M299 -13q-113 0 -188.5 76t-75.5 187q0 112 75.5 187.5t188.5 75.5q73 0 133 -35t90 -94l-93 -54q-17 36 -51.5 56.5t-79.5 20.5q-66 0 -110.5 -45t-44.5 -112t44.5 -112t110.5 -45q44 0 79.5 21t53.5 56l93 -53q-32 -60 -92 -95t-133 -35z" />
    <glyph glyph-name="uni0442" unicode="&#x442;" horiz-adv-x="455" 
d="M445 500v-104h-163v-396h-108v396h-164v104h435z" />
    <glyph glyph-name="uni0443" unicode="&#x443;" horiz-adv-x="520" 
d="M400 500h115l-192 -516q-35 -95 -98 -142t-146 -42v101q51 -3 82.5 20.5t50.5 75.5l3 7l-210 496h115l152 -364z" />
    <glyph glyph-name="uni0444" unicode="&#x444;" horiz-adv-x="680" 
d="M645 250q0 -102 -68 -173t-184 -86v-191h-106v191q-116 15 -184 86t-68 173t68 173t184 86v191h106v-191q116 -15 184 -86t68 -173zM393 94q69 13 107 54.5t38 101.5t-38 101.5t-107 54.5v-312zM142 250q0 -59 38 -101t107 -55v312q-69 -13 -107 -55t-38 -101z" />
    <glyph glyph-name="uni0445" unicode="&#x445;" horiz-adv-x="520" 
d="M510 0h-125l-124 171l-125 -171h-126l188 257l-178 243h125l115 -158l115 158h126l-178 -244z" />
    <glyph glyph-name="uni0446" unicode="&#x446;" horiz-adv-x="600" 
d="M493 102h82v-236h-106v134h-406v500h108v-398h214v398h108v-398z" />
    <glyph glyph-name="uni0447" unicode="&#x447;" horiz-adv-x="538" 
d="M367 500h108v-500h-108v169q-60 -22 -126 -22q-93 0 -147 46t-54 135v172h108v-162q0 -90 107 -90q63 0 112 23v229z" />
    <glyph glyph-name="uni0448" unicode="&#x448;" horiz-adv-x="825" 
d="M655 500h108v-500h-700v500h108v-398h188v398h108v-398h188v398z" />
    <glyph glyph-name="uni0449" unicode="&#x449;" horiz-adv-x="845" 
d="M753 102h67v-236h-106v134h-651v500h108v-398h183v398h108v-398h183v398h108v-398z" />
    <glyph glyph-name="uni044A" unicode="&#x44a;" horiz-adv-x="563" 
d="M356 330q80 0 131 -45.5t51 -119.5q0 -73 -51 -119t-131 -46h-218v396h-138v104h246v-170h110zM357 97q32 0 53.5 19t21.5 49q0 31 -21.5 49.5t-53.5 18.5h-111v-136h111z" />
    <glyph glyph-name="uni044B" unicode="&#x44b;" horiz-adv-x="693" 
d="M281 330q80 0 131 -45.5t51 -119.5q0 -73 -51 -119t-131 -46h-218v500h108v-170h110zM523 500h108v-500h-108v500zM282 97q32 0 53.5 19t21.5 49q0 31 -21.5 49.5t-53.5 18.5h-111v-136h111z" />
    <glyph glyph-name="uni044C" unicode="&#x44c;" horiz-adv-x="488" 
d="M281 330q80 0 131 -45.5t51 -119.5q0 -73 -51 -119t-131 -46h-218v500h108v-170h110zM282 97q32 0 53.5 19t21.5 49q0 31 -21.5 49.5t-53.5 18.5h-111v-136h111z" />
    <glyph glyph-name="uni044D" unicode="&#x44d;" horiz-adv-x="538" 
d="M245 513q114 0 186 -73.5t72 -189.5q0 -115 -72.5 -189t-186.5 -74q-79 0 -139 35.5t-90 95.5l92 52q33 -79 138 -79q53 0 91.5 30.5t52.5 79.5h-198v99h198q-14 50 -52 80t-91 30q-48 0 -83.5 -21.5t-52.5 -57.5l-93 53q32 60 92 94.5t136 34.5z" />
    <glyph glyph-name="uni044E" unicode="&#x44e;" horiz-adv-x="808" 
d="M509 513q110 0 187 -76t77 -187t-77 -187t-187 -76q-97 0 -167.5 59.5t-87.5 152.5h-83v-199h-108v500h108v-199h83q17 93 87.5 152.5t167.5 59.5zM509 92q66 0 111 45t45 113t-45 113t-111 45t-111 -45t-45 -113t45 -113t111 -45z" />
    <glyph glyph-name="uni044F" unicode="&#x44f;" horiz-adv-x="513" 
d="M450 500v-500h-106v168h-60l-127 -168h-127l135 178q-52 17 -83.5 60t-31.5 96q0 69 49.5 117.5t127.5 48.5h223zM233 261h111v141h-111q-33 0 -55 -19t-22 -52q0 -32 22 -51t55 -19z" />
    <glyph glyph-name="uni0451" unicode="&#x451;" horiz-adv-x="582" 
d="M198 561q-25 0 -42.5 17.5t-17.5 42.5t17.5 42.5t42.5 17.5t42.5 -17.5t17.5 -42.5t-17.5 -42.5t-42.5 -17.5zM388 561q-25 0 -42.5 17.5t-17.5 42.5t17.5 42.5t42.5 17.5t42.5 -17.5t17.5 -42.5t-17.5 -42.5t-42.5 -17.5zM148 204q12 -57 55 -87.5t105 -30.5
q86 0 129 62l89 -52q-74 -109 -219 -109q-122 0 -197 74.5t-75 188.5q0 112 74 187.5t190 75.5q110 0 180.5 -77t70.5 -187q0 -17 -4 -45h-398zM147 292h294q-11 61 -50.5 92t-92.5 31q-60 0 -100 -33t-51 -90z" />
    <glyph glyph-name="uni0452" unicode="&#x452;" horiz-adv-x="578" 
d="M334 513q85 0 138 -55t53 -151v-327q0 -208 -205 -193v104q50 -5 73.5 16t23.5 73v316q0 56 -30 86t-81 30q-58 0 -93 -35.5t-35 -108.5v-268h-108v561h-65v74h65v65h108v-65h142v-74h-142v-125q50 77 156 77z" />
    <glyph glyph-name="uni0453" unicode="&#x453;" horiz-adv-x="408" 
d="M351 700l-106 -135h-104l80 135h130zM398 500v-104h-227v-396h-108v500h335z" />
    <glyph glyph-name="uni0454" unicode="&#x454;" horiz-adv-x="538" 
d="M431 170l92 -52q-30 -60 -90 -95.5t-139 -35.5q-114 0 -186.5 74t-72.5 189q0 116 72 189.5t186 73.5q76 0 136 -34.5t92 -94.5l-93 -53q-17 36 -52.5 57.5t-83.5 21.5q-53 0 -91 -30t-52 -80h198v-99h-198q14 -49 52.5 -79.5t91.5 -30.5q105 0 138 79z" />
    <glyph glyph-name="uni0455" unicode="&#x455;" horiz-adv-x="461" 
d="M160 362q0 -25 27.5 -39.5t67 -25t79.5 -24.5t67.5 -47.5t27.5 -84.5q0 -72 -55.5 -113t-139.5 -41q-74 0 -127 31t-77 86l93 54q26 -72 111 -72t85 56q0 24 -27.5 39t-67 25.5t-79.5 24.5t-67.5 46.5t-27.5 82.5q0 69 52.5 111t130.5 42q62 0 110.5 -27.5t74.5 -76.5
l-91 -51q-26 57 -94 57q-31 0 -52 -13.5t-21 -39.5z" />
    <glyph glyph-name="uni0456" unicode="&#x456;" horiz-adv-x="233" 
d="M117 575q-28 0 -48.5 20.5t-20.5 48.5t20 48.5t49 20.5t49 -20.5t20 -48.5t-20.5 -48.5t-48.5 -20.5zM63 0v500h108v-500h-108z" />
    <glyph glyph-name="uni0457" unicode="&#x457;" horiz-adv-x="233" 
d="M22 558q-25 0 -42.5 17.5t-17.5 42.5t17.5 42.5t42.5 17.5t42.5 -17.5t17.5 -42.5t-17.5 -42.5t-42.5 -17.5zM212 558q-25 0 -42.5 17.5t-17.5 42.5t17.5 42.5t42.5 17.5t42.5 -17.5t17.5 -42.5t-17.5 -42.5t-42.5 -17.5zM63 0v500h108v-500h-108z" />
    <glyph glyph-name="uni0458" unicode="&#x458;" horiz-adv-x="253" 
d="M136 575q-28 0 -48.5 20.5t-20.5 48.5t20.5 48.5t48.5 20.5t48.5 -20.5t20.5 -48.5t-20.5 -48.5t-48.5 -20.5zM82 -20v520h108v-520q0 -208 -205 -193v104q50 -5 73.5 16t23.5 73z" />
    <glyph glyph-name="uni0459" unicode="&#x459;" horiz-adv-x="772" 
d="M581 315q75 0 120.5 -42t45.5 -115t-46 -115.5t-120 -42.5h-214v396h-157v-186q0 -119 -52 -169.5t-148 -44.5v101q46 -5 69 22.5t23 95.5v285h373v-185h106zM581 97q28 0 46.5 15.5t18.5 45.5q0 29 -18.5 44.5t-46.5 15.5h-106v-121h106z" />
    <glyph glyph-name="uni045A" unicode="&#x45a;" horiz-adv-x="790" 
d="M593 315q76 0 124 -42.5t48 -114.5q0 -73 -48.5 -115.5t-123.5 -42.5h-213v213h-214v-213h-108v500h108v-185h214v185h108v-185h105zM594 97q28 0 46.5 15.5t18.5 45.5q0 29 -19 44.5t-46 15.5h-106v-121h106z" />
    <glyph glyph-name="uni045B" unicode="&#x45b;" horiz-adv-x="578" 
d="M334 513q85 0 138 -55t53 -151v-307h-108v296q0 56 -30 86t-81 30q-58 0 -93 -35.5t-35 -108.5v-268h-108v561h-65v74h65v65h108v-65h142v-74h-142v-125q50 77 156 77z" />
    <glyph glyph-name="uni045C" unicode="&#x45c;" horiz-adv-x="515" 
d="M401 700l-106 -135h-104l80 135h130zM505 0h-129l-205 231v-231h-108v500h108v-221l194 221h132l-220 -245z" />
    <glyph glyph-name="uni045E" unicode="&#x45e;" horiz-adv-x="520" 
d="M400 664v-94h-280v94h280zM400 500h115l-192 -516q-35 -95 -98 -142t-146 -42v101q51 -3 82.5 20.5t50.5 75.5l3 7l-210 496h115l152 -364z" />
    <glyph glyph-name="uni045F" unicode="&#x45f;" horiz-adv-x="570" 
d="M400 500h108v-500h-170v-134h-106v134h-169v500h108v-398h229v398z" />
    <glyph glyph-name="uni0490" unicode="&#x490;" horiz-adv-x="480" 
d="M350 820h115v-230h-280v-590h-115v700h280v120z" />
    <glyph glyph-name="uni0491" unicode="&#x491;" horiz-adv-x="408" 
d="M292 602h106v-206h-227v-396h-108v500h229v102z" />
    <glyph glyph-name="Wgrave" unicode="&#x1e80;" horiz-adv-x="999" 
d="M594 765l-80 135h-130l106 -135h104zM218 0l-198 700h121l147 -547l159 547h106l158 -547l147 547h121l-198 -700h-133l-148 511l-149 -511h-133z" />
    <glyph glyph-name="wgrave" unicode="&#x1e81;" horiz-adv-x="770" 
d="M460 565h-104l-106 135h130zM639 500h114l-157 -500h-106l-104 337l-105 -337h-106l-157 500h114l97 -345l105 345h103l104 -345z" />
    <glyph glyph-name="Wacute" unicode="&#x1e82;" horiz-adv-x="999" 
d="M449 765h104l106 135h-130zM218 0l-198 700h121l147 -547l159 547h106l158 -547l147 547h121l-198 -700h-133l-148 511l-149 -511h-133z" />
    <glyph glyph-name="wacute" unicode="&#x1e83;" horiz-adv-x="770" 
d="M525 700l-106 -135h-104l80 135h130zM639 500h114l-157 -500h-106l-104 337l-105 -337h-106l-157 500h114l97 -345l105 345h103l104 -345z" />
    <glyph glyph-name="Wdieresis" unicode="&#x1e84;" horiz-adv-x="999" 
d="M424 758q-25 0 -42.5 17.5t-17.5 42.5t17.5 42.5t42.5 17.5t42.5 -17.5t17.5 -42.5t-17.5 -42.5t-42.5 -17.5zM614 758q-25 0 -42.5 17.5t-17.5 42.5t17.5 42.5t42.5 17.5t42.5 -17.5t17.5 -42.5t-17.5 -42.5t-42.5 -17.5zM218 0l-198 700h121l147 -547l159 547h106
l158 -547l147 547h121l-198 -700h-133l-148 511l-149 -511h-133z" />
    <glyph glyph-name="wdieresis" unicode="&#x1e85;" horiz-adv-x="770" 
d="M290 558q-25 0 -42.5 17.5t-17.5 42.5t17.5 42.5t42.5 17.5t42.5 -17.5t17.5 -42.5t-17.5 -42.5t-42.5 -17.5zM480 558q-25 0 -42.5 17.5t-17.5 42.5t17.5 42.5t42.5 17.5t42.5 -17.5t17.5 -42.5t-17.5 -42.5t-42.5 -17.5zM639 500h114l-157 -500h-106l-104 337
l-105 -337h-106l-157 500h114l97 -345l105 345h103l104 -345z" />
    <glyph glyph-name="Ygrave" unicode="&#x1ef2;" horiz-adv-x="613" 
d="M380 765h-104l-106 135h130zM608 700l-244 -422v-278h-115v278l-244 422h131l171 -310l170 310h131z" />
    <glyph glyph-name="ygrave" unicode="&#x1ef3;" horiz-adv-x="520" 
d="M335 565h-104l-106 135h130zM400 500h115l-192 -516q-72 -194 -244 -184v101q51 -3 82 21.5t51 76.5l5 10l-212 491h118l149 -363z" />
    <glyph glyph-name="endash" unicode="&#x2013;" horiz-adv-x="650" 
d="M70 252v104h510v-104h-510z" />
    <glyph glyph-name="emdash" unicode="&#x2014;" horiz-adv-x="750" 
d="M70 252v104h610v-104h-610z" />
    <glyph glyph-name="quoteleft" unicode="&#x2018;" horiz-adv-x="265" 
d="M52 440l70 260h90l-40 -260h-120z" />
    <glyph glyph-name="quoteright" unicode="&#x2019;" horiz-adv-x="265" 
d="M213 700l-70 -260h-90l40 260h120z" />
    <glyph glyph-name="quotesinglbase" unicode="&#x201a;" horiz-adv-x="265" 
d="M213 120l-70 -260h-90l40 260h120z" />
    <glyph glyph-name="quotedblleft" unicode="&#x201c;" horiz-adv-x="435" 
d="M52 440l70 260h90l-40 -260h-120zM222 440l70 260h90l-40 -260h-120z" />
    <glyph glyph-name="quotedblright" unicode="&#x201d;" horiz-adv-x="435" 
d="M213 700l-70 -260h-90l40 260h120zM383 700l-70 -260h-90l40 260h120z" />
    <glyph glyph-name="quotedblbase" unicode="&#x201e;" horiz-adv-x="435" 
d="M213 120l-70 -260h-90l40 260h120zM383 120l-70 -260h-90l40 260h120z" />
    <glyph glyph-name="dagger" unicode="&#x2020;" horiz-adv-x="480" 
d="M430 555v-104h-136v-451h-108v451h-136v104h136v145h108v-145h136z" />
    <glyph glyph-name="daggerdbl" unicode="&#x2021;" horiz-adv-x="480" 
d="M430 451h-136v-202h136v-104h-136v-145h-108v145h-136v104h136v202h-136v104h136v145h108v-145h136v-104z" />
    <glyph glyph-name="bullet" unicode="&#x2022;" horiz-adv-x="340" 
d="M172 225q-52 0 -89.5 37.5t-37.5 89.5q0 51 37 87t90 36q51 0 87 -36t36 -87q0 -53 -36 -90t-87 -37z" />
    <glyph glyph-name="ellipsis" unicode="&#x2026;" horiz-adv-x="685" 
d="M128 -12q-31 0 -53 22t-22 53t21.5 53t53.5 22q31 0 53 -22t22 -53t-22 -53t-53 -22zM343 -12q-31 0 -53 22t-22 53t22 53t53 22t53 -22t22 -53t-22 -53t-53 -22zM558 -12q-31 0 -53 22t-22 53t21.5 53t53.5 22q31 0 53 -22t22 -53t-22 -53t-53 -22z" />
    <glyph glyph-name="perthousand" unicode="&#x2030;" horiz-adv-x="1114" 
d="M214 393q-70 0 -117 46.5t-47 113.5t47 113.5t117 46.5t116.5 -46t46.5 -114q0 -67 -46.5 -113.5t-116.5 -46.5zM213 481q32 0 52 21t20 51q0 31 -20 52t-52 21q-31 0 -51 -21t-20 -52q0 -30 20 -51t51 -21zM109 103l461 513l54 -31l-461 -514zM534 -12q-70 0 -117 46.5
t-47 113.5t47 113.5t117 46.5q69 0 116 -46.5t47 -113.5t-47 -113.5t-116 -46.5zM901 -12q-70 0 -116.5 46.5t-46.5 113.5t46.5 113.5t116.5 46.5t116.5 -46.5t46.5 -113.5t-46.5 -113.5t-116.5 -46.5zM533 76q32 0 52 21t20 51q0 31 -20 52t-52 21q-31 0 -51 -21t-20 -52
q0 -30 20 -51t51 -21zM901 76q31 0 51 21t20 51q0 31 -20 52t-51 21t-51 -21t-20 -52q0 -30 20 -51t51 -21z" />
    <glyph glyph-name="guilsinglleft" unicode="&#x2039;" horiz-adv-x="347" 
d="M282 494l-110 -185l110 -185h-107l-110 185l110 185h107z" />
    <glyph glyph-name="guilsinglright" unicode="&#x203a;" horiz-adv-x="347" 
d="M172 494l110 -185l-110 -185h-107l110 185l-110 185h107z" />
    <glyph glyph-name="fraction" unicode="&#x2044;" horiz-adv-x="200" 
d="M-60 0h-80l400 700h80z" />
    <glyph glyph-name="Euro" unicode="&#x20ac;" horiz-adv-x="605" 
d="M487 189l96 -55q-66 -147 -223 -147q-111 0 -181.5 73t-89.5 200h-71v71h65v19q0 18 1 27h-66v71h73q20 123 90 194t179 71q154 0 220 -142l-95 -55q-39 85 -125 85q-60 0 -99 -39.5t-54 -113.5h221v-71h-229q-1 -9 -1 -27v-19h230v-71h-223q14 -78 54 -119.5t101 -41.5
q88 0 127 90z" />
    <glyph glyph-name="uni20BD" unicode="&#x20bd;" horiz-adv-x="598" 
d="M353 255h-143v-67h235v-78h-235v-110h-115v110h-80v78h80v67h-80v103h80v342h258q95 0 161 -65.5t66 -159.5q0 -93 -66 -156.5t-161 -63.5zM210 592v-234h143q47 0 79.5 34t32.5 83t-32.5 83t-79.5 34h-143z" />
    <glyph glyph-name="uni2116" unicode="&#x2116;" horiz-adv-x="1031" 
d="M833 393q-70 0 -116.5 46.5t-46.5 113.5t46.5 113.5t116.5 46.5t116.5 -46.5t46.5 -113.5t-46 -113.5t-117 -46.5zM490 700h115v-700h-90l-330 475v-475h-115v700h90l330 -475v475zM833 483q31 0 50 20t19 50t-19.5 50t-49.5 20t-49.5 -20t-19.5 -50t19.5 -50t49.5 -20z
M683 231v102h302v-102h-302z" />
    <glyph glyph-name="trademark" unicode="&#x2122;" horiz-adv-x="471" 
d="M201 700v-49h-56v-151h-53v151h-57v49h166zM384 700h52v-200h-52v116l-52 -80h-5l-52 79v-115h-52v200h52l54 -84z" />
    <glyph glyph-name="estimated" unicode="&#x212e;" horiz-adv-x="800" 
d="M400 710q163 0 266.5 -104t103.5 -256q0 -15 -15 -15h-560q-15 0 -15 -15v-192q0 -11 7 -19q84 -89 233 -89q145 0 231 97q7 9 18 9h37q10 0 13 -6t-4 -13q-109 -117 -295 -117q-176 0 -283 103.5t-107 256.5q0 152 103.5 256t266.5 104zM620 572q0 11 -7 19
q-84 89 -213 89t-213 -89q-7 -8 -7 -19v-192q0 -15 15 -15h410q15 0 15 15v192z" />
    <glyph glyph-name="oneeighth" unicode="&#x215b;" horiz-adv-x="806" 
d="M204 300h-92v306l-85 -25l-22 76l119 43h80v-400zM521 700h80l-400 -700h-80zM723 210q61 -34 61 -102q0 -56 -40.5 -88.5t-109.5 -32.5q-70 0 -110.5 32.5t-40.5 88.5q0 68 61 102q-47 31 -47 85q0 55 38.5 86.5t98.5 31.5q59 0 97.5 -31.5t38.5 -86.5q0 -54 -47 -85z
M634 334q-55 0 -55 -45t55 -45q25 0 39.5 12t14.5 33t-14.5 33t-39.5 12zM634 68q29 0 45.5 14t16.5 38t-17 38t-45 14q-30 0 -46.5 -14t-16.5 -38t16.5 -38t46.5 -14z" />
    <glyph glyph-name="threeeighths" unicode="&#x215c;" horiz-adv-x="894" 
d="M319 419q0 -62 -41 -97t-111 -35q-112 0 -152 87l78 45q20 -50 74 -50q29 0 44 13.5t15 36.5t-16.5 36.5t-45.5 13.5h-14l-36 55l75 91h-158v85h270v-72l-78 -93q46 -11 71 -41.5t25 -74.5zM609 700h80l-400 -700h-80zM811 210q61 -34 61 -102q0 -56 -40.5 -88.5
t-109.5 -32.5q-70 0 -110.5 32.5t-40.5 88.5q0 68 61 102q-47 31 -47 85q0 55 38.5 86.5t98.5 31.5q59 0 97.5 -31.5t38.5 -86.5q0 -54 -47 -85zM722 334q-55 0 -55 -45t55 -45q25 0 39.5 12t14.5 33t-14.5 33t-39.5 12zM722 68q29 0 45.5 14t16.5 38t-17 38t-45 14
q-30 0 -46.5 -14t-16.5 -38t16.5 -38t46.5 -14z" />
    <glyph glyph-name="fiveeighths" unicode="&#x215d;" horiz-adv-x="882" 
d="M311 417q0 -62 -40 -96t-106 -34q-111 0 -150 87l76 43q21 -49 72 -49q30 0 45.5 13.5t15.5 36.5q0 53 -61 53h-126l16 229h239v-84h-161l-4 -66h42q64 0 103 -34.5t39 -98.5zM597 700h80l-400 -700h-80zM799 210q61 -34 61 -102q0 -56 -40.5 -88.5t-109.5 -32.5
q-70 0 -110.5 32.5t-40.5 88.5q0 68 61 102q-47 31 -47 85q0 55 38.5 86.5t98.5 31.5q59 0 97.5 -31.5t38.5 -86.5q0 -54 -47 -85zM710 334q-55 0 -55 -45t55 -45q25 0 39.5 12t14.5 33t-14.5 33t-39.5 12zM710 68q29 0 45.5 14t16.5 38t-17 38t-45 14q-30 0 -46.5 -14
t-16.5 -38t16.5 -38t46.5 -14z" />
    <glyph glyph-name="seveneighths" unicode="&#x215e;" horiz-adv-x="841" 
d="M278 700v-71l-133 -329h-96l130 315h-174v85h273zM556 700h80l-400 -700h-80zM758 210q61 -34 61 -102q0 -56 -40.5 -88.5t-109.5 -32.5q-70 0 -110.5 32.5t-40.5 88.5q0 68 61 102q-47 31 -47 85q0 55 38.5 86.5t98.5 31.5q59 0 97.5 -31.5t38.5 -86.5q0 -54 -47 -85z
M669 334q-55 0 -55 -45t55 -45q25 0 39.5 12t14.5 33t-14.5 33t-39.5 12zM669 68q29 0 45.5 14t16.5 38t-17 38t-45 14q-30 0 -46.5 -14t-16.5 -38t16.5 -38t46.5 -14z" />
    <glyph glyph-name="arrowleft" unicode="&#x2190;" horiz-adv-x="805" 
d="M755 402v-104h-509l248 -248h-144l-300 300l300 300h144l-248 -248h509z" />
    <glyph glyph-name="arrowup" unicode="&#x2191;" horiz-adv-x="700" 
d="M650 400v-144l-246 246v-502h-108v502l-246 -246v144l300 300z" />
    <glyph glyph-name="arrowright" unicode="&#x2192;" horiz-adv-x="805" 
d="M455 650l300 -300l-300 -300h-144l248 248h-509v104h509l-248 248h144z" />
    <glyph glyph-name="arrowdown" unicode="&#x2193;" horiz-adv-x="700" 
d="M404 198l246 246v-144l-300 -300l-300 300v144l246 -246v502h108v-502z" />
    <glyph glyph-name="arrowboth" unicode="&#x2194;" horiz-adv-x="1070" 
d="M756 615l264 -265l-264 -265h-142l211 213h-581l213 -213h-142l-265 265l265 265h142l-213 -213h582l-212 213h142z" />
    <glyph glyph-name="arrowupdn" unicode="&#x2195;" 
d="M580 429l-211 210v-578l211 211v-142l-265 -265l-265 265v142l211 -211v578l-211 -210v142l265 264l265 -264v-142z" />
    <glyph glyph-name="uni2196" unicode="&#x2196;" horiz-adv-x="642" 
d="M592 137l-74 -74l-366 365v-349l-102 102v424h424l102 -102h-349z" />
    <glyph glyph-name="uni2197" unicode="&#x2197;" horiz-adv-x="642" 
d="M168 605h424v-424l-102 -102v349l-366 -365l-74 74l365 366h-349z" />
    <glyph glyph-name="uni2198" unicode="&#x2198;" horiz-adv-x="642" 
d="M490 604l102 -102v-424h-424l-102 102h349l-365 366l74 74l366 -365v349z" />
    <glyph glyph-name="uni2199" unicode="&#x2199;" horiz-adv-x="642" 
d="M592 546l-365 -366h349l-102 -102h-424v424l102 102v-349l366 365z" />
    <glyph glyph-name="partialdiff" unicode="&#x2202;" horiz-adv-x="581" 
d="M237 713q122 0 208 -101t86 -262q0 -173 -77 -268t-195 -95q-100 0 -157 60.5t-57 152.5q0 103 61 168t167 65q81 0 148 -44q-9 100 -59 160.5t-135 61.5q-64 0 -121 -33v99q56 36 131 36zM262 89q67 0 108.5 54t50.5 149q-58 44 -137 44q-59 0 -95 -35t-36 -98
q0 -51 29 -82.5t80 -31.5z" />
    <glyph glyph-name="emptyset" unicode="&#x2205;" horiz-adv-x="804" 
d="M657 607q107 -107 107 -257t-106 -256t-256 -106q-107 0 -198 59l-54 -67h-95l92 113q-107 107 -107 257t106 256t256 106q107 0 198 -59l54 67h95zM120 350q0 -114 76 -195l354 437q-67 42 -148 42q-118 0 -200 -82.5t-82 -201.5zM402 66q118 0 200 82.5t82 201.5
q0 114 -76 195l-354 -437q67 -42 148 -42z" />
    <glyph glyph-name="product" unicode="&#x220f;" horiz-adv-x="640" 
d="M70 -200v900h500v-900h-108v796h-284v-796h-108z" />
    <glyph glyph-name="summation" unicode="&#x2211;" horiz-adv-x="555" 
d="M40 -200v95l222 365l-207 344v96h450v-104h-323l202 -336l-216 -356h352v-104h-480z" />
    <glyph glyph-name="minus" unicode="&#x2212;" horiz-adv-x="550" 
d="M55 299v102h440v-102h-440z" />
    <glyph glyph-name="radical" unicode="&#x221a;" horiz-adv-x="665" 
d="M274 0l-127 211h-97v104h159l109 -188l226 673h111l-274 -800h-107z" />
    <glyph glyph-name="infinity" unicode="&#x221e;" horiz-adv-x="805" 
d="M578 520q76 0 125.5 -47.5t49.5 -122.5q0 -74 -49.5 -122t-125.5 -48q-88 0 -175 93q-87 -93 -176 -93q-75 0 -124.5 48t-49.5 122q0 75 49.5 122.5t124.5 47.5q89 0 176 -93q87 93 175 93zM232 278q53 0 107 72q-54 73 -107 73q-31 0 -51.5 -20.5t-20.5 -52.5
q0 -31 20.5 -51.5t51.5 -20.5zM574 278q31 0 51.5 20.5t20.5 51.5q0 32 -20.5 52.5t-51.5 20.5q-53 0 -107 -73q54 -72 107 -72z" />
    <glyph glyph-name="integral" unicode="&#x222b;" horiz-adv-x="441" 
d="M0 -203v107q40 -19 73 -3t40 63l100 588q17 100 77.5 136.5t150.5 13.5v-107q-44 18 -78 2.5t-41 -62.5l-100 -588q-17 -100 -77 -136.5t-145 -13.5z" />
    <glyph glyph-name="approxequal" unicode="&#x2248;" horiz-adv-x="577" 
d="M287 387q-37 19 -63.5 26.5t-45 3.5t-30 -14t-23.5 -29l-75 28q26 94 88 119t153 -22q69 -36 100.5 -29.5t45.5 57.5l90 -43q-23 -92 -86 -118.5t-154 21.5zM140 174l-90 43q23 91 87 117.5t154 -20.5q49 -26 81 -30t48 6.5t32 36.5l75 -28q-26 -95 -87 -119.5t-153 22.5
q-46 24 -75 28.5t-46 -9t-26 -47.5z" />
    <glyph glyph-name="notequal" unicode="&#x2260;" horiz-adv-x="530" 
d="M480 402h-157l-46 -103h203v-102h-249l-61 -137h-70l61 137h-111v102h157l46 103h-203v102h249l61 136h70l-61 -136h111v-102z" />
    <glyph glyph-name="lessequal" unicode="&#x2264;" horiz-adv-x="525" 
d="M475 635v-114l-299 -98l299 -98v-114l-425 163v98zM50 70v102h425v-102h-425z" />
    <glyph glyph-name="greaterequal" unicode="&#x2265;" horiz-adv-x="525" 
d="M50 635l425 -163v-98l-425 -163v114l299 98l-299 98v114zM50 70v102h425v-102h-425z" />
    <glyph glyph-name="lozenge" unicode="&#x25ca;" horiz-adv-x="550" 
d="M231 0l-186 350l186 350h88l186 -350l-186 -350h-88zM275 137l114 213l-114 213l-113 -213z" />
    <glyph glyph-name="i.loclTRK" horiz-adv-x="233" 
d="M117 558q-29 0 -49.5 20.5t-20.5 49.5q0 28 20.5 49t49.5 21t49.5 -20.5t20.5 -49.5t-20.5 -49.5t-49.5 -20.5zM63 0v500h108v-500h-108z" />
    <glyph glyph-name="f_f_j" horiz-adv-x="818" 
d="M756 500v-520q0 -208 -205 -193v104q50 -5 73.5 16t23.5 73v416h-166v-396h-108v396h-167v-396h-108v396h-76v104h76v10q0 103 57.5 156.5t168.5 46.5v-104q-118 11 -118 -99v-10h167v20q0 203 226 203q53 0 111 -13v-99q-53 8 -111 8q-60 0 -89 -22t-29 -77v-20h274z
" />
    <glyph glyph-name="f_j" horiz-adv-x="543" 
d="M481 500v-520q0 -208 -205 -193v104q50 -5 73.5 16t23.5 73v416h-166v-396h-108v396h-76v104h76v10q0 203 226 203q53 0 111 -13v-99q-53 8 -111 8q-60 0 -89 -22t-29 -77v-10h274z" />
    <glyph glyph-name="uni0414.loclBGR" horiz-adv-x="720" 
d="M625 110h75v-244h-115v134h-450v-134h-115v244h75l196 590h138zM216 110h289l-145 457z" />
    <glyph glyph-name="uni041B.loclBGR" horiz-adv-x="634" 
d="M248 700h138l243 -700h-125l-187 561l-186 -561h-126z" />
    <glyph glyph-name="uni0424.loclBGR" horiz-adv-x="854" 
d="M819 350q0 -150 -92 -247t-245 -112v-91h-110v91q-153 15 -245 112t-92 247t92 247t245 112v91h110v-91q153 -15 245 -112t92 -247zM150 350q0 -108 57.5 -174t164.5 -80v508q-107 -14 -164.5 -80t-57.5 -174zM482 96q107 14 164.5 80t57.5 174t-57.5 174t-164.5 80v-508
z" />
    <glyph glyph-name="uni0414.ss01" horiz-adv-x="700" 
d="M595 110h75v-110h-655v110h65q61 80 61 241v349h454v-590zM206 110h274v482h-224v-243q0 -156 -50 -239z" />
    <glyph glyph-name="uni0426.ss01" horiz-adv-x="690" 
d="M585 110h75v-110h-590v700h115v-590h285v590h115v-590z" />
    <glyph glyph-name="uni0429.ss01" horiz-adv-x="980" 
d="M875 110h75v-110h-880v700h115v-590h230v590h115v-590h230v590h115v-590z" />
    <glyph glyph-name="uni0414.loclBGR.ss01" horiz-adv-x="720" 
d="M625 110h75v-110h-680v110h75l196 590h138zM216 110h289l-145 457z" />
    <glyph glyph-name="uni0432.loclBGR" horiz-adv-x="568" 
d="M413 406q57 -22 88.5 -72.5t31.5 -124.5q0 -104 -62 -163t-173 -59q-109 0 -172 65.5t-63 176.5v237q0 113 60.5 180t163.5 67q86 0 138.5 -47t52.5 -125q0 -70 -65 -135zM287 611q-54 0 -85 -39.5t-31 -105.5v-66l66 14q38 8 68 8q67 53 67 109q0 36 -22.5 58t-62.5 22z
M298 91q60 0 93.5 31t33.5 87q0 67 -51.5 95.5t-136.5 10.5l-66 -14v-72q0 -64 34 -101t93 -37z" />
    <glyph glyph-name="uni0433.loclBGR" horiz-adv-x="461" 
d="M343 160l93 -53q-25 -56 -77.5 -88t-126.5 -32q-84 0 -139 41t-55 113q0 51 27 84.5t66 47.5t78 24.5t66 25t27 39.5t-21 39t-50 14q-70 0 -96 -59l-92 50q27 51 76 79t112 28q76 0 128.5 -42t52.5 -111q0 -50 -27 -82.5t-66 -46.5t-78 -23.5t-66 -24.5t-27 -40
q0 -28 23.5 -42.5t60.5 -14.5q41 0 70 20t41 54z" />
    <glyph glyph-name="uni0434.loclBGR" 
d="M461 500h106v-477q0 -114 -75 -175t-182 -61q-173 0 -237 121l93 54q39 -77 146 -77q70 0 109.5 36.5t39.5 101.5v61q-61 -87 -174 -87q-106 0 -179 75.5t-73 182.5t73 182.5t179 75.5q113 0 174 -87v74zM302 98q68 0 113.5 45t45.5 112t-45.5 112t-113.5 45t-113.5 -45
t-45.5 -112t45.5 -112t113.5 -45z" />
    <glyph glyph-name="uni0436.loclBGR" horiz-adv-x="722" 
d="M707 0h-123l-170 229v-229h-106v229l-170 -229h-123l195 255l-185 245h123l160 -218v418h106v-418l160 218h123l-185 -245z" />
    <glyph glyph-name="uni0438.loclBGR" horiz-adv-x="571" 
d="M400 500h108v-500h-108v64q-49 -77 -155 -77q-86 0 -139 55t-53 151v307h108v-296q0 -56 30 -86t82 -30q57 0 92 35.5t35 108.5v268z" />
    <glyph glyph-name="uni0439.loclBGR" horiz-adv-x="571" 
d="M420 664v-94h-280v94h280zM400 500h108v-500h-108v64q-49 -77 -155 -77q-86 0 -139 55t-53 151v307h108v-296q0 -56 30 -86t82 -30q57 0 92 35.5t35 108.5v268z" />
    <glyph glyph-name="uni043A.loclBGR" horiz-adv-x="515" 
d="M505 0h-129l-205 231v-231h-108v700h108v-421l194 221h132l-220 -245z" />
    <glyph glyph-name="uni043B.loclBGR" horiz-adv-x="525" 
d="M520 0h-118l-139 380l-140 -380h-118l195 500h125z" />
    <glyph glyph-name="uni043F.loclBGR" horiz-adv-x="571" 
d="M326 513q86 0 139 -55t53 -151v-307h-108v296q0 56 -30 86t-82 30q-57 0 -92 -35.5t-35 -108.5v-268h-108v500h108v-64q49 77 155 77z" />
    <glyph glyph-name="uni0442.loclBGR" horiz-adv-x="851" 
d="M609 513q85 0 137 -55t52 -148v-310h-108v303q0 52 -26 80.5t-71 28.5q-50 0 -79.5 -33t-29.5 -99v-280h-108v303q0 52 -24.5 80.5t-69.5 28.5q-49 0 -80 -33.5t-31 -98.5v-280h-108v500h108v-60q48 73 143 73q96 0 142 -79q50 79 153 79z" />
    <glyph glyph-name="uni0446.loclBGR" horiz-adv-x="609" 
d="M542 102h42v-236h-106v141q-49 15 -68 62q-54 -82 -165 -82q-86 0 -139 55t-53 151v307h108v-296q0 -55 30 -85.5t82 -30.5q57 0 92 36t35 109v267h108v-365q0 -15 9 -24t25 -9z" />
    <glyph glyph-name="uni0448.loclBGR" horiz-adv-x="851" 
d="M680 500h108v-500h-108v60q-48 -73 -143 -73q-96 0 -142 79q-50 -79 -153 -79q-85 0 -137 55t-52 148v310h108v-303q0 -52 26 -80.5t71 -28.5q50 0 79.5 33t29.5 99v280h108v-303q0 -52 24.5 -80.5t69.5 -28.5q49 0 80 33.5t31 98.5v280z" />
    <glyph glyph-name="uni0449.loclBGR" horiz-adv-x="889" 
d="M822 102h42v-236h-106v141q-46 14 -66 57q-50 -77 -150 -77q-101 0 -147 79q-51 -79 -153 -79q-85 0 -137 55.5t-52 148.5v309h108v-303q0 -51 26 -80t71 -29q50 0 79.5 33t29.5 100v279h108v-303q0 -52 25 -80.5t69 -28.5q49 0 80 33.5t31 99.5v279h108v-365
q0 -15 9 -24t25 -9z" />
    <glyph glyph-name="uni044C.loclBGR" horiz-adv-x="488" 
d="M263 353q96 0 148 -46.5t52 -131.5q0 -80 -57 -134t-148 -54q-95 0 -150 53t-55 140v320h106v-147h104zM258 89q43 0 71 26.5t28 60.5q0 37 -24.5 58.5t-69.5 21.5h-104v-76q0 -38 27 -64.5t72 -26.5z" />
    <glyph glyph-name="uni044A.loclBGR" horiz-adv-x="574" 
d="M348 353q96 0 148 -46.5t52 -131.5q0 -80 -57 -134t-148 -54q-95 0 -150 53t-55 140v218h-138v102h244v-147h104zM343 89q43 0 71 26.5t28 60.5q0 37 -24.5 58.5t-69.5 21.5h-104v-76q0 -38 27 -64.5t72 -26.5z" />
    <glyph glyph-name="uni044E.loclBGR" horiz-adv-x="808" 
d="M509 513q110 0 187 -76t77 -187t-77 -187t-187 -76q-97 0 -167.5 59.5t-87.5 152.5h-83v-199h-108v700h108v-399h83q17 93 87.5 152.5t167.5 59.5zM509 92q66 0 111 45t45 113t-45 113t-111 45t-111 -45t-45 -113t45 -113t111 -45z" />
    <glyph glyph-name="zero.sinf" horiz-adv-x="409" 
d="M205 -173q-83 0 -131.5 57.5t-48.5 155.5t48.5 155.5t131.5 57.5t131 -57.5t48 -155.5t-48 -155.5t-131 -57.5zM205 -82q40 0 62.5 31.5t22.5 90.5t-22.5 90.5t-62.5 31.5q-41 0 -63.5 -31.5t-22.5 -90.5t22.5 -90.5t63.5 -31.5z" />
    <glyph glyph-name="one.sinf" horiz-adv-x="257" 
d="M124 240h80v-400h-92v306l-85 -25l-22 76z" />
    <glyph glyph-name="two.sinf" horiz-adv-x="347" 
d="M26 -160v64l157 151q37 35 37 69q0 20 -14 32t-38 12q-48 0 -70 -54l-75 42q19 45 56 71t90 26q63 0 103 -35t40 -89q0 -65 -66 -128l-82 -76h155v-85h-293z" />
    <glyph glyph-name="three.sinf" horiz-adv-x="346" 
d="M223 75q46 -11 71 -41.5t25 -74.5q0 -62 -41 -97t-111 -35q-112 0 -152 87l78 45q20 -50 74 -50q29 0 44 13.5t15 36.5t-16.5 36.5t-45.5 13.5h-14l-36 55l75 91h-158v85h270v-72z" />
    <glyph glyph-name="four.sinf" horiz-adv-x="356" 
d="M339 -8v-84h-44v-68h-89v68h-193v84l135 248h99l-132 -248h91v79h89v-79h44z" />
    <glyph glyph-name="five.sinf" horiz-adv-x="334" 
d="M172 90q64 0 103 -34.5t39 -98.5q0 -62 -40 -96t-106 -34q-111 0 -150 87l76 43q21 -49 72 -49q30 0 45.5 13.5t15.5 36.5q0 53 -61 53h-126l16 229h239v-84h-161l-4 -66h42z" />
    <glyph glyph-name="six.sinf" horiz-adv-x="339" 
d="M175 110q65 -2 105.5 -42t40.5 -100q0 -61 -42.5 -101t-109.5 -40q-66 0 -108.5 40t-42.5 101q0 40 19 73l126 199h98zM169 -93q30 0 47.5 16.5t17.5 44.5t-17.5 44.5t-47.5 16.5q-29 0 -46.5 -16.5t-17.5 -44.5t17.5 -44.5t46.5 -16.5z" />
    <glyph glyph-name="seven.sinf" horiz-adv-x="296" 
d="M5 240h273v-71l-133 -329h-96l130 315h-174v85z" />
    <glyph glyph-name="eight.sinf" horiz-adv-x="345" 
d="M262 50q61 -34 61 -102q0 -56 -40.5 -88.5t-109.5 -32.5q-70 0 -110.5 32.5t-40.5 88.5q0 68 61 102q-47 31 -47 85q0 55 38.5 86.5t98.5 31.5q59 0 97.5 -31.5t38.5 -86.5q0 -54 -47 -85zM173 174q-55 0 -55 -45t55 -45q25 0 39.5 12t14.5 33t-14.5 33t-39.5 12z
M173 -92q29 0 45.5 14t16.5 38t-17 38t-45 14q-30 0 -46.5 -14t-16.5 -38t16.5 -38t46.5 -14z" />
    <glyph glyph-name="nine.sinf" horiz-adv-x="339" 
d="M321 112q0 -47 -25 -81l-120 -191h-98l86 130q-65 2 -105.5 42t-40.5 100q0 61 42.5 101t109.5 40q66 0 108.5 -40t42.5 -101zM105 112q0 -28 17.5 -44.5t47.5 -16.5q29 0 46.5 16.5t17.5 44.5t-17.5 44.5t-46.5 16.5q-30 0 -47.5 -16.5t-17.5 -44.5z" />
    <glyph glyph-name="zero.tf" horiz-adv-x="575" 
d="M288 -13q-130 0 -202.5 99t-72.5 264t72.5 264t202.5 99t202.5 -99t72.5 -264t-72.5 -264t-202.5 -99zM288 99q77 0 118.5 65t41.5 186t-41.5 186t-118.5 65q-78 0 -119 -65t-41 -186t41 -186t119 -65z" />
    <glyph glyph-name="one.tf" horiz-adv-x="575" 
d="M358 110h195v-110h-520v110h210v467l-141 -40l-28 98l184 65h100v-590z" />
    <glyph glyph-name="two.tf" horiz-adv-x="575" 
d="M38 0v90l254 226q57 50 86.5 89.5t29.5 80.5q0 51 -33 83t-92 32q-96 0 -145 -99l-96 56q35 75 98.5 115t143.5 40q104 0 171.5 -62t67.5 -160q0 -67 -38.5 -125t-113.5 -123l-155 -132h319v-111h-497z" />
    <glyph glyph-name="three.tf" horiz-adv-x="575" 
d="M361 420q83 -18 132.5 -71t49.5 -135q0 -106 -73 -166.5t-185 -60.5q-94 0 -163 42t-99 120l99 57q15 -50 56.5 -78.5t101.5 -28.5q70 0 109 30.5t39 84.5q0 55 -39 85t-109 30h-25l-47 70l160 193h-322v108h465v-98z" />
    <glyph glyph-name="four.tf" horiz-adv-x="575" 
d="M558 233v-107h-80v-126h-116v126h-349v107l241 467h124l-241 -467h225v172h116v-172h80z" />
    <glyph glyph-name="five.tf" horiz-adv-x="575" 
d="M293 436q109 0 179.5 -59t70.5 -165t-72.5 -165.5t-180.5 -59.5q-94 0 -163 42t-99 120l99 57q15 -50 57 -78.5t104 -28.5q66 0 103 30t37 83t-37 82.5t-103 29.5h-220l27 376h418v-108h-313l-12 -156h105z" />
    <glyph glyph-name="six.tf" horiz-adv-x="575" 
d="M283 470q121 0 193 -66.5t72 -174.5q0 -109 -72 -175.5t-193 -66.5t-193 66.5t-72 175.5q0 83 44 144l235 327h133l-165 -230h18zM283 96q70 0 110 35.5t40 97.5q0 61 -40 96.5t-110 35.5t-110 -35t-40 -97t40 -97.5t110 -35.5z" />
    <glyph glyph-name="seven.tf" horiz-adv-x="575" 
d="M30 700h510v-100l-271 -600h-121l265 590h-383v110z" />
    <glyph glyph-name="eight.tf" horiz-adv-x="575" 
d="M444 363q107 -57 107 -169q0 -96 -71 -151.5t-192 -55.5q-122 0 -193 55.5t-71 151.5q0 114 108 169q-84 54 -84 149q0 96 68 148.5t172 52.5t171.5 -52.5t67.5 -148.5q0 -95 -83 -149zM288 604q-59 0 -92 -25t-33 -72q0 -45 33.5 -71t91.5 -26q57 0 90.5 26t33.5 71
q0 47 -33 72t-91 25zM288 96q72 0 110 28.5t38 80.5t-38 80.5t-110 28.5t-110.5 -28.5t-38.5 -80.5t38.5 -80.5t110.5 -28.5z" />
    <glyph glyph-name="nine.tf" horiz-adv-x="575" 
d="M558 472q0 -90 -51 -153l-228 -319h-134l165 230h-17q-121 0 -193 66.5t-72 175.5q0 108 72 174.5t193 66.5t193 -66.5t72 -174.5zM143 472q0 -62 40 -97.5t110 -35.5t110 35.5t40 97.5t-40 97t-110 35t-110 -35t-40 -97z" />
    <glyph glyph-name="zero.dnom" horiz-adv-x="409" 
d="M205 -13q-83 0 -131.5 57.5t-48.5 155.5t48.5 155.5t131.5 57.5t131 -57.5t48 -155.5t-48 -155.5t-131 -57.5zM205 78q40 0 62.5 31.5t22.5 90.5t-22.5 90.5t-62.5 31.5q-41 0 -63.5 -31.5t-22.5 -90.5t22.5 -90.5t63.5 -31.5z" />
    <glyph glyph-name="one.dnom" horiz-adv-x="261" 
d="M124 400h80v-400h-92v306l-85 -25l-22 76z" />
    <glyph glyph-name="two.dnom" horiz-adv-x="351" 
d="M26 0v64l157 151q37 35 37 69q0 20 -14 32t-38 12q-48 0 -70 -54l-75 42q19 45 56 71t90 26q63 0 103 -35t40 -89q0 -65 -66 -128l-82 -76h155v-85h-293z" />
    <glyph glyph-name="three.dnom" horiz-adv-x="349" 
d="M223 235q46 -11 71 -41.5t25 -74.5q0 -62 -41 -97t-111 -35q-112 0 -152 87l78 45q20 -50 74 -50q29 0 44 13.5t15 36.5t-16.5 36.5t-45.5 13.5h-14l-36 55l75 91h-158v85h270v-72z" />
    <glyph glyph-name="four.dnom" horiz-adv-x="356" 
d="M339 152v-84h-44v-68h-89v68h-193v84l135 248h99l-132 -248h91v79h89v-79h44z" />
    <glyph glyph-name="five.dnom" horiz-adv-x="337" 
d="M169 250q64 0 103 -34.5t39 -98.5q0 -62 -40 -96t-106 -34q-111 0 -150 87l76 43q21 -49 72 -49q30 0 45.5 13.5t15.5 36.5q0 53 -61 53h-126l16 229h239v-84h-161l-4 -66h42z" />
    <glyph glyph-name="six.dnom" horiz-adv-x="339" 
d="M175 270q65 -2 105.5 -42t40.5 -100q0 -61 -42.5 -101t-109.5 -40q-66 0 -108.5 40t-42.5 101q0 40 19 73l126 199h98zM169 67q30 0 47.5 16.5t17.5 44.5t-17.5 44.5t-47.5 16.5q-29 0 -46.5 -16.5t-17.5 -44.5t17.5 -44.5t46.5 -16.5z" />
    <glyph glyph-name="seven.dnom" horiz-adv-x="296" 
d="M5 400h273v-71l-133 -329h-96l130 315h-174v85z" />
    <glyph glyph-name="eight.dnom" horiz-adv-x="345" 
d="M262 210q61 -34 61 -102q0 -56 -40.5 -88.5t-109.5 -32.5q-70 0 -110.5 32.5t-40.5 88.5q0 68 61 102q-47 31 -47 85q0 55 38.5 86.5t98.5 31.5q59 0 97.5 -31.5t38.5 -86.5q0 -54 -47 -85zM173 334q-55 0 -55 -45t55 -45q25 0 39.5 12t14.5 33t-14.5 33t-39.5 12z
M173 68q29 0 45.5 14t16.5 38t-17 38t-45 14q-30 0 -46.5 -14t-16.5 -38t16.5 -38t46.5 -14z" />
    <glyph glyph-name="nine.dnom" horiz-adv-x="339" 
d="M321 272q0 -47 -25 -81l-120 -191h-98l86 130q-65 2 -105.5 42t-40.5 100q0 61 42.5 101t109.5 40q66 0 108.5 -40t42.5 -101zM105 272q0 -28 17.5 -44.5t47.5 -16.5q29 0 46.5 16.5t17.5 44.5t-17.5 44.5t-46.5 16.5q-30 0 -47.5 -16.5t-17.5 -44.5z" />
    <glyph glyph-name="zero.numr" horiz-adv-x="409" 
d="M205 287q-83 0 -131.5 57.5t-48.5 155.5t48.5 155.5t131.5 57.5t131 -57.5t48 -155.5t-48 -155.5t-131 -57.5zM205 378q40 0 62.5 31.5t22.5 90.5t-22.5 90.5t-62.5 31.5q-41 0 -63.5 -31.5t-22.5 -90.5t22.5 -90.5t63.5 -31.5z" />
    <glyph glyph-name="one.numr" horiz-adv-x="261" 
d="M124 700h80v-400h-92v306l-85 -25l-22 76z" />
    <glyph glyph-name="two.numr" horiz-adv-x="351" 
d="M26 300v64l157 151q37 35 37 69q0 20 -14 32t-38 12q-48 0 -70 -54l-75 42q19 45 56 71t90 26q63 0 103 -35t40 -89q0 -65 -66 -128l-82 -76h155v-85h-293z" />
    <glyph glyph-name="three.numr" horiz-adv-x="349" 
d="M223 535q46 -11 71 -41.5t25 -74.5q0 -62 -41 -97t-111 -35q-112 0 -152 87l78 45q20 -50 74 -50q29 0 44 13.5t15 36.5t-16.5 36.5t-45.5 13.5h-14l-36 55l75 91h-158v85h270v-72z" />
    <glyph glyph-name="four.numr" horiz-adv-x="356" 
d="M339 452v-84h-44v-68h-89v68h-193v84l135 248h99l-132 -248h91v79h89v-79h44z" />
    <glyph glyph-name="five.numr" horiz-adv-x="337" 
d="M169 550q64 0 103 -34.5t39 -98.5q0 -62 -40 -96t-106 -34q-111 0 -150 87l76 43q21 -49 72 -49q30 0 45.5 13.5t15.5 36.5q0 53 -61 53h-126l16 229h239v-84h-161l-4 -66h42z" />
    <glyph glyph-name="six.numr" horiz-adv-x="339" 
d="M175 570q65 -2 105.5 -42t40.5 -100q0 -61 -42.5 -101t-109.5 -40q-66 0 -108.5 40t-42.5 101q0 40 19 73l126 199h98zM169 367q30 0 47.5 16.5t17.5 44.5t-17.5 44.5t-47.5 16.5q-29 0 -46.5 -16.5t-17.5 -44.5t17.5 -44.5t46.5 -16.5z" />
    <glyph glyph-name="seven.numr" horiz-adv-x="296" 
d="M5 700h273v-71l-133 -329h-96l130 315h-174v85z" />
    <glyph glyph-name="eight.numr" horiz-adv-x="345" 
d="M262 510q61 -34 61 -102q0 -56 -40.5 -88.5t-109.5 -32.5q-70 0 -110.5 32.5t-40.5 88.5q0 68 61 102q-47 31 -47 85q0 55 38.5 86.5t98.5 31.5q59 0 97.5 -31.5t38.5 -86.5q0 -54 -47 -85zM173 634q-55 0 -55 -45t55 -45q25 0 39.5 12t14.5 33t-14.5 33t-39.5 12z
M173 368q29 0 45.5 14t16.5 38t-17 38t-45 14q-30 0 -46.5 -14t-16.5 -38t16.5 -38t46.5 -14z" />
    <glyph glyph-name="nine.numr" horiz-adv-x="339" 
d="M321 572q0 -47 -25 -81l-120 -191h-98l86 130q-65 2 -105.5 42t-40.5 100q0 61 42.5 101t109.5 40q66 0 108.5 -40t42.5 -101zM105 572q0 -28 17.5 -44.5t47.5 -16.5q29 0 46.5 16.5t17.5 44.5t-17.5 44.5t-46.5 16.5q-30 0 -47.5 -16.5t-17.5 -44.5z" />
    <glyph glyph-name="zero.sups" horiz-adv-x="409" 
d="M205 447q-83 0 -131.5 57.5t-48.5 155.5t48.5 155.5t131.5 57.5t131 -57.5t48 -155.5t-48 -155.5t-131 -57.5zM205 538q40 0 62.5 31.5t22.5 90.5t-22.5 90.5t-62.5 31.5q-41 0 -63.5 -31.5t-22.5 -90.5t22.5 -90.5t63.5 -31.5z" />
    <glyph glyph-name="one.sups" horiz-adv-x="261" 
d="M124 860h80v-400h-92v306l-85 -25l-22 76z" />
    <glyph glyph-name="two.sups" horiz-adv-x="351" 
d="M26 460v64l157 151q37 35 37 69q0 20 -14 32t-38 12q-48 0 -70 -54l-75 42q19 45 56 71t90 26q63 0 103 -35t40 -89q0 -65 -66 -128l-82 -76h155v-85h-293z" />
    <glyph glyph-name="three.sups" horiz-adv-x="349" 
d="M223 695q46 -11 71 -41.5t25 -74.5q0 -62 -41 -97t-111 -35q-112 0 -152 87l78 45q20 -50 74 -50q29 0 44 13.5t15 36.5t-16.5 36.5t-45.5 13.5h-14l-36 55l75 91h-158v85h270v-72z" />
    <glyph glyph-name="four.sups" horiz-adv-x="356" 
d="M339 612v-84h-44v-68h-89v68h-193v84l135 248h99l-132 -248h91v79h89v-79h44z" />
    <glyph glyph-name="five.sups" horiz-adv-x="337" 
d="M169 710q64 0 103 -34.5t39 -98.5q0 -62 -40 -96t-106 -34q-111 0 -150 87l76 43q21 -49 72 -49q30 0 45.5 13.5t15.5 36.5q0 53 -61 53h-126l16 229h239v-84h-161l-4 -66h42z" />
    <glyph glyph-name="six.sups" horiz-adv-x="339" 
d="M175 730q65 -2 105.5 -42t40.5 -100q0 -61 -42.5 -101t-109.5 -40q-66 0 -108.5 40t-42.5 101q0 40 19 73l126 199h98zM169 527q30 0 47.5 16.5t17.5 44.5t-17.5 44.5t-47.5 16.5q-29 0 -46.5 -16.5t-17.5 -44.5t17.5 -44.5t46.5 -16.5z" />
    <glyph glyph-name="seven.sups" horiz-adv-x="296" 
d="M5 860h273v-71l-133 -329h-96l130 315h-174v85z" />
    <glyph glyph-name="eight.sups" horiz-adv-x="345" 
d="M262 670q61 -34 61 -102q0 -56 -40.5 -88.5t-109.5 -32.5q-70 0 -110.5 32.5t-40.5 88.5q0 68 61 102q-47 31 -47 85q0 55 38.5 86.5t98.5 31.5q59 0 97.5 -31.5t38.5 -86.5q0 -54 -47 -85zM173 794q-55 0 -55 -45t55 -45q25 0 39.5 12t14.5 33t-14.5 33t-39.5 12z
M173 528q29 0 45.5 14t16.5 38t-17 38t-45 14q-30 0 -46.5 -14t-16.5 -38t16.5 -38t46.5 -14z" />
    <glyph glyph-name="nine.sups" horiz-adv-x="339" 
d="M321 732q0 -47 -25 -81l-120 -191h-98l86 130q-65 2 -105.5 42t-40.5 100q0 61 42.5 101t109.5 40q66 0 108.5 -40t42.5 -101zM105 732q0 -28 17.5 -44.5t47.5 -16.5q29 0 46.5 16.5t17.5 44.5t-17.5 44.5t-46.5 16.5q-30 0 -47.5 -16.5t-17.5 -44.5z" />
    <glyph glyph-name="cent.tf" horiz-adv-x="575" 
d="M447 270l93 -53q-32 -60 -92 -95t-133 -35q-35 0 -64 7l-30 -94h-55l36 111q-69 31 -110 95t-41 144q0 112 75.5 187.5t188.5 75.5q27 0 48 -4l29 91h55l-34 -105q85 -34 125 -111l-93 -54q-20 43 -65 63l-96 -297q15 -3 30 -3q44 0 79.5 21t53.5 56zM159 350
q0 -44 20.5 -80t55.5 -56l94 292q-5 1 -15 1q-66 0 -110.5 -45t-44.5 -112z" />
    <glyph glyph-name="dollar.tf" horiz-adv-x="575" 
d="M545 191q0 -86 -57 -139.5t-152 -62.5v-89h-65v88q-90 6 -151.5 48.5t-89.5 115.5l99 57q37 -100 142 -111v208q-49 17 -79.5 31t-64 38t-49.5 59.5t-16 82.5q0 86 59 137.5t150 57.5v88h65v-89q142 -18 194 -145l-97 -56q-27 74 -97 90v-200q39 -13 64.5 -23.5t56 -28.5
t47.5 -38t29 -50.5t12 -68.5zM177 518q0 -32 21.5 -53t72.5 -42v180q-46 -5 -70 -27.5t-24 -57.5zM336 99q94 13 94 88q0 34 -21.5 54.5t-72.5 41.5v-184z" />
    <glyph glyph-name="Euro.tf" horiz-adv-x="575" 
d="M459 196l95 -54q-26 -73 -81.5 -114t-129.5 -41q-105 0 -170.5 73t-83.5 200h-66v71h60v19q0 18 1 27h-61v71h67q19 123 85 194t168 71q71 0 125.5 -38.5t80.5 -106.5l-96 -55q-13 42 -42.5 65t-67.5 23q-111 0 -137 -153h196v-71h-203q-1 -9 -1 -27v-19h204v-71h-198
q26 -161 139 -161q39 0 70 25.5t46 71.5z" />
    <glyph glyph-name="florin.tf" horiz-adv-x="575" 
d="M550 597q-51 17 -85 1.5t-46 -61.5l-35 -133h131v-104h-158l-93 -351q-26 -100 -88.5 -136.5t-150.5 -13.5v107q51 -17 85 -1.5t46 61.5l88 334h-129v104h156l40 150q26 100 88.5 136.5t150.5 13.5v-107z" />
    <glyph glyph-name="uni20BD.tf" horiz-adv-x="575" 
d="M323 255h-118v-67h210v-78h-210v-110h-115v110h-80v78h80v67h-80v103h80v342h233q95 0 161 -65.5t66 -159.5q0 -93 -66 -156.5t-161 -63.5zM205 592v-234h118q47 0 79.5 34t32.5 83t-32.5 83t-79.5 34h-118z" />
    <glyph glyph-name="sterling.tf" horiz-adv-x="575" 
d="M225 111h340v-111h-535v111h80v168h-65v101h65v118q0 104 64 159.5t151 55.5q74 0 128 -37t81 -104l-98 -56q-29 85 -108 85q-44 0 -73.5 -27t-29.5 -80v-114h218v-101h-218v-168z" />
    <glyph glyph-name="yen.tf" horiz-adv-x="575" 
d="M572 700l-203 -343h144v-73h-168v-50h168v-73h-168v-161h-115v161h-167v73h167v50h-167v73h144l-203 343h130l154 -273l154 273h130z" />
    <glyph glyph-name="brevecy" horiz-adv-x="340" 
d="M30 570v94h280v-94h-280z" />
    </font>
</defs>
</svg>
