<?xml version="1.0" standalone="no"?>
<!DOCTYPE svg PUBLIC "-//W3C//DTD SVG 1.1//EN" "http://www.w3.org/Graphics/SVG/1.1/DTD/svg11.dtd" >
<svg xmlns="http://www.w3.org/2000/svg" xmlns:xlink="http://www.w3.org/1999/xlink" version="1.1">
<metadata>
Created by FontForge 20161003 at Wed Mar 20 18:29:24 2019
 By www-data
Copyright (c) 2016 by Radomir Tinkov. All rights reserved.
</metadata>
<defs>
<font id="GilroyBlack" horiz-adv-x="589" >
  <font-face 
    font-family="GilroyBlack"
    font-weight="900"
    font-stretch="normal"
    units-per-em="1000"
    panose-1="0 0 10 0 0 0 0 0 0 0"
    ascent="800"
    descent="-200"
    x-height="500"
    cap-height="700"
    bbox="-466 -277 1184 985"
    underline-thickness="50"
    underline-position="-150"
    unicode-range="U+0020-FB02"
  />
<missing-glyph horiz-adv-x="500" 
d="M410 800v-1000h-317v1000h317zM333 733h-165v-33h65v-37h-66v-33h166v33h-66v37h66v33zM267 604h-100v-104h166v34h-66v70zM233 570v-36h-33v36h33zM333 473h-166v-33h66v-37h-66v-33h100v70h66v33zM333 413h-33v-66h-133v-34h166v100zM333 291h-100v-56h34v23h33v-47
h-100v80h-33v-113h166v113zM333 118h-166v-113h166v113zM300 85v-47h-100v47h100zM333 -18h-166v-33h70l-70 -47v-33h166v33h-102l70 47h32v33z" />
    <glyph glyph-name="fi" unicode="fi" horiz-adv-x="572" 
d="M524 500v-500h-166v341h-114v-341h-166v341h-63v159h63q0 215 252 215q66 0 130 -15v-145q-65 9 -123 9q-46 0 -69.5 -14t-23.5 -50h280z" />
    <glyph glyph-name="fl" unicode="fl" horiz-adv-x="572" 
d="M330 715q91 0 194 -20v-695h-166v573q-10 1 -30 1q-38 0 -61 -18.5t-23 -55.5h66v-159h-66v-341h-166v341h-63v159h63q0 215 252 215z" />
    <glyph glyph-name="f_f" unicode="ff" horiz-adv-x="612" 
d="M612 571q-85 6 -85 -61v-10h85v-159h-85v-341h-167v341h-116v-341h-166v341h-63v159h63q0 108 63.5 165t188.5 50v-154q-86 6 -86 -61h116v10q0 108 63.5 165t188.5 50v-154z" />
    <glyph glyph-name="f_f_i" unicode="ffi" horiz-adv-x="855" 
d="M807 500v-500h-167v341h-113v-341h-167v341h-116v-341h-166v341h-63v159h63q0 108 63.5 165t188.5 50v-154q-86 6 -86 -61h116v10q0 215 252 215q66 0 130 -15v-145q-64 9 -123 9q-46 0 -69 -14t-23 -50v-10h280z" />
    <glyph glyph-name="f_f_l" unicode="ffl" horiz-adv-x="855" 
d="M612 725q90 0 195 -20v-705h-167v583q-10 1 -30 1q-38 0 -60.5 -18.5t-22.5 -55.5v-10h65v-159h-65v-341h-167v341h-116v-341h-166v341h-63v159h63q0 108 63.5 165t188.5 50v-154q-86 6 -86 -61h116v10q0 215 252 215z" />
    <glyph glyph-name=".notdef" horiz-adv-x="500" 
d="M410 800v-1000h-317v1000h317zM333 733h-165v-33h65v-37h-66v-33h166v33h-66v37h66v33zM267 604h-100v-104h166v34h-66v70zM233 570v-36h-33v36h33zM333 473h-166v-33h66v-37h-66v-33h100v70h66v33zM333 413h-33v-66h-133v-34h166v100zM333 291h-100v-56h34v23h33v-47
h-100v80h-33v-113h166v113zM333 118h-166v-113h166v113zM300 85v-47h-100v47h100zM333 -18h-166v-33h70l-70 -47v-33h166v33h-102l70 47h32v33z" />
    <glyph glyph-name=".null" horiz-adv-x="0" 
 />
    <glyph glyph-name="nonmarkingreturn" horiz-adv-x="333" 
 />
    <glyph glyph-name="space" unicode=" " horiz-adv-x="227" 
 />
    <glyph glyph-name="exclam" unicode="!" horiz-adv-x="294" 
d="M78 255l-33 245v200h204v-200l-33 -245h-138zM147 -14q-43 0 -73.5 30t-30.5 74q0 43 30.5 73.5t73.5 30.5t73.5 -30.5t30.5 -73.5q0 -44 -30.5 -74t-73.5 -30z" />
    <glyph glyph-name="quotedbl" unicode="&#x22;" horiz-adv-x="442" 
d="M65 441l-20 259h154l-20 -259h-114zM263 441l-20 259h154l-20 -259h-114z" />
    <glyph glyph-name="numbersign" unicode="#" horiz-adv-x="631" 
d="M592 385h-101l-12 -70h102l-19 -120h-103l-24 -145h-128l24 145h-82l-24 -145h-128l24 145h-101l19 120h102l12 70h-102l19 120h103l24 145h128l-24 -145h82l24 145h128l-24 -145h100zM351 315l12 70h-82l-12 -70h82z" />
    <glyph glyph-name="dollar" unicode="$" horiz-adv-x="556" 
d="M538 205q0 -94 -58 -150.5t-156 -67.5v-87h-70v86q-88 6 -149.5 48.5t-86.5 114.5l155 87q22 -65 81 -80v119l-9 3q-47 17 -78 33t-63 41.5t-47.5 62t-15.5 84.5q0 94 60 150.5t153 64.5v86h70v-88q144 -17 204 -147l-152 -85q-15 46 -52 60v-118h1q5 -2 28.5 -11t31 -12
t28.5 -12.5t29 -15t25 -17t24 -21t18.5 -24t16 -29.5t8.5 -34.5t4 -40.5zM215 498q0 -25 39 -45v91q-39 -10 -39 -46zM324 157q40 11 40 45q0 27 -40 45v-90z" />
    <glyph glyph-name="percent" unicode="%" horiz-adv-x="823" 
d="M219 356q-78 0 -131 52.5t-53 127.5t53 127t131 52t130 -52t52 -127q0 -76 -52.5 -128t-129.5 -52zM139 110l460 500l70 -40l-461 -499zM218 483q23 0 37.5 15.5t14.5 37.5t-14.5 37t-37.5 15q-22 0 -36.5 -15t-14.5 -37q0 -23 14.5 -38t36.5 -15zM606 -14
q-79 0 -131.5 52t-52.5 127q0 76 52.5 128t131.5 52q78 0 130 -52.5t52 -127.5t-52.5 -127t-129.5 -52zM605 113q22 0 36.5 15.5t14.5 36.5q0 23 -14.5 38t-36.5 15t-36.5 -15t-14.5 -38q0 -22 14.5 -37t36.5 -15z" />
    <glyph glyph-name="ampersand" unicode="&#x26;" horiz-adv-x="680" 
d="M665 52l-137 -79l-59 64q-81 -52 -182 -52q-114 0 -183 59.5t-69 154.5q0 124 113 195q-32 54 -32 114q0 90 64.5 148.5t165.5 58.5q171 0 241 -157l-151 -88q-28 75 -84 75q-26 0 -40.5 -14.5t-14.5 -36.5q0 -15 8.5 -31.5t16.5 -26t30 -34.5l118 -131q21 50 31 102
l144 -83q-20 -74 -65 -143zM305 140q32 0 59 12l-118 128q-30 -27 -30 -67q0 -32 22.5 -52.5t66.5 -20.5z" />
    <glyph glyph-name="quotesingle" unicode="'" horiz-adv-x="243" 
d="M65 441l-20 259h154l-20 -259h-114z" />
    <glyph glyph-name="parenleft" unicode="(" horiz-adv-x="327" 
d="M155 -100q-110 220 -110 450t110 450h167q-110 -220 -110 -450t110 -450h-167z" />
    <glyph glyph-name="parenright" unicode=")" horiz-adv-x="327" 
d="M172 -100h-167q110 220 110 450t-110 450h167q110 -220 110 -450t-110 -450z" />
    <glyph glyph-name="asterisk" unicode="*" horiz-adv-x="405" 
d="M359 605v-96l-91 10l57 -70l-80 -50l-43 82l-42 -82l-80 50l56 70l-91 -10v96l91 -10l-56 70l80 50l42 -82l43 82l80 -50l-57 -70z" />
    <glyph glyph-name="plus" unicode="+" horiz-adv-x="560" 
d="M519 429v-158h-160v-160h-158v160h-160v158h160v160h158v-160h160z" />
    <glyph glyph-name="comma" unicode="," horiz-adv-x="302" 
d="M261 174l-84 -314h-134l35 314h183z" />
    <glyph glyph-name="hyphen" unicode="-" horiz-adv-x="500" 
d="M55 222v158h390v-158h-390z" />
    <glyph glyph-name="period" unicode="." horiz-adv-x="289" 
d="M145 -14q-44 0 -74.5 30.5t-30.5 73.5t31 73.5t74 30.5t73.5 -30.5t30.5 -73.5t-30.5 -73.5t-73.5 -30.5z" />
    <glyph glyph-name="slash" unicode="/" horiz-adv-x="520" 
d="M95 -100h-70l400 900h70z" />
    <glyph glyph-name="zero" unicode="0" horiz-adv-x="630" 
d="M315 -15q-137 0 -213.5 99.5t-76.5 265.5t76.5 265.5t213.5 99.5t213.5 -99.5t76.5 -265.5t-76.5 -265.5t-213.5 -99.5zM315 159q111 0 111 191t-111 191t-111 -191t111 -191z" />
    <glyph glyph-name="one" unicode="1" horiz-adv-x="414" 
d="M195 700h154v-700h-179v512l-122 -31l-43 151z" />
    <glyph glyph-name="two" unicode="2" horiz-adv-x="539" 
d="M21 0v130l232 245q35 38 51 61.5t16 46.5q0 26 -16.5 42t-45.5 16q-62 0 -94 -73l-154 86q34 79 100 120t146 41q100 0 171.5 -59.5t71.5 -162.5q0 -61 -28.5 -112.5t-83.5 -108.5l-95 -99h219v-173h-490z" />
    <glyph glyph-name="three" unicode="3" horiz-adv-x="548" 
d="M373 415q67 -21 108 -72t41 -123q0 -113 -74 -174t-183 -61q-87 0 -154.5 40t-97.5 118l156 89q22 -73 96 -73q38 0 58.5 18t20.5 48t-20.5 47.5t-58.5 17.5h-38l-69 102l112 137h-235v171h455v-141z" />
    <glyph glyph-name="four" unicode="4" horiz-adv-x="578" 
d="M570 270v-163h-70v-107h-178v107h-307v163l209 430h198l-211 -430h111v126h178v-126h70z" />
    <glyph glyph-name="five" unicode="5" horiz-adv-x="550" 
d="M290 454q103 0 171.5 -60t68.5 -170q0 -114 -74 -176.5t-184 -62.5q-92 0 -160 39.5t-99 118.5l156 89q22 -73 103 -73q38 0 58.5 17.5t20.5 47.5q0 31 -20.5 48t-55.5 17h-224l29 411h412v-171h-247l-5 -75h50z" />
    <glyph glyph-name="six" unicode="6" horiz-adv-x="560" 
d="M321 477q102 -13 163 -79.5t61 -165.5q0 -109 -73 -178t-192 -69t-192 69t-73 178q0 82 44 145l207 323h203zM280 149q37 0 61.5 22t24.5 61q0 40 -24 62t-62 22t-62 -22t-24 -62t24 -61.5t62 -21.5z" />
    <glyph glyph-name="seven" unicode="7" horiz-adv-x="490" 
d="M1 700h474v-148l-219 -552h-193l208 527h-270v173z" />
    <glyph glyph-name="eight" unicode="8" horiz-adv-x="569" 
d="M453 366q93 -58 93 -169q0 -98 -68 -154.5t-193 -56.5q-126 0 -194 56.5t-68 154.5q0 111 93 169q-69 51 -69 140q0 98 67 153t171 55q103 0 170 -55.5t67 -152.5q0 -89 -69 -140zM285 552q-32 0 -50.5 -16.5t-18.5 -43.5q0 -28 18.5 -44t50.5 -16q30 0 49 16.5t19 43.5
t-19 43.5t-49 16.5zM285 150q37 0 60 19.5t23 52.5q0 34 -23 53.5t-60 19.5q-38 0 -60.5 -19.5t-22.5 -53.5q0 -33 22.5 -52.5t60.5 -19.5z" />
    <glyph glyph-name="nine" unicode="9" horiz-adv-x="560" 
d="M545 468q0 -82 -44 -145l-207 -323h-203l148 223q-102 13 -163 79.5t-61 165.5q0 109 73 178t192 69t192 -69t73 -178zM194 468q0 -40 24 -62t62 -22t62 22t24 62t-24 61.5t-62 21.5q-37 0 -61.5 -22t-24.5 -61z" />
    <glyph glyph-name="colon" unicode=":" horiz-adv-x="289" 
d="M145 307q-44 0 -74.5 30.5t-30.5 73.5t31 73.5t74 30.5t73.5 -30.5t30.5 -73.5t-30.5 -73.5t-73.5 -30.5zM145 -14q-44 0 -74.5 30.5t-30.5 73.5t31 73.5t74 30.5t73.5 -30.5t30.5 -73.5t-30.5 -73.5t-73.5 -30.5z" />
    <glyph glyph-name="semicolon" unicode=";" horiz-adv-x="304" 
d="M160 307q-44 0 -74.5 30.5t-30.5 73.5t31 73.5t74 30.5t73.5 -30.5t30.5 -73.5t-30.5 -73.5t-73.5 -30.5zM261 174l-84 -314h-134l35 314h183z" />
    <glyph glyph-name="less" unicode="&#x3c;" horiz-adv-x="521" 
d="M486 619v-172l-271 -97l271 -97v-172l-450 195v148z" />
    <glyph glyph-name="equal" unicode="=" horiz-adv-x="511" 
d="M35 380v159h440v-159h-440zM35 161v159h440v-159h-440z" />
    <glyph glyph-name="greater" unicode="&#x3e;" horiz-adv-x="521" 
d="M35 619l450 -195v-148l-450 -195v172l271 97l-271 97v172z" />
    <glyph glyph-name="question" unicode="?" horiz-adv-x="547" 
d="M178 255q0 41 23.5 77.5t51.5 59t51.5 50t23.5 52.5q0 48 -59 48q-61 0 -96 -79l-152 87q33 81 101.5 123t153.5 42q96 0 163 -53.5t67 -145.5q0 -42 -16.5 -77.5t-39.5 -59.5t-46 -44.5t-39.5 -40.5t-16.5 -39h-170zM263 -14q-43 0 -73.5 30t-30.5 74q0 43 30.5 73.5
t73.5 30.5t73.5 -30.5t30.5 -73.5q0 -44 -30.5 -74t-73.5 -30z" />
    <glyph glyph-name="at" unicode="@" horiz-adv-x="769" 
d="M392 612q106 0 188 -51.5t122 -128.5t40 -162q0 -107 -43.5 -165.5t-122.5 -58.5q-53 0 -89 22t-52 60q-37 -43 -95 -43q-66 0 -106.5 46.5t-40.5 118.5t40.5 118.5t106.5 46.5q51 0 86 -33v21h136v-236q0 -63 50 -63q38 0 61.5 40.5t23.5 125.5q0 127 -88 214t-217 87
q-135 0 -227.5 -92.5t-92.5 -228.5q0 -140 95.5 -230.5t242.5 -90.5q86 0 151 22v-43q-65 -20 -151 -20q-164 0 -273 102.5t-109 259.5q0 151 104.5 256.5t259.5 105.5zM378 198q21 0 34 14.5t13 37.5t-12.5 37.5t-34.5 14.5t-35 -14.5t-13 -37.5t13 -37.5t35 -14.5z" />
    <glyph glyph-name="A" unicode="A" horiz-adv-x="671" 
d="M482 0l-30 101h-233l-30 -101h-194l231 700h218l231 -700h-193zM265 255h141l-71 238z" />
    <glyph glyph-name="B" unicode="B" horiz-adv-x="602" 
d="M497 362q88 -52 88 -157q0 -93 -64 -149t-171 -56h-295v700h276q105 0 168 -53.5t63 -145.5q0 -88 -65 -139zM326 540h-92v-110h92q24 0 40.5 14.5t16.5 40.5q0 25 -16 40t-41 15zM345 160q27 0 44 16.5t17 42.5q0 27 -17 43t-44 16h-111v-118h111z" />
    <glyph glyph-name="C" unicode="C" horiz-adv-x="719" 
d="M393 -15q-158 0 -261.5 104.5t-103.5 260.5t103.5 260.5t261.5 104.5q95 0 176 -45t127 -121l-155 -89q-20 37 -59.5 58.5t-88.5 21.5q-84 0 -135.5 -52.5t-51.5 -137.5t51.5 -137.5t135.5 -52.5q49 0 88.5 21.5t59.5 59.5l155 -90q-46 -77 -126.5 -121.5t-176.5 -44.5z
" />
    <glyph glyph-name="D" unicode="D" horiz-adv-x="708" 
d="M340 700q145 0 242.5 -100.5t97.5 -249.5t-97.5 -249.5t-242.5 -100.5h-285v700h285zM340 173q73 0 119 48.5t46 128.5t-46 128.5t-119 48.5h-101v-354h101z" />
    <glyph glyph-name="E" unicode="E" horiz-adv-x="535" 
d="M234 168h271v-168h-450v700h445v-167h-266v-97h241v-165h-241v-103z" />
    <glyph glyph-name="F" unicode="F" horiz-adv-x="518" 
d="M485 527h-251v-114h246v-173h-246v-240h-179v700h430v-173z" />
    <glyph glyph-name="G" unicode="G" horiz-adv-x="778" 
d="M750 401v-71q0 -154 -96.5 -249.5t-250.5 -95.5q-164 0 -269.5 105t-105.5 259t105 260t260 106q98 0 179.5 -44t127.5 -117l-152 -87q-21 33 -61.5 53t-91.5 20q-83 0 -136 -54t-53 -138q0 -81 52.5 -137t147.5 -56q122 0 161 92h-170v154h353z" />
    <glyph glyph-name="H" unicode="H" horiz-adv-x="665" 
d="M431 700h178v-700h-178v269h-197v-269h-179v700h179v-259h197v259z" />
    <glyph glyph-name="I" unicode="I" horiz-adv-x="289" 
d="M55 700h179v-700h-179v700z" />
    <glyph glyph-name="J" unicode="J" horiz-adv-x="571" 
d="M267 -15q-172 0 -242 140l153 89q15 -29 35 -42t54 -13q77 0 77 71v470h179v-473q0 -113 -69.5 -177.5t-186.5 -64.5z" />
    <glyph glyph-name="K" unicode="K" horiz-adv-x="631" 
d="M635 0h-200l-201 313v-313h-179v700h179v-294l191 294h200l-222 -340z" />
    <glyph glyph-name="L" unicode="L" horiz-adv-x="485" 
d="M234 173h241v-173h-420v700h179v-527z" />
    <glyph glyph-name="M" unicode="M" horiz-adv-x="825" 
d="M769 700v-700h-178v377l-170 -281h-18l-169 280v-376h-179v700h179l178 -299l179 299h178z" />
    <glyph glyph-name="N" unicode="N" horiz-adv-x="675" 
d="M441 700h178v-700h-138l-247 352v-352h-179v700h139l247 -352v352z" />
    <glyph glyph-name="O" unicode="O" horiz-adv-x="790" 
d="M395 -15q-154 0 -260.5 105.5t-106.5 259.5t106.5 259.5t260.5 105.5t260.5 -105.5t106.5 -259.5t-106.5 -259.5t-260.5 -105.5zM395 160q81 0 135 53.5t54 136.5t-54 136.5t-135 53.5t-135 -53.5t-54 -136.5t54 -136.5t135 -53.5z" />
    <glyph glyph-name="P" unicode="P" horiz-adv-x="592" 
d="M327 700q106 0 178 -69t72 -176t-72 -176t-178 -69h-93v-210h-179v700h272zM327 380q30 0 50.5 21t20.5 54t-20.5 53.5t-50.5 20.5h-93v-149h93z" />
    <glyph glyph-name="Q" unicode="Q" horiz-adv-x="795" 
d="M762 350q0 -127 -75 -224l63 -68l-125 -111l-69 74q-75 -36 -161 -36q-154 0 -260.5 105.5t-106.5 259.5t106.5 259.5t260.5 105.5t260.5 -105.5t106.5 -259.5zM395 160q11 0 29 2l-94 101l126 110l107 -114q21 42 21 91q0 83 -54 136.5t-135 53.5t-135 -53.5t-54 -136.5
t54 -136.5t135 -53.5z" />
    <glyph glyph-name="R" unicode="R" horiz-adv-x="620" 
d="M420 0l-122 225h-64v-225h-179v700h280q107 0 179.5 -68.5t72.5 -174.5q0 -63 -32 -115.5t-87 -82.5l144 -259h-192zM234 534v-157h99q33 0 54 22t21 56q0 35 -21 57t-54 22h-99z" />
    <glyph glyph-name="S" unicode="S" horiz-adv-x="585" 
d="M304 -15q-111 0 -184 47t-102 127l153 89q39 -93 138 -93q82 0 82 47q0 31 -47 50q-20 8 -88 27q-96 28 -152 78.5t-56 140.5q0 97 69.5 157t173.5 60q88 0 156 -41t104 -119l-150 -88q-33 78 -109 78q-32 0 -48.5 -13t-16.5 -33q0 -23 24.5 -39t95.5 -37q51 -15 82 -28
t68 -37.5t55 -63t18 -90.5q0 -103 -73 -161t-193 -58z" />
    <glyph glyph-name="T" unicode="T" horiz-adv-x="545" 
d="M535 700v-173h-173v-527h-179v527h-173v173h525z" />
    <glyph glyph-name="U" unicode="U" horiz-adv-x="650" 
d="M325 -15q-122 0 -199.5 67t-77.5 178v470h179v-453q0 -88 98 -88t98 88v453h179v-470q0 -111 -77.5 -178t-199.5 -67z" />
    <glyph glyph-name="V" unicode="V" horiz-adv-x="665" 
d="M226 0l-226 700h196l136 -482l137 482h196l-226 -700h-213z" />
    <glyph glyph-name="W" unicode="W" horiz-adv-x="1004" 
d="M201 0l-196 700h193l108 -441l125 441h141l125 -441l109 441h192l-195 -700h-189l-112 395l-112 -395h-189z" />
    <glyph glyph-name="X" unicode="X" horiz-adv-x="632" 
d="M626 0h-200l-110 186l-110 -186h-201l211 357l-203 343h201l102 -173l102 173h201l-203 -344z" />
    <glyph glyph-name="Y" unicode="Y" horiz-adv-x="651" 
d="M651 700l-236 -431v-269h-179v267l-236 433h201l124 -259l125 259h201z" />
    <glyph glyph-name="Z" unicode="Z" horiz-adv-x="542" 
d="M265 173h255v-173h-487v138l247 389h-242v173h474v-138z" />
    <glyph glyph-name="bracketleft" unicode="[" horiz-adv-x="329" 
d="M309 641h-97v-582h97v-159h-264v900h264v-159z" />
    <glyph glyph-name="backslash" unicode="\" horiz-adv-x="520" 
d="M425 -100l-400 900h70l400 -900h-70z" />
    <glyph glyph-name="bracketright" unicode="]" horiz-adv-x="329" 
d="M284 800v-900h-264v159h97v582h-97v159h264z" />
    <glyph glyph-name="asciicircum" unicode="^" horiz-adv-x="580" 
d="M349 700l200 -354h-178l-81 158l-81 -158h-178l200 354h118z" />
    <glyph glyph-name="underscore" unicode="_" horiz-adv-x="515" 
d="M25 -186v158h465v-158h-465z" />
    <glyph glyph-name="grave" unicode="`" horiz-adv-x="314" 
d="M294 555l-80 145h-194l116 -145h158z" />
    <glyph glyph-name="a" unicode="a" horiz-adv-x="615" 
d="M401 500h166v-500h-166v46q-51 -60 -142 -60q-100 0 -167.5 75.5t-67.5 188.5t67.5 188.5t167.5 75.5q91 0 142 -60v46zM296 141q47 0 76 30t29 79t-29 79t-76 30t-76 -30t-29 -79t29 -79t76 -30z" />
    <glyph glyph-name="b" unicode="b" horiz-adv-x="615" 
d="M356 514q100 0 167.5 -75.5t67.5 -188.5t-67.5 -188.5t-167.5 -75.5q-91 0 -142 60v-46h-166v700h166v-246q51 60 142 60zM319 141q47 0 76 30t29 79t-29 79t-76 30t-76 -30t-29 -79t29 -79t76 -30z" />
    <glyph glyph-name="c" unicode="c" horiz-adv-x="528" 
d="M290 -14q-114 0 -190 76t-76 188t76 188t190 76q74 0 134.5 -35t93.5 -94l-142 -82q-27 49 -87 49q-42 0 -70 -28.5t-28 -73.5t28 -73.5t70 -28.5q62 0 87 50l142 -82q-33 -60 -93.5 -95t-134.5 -35z" />
    <glyph glyph-name="d" unicode="d" horiz-adv-x="615" 
d="M401 700h166v-700h-166v46q-51 -60 -142 -60q-100 0 -167.5 75.5t-67.5 188.5t67.5 188.5t167.5 75.5q91 0 142 -60v246zM296 141q47 0 76 30t29 79t-29 79t-76 30t-76 -30t-29 -79t29 -79t76 -30z" />
    <glyph glyph-name="e" unicode="e" horiz-adv-x="571" 
d="M196 189q25 -61 112 -61q54 0 91 35l120 -84q-74 -93 -215 -93q-127 0 -203.5 74.5t-76.5 188.5q0 113 75 189t191 76q112 0 185 -75t73 -188q0 -33 -7 -62h-345zM194 304h192q-20 70 -94 70q-77 0 -98 -70z" />
    <glyph glyph-name="f" unicode="f" horiz-adv-x="330" 
d="M330 561q-86 6 -86 -61h86v-159h-86v-341h-166v341h-63v159h63q0 108 63.5 165t188.5 50v-154z" />
    <glyph glyph-name="g" unicode="g" horiz-adv-x="618" 
d="M406 500h164v-480q0 -60 -22.5 -106.5t-60.5 -74t-83.5 -41t-96.5 -13.5q-83 0 -148 31t-98 91l138 80q36 -57 106 -57q45 0 73 23t28 67v48q-51 -62 -140 -62q-103 0 -170.5 74t-67.5 180t67.5 180t170.5 74q89 0 140 -62v48zM300 156q47 0 76.5 29.5t29.5 74.5
t-29.5 74.5t-76.5 29.5t-76.5 -29.5t-29.5 -74.5t29.5 -74.5t76.5 -29.5z" />
    <glyph glyph-name="h" unicode="h" horiz-adv-x="579" 
d="M353 514q81 0 132.5 -55.5t51.5 -159.5v-299h-166v278q0 39 -20.5 59t-54.5 20q-39 0 -60.5 -23.5t-21.5 -67.5v-266h-166v700h166v-250q45 64 139 64z" />
    <glyph glyph-name="i" unicode="i" horiz-adv-x="262" 
d="M131 541q-39 0 -67.5 28.5t-28.5 67.5t28.5 67t67.5 28t67.5 -28t28.5 -67t-28.5 -67.5t-67.5 -28.5zM48 0v500h166v-500h-166z" />
    <glyph glyph-name="j" unicode="j" horiz-adv-x="277" 
d="M146 541q-39 0 -67.5 28.5t-28.5 67.5t28.5 67t67.5 28t67.5 -28t28.5 -67t-28.5 -67.5t-67.5 -28.5zM63 0v500h166v-500q0 -118 -58 -170t-181 -45v154q38 -2 55.5 12.5t17.5 48.5z" />
    <glyph glyph-name="k" unicode="k" horiz-adv-x="542" 
d="M542 0h-186l-142 213v-213h-166v700h166v-409l129 209h192l-168 -250z" />
    <glyph glyph-name="l" unicode="l" horiz-adv-x="262" 
d="M48 0v730h166v-730h-166z" />
    <glyph glyph-name="m" unicode="m" horiz-adv-x="852" 
d="M622 514q87 0 137.5 -55.5t50.5 -152.5v-306h-167v287q0 70 -62 70q-34 0 -51.5 -22.5t-17.5 -61.5v-273h-166v287q0 70 -63 70q-34 0 -51.5 -22.5t-17.5 -61.5v-273h-166v500h166v-47q46 61 135 61q86 0 128 -64q52 64 145 64z" />
    <glyph glyph-name="n" unicode="n" horiz-adv-x="579" 
d="M353 514q81 0 132.5 -55.5t51.5 -159.5v-299h-166v278q0 39 -20.5 59t-54.5 20q-39 0 -60.5 -23.5t-21.5 -67.5v-266h-166v500h166v-50q45 64 139 64z" />
    <glyph glyph-name="o" unicode="o" horiz-adv-x="583" 
d="M291 -14q-111 0 -189 76.5t-78 187.5t78 187.5t189 76.5q112 0 189.5 -76.5t77.5 -187.5t-77.5 -187.5t-189.5 -76.5zM291 146q44 0 72.5 29t28.5 75t-28.5 75t-72.5 29q-43 0 -71.5 -29t-28.5 -75t28.5 -75t71.5 -29z" />
    <glyph glyph-name="p" unicode="p" horiz-adv-x="615" 
d="M356 514q100 0 167.5 -75.5t67.5 -188.5t-67.5 -188.5t-167.5 -75.5q-91 0 -142 60v-246h-166v700h166v-46q51 60 142 60zM319 141q47 0 76 30t29 79t-29 79t-76 30t-76 -30t-29 -79t29 -79t76 -30z" />
    <glyph glyph-name="q" unicode="q" horiz-adv-x="615" 
d="M401 500h166v-700h-166v246q-51 -60 -142 -60q-100 0 -167.5 75.5t-67.5 188.5t67.5 188.5t167.5 75.5q91 0 142 -60v46zM296 141q47 0 76 30t29 79t-29 79t-76 30t-76 -30t-29 -79t29 -79t76 -30z" />
    <glyph glyph-name="r" unicode="r" horiz-adv-x="379" 
d="M214 407q14 49 56 76t94 27v-184q-57 9 -103.5 -21t-46.5 -98v-207h-166v500h166v-93z" />
    <glyph glyph-name="s" unicode="s" horiz-adv-x="475" 
d="M207 354q0 -14 25.5 -23t62 -17t73 -22.5t62 -49.5t25.5 -88q0 -86 -64 -127t-152 -41q-168 0 -224 119l145 73q19 -55 78 -55q45 0 45 27q0 14 -25 23t-61 18t-72 24t-61 48.5t-25 82.5q0 80 59 124t142 44q148 0 206 -116l-140 -63q-22 43 -62 43q-37 0 -37 -24z" />
    <glyph glyph-name="t" unicode="t" horiz-adv-x="394" 
d="M358 341h-104v-145q0 -33 24 -41t80 -5v-150q-149 -18 -209.5 27.5t-60.5 164.5v149h-75v159h75v90l166 50v-140h104v-159z" />
    <glyph glyph-name="u" unicode="u" horiz-adv-x="579" 
d="M365 500h166v-500h-166v50q-45 -64 -139 -64q-81 0 -132.5 55.5t-51.5 159.5v299h166v-278q0 -39 20.5 -59t54.5 -20q39 0 60.5 23.5t21.5 67.5v266z" />
    <glyph glyph-name="v" unicode="v" horiz-adv-x="554" 
d="M370 500h184l-187 -500h-180l-187 500h184l93 -287z" />
    <glyph glyph-name="w" unicode="w" horiz-adv-x="798" 
d="M610 500h176l-153 -500h-162l-72 254l-72 -254h-162l-153 500h176l66 -272l75 272h140l75 -272z" />
    <glyph glyph-name="x" unicode="x" horiz-adv-x="549" 
d="M549 0h-188l-87 123l-87 -123h-187l181 255l-174 245h187l80 -113l80 113h188l-174 -245z" />
    <glyph glyph-name="y" unicode="y" horiz-adv-x="549" 
d="M365 500h184l-171 -492q-40 -113 -113 -163t-189 -45v156q53 0 80 13t44 47l-200 484h186l101 -290z" />
    <glyph glyph-name="z" unicode="z" horiz-adv-x="484" 
d="M262 154h187v-154h-409v114l177 232h-167v154h389v-114z" />
    <glyph glyph-name="braceleft" unicode="{" horiz-adv-x="362" 
d="M342 -107q-115 -7 -172 44t-57 151v134q0 32 -18 43t-54 7v159q36 -4 54 7t18 43v134q0 100 57 151t172 44v-154q-63 6 -63 -41v-134q0 -93 -67 -129q67 -37 67 -130v-134q0 -47 63 -41v-154z" />
    <glyph glyph-name="bar" unicode="|" horiz-adv-x="277" 
d="M55 -200v920h167v-920h-167z" />
    <glyph glyph-name="braceright" unicode="}" horiz-adv-x="362" 
d="M20 -107v154q63 -6 63 41v134q0 93 67 130q-67 36 -67 129v134q0 47 -63 41v154q115 7 172 -44t57 -151v-134q0 -32 18 -43t54 -7v-159q-36 4 -54 -7t-18 -43v-134q0 -100 -57 -151t-172 -44z" />
    <glyph glyph-name="asciitilde" unicode="~" horiz-adv-x="606" 
d="M439 461l131 -61q-26 -111 -99.5 -149t-161.5 4q-72 33 -99.5 30t-42.5 -50l-132 61q26 111 100 149t162 -4q52 -23 76 -28t39 5t27 43z" />
    <glyph glyph-name="uni00A0" unicode="&#xa0;" horiz-adv-x="227" 
 />
    <glyph glyph-name="exclamdown" unicode="&#xa1;" horiz-adv-x="294" 
d="M147 514q43 0 73.5 -30t30.5 -74q0 -43 -30.5 -73.5t-73.5 -30.5t-73.5 30.5t-30.5 73.5q0 44 30.5 74t73.5 30zM78 245h138l33 -245v-200h-204v200z" />
    <glyph glyph-name="cent" unicode="&#xa2;" horiz-adv-x="528" 
d="M289 248q62 0 87 50l142 -82q-33 -60 -93.5 -95t-134.5 -35q-26 0 -56 5l-29 -91h-63l35 109q-70 31 -111.5 95.5t-41.5 145.5q0 112 76 188t190 76q28 0 49 -4l29 90h63l-35 -107q80 -33 122 -108l-142 -82q-9 18 -30 33l-61 -188h4zM191 350q0 -54 38 -82l59 184
q-42 -1 -69.5 -29t-27.5 -73z" />
    <glyph glyph-name="sterling" unicode="&#xa3;" horiz-adv-x="575" 
d="M266 173h304v-173h-545v173h62v99h-52v140h52v76q0 109 68.5 168t161.5 59q170 0 237 -156l-155 -86q-23 71 -75 71q-27 0 -42.5 -17.5t-15.5 -48.5v-66h189v-140h-189v-99z" />
    <glyph glyph-name="currency" unicode="&#xa4;" horiz-adv-x="533" 
d="M483 350q0 -74 -45 -130l70 -69l-43 -42l-70 70q-56 -39 -128 -39t-128 40l-71 -71l-43 42l70 70q-44 55 -44 129t44 129l-70 70l43 42l71 -71q56 40 128 40t128 -39l70 70l43 -42l-69 -69q44 -57 44 -130zM267 294q25 0 40.5 15t15.5 41t-15.5 41t-40.5 15
q-26 0 -41 -15t-15 -41t15 -41t41 -15z" />
    <glyph glyph-name="yen" unicode="&#xa5;" horiz-adv-x="631" 
d="M651 700l-179 -328h85v-94h-137l-5 -9v-32h142v-93h-142v-144h-179v144h-163v93h163v30l-6 11h-157v94h106l-179 328h201l124 -259l125 259h201z" />
    <glyph glyph-name="brokenbar" unicode="&#xa6;" horiz-adv-x="277" 
d="M55 350v370h167v-370h-167zM55 -200v370h167v-370h-167z" />
    <glyph glyph-name="section" unicode="&#xa7;" horiz-adv-x="545" 
d="M517 291q0 -76 -55 -125q31 -42 31 -103q0 -85 -62.5 -130t-155.5 -45q-172 0 -228 125l143 78q26 -65 85 -65q52 0 52 37q0 10 -7 18.5t-22 16t-28.5 13t-38.5 14.5t-40 15q-69 29 -111 70t-42 110q0 79 58 124q-26 41 -26 98q0 83 60 128t142 45q153 0 213 -130
l-135 -68q-26 63 -73 63q-20 0 -31 -9.5t-11 -24.5q0 -11 6.5 -20.5t22 -18t28.5 -14t39 -15t40 -15.5q67 -27 106.5 -66t39.5 -106zM202 328q0 -21 16.5 -34t51.5 -26q11 -4 33.5 -12t34.5 -12q15 12 15 34q0 15 -10.5 26t-21.5 16t-36 15q-3 1 -29 10.5t-40 15.5
q-14 -12 -14 -33z" />
    <glyph glyph-name="dieresis" unicode="&#xa8;" horiz-adv-x="389" 
d="M100 535q-33 0 -56.5 23.5t-23.5 56.5t23.5 56.5t56.5 23.5q32 0 55.5 -23.5t23.5 -56.5t-23.5 -56.5t-55.5 -23.5zM294 535q-32 0 -55.5 23.5t-23.5 56.5t23.5 56.5t55.5 23.5q33 0 56.5 -23.5t23.5 -56.5t-23.5 -56.5t-56.5 -23.5z" />
    <glyph glyph-name="copyright" unicode="&#xa9;" horiz-adv-x="779" 
d="M390 -12q-150 0 -256 106t-106 256t106 256t256 106t256 -106t106 -256t-106 -256t-256 -106zM390 29q131 0 224 94t93 227t-93 227t-224 94q-132 0 -225 -94t-93 -227t93 -227t225 -94zM393 153q-82 0 -140.5 58.5t-58.5 138.5t58.5 138.5t140.5 58.5q51 0 96 -26
t72 -71l-118 -69q-19 30 -54 30q-27 0 -43.5 -18.5t-16.5 -42.5t16.5 -42.5t43.5 -18.5q35 0 54 30l118 -69q-26 -45 -71.5 -71t-96.5 -26z" />
    <glyph glyph-name="guillemotleft" unicode="&#xab;" horiz-adv-x="569" 
d="M309 504l-112 -195l112 -195h-141l-113 195l113 195h141zM514 504l-113 -195l113 -195h-142l-112 195l112 195h142z" />
    <glyph glyph-name="logicalnot" unicode="&#xac;" horiz-adv-x="569" 
d="M35 429h499v-278h-169v120h-330v158z" />
    <glyph glyph-name="registered" unicode="&#xae;" horiz-adv-x="779" 
d="M390 712q150 0 256 -106t106 -256t-106 -256t-256 -106t-256 106t-106 256t106 256t256 106zM390 29q131 0 224 94t93 227t-93 227t-224 94q-132 0 -225 -94t-93 -227t93 -227t225 -94zM558 409q0 -71 -51 -114l74 -130h-141l-48 97h-21v-97h-131v370h176q58 0 100 -35
t42 -91zM395 420h-24v-53h24q32 0 32 27q0 26 -32 26z" />
    <glyph glyph-name="macron" unicode="&#xaf;" horiz-adv-x="349" 
d="M20 554v130h309v-130h-309z" />
    <glyph glyph-name="degree" unicode="&#xb0;" horiz-adv-x="415" 
d="M208 461q-76 0 -127 51t-51 123q0 73 51 124t127 51t126.5 -51t50.5 -124t-50 -123.5t-127 -50.5zM208 590q20 0 32 12.5t12 32.5t-12.5 33t-31.5 13q-20 0 -32.5 -13t-12.5 -33t12.5 -32.5t32.5 -12.5z" />
    <glyph glyph-name="plusminus" unicode="&#xb1;" horiz-adv-x="560" 
d="M359 529h160v-158h-160v-136h-158v136h-160v158h160v136h158v-136zM41 21v159h478v-159h-478z" />
    <glyph glyph-name="acute" unicode="&#xb4;" horiz-adv-x="314" 
d="M20 555h158l116 145h-194z" />
    <glyph glyph-name="uni00B5" unicode="&#xb5;" horiz-adv-x="608" 
d="M567 149h26v-149h-72q-76 0 -117 47q-45 -62 -141 -62q-27 0 -49 7v-192h-166v700h166v-278q0 -40 20.5 -60t55.5 -20q38 0 59.5 23.5t21.5 68.5v266h166v-321q0 -30 30 -30z" />
    <glyph glyph-name="paragraph" unicode="&#xb6;" horiz-adv-x="727" 
d="M692 700v-160h-67v-740h-158v740h-64v-740h-158v451q-93 0 -159 65.5t-66 158.5q0 94 65.5 159.5t159.5 65.5h447z" />
    <glyph glyph-name="periodcentered" unicode="&#xb7;" horiz-adv-x="289" 
d="M145 246q-44 0 -74.5 30.5t-30.5 73.5t31 73.5t74 30.5t73.5 -30.5t30.5 -73.5t-30.5 -73.5t-73.5 -30.5z" />
    <glyph glyph-name="cedilla" unicode="&#xb8;" horiz-adv-x="274" 
d="M196 -46q22 -7 40 -26t18 -51q0 -112 -234 -98v109q95 -7 95 14q0 15 -53 20v78h134v-46z" />
    <glyph glyph-name="guillemotright" unicode="&#xbb;" horiz-adv-x="569" 
d="M197 504l112 -195l-112 -195h-142l113 195l-113 195h142zM401 504l113 -195l-113 -195h-141l112 195l-112 195h141z" />
    <glyph glyph-name="onequarter" unicode="&#xbc;" horiz-adv-x="818" 
d="M109 300v266l-79 -21l-30 109l127 46h113v-400h-131zM511 700h114l-404 -700h-114zM805 171v-115h-35v-56h-122v56h-184v115l116 229h138l-111 -229h41v63h122v-63h35z" />
    <glyph glyph-name="onehalf" unicode="&#xbd;" horiz-adv-x="812" 
d="M109 300v266l-79 -21l-30 109l127 46h113v-400h-131zM511 700h114l-404 -700h-114zM668 117h116v-117h-306v89l143 139q29 29 29 48q0 22 -26 22q-27 0 -46 -44l-107 60q47 100 158 100q63 0 107 -36t44 -93q0 -63 -70 -128z" />
    <glyph glyph-name="threequarters" unicode="&#xbe;" horiz-adv-x="877" 
d="M326 425q0 -67 -43.5 -103t-117.5 -36q-120 0 -162 94l108 62q15 -43 54 -43q32 0 32 26q0 25 -32 25h-28l-46 68l56 66h-124v116h286v-87l-65 -76q82 -30 82 -112zM570 700h114l-404 -700h-114zM864 171v-115h-35v-56h-122v56h-184v115l116 229h138l-111 -229h41v63h122
v-63h35z" />
    <glyph glyph-name="questiondown" unicode="&#xbf;" horiz-adv-x="547" 
d="M284 514q44 0 74 -30t30 -74q0 -43 -30.5 -73.5t-73.5 -30.5t-73.5 30.5t-30.5 73.5q0 44 30 74t74 30zM369 245q0 -41 -23.5 -77.5t-51.5 -59t-51.5 -50t-23.5 -52.5q0 -48 59 -48q61 0 96 79l152 -87q-33 -81 -101.5 -123t-153.5 -42q-96 0 -163 53.5t-67 145.5
q0 42 16.5 77.5t39.5 59.5t46 44.5t39.5 40.5t16.5 39h170z" />
    <glyph glyph-name="Agrave" unicode="&#xc0;" horiz-adv-x="671" 
d="M430 755h-158l-116 145h194zM482 0l-30 101h-233l-30 -101h-194l231 700h218l231 -700h-193zM265 255h141l-71 238z" />
    <glyph glyph-name="Aacute" unicode="&#xc1;" horiz-adv-x="671" 
d="M510 900l-116 -145h-158l80 145h194zM482 0l-30 101h-233l-30 -101h-194l231 700h218l231 -700h-193zM265 255h141l-71 238z" />
    <glyph glyph-name="Acircumflex" unicode="&#xc2;" horiz-adv-x="671" 
d="M331 801l-40 -56h-150l106 155h167l106 -155h-150zM482 0l-30 101h-233l-30 -101h-194l231 700h218l231 -700h-193zM265 255h141l-71 238z" />
    <glyph glyph-name="Atilde" unicode="&#xc3;" horiz-adv-x="671" 
d="M324 768q-24 16 -36 13.5t-12 -33.5h-120q0 49 11.5 84t30.5 52.5t44 24t51 1.5t53 -19q24 -16 36.5 -14t12.5 33h120q0 -49 -11.5 -84.5t-30.5 -53t-44 -23.5t-51.5 -0.5t-53.5 19.5zM482 0l-30 101h-233l-30 -101h-194l231 700h218l231 -700h-193zM265 255h141l-71 238
z" />
    <glyph glyph-name="Adieresis" unicode="&#xc4;" horiz-adv-x="671" 
d="M238 735q-33 0 -56.5 23.5t-23.5 56.5t23.5 56.5t56.5 23.5q32 0 55.5 -23.5t23.5 -56.5t-23.5 -56.5t-55.5 -23.5zM432 735q-32 0 -55.5 23.5t-23.5 56.5t23.5 56.5t55.5 23.5q33 0 56.5 -23.5t23.5 -56.5t-23.5 -56.5t-56.5 -23.5zM482 0l-30 101h-233l-30 -101h-194
l231 700h218l231 -700h-193zM265 255h141l-71 238z" />
    <glyph glyph-name="Aring" unicode="&#xc5;" horiz-adv-x="671" 
d="M482 0l-30 101h-233l-30 -101h-194l227 689q-27 35 -27 81q0 57 39.5 94.5t100.5 37.5q63 0 102 -37.5t39 -94.5q0 -47 -28 -83l227 -687h-193zM335 802q-15 0 -24 -9t-9 -23t9 -23t24 -9q34 0 34 32t-34 32zM265 255h141l-71 238z" />
    <glyph glyph-name="AE" unicode="&#xc6;" horiz-adv-x="885" 
d="M619 168h236v-168h-410v101h-194l-57 -101h-199l400 700h455v-167h-231v-97h206v-165h-206v-103zM337 255h108v192z" />
    <glyph glyph-name="Ccedilla" unicode="&#xc7;" horiz-adv-x="719" 
d="M393 160q49 0 88.5 21.5t59.5 59.5l155 -90q-37 -62 -97.5 -103.5t-133.5 -55.5v-38q22 -7 40 -26t18 -51q0 -112 -234 -98v109q95 -7 95 14q0 15 -53 20v68q-134 20 -218.5 120.5t-84.5 239.5q0 156 103.5 260.5t261.5 104.5q95 0 176 -45t127 -121l-155 -89
q-20 37 -59.5 58.5t-88.5 21.5q-84 0 -135.5 -52.5t-51.5 -137.5t51.5 -137.5t135.5 -52.5z" />
    <glyph glyph-name="Egrave" unicode="&#xc8;" horiz-adv-x="535" 
d="M373 755h-158l-116 145h194zM234 168h271v-168h-450v700h445v-167h-266v-97h241v-165h-241v-103z" />
    <glyph glyph-name="Eacute" unicode="&#xc9;" horiz-adv-x="535" 
d="M453 900l-116 -145h-158l80 145h194zM234 168h271v-168h-450v700h445v-167h-266v-97h241v-165h-241v-103z" />
    <glyph glyph-name="Ecircumflex" unicode="&#xca;" horiz-adv-x="535" 
d="M274 801l-40 -56h-150l106 155h167l106 -155h-150zM234 168h271v-168h-450v700h445v-167h-266v-97h241v-165h-241v-103z" />
    <glyph glyph-name="Edieresis" unicode="&#xcb;" horiz-adv-x="535" 
d="M181 735q-33 0 -56.5 23.5t-23.5 56.5t23.5 56.5t56.5 23.5q32 0 55.5 -23.5t23.5 -56.5t-23.5 -56.5t-55.5 -23.5zM375 735q-32 0 -55.5 23.5t-23.5 56.5t23.5 56.5t55.5 23.5q33 0 56.5 -23.5t23.5 -56.5t-23.5 -56.5t-56.5 -23.5zM234 168h271v-168h-450v700h445v-167
h-266v-97h241v-165h-241v-103z" />
    <glyph glyph-name="Igrave" unicode="&#xcc;" horiz-adv-x="289" 
d="M240 755l-80 145h-194l116 -145h158zM55 700h179v-700h-179v700z" />
    <glyph glyph-name="Iacute" unicode="&#xcd;" horiz-adv-x="289" 
d="M46 755h158l116 145h-194zM55 700h179v-700h-179v700z" />
    <glyph glyph-name="Icircumflex" unicode="&#xce;" horiz-adv-x="289" 
d="M141 801l-40 -56h-150l106 155h167l106 -155h-150zM55 0v700h179v-700h-179z" />
    <glyph glyph-name="Idieresis" unicode="&#xcf;" horiz-adv-x="289" 
d="M48 735q-33 0 -56.5 23.5t-23.5 56.5t23.5 56.5t56.5 23.5q32 0 55.5 -23.5t23.5 -56.5t-23.5 -56.5t-55.5 -23.5zM242 735q-32 0 -55.5 23.5t-23.5 56.5t23.5 56.5t55.5 23.5q33 0 56.5 -23.5t23.5 -56.5t-23.5 -56.5t-56.5 -23.5zM55 700h179v-700h-179v700z" />
    <glyph glyph-name="Eth" unicode="&#xd0;" horiz-adv-x="738" 
d="M371 700q145 0 242.5 -100.5t97.5 -249.5t-97.5 -249.5t-242.5 -100.5h-285v263h-76v158h76v279h285zM371 173q73 0 119 48.5t46 128.5t-46 128.5t-119 48.5h-101v-106h130v-158h-130v-90h101z" />
    <glyph glyph-name="Ntilde" unicode="&#xd1;" horiz-adv-x="675" 
d="M146 748q0 49 11.5 84t30.5 52.5t44 24t51 1.5t53 -19q24 -16 36.5 -14t12.5 33h120q0 -49 -11.5 -84.5t-30.5 -53t-44 -23.5t-51.5 -0.5t-53.5 19.5q-24 16 -36 13.5t-12 -33.5h-120zM441 700h178v-700h-138l-247 352v-352h-179v700h139l247 -352v352z" />
    <glyph glyph-name="Ograve" unicode="&#xd2;" horiz-adv-x="790" 
d="M490 765l-80 145h-194l116 -145h158zM395 -15q-154 0 -260.5 105.5t-106.5 259.5t106.5 259.5t260.5 105.5t260.5 -105.5t106.5 -259.5t-106.5 -259.5t-260.5 -105.5zM395 160q81 0 135 53.5t54 136.5t-54 136.5t-135 53.5t-135 -53.5t-54 -136.5t54 -136.5t135 -53.5z
" />
    <glyph glyph-name="Oacute" unicode="&#xd3;" horiz-adv-x="790" 
d="M296 765h158l116 145h-194zM395 -15q-154 0 -260.5 105.5t-106.5 259.5t106.5 259.5t260.5 105.5t260.5 -105.5t106.5 -259.5t-106.5 -259.5t-260.5 -105.5zM395 160q81 0 135 53.5t54 136.5t-54 136.5t-135 53.5t-135 -53.5t-54 -136.5t54 -136.5t135 -53.5z" />
    <glyph glyph-name="Ocircumflex" unicode="&#xd4;" horiz-adv-x="790" 
d="M391 811l-40 -56h-150l106 155h167l106 -155h-150zM395 715q154 0 260.5 -105.5t106.5 -259.5t-106.5 -259.5t-260.5 -105.5t-260.5 105.5t-106.5 259.5t106.5 259.5t260.5 105.5zM395 160q81 0 135 53.5t54 136.5t-54 136.5t-135 53.5t-135 -53.5t-54 -136.5t54 -136.5
t135 -53.5z" />
    <glyph glyph-name="Otilde" unicode="&#xd5;" horiz-adv-x="790" 
d="M216 758q0 49 11.5 84t30.5 52.5t44 24t51 1.5t53 -19q24 -16 36.5 -14t12.5 33h120q0 -49 -11.5 -84.5t-30.5 -53t-44 -23.5t-51.5 -0.5t-53.5 19.5q-24 16 -36 13.5t-12 -33.5h-120zM395 -15q-154 0 -260.5 105.5t-106.5 259.5t106.5 259.5t260.5 105.5t260.5 -105.5
t106.5 -259.5t-106.5 -259.5t-260.5 -105.5zM395 160q81 0 135 53.5t54 136.5t-54 136.5t-135 53.5t-135 -53.5t-54 -136.5t54 -136.5t135 -53.5z" />
    <glyph glyph-name="Odieresis" unicode="&#xd6;" horiz-adv-x="790" 
d="M298 745q-33 0 -56.5 23.5t-23.5 56.5t23.5 56.5t56.5 23.5q32 0 55.5 -23.5t23.5 -56.5t-23.5 -56.5t-55.5 -23.5zM492 745q-32 0 -55.5 23.5t-23.5 56.5t23.5 56.5t55.5 23.5q33 0 56.5 -23.5t23.5 -56.5t-23.5 -56.5t-56.5 -23.5zM395 -15q-154 0 -260.5 105.5
t-106.5 259.5t106.5 259.5t260.5 105.5t260.5 -105.5t106.5 -259.5t-106.5 -259.5t-260.5 -105.5zM395 160q81 0 135 53.5t54 136.5t-54 136.5t-135 53.5t-135 -53.5t-54 -136.5t54 -136.5t135 -53.5z" />
    <glyph glyph-name="multiply" unicode="&#xd7;" horiz-adv-x="538" 
d="M497 466l-116 -116l116 -116l-112 -112l-116 116l-116 -116l-112 112l116 116l-116 116l112 112l116 -116l116 116z" />
    <glyph glyph-name="Oslash" unicode="&#xd8;" horiz-adv-x="795" 
d="M664 605q103 -105 103 -255q0 -154 -106.5 -259.5t-260.5 -105.5q-107 0 -198 56l-46 -55l-75 43l54 66q-102 105 -102 255q0 154 106.5 259.5t260.5 105.5q109 0 198 -56l45 55l75 -43zM211 350q0 -67 37 -117l237 289q-41 18 -85 18q-81 0 -135 -53.5t-54 -136.5z
M400 160q81 0 135 53.5t54 136.5q0 67 -38 118l-237 -289q41 -19 86 -19z" />
    <glyph glyph-name="Ugrave" unicode="&#xd9;" horiz-adv-x="650" 
d="M420 755l-80 145h-194l116 -145h158zM325 -15q-122 0 -199.5 67t-77.5 178v470h179v-453q0 -88 98 -88t98 88v453h179v-470q0 -111 -77.5 -178t-199.5 -67z" />
    <glyph glyph-name="Uacute" unicode="&#xda;" horiz-adv-x="650" 
d="M226 755h158l116 145h-194zM325 -15q-122 0 -199.5 67t-77.5 178v470h179v-453q0 -88 98 -88t98 88v453h179v-470q0 -111 -77.5 -178t-199.5 -67z" />
    <glyph glyph-name="Ucircumflex" unicode="&#xdb;" horiz-adv-x="650" 
d="M321 801l-40 -56h-150l106 155h167l106 -155h-150zM423 700h179v-470q0 -111 -77.5 -178t-199.5 -67t-199.5 67t-77.5 178v470h179v-453q0 -88 98 -88t98 88v453z" />
    <glyph glyph-name="Udieresis" unicode="&#xdc;" horiz-adv-x="650" 
d="M228 735q-33 0 -56.5 23.5t-23.5 56.5t23.5 56.5t56.5 23.5q32 0 55.5 -23.5t23.5 -56.5t-23.5 -56.5t-55.5 -23.5zM422 735q-32 0 -55.5 23.5t-23.5 56.5t23.5 56.5t55.5 23.5q33 0 56.5 -23.5t23.5 -56.5t-23.5 -56.5t-56.5 -23.5zM325 -15q-122 0 -199.5 67t-77.5 178
v470h179v-453q0 -88 98 -88t98 88v453h179v-470q0 -111 -77.5 -178t-199.5 -67z" />
    <glyph glyph-name="Yacute" unicode="&#xdd;" horiz-adv-x="651" 
d="M500 900l-116 -145h-158l80 145h194zM651 700l-236 -431v-269h-179v267l-236 433h201l124 -259l125 259h201z" />
    <glyph glyph-name="Thorn" unicode="&#xde;" horiz-adv-x="592" 
d="M330 596q104 0 175.5 -69.5t71.5 -176.5q0 -106 -71.5 -175.5t-175.5 -69.5h-96v-105h-179v700h179v-104h96zM330 276q28 0 48 21t20 53t-20 53.5t-48 21.5h-96v-149h96z" />
    <glyph glyph-name="germandbls" unicode="&#xdf;" horiz-adv-x="551" 
d="M274 -5v148q100 -13 100 45q0 30 -49 102t-49 100q0 23 22.5 61t22.5 65q0 22 -13 37t-37 15q-26 0 -41.5 -17.5t-15.5 -48.5v-502h-166v497q0 101 62.5 159.5t167.5 58.5q99 0 156.5 -51t57.5 -121q0 -34 -12 -61t-24 -47t-12 -37q0 -22 24 -59.5t48.5 -87.5t24.5 -103
q0 -84 -61.5 -127.5t-205.5 -25.5z" />
    <glyph glyph-name="agrave" unicode="&#xe0;" horiz-adv-x="615" 
d="M402 555h-158l-116 145h194zM401 500h166v-500h-166v46q-51 -60 -142 -60q-100 0 -167.5 75.5t-67.5 188.5t67.5 188.5t167.5 75.5q91 0 142 -60v46zM296 141q47 0 76 30t29 79t-29 79t-76 30t-76 -30t-29 -79t29 -79t76 -30z" />
    <glyph glyph-name="aacute" unicode="&#xe1;" horiz-adv-x="615" 
d="M482 700l-116 -145h-158l80 145h194zM401 500h166v-500h-166v46q-51 -60 -142 -60q-100 0 -167.5 75.5t-67.5 188.5t67.5 188.5t167.5 75.5q91 0 142 -60v46zM296 141q47 0 76 30t29 79t-29 79t-76 30t-76 -30t-29 -79t29 -79t76 -30z" />
    <glyph glyph-name="acircumflex" unicode="&#xe2;" horiz-adv-x="615" 
d="M303 601l-40 -56h-150l106 155h167l106 -155h-150zM401 500h166v-500h-166v46q-51 -60 -142 -60q-100 0 -167.5 75.5t-67.5 188.5t67.5 188.5t167.5 75.5q91 0 142 -60v46zM296 141q47 0 76 30t29 79t-29 79t-76 30t-76 -30t-29 -79t29 -79t76 -30z" />
    <glyph glyph-name="atilde" unicode="&#xe3;" horiz-adv-x="615" 
d="M296 568q-24 16 -36 13.5t-12 -33.5h-120q0 49 11.5 84t30.5 52.5t44 24t51 1.5t53 -19q24 -16 36.5 -14t12.5 33h120q0 -49 -11.5 -84.5t-30.5 -53t-44 -23.5t-51.5 -0.5t-53.5 19.5zM401 500h166v-500h-166v46q-51 -60 -142 -60q-100 0 -167.5 75.5t-67.5 188.5
t67.5 188.5t167.5 75.5q91 0 142 -60v46zM296 141q47 0 76 30t29 79t-29 79t-76 30t-76 -30t-29 -79t29 -79t76 -30z" />
    <glyph glyph-name="adieresis" unicode="&#xe4;" horiz-adv-x="615" 
d="M210 535q-33 0 -56.5 23.5t-23.5 56.5t23.5 56.5t56.5 23.5q32 0 55.5 -23.5t23.5 -56.5t-23.5 -56.5t-55.5 -23.5zM404 535q-32 0 -55.5 23.5t-23.5 56.5t23.5 56.5t55.5 23.5q33 0 56.5 -23.5t23.5 -56.5t-23.5 -56.5t-56.5 -23.5zM401 500h166v-500h-166v46
q-51 -60 -142 -60q-100 0 -167.5 75.5t-67.5 188.5t67.5 188.5t167.5 75.5q91 0 142 -60v46zM296 141q47 0 76 30t29 79t-29 79t-76 30t-76 -30t-29 -79t29 -79t76 -30z" />
    <glyph glyph-name="aring" unicode="&#xe5;" horiz-adv-x="615" 
d="M307 533q-61 0 -100.5 37.5t-39.5 94.5t39.5 94.5t100.5 37.5q63 0 102 -37.5t39 -94.5q0 -58 -39 -95t-102 -37zM307 697q-15 0 -24 -9t-9 -23t9 -23t24 -9q34 0 34 32t-34 32zM401 500h166v-500h-166v46q-51 -60 -142 -60q-100 0 -167.5 75.5t-67.5 188.5t67.5 188.5
t167.5 75.5q91 0 142 -60v46zM296 141q47 0 76 30t29 79t-29 79t-76 30t-76 -30t-29 -79t29 -79t76 -30z" />
    <glyph glyph-name="ae" unicode="&#xe6;" horiz-adv-x="948" 
d="M574 189q28 -66 113 -66q59 0 94 38l118 -80q-73 -95 -192 -95q-95 0 -155 63v-49h-151v41q-50 -55 -138 -55q-100 0 -169.5 76t-69.5 188t69.5 188t169.5 76q88 0 138 -55v41h151v-46q57 60 146 60q101 0 164 -74.5t63 -188.5q0 -33 -7 -62h-344zM571 305h193
q-20 69 -94 69q-76 0 -99 -69zM296 143q47 0 76 29.5t29 77.5t-29 77.5t-76 29.5t-76 -29.5t-29 -77.5t29 -77.5t76 -29.5z" />
    <glyph glyph-name="ccedilla" unicode="&#xe7;" horiz-adv-x="528" 
d="M289 148q62 0 87 50l142 -82q-50 -92 -155 -120v-42q22 -7 40 -26t18 -51q0 -112 -234 -98v109q95 -7 95 14q0 15 -53 20v70q-91 20 -148 91.5t-57 166.5q0 112 76 188t190 76q74 0 134.5 -35t93.5 -94l-142 -82q-27 49 -87 49q-42 0 -70 -28.5t-28 -73.5t28 -73.5
t70 -28.5z" />
    <glyph glyph-name="egrave" unicode="&#xe8;" horiz-adv-x="571" 
d="M385 562h-158l-116 145h194zM196 189q25 -61 112 -61q54 0 91 35l120 -84q-74 -93 -215 -93q-127 0 -203.5 74.5t-76.5 188.5q0 113 75 189t191 76q112 0 185 -75t73 -188q0 -33 -7 -62h-345zM194 304h192q-20 70 -94 70q-77 0 -98 -70z" />
    <glyph glyph-name="eacute" unicode="&#xe9;" horiz-adv-x="571" 
d="M465 707l-116 -145h-158l80 145h194zM196 189q25 -61 112 -61q54 0 91 35l120 -84q-74 -93 -215 -93q-127 0 -203.5 74.5t-76.5 188.5q0 113 75 189t191 76q112 0 185 -75t73 -188q0 -33 -7 -62h-345zM194 304h192q-20 70 -94 70q-77 0 -98 -70z" />
    <glyph glyph-name="ecircumflex" unicode="&#xea;" horiz-adv-x="571" 
d="M286 608l-40 -56h-150l106 155h167l106 -155h-150zM196 189q25 -61 112 -61q54 0 91 35l120 -84q-74 -93 -215 -93q-127 0 -203.5 74.5t-76.5 188.5q0 113 75 189t191 76q112 0 185 -75t73 -188q0 -33 -7 -62h-345zM194 304h192q-20 70 -94 70q-77 0 -98 -70z" />
    <glyph glyph-name="edieresis" unicode="&#xeb;" horiz-adv-x="571" 
d="M193 542q-33 0 -56.5 23.5t-23.5 56.5t23.5 56.5t56.5 23.5q32 0 55.5 -23.5t23.5 -56.5t-23.5 -56.5t-55.5 -23.5zM387 542q-32 0 -55.5 23.5t-23.5 56.5t23.5 56.5t55.5 23.5q33 0 56.5 -23.5t23.5 -56.5t-23.5 -56.5t-56.5 -23.5zM196 189q25 -61 112 -61q54 0 91 35
l120 -84q-74 -93 -215 -93q-127 0 -203.5 74.5t-76.5 188.5q0 113 75 189t191 76q112 0 185 -75t73 -188q0 -33 -7 -62h-345zM194 304h192q-20 70 -94 70q-77 0 -98 -70z" />
    <glyph glyph-name="igrave" unicode="&#xec;" horiz-adv-x="262" 
d="M209 550l-40 150h-188l70 -150h158zM214 0h-166v500h166v-500z" />
    <glyph glyph-name="iacute" unicode="&#xed;" horiz-adv-x="262" 
d="M48 550h158l71 150h-189zM48 0v500h166v-500h-166z" />
    <glyph glyph-name="icircumflex" unicode="&#xee;" horiz-adv-x="262" 
d="M131 594l-30 -49h-145l92 155h166l92 -155h-145zM48 0v500h166v-500h-166z" />
    <glyph glyph-name="idieresis" unicode="&#xef;" horiz-adv-x="262" 
d="M41 543q-31 0 -54 22.5t-23 54.5t23 54.5t54 22.5t54 -22.5t23 -54.5t-23 -54.5t-54 -22.5zM221 543q-31 0 -54 22.5t-23 54.5t23 54.5t54 22.5t54 -22.5t23 -54.5t-23 -54.5t-54 -22.5zM48 0v500h166v-500h-166z" />
    <glyph glyph-name="eth" unicode="&#xf0;" horiz-adv-x="564" 
d="M494 370q46 -63 46 -140q0 -110 -76 -177t-182 -67q-108 0 -183 66.5t-75 177.5q0 87 59.5 152.5t147.5 74.5l-38 53l-127 -50v118l61 24l-70 98h191l29 -39l130 51v-119l-61 -24zM282 138q41 0 66 23.5t25 66.5q0 30 -16 52q-26 34 -75 34q-41 0 -66 -23t-25 -63
q0 -43 25 -66.5t66 -23.5z" />
    <glyph glyph-name="ntilde" unicode="&#xf1;" horiz-adv-x="579" 
d="M287 578q-24 16 -36 13.5t-12 -33.5h-120q0 49 11.5 84t30.5 52.5t44 24t51 1.5t53 -19q24 -16 36.5 -14t12.5 33h120q0 -49 -11.5 -84.5t-30.5 -53t-44 -23.5t-51.5 -0.5t-53.5 19.5zM353 514q81 0 132.5 -55.5t51.5 -159.5v-299h-166v278q0 39 -20.5 59t-54.5 20
q-39 0 -60.5 -23.5t-21.5 -67.5v-266h-166v500h166v-50q45 64 139 64z" />
    <glyph glyph-name="ograve" unicode="&#xf2;" horiz-adv-x="583" 
d="M386 565l-80 145h-194l116 -145h158zM291 -14q-111 0 -189 76.5t-78 187.5t78 187.5t189 76.5q112 0 189.5 -76.5t77.5 -187.5t-77.5 -187.5t-189.5 -76.5zM291 146q44 0 72.5 29t28.5 75t-28.5 75t-72.5 29q-43 0 -71.5 -29t-28.5 -75t28.5 -75t71.5 -29z" />
    <glyph glyph-name="oacute" unicode="&#xf3;" horiz-adv-x="583" 
d="M192 565h158l116 145h-194zM291 -14q-111 0 -189 76.5t-78 187.5t78 187.5t189 76.5q112 0 189.5 -76.5t77.5 -187.5t-77.5 -187.5t-189.5 -76.5zM291 146q44 0 72.5 29t28.5 75t-28.5 75t-72.5 29q-43 0 -71.5 -29t-28.5 -75t28.5 -75t71.5 -29z" />
    <glyph glyph-name="ocircumflex" unicode="&#xf4;" horiz-adv-x="583" 
d="M287 611l-40 -56h-150l106 155h167l106 -155h-150zM291 514q112 0 189.5 -76.5t77.5 -187.5t-77.5 -187.5t-189.5 -76.5q-111 0 -189 76.5t-78 187.5t78 187.5t189 76.5zM291 146q44 0 72.5 29t28.5 75t-28.5 75t-72.5 29q-43 0 -71.5 -29t-28.5 -75t28.5 -75t71.5 -29z
" />
    <glyph glyph-name="otilde" unicode="&#xf5;" horiz-adv-x="583" 
d="M112 558q0 49 11.5 84t30.5 52.5t44 24t51 1.5t53 -19q24 -16 36.5 -14t12.5 33h120q0 -49 -11.5 -84.5t-30.5 -53t-44 -23.5t-51.5 -0.5t-53.5 19.5q-24 16 -36 13.5t-12 -33.5h-120zM291 -14q-111 0 -189 76.5t-78 187.5t78 187.5t189 76.5q112 0 189.5 -76.5
t77.5 -187.5t-77.5 -187.5t-189.5 -76.5zM291 146q44 0 72.5 29t28.5 75t-28.5 75t-72.5 29q-43 0 -71.5 -29t-28.5 -75t28.5 -75t71.5 -29z" />
    <glyph glyph-name="odieresis" unicode="&#xf6;" horiz-adv-x="583" 
d="M194 545q-33 0 -56.5 23.5t-23.5 56.5t23.5 56.5t56.5 23.5q32 0 55.5 -23.5t23.5 -56.5t-23.5 -56.5t-55.5 -23.5zM388 545q-32 0 -55.5 23.5t-23.5 56.5t23.5 56.5t55.5 23.5q33 0 56.5 -23.5t23.5 -56.5t-23.5 -56.5t-56.5 -23.5zM291 -14q-111 0 -189 76.5t-78 187.5
t78 187.5t189 76.5q112 0 189.5 -76.5t77.5 -187.5t-77.5 -187.5t-189.5 -76.5zM291 146q44 0 72.5 29t28.5 75t-28.5 75t-72.5 29q-43 0 -71.5 -29t-28.5 -75t28.5 -75t71.5 -29z" />
    <glyph glyph-name="divide" unicode="&#xf7;" horiz-adv-x="551" 
d="M275 459q-40 0 -67 27.5t-27 67.5t27 67.5t67 27.5q41 0 68 -27.5t27 -67.5t-27 -67.5t-68 -27.5zM35 271v158h480v-158h-480zM275 51q-40 0 -67 27.5t-27 67.5t27 67.5t67 27.5q41 0 68 -27.5t27 -67.5t-27 -67.5t-68 -27.5z" />
    <glyph glyph-name="oslash" unicode="&#xf8;" horiz-adv-x="583" 
d="M486 432q72 -75 72 -182q0 -111 -77.5 -187.5t-189.5 -76.5q-76 0 -140 39l-30 -37l-61 34l37 45q-73 76 -73 183q0 111 78 187.5t189 76.5q77 0 141 -39l30 37l61 -35zM191 250q0 -30 12 -53l124 151q-17 6 -36 6q-43 0 -71.5 -29t-28.5 -75zM291 146q44 0 72.5 29
t28.5 75q0 30 -12 53l-124 -151q16 -6 35 -6z" />
    <glyph glyph-name="ugrave" unicode="&#xf9;" horiz-adv-x="579" 
d="M382 555h-158l-116 145h194zM365 500h166v-500h-166v50q-45 -64 -139 -64q-81 0 -132.5 55.5t-51.5 159.5v299h166v-278q0 -39 20.5 -59t54.5 -20q39 0 60.5 23.5t21.5 67.5v266z" />
    <glyph glyph-name="uacute" unicode="&#xfa;" horiz-adv-x="579" 
d="M462 700l-116 -145h-158l80 145h194zM365 500h166v-500h-166v50q-45 -64 -139 -64q-81 0 -132.5 55.5t-51.5 159.5v299h166v-278q0 -39 20.5 -59t54.5 -20q39 0 60.5 23.5t21.5 67.5v266z" />
    <glyph glyph-name="ucircumflex" unicode="&#xfb;" horiz-adv-x="579" 
d="M283 601l-40 -56h-150l106 155h167l106 -155h-150zM365 500h166v-500h-166v50q-45 -64 -139 -64q-81 0 -132.5 55.5t-51.5 159.5v299h166v-278q0 -39 20.5 -59t54.5 -20q39 0 60.5 23.5t21.5 67.5v266z" />
    <glyph glyph-name="udieresis" unicode="&#xfc;" horiz-adv-x="579" 
d="M190 535q-33 0 -56.5 23.5t-23.5 56.5t23.5 56.5t56.5 23.5q32 0 55.5 -23.5t23.5 -56.5t-23.5 -56.5t-55.5 -23.5zM384 535q-32 0 -55.5 23.5t-23.5 56.5t23.5 56.5t55.5 23.5q33 0 56.5 -23.5t23.5 -56.5t-23.5 -56.5t-56.5 -23.5zM365 500h166v-500h-166v50
q-45 -64 -139 -64q-81 0 -132.5 55.5t-51.5 159.5v299h166v-278q0 -39 20.5 -59t54.5 -20q39 0 60.5 23.5t21.5 67.5v266z" />
    <glyph glyph-name="yacute" unicode="&#xfd;" horiz-adv-x="549" 
d="M453 700l-116 -145h-158l80 145h194zM365 500h184l-171 -492q-40 -113 -113 -163t-189 -45v156q53 0 80 13t44 47l-200 484h186l101 -290z" />
    <glyph glyph-name="thorn" unicode="&#xfe;" horiz-adv-x="615" 
d="M356 514q100 0 167.5 -75.5t67.5 -188.5t-67.5 -188.5t-167.5 -75.5q-91 0 -142 60v-246h-166v900h166v-246q51 60 142 60zM319 141q47 0 76 30t29 79t-29 79t-76 30t-76 -30t-29 -79t29 -79t76 -30z" />
    <glyph glyph-name="ydieresis" unicode="&#xff;" horiz-adv-x="549" 
d="M181 535q-33 0 -56.5 23.5t-23.5 56.5t23.5 56.5t56.5 23.5q32 0 55.5 -23.5t23.5 -56.5t-23.5 -56.5t-55.5 -23.5zM375 535q-32 0 -55.5 23.5t-23.5 56.5t23.5 56.5t55.5 23.5q33 0 56.5 -23.5t23.5 -56.5t-23.5 -56.5t-56.5 -23.5zM365 500h184l-171 -492
q-40 -113 -113 -163t-189 -45v156q53 0 80 13t44 47l-200 484h186l101 -290z" />
    <glyph glyph-name="Amacron" unicode="&#x100;" horiz-adv-x="671" 
d="M489 884v-130h-309v130h309zM482 0l-30 101h-233l-30 -101h-194l231 700h218l231 -700h-193zM265 255h141l-71 238z" />
    <glyph glyph-name="amacron" unicode="&#x101;" horiz-adv-x="615" 
d="M461 684v-130h-309v130h309zM401 500h166v-500h-166v46q-51 -60 -142 -60q-100 0 -167.5 75.5t-67.5 188.5t67.5 188.5t167.5 75.5q91 0 142 -60v46zM296 141q47 0 76 30t29 79t-29 79t-76 30t-76 -30t-29 -79t29 -79t76 -30z" />
    <glyph glyph-name="Abreve" unicode="&#x102;" horiz-adv-x="671" 
d="M335 737q-87 0 -133 41t-46 119h140q0 -44 39 -44q40 0 40 44h140q0 -78 -46.5 -119t-133.5 -41zM482 0l-30 101h-233l-30 -101h-194l231 700h218l231 -700h-193zM265 255h141l-71 238z" />
    <glyph glyph-name="abreve" unicode="&#x103;" horiz-adv-x="615" 
d="M307 537q-87 0 -133 41t-46 119h140q0 -44 39 -44q40 0 40 44h140q0 -78 -46.5 -119t-133.5 -41zM401 500h166v-500h-166v46q-51 -60 -142 -60q-100 0 -167.5 75.5t-67.5 188.5t67.5 188.5t167.5 75.5q91 0 142 -60v46zM296 141q47 0 76 30t29 79t-29 79t-76 30t-76 -30
t-29 -79t29 -79t76 -30z" />
    <glyph glyph-name="Aogonek" unicode="&#x104;" horiz-adv-x="671" 
d="M654 -101q7 -1 21 3v-99q-42 -17 -88 -17t-75 23t-29 68q0 59 61 123h-62l-30 101h-233l-30 -101h-194l231 700h218l231 -700q-42 -46 -42 -78q-2 -23 21 -23zM265 255h141l-71 238z" />
    <glyph glyph-name="aogonek" unicode="&#x105;" horiz-adv-x="615" 
d="M567 500v-500q-43 -48 -43 -78q0 -23 22 -23q5 -1 21 3v-99q-42 -17 -88 -17t-75.5 23t-29.5 68q0 58 62 123h-35v46q-51 -60 -142 -60q-100 0 -167.5 75.5t-67.5 188.5t67.5 188.5t167.5 75.5q91 0 142 -60v46h166zM296 141q47 0 76 30t29 79t-29 79t-76 30t-76 -30
t-29 -79t29 -79t76 -30z" />
    <glyph glyph-name="Cacute" unicode="&#x106;" horiz-adv-x="719" 
d="M294 765h158l116 145h-194zM393 -15q-158 0 -261.5 104.5t-103.5 260.5t103.5 260.5t261.5 104.5q95 0 176 -45t127 -121l-155 -89q-20 37 -59.5 58.5t-88.5 21.5q-84 0 -135.5 -52.5t-51.5 -137.5t51.5 -137.5t135.5 -52.5q49 0 88.5 21.5t59.5 59.5l155 -90
q-46 -77 -126.5 -121.5t-176.5 -44.5z" />
    <glyph glyph-name="cacute" unicode="&#x107;" horiz-adv-x="528" 
d="M192 560h158l116 145h-194zM290 -14q-114 0 -190 76t-76 188t76 188t190 76q74 0 134.5 -35t93.5 -94l-142 -82q-27 49 -87 49q-42 0 -70 -28.5t-28 -73.5t28 -73.5t70 -28.5q62 0 87 50l142 -82q-33 -60 -93.5 -95t-134.5 -35z" />
    <glyph glyph-name="Cdotaccent" unicode="&#x10a;" horiz-adv-x="719" 
d="M393 753q-37 0 -63.5 26.5t-26.5 62.5q0 37 26.5 63.5t63.5 26.5q36 0 62.5 -26.5t26.5 -63.5q0 -36 -26.5 -62.5t-62.5 -26.5zM393 -15q-158 0 -261.5 104.5t-103.5 260.5t103.5 260.5t261.5 104.5q95 0 176 -45t127 -121l-155 -89q-20 37 -59.5 58.5t-88.5 21.5
q-84 0 -135.5 -52.5t-51.5 -137.5t51.5 -137.5t135.5 -52.5q49 0 88.5 21.5t59.5 59.5l155 -90q-46 -77 -126.5 -121.5t-176.5 -44.5z" />
    <glyph glyph-name="cdotaccent" unicode="&#x10b;" horiz-adv-x="528" 
d="M291 548q-37 0 -63.5 26.5t-26.5 62.5q0 37 26.5 63.5t63.5 26.5q36 0 62.5 -26.5t26.5 -63.5q0 -36 -26.5 -62.5t-62.5 -26.5zM290 -14q-114 0 -190 76t-76 188t76 188t190 76q74 0 134.5 -35t93.5 -94l-142 -82q-27 49 -87 49q-42 0 -70 -28.5t-28 -73.5t28 -73.5
t70 -28.5q62 0 87 50l142 -82q-33 -60 -93.5 -95t-134.5 -35z" />
    <glyph glyph-name="Ccaron" unicode="&#x10c;" horiz-adv-x="719" 
d="M305 755l-106 155h150l40 -56l39 56h150l-106 -155h-167zM393 160q49 0 88.5 21.5t59.5 59.5l155 -90q-46 -77 -126.5 -121.5t-176.5 -44.5q-158 0 -261.5 104.5t-103.5 260.5t103.5 260.5t261.5 104.5q95 0 176 -45t127 -121l-155 -89q-20 37 -59.5 58.5t-88.5 21.5
q-84 0 -135.5 -52.5t-51.5 -137.5t51.5 -137.5t135.5 -52.5z" />
    <glyph glyph-name="ccaron" unicode="&#x10d;" horiz-adv-x="528" 
d="M203 550l-106 155h150l40 -56l39 56h150l-106 -155h-167zM289 148q62 0 87 50l142 -82q-33 -60 -93.5 -95t-134.5 -35q-114 0 -190 76t-76 188t76 188t190 76q74 0 134.5 -35t93.5 -94l-142 -82q-27 49 -87 49q-42 0 -70 -28.5t-28 -73.5t28 -73.5t70 -28.5z" />
    <glyph glyph-name="Dcaron" unicode="&#x10e;" horiz-adv-x="708" 
d="M242 745l-106 155h150l40 -56l39 56h150l-106 -155h-167zM340 700q145 0 242.5 -100.5t97.5 -249.5t-97.5 -249.5t-242.5 -100.5h-285v700h285zM340 173q73 0 119 48.5t46 128.5t-46 128.5t-119 48.5h-101v-354h101z" />
    <glyph glyph-name="dcaron" unicode="&#x10f;" horiz-adv-x="755" 
d="M401 454v246h166v-700h-166v46q-51 -60 -142 -60q-100 0 -167.5 75.5t-67.5 188.5t67.5 188.5t167.5 75.5q91 0 142 -60zM616 700h154l-35 -219h-129zM296 141q47 0 76 30t29 79t-29 79t-76 30t-76 -30t-29 -79t29 -79t76 -30z" />
    <glyph glyph-name="Dcroat" unicode="&#x110;" horiz-adv-x="738" 
d="M371 700q145 0 242.5 -100.5t97.5 -249.5t-97.5 -249.5t-242.5 -100.5h-285v263h-76v158h76v279h285zM371 173q73 0 119 48.5t46 128.5t-46 128.5t-119 48.5h-101v-106h130v-158h-130v-90h101z" />
    <glyph glyph-name="dcroat" unicode="&#x111;" horiz-adv-x="625" 
d="M625 642v-105h-58v-537h-166v41q-50 -55 -138 -55q-100 0 -169.5 75t-69.5 184t69.5 184.5t169.5 75.5q88 0 138 -55v87h-136v105h136v58h166v-58h58zM296 139q46 0 75.5 29.5t29.5 76.5t-29.5 77t-75.5 30t-75.5 -30t-29.5 -77t29.5 -76.5t75.5 -29.5z" />
    <glyph glyph-name="Emacron" unicode="&#x112;" horiz-adv-x="535" 
d="M432 884v-130h-309v130h309zM234 168h271v-168h-450v700h445v-167h-266v-97h241v-165h-241v-103z" />
    <glyph glyph-name="emacron" unicode="&#x113;" horiz-adv-x="571" 
d="M444 691v-130h-309v130h309zM196 189q25 -61 112 -61q54 0 91 35l120 -84q-74 -93 -215 -93q-127 0 -203.5 74.5t-76.5 188.5q0 113 75 189t191 76q112 0 185 -75t73 -188q0 -33 -7 -62h-345zM194 304h192q-20 70 -94 70q-77 0 -98 -70z" />
    <glyph glyph-name="Edotaccent" unicode="&#x116;" horiz-adv-x="535" 
d="M278 743q-37 0 -63.5 26.5t-26.5 62.5q0 37 26.5 63.5t63.5 26.5q36 0 62.5 -26.5t26.5 -63.5q0 -36 -26.5 -62.5t-62.5 -26.5zM234 168h271v-168h-450v700h445v-167h-266v-97h241v-165h-241v-103z" />
    <glyph glyph-name="edotaccent" unicode="&#x117;" horiz-adv-x="571" 
d="M290 550q-37 0 -63.5 26.5t-26.5 62.5q0 37 26.5 63.5t63.5 26.5q36 0 62.5 -26.5t26.5 -63.5q0 -36 -26.5 -62.5t-62.5 -26.5zM196 189q25 -61 112 -61q54 0 91 35l120 -84q-74 -93 -215 -93q-127 0 -203.5 74.5t-76.5 188.5q0 113 75 189t191 76q112 0 185 -75t73 -188
q0 -33 -7 -62h-345zM194 304h192q-20 70 -94 70q-77 0 -98 -70z" />
    <glyph glyph-name="Eogonek" unicode="&#x118;" horiz-adv-x="535" 
d="M505 0q-43 -46 -43 -78q-2 -23 22 -23q5 -1 21 3v-99q-42 -17 -88 -17t-75.5 23t-29.5 68q0 58 62 123h-319v700h445v-167h-266v-97h241v-165h-241v-103h271v-168z" />
    <glyph glyph-name="eogonek" unicode="&#x119;" horiz-adv-x="571" 
d="M196 189q25 -61 112 -61q54 0 91 35l120 -84q-17 -21 -32 -33q-70 -87 -70 -124q0 -23 22 -23q5 -1 21 3v-99q-42 -17 -88 -17t-75.5 23t-29.5 68q0 56 70 110q-11 -1 -33 -1q-127 0 -203.5 74.5t-76.5 188.5q0 113 75 189t191 76q112 0 185 -75t73 -188q0 -33 -7 -62
h-345zM194 304h192q-20 70 -94 70q-77 0 -98 -70z" />
    <glyph glyph-name="Ecaron" unicode="&#x11a;" horiz-adv-x="535" 
d="M190 745l-106 155h150l40 -56l39 56h150l-106 -155h-167zM234 168h271v-168h-450v700h445v-167h-266v-97h241v-165h-241v-103z" />
    <glyph glyph-name="ecaron" unicode="&#x11b;" horiz-adv-x="571" 
d="M202 552l-106 155h150l40 -56l39 56h150l-106 -155h-167zM196 189q25 -61 112 -61q54 0 91 35l120 -84q-74 -93 -215 -93q-127 0 -203.5 74.5t-76.5 188.5q0 113 75 189t191 76q112 0 185 -75t73 -188q0 -33 -7 -62h-345zM194 304h192q-20 70 -94 70q-77 0 -98 -70z" />
    <glyph glyph-name="Gbreve" unicode="&#x11e;" horiz-adv-x="778" 
d="M395 747q-87 0 -133 41t-46 119h140q0 -44 39 -44q40 0 40 44h140q0 -78 -46.5 -119t-133.5 -41zM750 401v-71q0 -154 -96.5 -249.5t-250.5 -95.5q-164 0 -269.5 105t-105.5 259t105 260t260 106q98 0 179.5 -44t127.5 -117l-152 -87q-21 33 -61.5 53t-91.5 20
q-83 0 -136 -54t-53 -138q0 -81 52.5 -137t147.5 -56q122 0 161 92h-170v154h353z" />
    <glyph glyph-name="gbreve" unicode="&#x11f;" horiz-adv-x="618" 
d="M300 547q-86 0 -132.5 41t-46.5 119h140q0 -44 39 -44q40 0 40 44h140q0 -78 -46.5 -119t-133.5 -41zM406 500h164v-480q0 -60 -22.5 -106.5t-60.5 -74t-83.5 -41t-96.5 -13.5q-83 0 -148 31t-98 91l138 80q36 -57 106 -57q45 0 73 23t28 67v48q-51 -62 -140 -62
q-103 0 -170.5 74t-67.5 180t67.5 180t170.5 74q89 0 140 -62v48zM300 156q47 0 76.5 29.5t29.5 74.5t-29.5 74.5t-76.5 29.5t-76.5 -29.5t-29.5 -74.5t29.5 -74.5t76.5 -29.5z" />
    <glyph glyph-name="Gdotaccent" unicode="&#x120;" horiz-adv-x="778" 
d="M395 753q-37 0 -63.5 26.5t-26.5 62.5q0 37 26.5 63.5t63.5 26.5q36 0 62.5 -26.5t26.5 -63.5q0 -36 -26.5 -62.5t-62.5 -26.5zM750 401v-71q0 -154 -96.5 -249.5t-250.5 -95.5q-164 0 -269.5 105t-105.5 259t105 260t260 106q98 0 179.5 -44t127.5 -117l-152 -87
q-21 33 -61.5 53t-91.5 20q-83 0 -136 -54t-53 -138q0 -81 52.5 -137t147.5 -56q122 0 161 92h-170v154h353z" />
    <glyph glyph-name="gdotaccent" unicode="&#x121;" horiz-adv-x="618" 
d="M300 553q-37 0 -63.5 26.5t-26.5 62.5q0 37 26.5 63.5t63.5 26.5q36 0 62.5 -26.5t26.5 -63.5q0 -36 -26.5 -62.5t-62.5 -26.5zM406 500h164v-480q0 -60 -22.5 -106.5t-60.5 -74t-83.5 -41t-96.5 -13.5q-83 0 -148 31t-98 91l138 80q36 -57 106 -57q45 0 73 23t28 67v48
q-51 -62 -140 -62q-103 0 -170.5 74t-67.5 180t67.5 180t170.5 74q89 0 140 -62v48zM300 156q47 0 76.5 29.5t29.5 74.5t-29.5 74.5t-76.5 29.5t-76.5 -29.5t-29.5 -74.5t29.5 -74.5t76.5 -29.5z" />
    <glyph glyph-name="Gcommaaccent" unicode="&#x122;" horiz-adv-x="778" 
d="M750 401v-71q0 -154 -96.5 -249.5t-250.5 -95.5q-164 0 -269.5 105t-105.5 259t105 260t260 106q98 0 179.5 -44t127.5 -117l-152 -87q-21 33 -61.5 53t-91.5 20q-83 0 -136 -54t-53 -138q0 -81 52.5 -137t147.5 -56q122 0 161 92h-170v154h353zM319 -277l10 220h154
l-35 -220h-129z" />
    <glyph glyph-name="gcommaaccent" unicode="&#x123;" horiz-adv-x="618" 
d="M375 795l-10 -220h-154l35 220h129zM406 500h164v-480q0 -60 -22.5 -106.5t-60.5 -74t-83.5 -41t-96.5 -13.5q-83 0 -148 31t-98 91l138 80q36 -57 106 -57q45 0 73 23t28 67v48q-51 -62 -140 -62q-103 0 -170.5 74t-67.5 180t67.5 180t170.5 74q89 0 140 -62v48z
M300 156q47 0 76.5 29.5t29.5 74.5t-29.5 74.5t-76.5 29.5t-76.5 -29.5t-29.5 -74.5t29.5 -74.5t76.5 -29.5z" />
    <glyph glyph-name="Hbar" unicode="&#x126;" horiz-adv-x="705" 
d="M689 608v-130h-60v-478h-178v220h-197v-220h-179v478h-60v130h60v92h179v-92h197v92h178v-92h60zM451 393v85h-197v-85h197z" />
    <glyph glyph-name="hbar" unicode="&#x127;" 
d="M363 502q80 0 132 -55.5t52 -159.5v-287h-166v266q0 39 -21 59.5t-55 20.5q-38 0 -59.5 -23.5t-21.5 -68.5v-254h-166v537h-58v105h58v58h166v-58h135v-105h-135v-98q44 63 139 63z" />
    <glyph glyph-name="Imacron" unicode="&#x12a;" horiz-adv-x="289" 
d="M-10 754v130h309v-130h-309zM55 700h179v-700h-179v700z" />
    <glyph glyph-name="imacron" unicode="&#x12b;" horiz-adv-x="262" 
d="M2 554v135h259v-135h-259zM48 0v500h166v-500h-166z" />
    <glyph glyph-name="Iogonek" unicode="&#x12e;" horiz-adv-x="289" 
d="M221 -101q5 -1 21 3v-99q-42 -17 -88 -17t-75.5 23t-29.5 68q0 59 54 123h-48v700h179v-700q-35 -45 -35 -78q0 -23 22 -23z" />
    <glyph glyph-name="iogonek" unicode="&#x12f;" horiz-adv-x="262" 
d="M131 541q-39 0 -67.5 28.5t-28.5 67.5t28.5 67t67.5 28t67.5 -28t28.5 -67t-28.5 -67.5t-67.5 -28.5zM204 -101q5 -1 21 3v-99q-42 -17 -88 -17t-75.5 23t-29.5 68q0 60 44 123h-28v500h166v-500q-32 -46 -32 -78q0 -23 22 -23z" />
    <glyph glyph-name="Idotaccent" unicode="&#x130;" horiz-adv-x="289" 
d="M145 743q-37 0 -63.5 26.5t-26.5 62.5q0 37 26.5 63.5t63.5 26.5q36 0 62.5 -26.5t26.5 -63.5q0 -36 -26.5 -62.5t-62.5 -26.5zM55 700h179v-700h-179v700z" />
    <glyph glyph-name="dotlessi" unicode="&#x131;" horiz-adv-x="262" 
d="M48 0v500h166v-500h-166z" />
    <glyph glyph-name="Kcommaaccent" unicode="&#x136;" horiz-adv-x="631" 
d="M403 360l232 -360h-200l-201 313v-313h-179v700h179v-294l191 294h200zM231 -277l10 220h154l-35 -220h-129z" />
    <glyph glyph-name="kcommaaccent" unicode="&#x137;" horiz-adv-x="542" 
d="M214 213v-213h-166v700h166v-409l129 209h192l-168 -250l175 -250h-186zM204 -277l10 220h154l-35 -220h-129z" />
    <glyph glyph-name="Lacute" unicode="&#x139;" horiz-adv-x="485" 
d="M327 900l-116 -145h-158l80 145h194zM234 173h241v-173h-420v700h179v-527z" />
    <glyph glyph-name="lacute" unicode="&#x13a;" horiz-adv-x="262" 
d="M47 760h158l116 145h-194zM48 0v730h166v-730h-166z" />
    <glyph glyph-name="Lcommaaccent" unicode="&#x13b;" horiz-adv-x="485" 
d="M234 173h241v-173h-420v700h179v-527zM187 -277l10 220h154l-35 -220h-129z" />
    <glyph glyph-name="lcommaaccent" unicode="&#x13c;" horiz-adv-x="262" 
d="M48 0v730h166v-730h-166zM174 -277l35 220h-154l-10 -220h129z" />
    <glyph glyph-name="Lcaron" unicode="&#x13d;" horiz-adv-x="485" 
d="M234 173h241v-173h-420v700h179v-527zM454 700l-34 -199h-140l10 199h164z" />
    <glyph glyph-name="lcaron" unicode="&#x13e;" horiz-adv-x="400" 
d="M48 0v730h166v-730h-166zM380 511l34 219h-154l-10 -219h130z" />
    <glyph glyph-name="Lslash" unicode="&#x141;" horiz-adv-x="505" 
d="M254 173h241v-173h-420v198l-60 -35v177l60 35v325h179v-222l120 70v-177l-120 -70v-128z" />
    <glyph glyph-name="lslash" unicode="&#x142;" horiz-adv-x="279" 
d="M274 507v-157l-51 -32v-318h-166v212l-52 -33v157l52 33v361h166v-255z" />
    <glyph glyph-name="Nacute" unicode="&#x143;" horiz-adv-x="675" 
d="M226 755h158l116 145h-194zM441 700h178v-700h-138l-247 352v-352h-179v700h139l247 -352v352z" />
    <glyph glyph-name="nacute" unicode="&#x144;" horiz-adv-x="579" 
d="M473 710l-116 -145h-158l80 145h194zM353 514q81 0 132.5 -55.5t51.5 -159.5v-299h-166v278q0 39 -20.5 59t-54.5 20q-39 0 -60.5 -23.5t-21.5 -67.5v-266h-166v500h166v-50q45 64 139 64z" />
    <glyph glyph-name="Ncommaaccent" unicode="&#x145;" horiz-adv-x="675" 
d="M441 700h178v-700h-138l-247 352v-352h-179v700h139l247 -352v352zM393 -277l35 220h-154l-10 -220h129z" />
    <glyph glyph-name="ncommaaccent" unicode="&#x146;" horiz-adv-x="579" 
d="M353 514q81 0 132.5 -55.5t51.5 -159.5v-299h-166v278q0 39 -20.5 59t-54.5 20q-39 0 -60.5 -23.5t-21.5 -67.5v-266h-166v500h166v-50q45 64 139 64zM215 -277l10 220h154l-35 -220h-129z" />
    <glyph glyph-name="Ncaron" unicode="&#x147;" horiz-adv-x="675" 
d="M237 745l-106 155h150l40 -56l39 56h150l-106 -155h-167zM441 700h178v-700h-138l-247 352v-352h-179v700h139l247 -352v352z" />
    <glyph glyph-name="ncaron" unicode="&#x148;" horiz-adv-x="579" 
d="M210 555l-106 155h150l40 -56l39 56h150l-106 -155h-167zM353 514q81 0 132.5 -55.5t51.5 -159.5v-299h-166v278q0 39 -20.5 59t-54.5 20q-39 0 -60.5 -23.5t-21.5 -67.5v-266h-166v500h166v-50q45 64 139 64z" />
    <glyph glyph-name="Eng" unicode="&#x14a;" horiz-adv-x="675" 
d="M441 700h178v-700q0 -222 -244 -207v154q37 -2 55 12t18 46v42l-214 305v-352h-179v700h139l247 -352v352z" />
    <glyph glyph-name="eng" unicode="&#x14b;" horiz-adv-x="579" 
d="M353 514q81 0 132.5 -55.5t51.5 -159.5v-299q0 -225 -224 -209v150q29 -2 43.5 11.5t14.5 47.5v278q0 39 -20.5 59t-54.5 20q-39 0 -60.5 -23.5t-21.5 -67.5v-266h-166v500h166v-50q45 64 139 64z" />
    <glyph glyph-name="Omacron" unicode="&#x14c;" horiz-adv-x="790" 
d="M240 764v130h309v-130h-309zM395 -15q-154 0 -260.5 105.5t-106.5 259.5t106.5 259.5t260.5 105.5t260.5 -105.5t106.5 -259.5t-106.5 -259.5t-260.5 -105.5zM395 160q81 0 135 53.5t54 136.5t-54 136.5t-135 53.5t-135 -53.5t-54 -136.5t54 -136.5t135 -53.5z" />
    <glyph glyph-name="omacron" unicode="&#x14d;" horiz-adv-x="583" 
d="M136 564v130h309v-130h-309zM291 -14q-111 0 -189 76.5t-78 187.5t78 187.5t189 76.5q112 0 189.5 -76.5t77.5 -187.5t-77.5 -187.5t-189.5 -76.5zM291 146q44 0 72.5 29t28.5 75t-28.5 75t-72.5 29q-43 0 -71.5 -29t-28.5 -75t28.5 -75t71.5 -29z" />
    <glyph glyph-name="Ohungarumlaut" unicode="&#x150;" horiz-adv-x="790" 
d="M196 755h157l86 150h-163zM388 755h158l96 150h-164zM395 -15q-154 0 -260.5 105.5t-106.5 259.5t106.5 259.5t260.5 105.5t260.5 -105.5t106.5 -259.5t-106.5 -259.5t-260.5 -105.5zM395 160q81 0 135 53.5t54 136.5t-54 136.5t-135 53.5t-135 -53.5t-54 -136.5
t54 -136.5t135 -53.5z" />
    <glyph glyph-name="ohungarumlaut" unicode="&#x151;" horiz-adv-x="583" 
d="M92 555h157l86 150h-163zM284 555h158l96 150h-164zM291 -14q-111 0 -189 76.5t-78 187.5t78 187.5t189 76.5q112 0 189.5 -76.5t77.5 -187.5t-77.5 -187.5t-189.5 -76.5zM291 146q44 0 72.5 29t28.5 75t-28.5 75t-72.5 29q-43 0 -71.5 -29t-28.5 -75t28.5 -75t71.5 -29z
" />
    <glyph glyph-name="OE" unicode="&#x152;" horiz-adv-x="934" 
d="M674 168h230v-168h-409q-51 -15 -105 -15q-153 0 -257.5 105.5t-104.5 259.5t104.5 259.5t257.5 105.5q54 0 105 -15h404v-167h-225v-97h200v-165h-200v-103zM495 178v344q-45 18 -105 18q-81 0 -132.5 -53t-51.5 -137t51.5 -137t132.5 -53q60 0 105 18z" />
    <glyph glyph-name="oe" unicode="&#x153;" horiz-adv-x="937" 
d="M562 189q26 -61 109 -61q57 0 94 35l120 -84q-74 -93 -215 -93q-127 0 -196 90q-66 -90 -190 -90q-112 0 -186 77.5t-74 185.5q0 109 73.5 187t186.5 78q122 0 190 -89q70 89 195 89q106 0 175.5 -75t69.5 -188q0 -33 -7 -62h-345zM560 305h192q-19 69 -93 69
q-77 0 -99 -69zM291 146q44 0 72.5 29t28.5 75t-28.5 75t-72.5 29q-43 0 -71.5 -29t-28.5 -75t28.5 -75t71.5 -29z" />
    <glyph glyph-name="Racute" unicode="&#x154;" horiz-adv-x="620" 
d="M465 900l-116 -145h-158l80 145h194zM420 0l-122 225h-64v-225h-179v700h280q107 0 179.5 -68.5t72.5 -174.5q0 -63 -32 -115.5t-87 -82.5l144 -259h-192zM234 534v-157h99q33 0 54 22t21 56q0 35 -21 57t-54 22h-99z" />
    <glyph glyph-name="racute" unicode="&#x155;" horiz-adv-x="379" 
d="M370 700l-116 -145h-158l80 145h194zM214 407q14 49 56 76t94 27v-184q-57 9 -103.5 -21t-46.5 -98v-207h-166v500h166v-93z" />
    <glyph glyph-name="Rcommaaccent" unicode="&#x156;" horiz-adv-x="620" 
d="M468 259l144 -259h-192l-122 225h-64v-225h-179v700h280q107 0 179.5 -68.5t72.5 -174.5q0 -63 -32 -115.5t-87 -82.5zM234 534v-157h99q33 0 54 22t21 56q0 35 -21 57t-54 22h-99zM242 -277l10 220h154l-35 -220h-129z" />
    <glyph glyph-name="rcommaaccent" unicode="&#x157;" horiz-adv-x="379" 
d="M214 407q14 49 56 76t94 27v-184q-57 9 -103.5 -21t-46.5 -98v-207h-166v500h166v-93zM44 -277l10 220h154l-35 -220h-129z" />
    <glyph glyph-name="Rcaron" unicode="&#x158;" horiz-adv-x="620" 
d="M202 745l-106 155h150l40 -56l39 56h150l-106 -155h-167zM420 0l-122 225h-64v-225h-179v700h280q107 0 179.5 -68.5t72.5 -174.5q0 -63 -32 -115.5t-87 -82.5l144 -259h-192zM234 534v-157h99q33 0 54 22t21 56q0 35 -21 57t-54 22h-99z" />
    <glyph glyph-name="rcaron" unicode="&#x159;" horiz-adv-x="379" 
d="M107 545l-106 155h150l40 -56l39 56h150l-106 -155h-167zM214 407q14 49 56 76t94 27v-184q-57 9 -103.5 -21t-46.5 -98v-207h-166v500h166v-93z" />
    <glyph glyph-name="Sacute" unicode="&#x15a;" horiz-adv-x="585" 
d="M192 765h158l116 145h-194zM304 -15q-111 0 -184 47t-102 127l153 89q39 -93 138 -93q82 0 82 47q0 31 -47 50q-20 8 -88 27q-96 28 -152 78.5t-56 140.5q0 97 69.5 157t173.5 60q88 0 156 -41t104 -119l-150 -88q-33 78 -109 78q-32 0 -48.5 -13t-16.5 -33
q0 -23 24.5 -39t95.5 -37q51 -15 82 -28t68 -37.5t55 -63t18 -90.5q0 -103 -73 -161t-193 -58z" />
    <glyph glyph-name="sacute" unicode="&#x15b;" horiz-adv-x="475" 
d="M410 710l-116 -145h-158l80 145h194zM207 354q0 -14 25.5 -23t62 -17t73 -22.5t62 -49.5t25.5 -88q0 -86 -64 -127t-152 -41q-168 0 -224 119l145 73q19 -55 78 -55q45 0 45 27q0 14 -25 23t-61 18t-72 24t-61 48.5t-25 82.5q0 80 59 124t142 44q148 0 206 -116l-140 -63
q-22 43 -62 43q-37 0 -37 -24z" />
    <glyph glyph-name="Scedilla" unicode="&#x15e;" horiz-adv-x="585" 
d="M570 204q0 -86 -52 -141.5t-142 -71.5v-37q22 -7 40 -26t18 -51q0 -112 -234 -98v109q95 -7 95 14q0 15 -53 20v67q-85 12 -142 57t-82 113l153 89q39 -93 138 -93q82 0 82 47q0 31 -47 50q-20 8 -88 27q-96 28 -152 78.5t-56 140.5q0 97 69.5 157t173.5 60q88 0 156 -41
t104 -119l-150 -88q-33 78 -109 78q-32 0 -48.5 -13t-16.5 -33q0 -23 24.5 -39t95.5 -37q51 -15 82 -28t68 -37.5t55 -63t18 -90.5z" />
    <glyph glyph-name="scedilla" unicode="&#x15f;" horiz-adv-x="475" 
d="M455 154q0 -65 -37.5 -104t-97.5 -54v-42q22 -7 40 -26t18 -51q0 -112 -234 -98v109q95 -7 95 14q0 15 -53 20v67q-124 17 -171 116l145 73q19 -55 78 -55q45 0 45 27q0 14 -25 23t-61 18t-72 24t-61 48.5t-25 82.5q0 80 59 124t142 44q148 0 206 -116l-140 -63
q-22 43 -62 43q-37 0 -37 -24q0 -14 25.5 -23t62 -17t73 -22.5t62 -49.5t25.5 -88z" />
    <glyph glyph-name="Scaron" unicode="&#x160;" horiz-adv-x="585" 
d="M203 755l-106 155h150l40 -56l39 56h150l-106 -155h-167zM347 423q51 -15 82 -28t68 -37.5t55 -63t18 -90.5q0 -103 -73 -161t-193 -58q-111 0 -184 47t-102 127l153 89q39 -93 138 -93q82 0 82 47q0 31 -47 50q-20 8 -88 27q-96 28 -152 78.5t-56 140.5q0 97 69.5 157
t173.5 60q88 0 156 -41t104 -119l-150 -88q-33 78 -109 78q-32 0 -48.5 -13t-16.5 -33q0 -23 24.5 -39t95.5 -37z" />
    <glyph glyph-name="scaron" unicode="&#x161;" horiz-adv-x="475" 
d="M147 555l-106 155h150l40 -56l39 56h150l-106 -155h-167zM207 354q0 -14 25.5 -23t62 -17t73 -22.5t62 -49.5t25.5 -88q0 -86 -64 -127t-152 -41q-168 0 -224 119l145 73q19 -55 78 -55q45 0 45 27q0 14 -25 23t-61 18t-72 24t-61 48.5t-25 82.5q0 80 59 124t142 44
q148 0 206 -116l-140 -63q-22 43 -62 43q-37 0 -37 -24z" />
    <glyph glyph-name="uni0162" unicode="&#x162;" horiz-adv-x="545" 
d="M535 700v-173h-173v-527h-179v527h-173v173h525zM188 -277l10 220h154l-35 -220h-129z" />
    <glyph glyph-name="uni0163" unicode="&#x163;" horiz-adv-x="394" 
d="M358 341h-104v-145q0 -33 24 -41t80 -5v-150q-149 -18 -209.5 27.5t-60.5 164.5v149h-75v159h75v90l166 50v-140h104v-159zM146 -272l10 220h154l-35 -220h-129z" />
    <glyph glyph-name="Tcaron" unicode="&#x164;" horiz-adv-x="545" 
d="M184 745l-106 155h150l40 -56l39 56h150l-106 -155h-167zM535 700v-173h-173v-527h-179v527h-173v173h525z" />
    <glyph glyph-name="tcaron" unicode="&#x165;" horiz-adv-x="430" 
d="M301 726h149l-35 -190h-124zM254 640v-140h104v-159h-104v-145q0 -33 24 -41t80 -5v-150q-149 -18 -209.5 27.5t-60.5 164.5v149h-75v159h75v90z" />
    <glyph glyph-name="Tbar" unicode="&#x166;" horiz-adv-x="545" 
d="M535 527h-173v-115h105v-158h-105v-254h-179v254h-105v158h105v115h-173v173h525v-173z" />
    <glyph glyph-name="tbar" unicode="&#x167;" horiz-adv-x="394" 
d="M358 355h-104v-41h73v-120h-73q0 -22 12.5 -32.5t35.5 -12t56 0.5v-150q-149 -18 -209.5 27.5t-60.5 164.5v2h-50v120h50v41h-75v145h75v90l166 50v-140h104v-145z" />
    <glyph glyph-name="Umacron" unicode="&#x16a;" horiz-adv-x="650" 
d="M170 754v130h309v-130h-309zM325 -15q-122 0 -199.5 67t-77.5 178v470h179v-453q0 -88 98 -88t98 88v453h179v-470q0 -111 -77.5 -178t-199.5 -67z" />
    <glyph glyph-name="umacron" unicode="&#x16b;" horiz-adv-x="579" 
d="M441 684v-130h-309v130h309zM365 500h166v-500h-166v50q-45 -64 -139 -64q-81 0 -132.5 55.5t-51.5 159.5v299h166v-278q0 -39 20.5 -59t54.5 -20q39 0 60.5 23.5t21.5 67.5v266z" />
    <glyph glyph-name="Uring" unicode="&#x16e;" horiz-adv-x="650" 
d="M325 708q-61 0 -100.5 37.5t-39.5 94.5t39.5 94.5t100.5 37.5q63 0 102 -37.5t39 -94.5q0 -58 -39 -95t-102 -37zM325 808q34 0 34 32t-34 32q-15 0 -24 -9t-9 -23t9 -23t24 -9zM325 -15q-122 0 -199.5 67t-77.5 178v470h179v-453q0 -88 98 -88t98 88v453h179v-470
q0 -111 -77.5 -178t-199.5 -67z" />
    <glyph glyph-name="uring" unicode="&#x16f;" horiz-adv-x="579" 
d="M287 533q-61 0 -100.5 37.5t-39.5 94.5t39.5 94.5t100.5 37.5q63 0 102 -37.5t39 -94.5q0 -58 -39 -95t-102 -37zM287 697q-15 0 -24 -9t-9 -23t9 -23t24 -9q34 0 34 32t-34 32zM365 500h166v-500h-166v50q-45 -64 -139 -64q-81 0 -132.5 55.5t-51.5 159.5v299h166v-278
q0 -39 20.5 -59t54.5 -20q39 0 60.5 23.5t21.5 67.5v266z" />
    <glyph glyph-name="Uhungarumlaut" unicode="&#x170;" horiz-adv-x="650" 
d="M126 745h157l86 150h-163zM318 745h158l96 150h-164zM325 -15q-122 0 -199.5 67t-77.5 178v470h179v-453q0 -88 98 -88t98 88v453h179v-470q0 -111 -77.5 -178t-199.5 -67z" />
    <glyph glyph-name="uhungarumlaut" unicode="&#x171;" horiz-adv-x="579" 
d="M331 695l-86 -150h-157l80 150h163zM438 545h-158l90 150h164zM365 234v266h166v-500h-166v50q-45 -64 -139 -64q-81 0 -132.5 55.5t-51.5 159.5v299h166v-278q0 -39 20.5 -59t54.5 -20q39 0 60.5 23.5t21.5 67.5z" />
    <glyph glyph-name="Uogonek" unicode="&#x172;" horiz-adv-x="650" 
d="M423 700h179v-470q0 -122 -92 -190q-45 -41 -62.5 -67t-18.5 -51q-1 -21 21 -23q7 -1 21 3v-99q-42 -17 -88 -17t-75 23t-29 68q0 50 48 108h-2q-122 0 -199.5 67t-77.5 178v470h179v-453q0 -88 98 -88t98 88v453z" />
    <glyph glyph-name="uogonek" unicode="&#x173;" horiz-adv-x="579" 
d="M531 0q-42 -46 -42 -78q-2 -23 21 -23q7 -1 21 3v-99q-42 -17 -88 -17t-75 23t-29 68q0 59 61 123h-35v50q-45 -64 -139 -64q-81 0 -132.5 55.5t-51.5 159.5v299h166v-278q0 -39 20.5 -59t54.5 -20q39 0 60.5 23.5t21.5 67.5v266h166v-500z" />
    <glyph glyph-name="Wcircumflex" unicode="&#x174;" horiz-adv-x="1004" 
d="M530 801l-40 -56h-150l106 155h167l106 -155h-150zM806 700h192l-195 -700h-189l-112 395l-112 -395h-189l-196 700h193l108 -441l125 441h141l125 -441z" />
    <glyph glyph-name="wcircumflex" unicode="&#x175;" horiz-adv-x="798" 
d="M395 601l-40 -56h-150l106 155h167l106 -155h-150zM610 500h176l-153 -500h-162l-72 254l-72 -254h-162l-153 500h176l66 -272l75 272h140l75 -272z" />
    <glyph glyph-name="Ycircumflex" unicode="&#x176;" horiz-adv-x="651" 
d="M321 801l-40 -56h-150l106 155h167l106 -155h-150zM651 700l-236 -431v-269h-179v267l-236 433h201l124 -259l125 259h201z" />
    <glyph glyph-name="ycircumflex" unicode="&#x177;" horiz-adv-x="549" 
d="M274 601l-40 -56h-150l106 155h167l106 -155h-150zM365 500h184l-171 -492q-40 -113 -113 -163t-189 -45v156q53 0 80 13t44 47l-200 484h186l101 -290z" />
    <glyph glyph-name="Ydieresis" unicode="&#x178;" horiz-adv-x="651" 
d="M228 735q-33 0 -56.5 23.5t-23.5 56.5t23.5 56.5t56.5 23.5q32 0 55.5 -23.5t23.5 -56.5t-23.5 -56.5t-55.5 -23.5zM422 735q-32 0 -55.5 23.5t-23.5 56.5t23.5 56.5t55.5 23.5q33 0 56.5 -23.5t23.5 -56.5t-23.5 -56.5t-56.5 -23.5zM651 700l-236 -431v-269h-179v267
l-236 433h201l124 -259l125 259h201z" />
    <glyph glyph-name="Zacute" unicode="&#x179;" horiz-adv-x="542" 
d="M453 900l-116 -145h-158l80 145h194zM265 173h255v-173h-487v138l247 389h-242v173h474v-138z" />
    <glyph glyph-name="zacute" unicode="&#x17a;" horiz-adv-x="484" 
d="M420 700l-116 -145h-158l80 145h194zM262 154h187v-154h-409v114l177 232h-167v154h389v-114z" />
    <glyph glyph-name="Zdotaccent" unicode="&#x17b;" horiz-adv-x="542" 
d="M278 743q-37 0 -63.5 26.5t-26.5 62.5q0 37 26.5 63.5t63.5 26.5q36 0 62.5 -26.5t26.5 -63.5q0 -36 -26.5 -62.5t-62.5 -26.5zM265 173h255v-173h-487v138l247 389h-242v173h474v-138z" />
    <glyph glyph-name="zdotaccent" unicode="&#x17c;" horiz-adv-x="484" 
d="M245 543q-37 0 -63.5 26.5t-26.5 62.5q0 37 26.5 63.5t63.5 26.5q36 0 62.5 -26.5t26.5 -63.5q0 -36 -26.5 -62.5t-62.5 -26.5zM262 154h187v-154h-409v114l177 232h-167v154h389v-114z" />
    <glyph glyph-name="Zcaron" unicode="&#x17d;" horiz-adv-x="542" 
d="M190 745l-106 155h150l40 -56l39 56h150l-106 -155h-167zM265 173h255v-173h-487v138l247 389h-242v173h474v-138z" />
    <glyph glyph-name="zcaron" unicode="&#x17e;" horiz-adv-x="484" 
d="M157 545l-106 155h150l40 -56l39 56h150l-106 -155h-167zM262 154h187v-154h-409v114l177 232h-167v154h389v-114z" />
    <glyph glyph-name="florin" unicode="&#x192;" horiz-adv-x="461" 
d="M189 537q19 112 93.5 152.5t178.5 16.5v-164q-29 16 -61.5 2t-38.5 -54l-10 -59h74v-159h-101l-52 -303q-19 -112 -93.5 -152.5t-178.5 -16.5v164q29 -16 61 -2t39 54l44 256h-68v159h95z" />
    <glyph glyph-name="Scommaaccent" unicode="&#x218;" horiz-adv-x="585" 
d="M304 -15q-111 0 -184 47t-102 127l153 89q39 -93 138 -93q82 0 82 47q0 31 -47 50q-20 8 -88 27q-96 28 -152 78.5t-56 140.5q0 97 69.5 157t173.5 60q88 0 156 -41t104 -119l-150 -88q-33 78 -109 78q-32 0 -48.5 -13t-16.5 -33q0 -23 24.5 -39t95.5 -37q51 -15 82 -28
t68 -37.5t55 -63t18 -90.5q0 -103 -73 -161t-193 -58zM357 -277l35 220h-154l-10 -220h129z" />
    <glyph glyph-name="scommaaccent" unicode="&#x219;" horiz-adv-x="475" 
d="M207 354q0 -14 25.5 -23t62 -17t73 -22.5t62 -49.5t25.5 -88q0 -86 -64 -127t-152 -41q-168 0 -224 119l145 73q19 -55 78 -55q45 0 45 27q0 14 -25 23t-61 18t-72 24t-61 48.5t-25 82.5q0 80 59 124t142 44q148 0 206 -116l-140 -63q-22 43 -62 43q-37 0 -37 -24z
M172 -277l10 220h154l-35 -220h-129z" />
    <glyph glyph-name="uni021A" unicode="&#x21a;" horiz-adv-x="545" 
d="M535 700v-173h-173v-527h-179v527h-173v173h525zM188 -277l10 220h154l-35 -220h-129z" />
    <glyph glyph-name="uni021B" unicode="&#x21b;" horiz-adv-x="394" 
d="M358 341h-104v-145q0 -33 24 -41t80 -5v-150q-149 -18 -209.5 27.5t-60.5 164.5v149h-75v159h75v90l166 50v-140h104v-159zM146 -272l10 220h154l-35 -220h-129z" />
    <glyph glyph-name="circumflex" unicode="&#x2c6;" horiz-adv-x="419" 
d="M399 545h-150l-39 56l-40 -56h-150l106 155h167z" />
    <glyph glyph-name="caron" unicode="&#x2c7;" horiz-adv-x="419" 
d="M249 700h150l-106 -155h-167l-106 155h150l40 -56z" />
    <glyph glyph-name="breve" unicode="&#x2d8;" horiz-adv-x="399" 
d="M199 537q-87 0 -133 41t-46 119h140q0 -44 39 -44q40 0 40 44h140q0 -78 -46.5 -119t-133.5 -41z" />
    <glyph glyph-name="dotaccent" unicode="&#x2d9;" horiz-adv-x="225" 
d="M110 543q-37 0 -63.5 26.5t-26.5 62.5q0 37 26.5 63.5t63.5 26.5q36 0 62.5 -26.5t26.5 -63.5q0 -36 -26.5 -62.5t-62.5 -26.5z" />
    <glyph glyph-name="ring" unicode="&#x2da;" horiz-adv-x="321" 
d="M160 533q-61 0 -100.5 37.5t-39.5 94.5t39.5 94.5t100.5 37.5q63 0 102 -37.5t39 -94.5q0 -58 -39 -95t-102 -37zM160 633q34 0 34 32t-34 32q-15 0 -24 -9t-9 -23t9 -23t24 -9z" />
    <glyph glyph-name="ogonek" unicode="&#x2db;" horiz-adv-x="233" 
d="M125 -214q-46 0 -75.5 23t-29.5 68q0 58 62 123h131q-43 -46 -43 -78q-2 -23 22 -23q5 -1 21 3v-99q-42 -17 -88 -17z" />
    <glyph glyph-name="tilde" unicode="&#x2dc;" horiz-adv-x="399" 
d="M20 548q0 49 11.5 84t30.5 52.5t44 24t51 1.5t53 -19q24 -16 36.5 -14t12.5 33h120q0 -49 -11.5 -84.5t-30.5 -53t-44 -23.5t-51.5 -0.5t-53.5 19.5q-24 16 -36 13.5t-12 -33.5h-120z" />
    <glyph glyph-name="hungarumlaut" unicode="&#x2dd;" horiz-adv-x="486" 
d="M20 545h157l86 150h-163zM212 545h158l96 150h-164z" />
    <glyph glyph-name="gravecomb" unicode="&#x300;" horiz-adv-x="0" 
d="M-20 555l-80 145h-194l116 -145h158z" />
    <glyph glyph-name="acutecomb" unicode="&#x301;" horiz-adv-x="0" 
d="M-280 555h158l116 145h-194z" />
    <glyph glyph-name="uni0302" unicode="&#x302;" horiz-adv-x="0" 
d="M-20 545h-150l-39 56l-40 -56h-150l106 155h167z" />
    <glyph glyph-name="tildecomb" unicode="&#x303;" horiz-adv-x="0" 
d="M-373 548q0 49 11.5 84t30.5 52.5t44 24t51 1.5t53 -19q24 -16 36.5 -14t12.5 33h120q0 -49 -11.5 -84.5t-30.5 -53t-44 -23.5t-51.5 -0.5t-53.5 19.5q-24 16 -36 13.5t-12 -33.5h-120z" />
    <glyph glyph-name="uni0304" unicode="&#x304;" horiz-adv-x="0" 
d="M-329 554v130h309v-130h-309z" />
    <glyph glyph-name="uni0306" unicode="&#x306;" horiz-adv-x="0" 
d="M-205 537q-87 0 -133 41t-46 119h140q0 -44 39 -44q40 0 40 44h140q0 -78 -46.5 -119t-133.5 -41z" />
    <glyph glyph-name="uni0307" unicode="&#x307;" horiz-adv-x="0" 
d="M-109 543q-37 0 -63.5 26.5t-26.5 62.5q0 37 26.5 63.5t63.5 26.5q36 0 62.5 -26.5t26.5 -63.5q0 -36 -26.5 -62.5t-62.5 -26.5z" />
    <glyph glyph-name="uni0308" unicode="&#x308;" horiz-adv-x="0" 
d="M-294 535q-33 0 -56.5 23.5t-23.5 56.5t23.5 56.5t56.5 23.5q32 0 55.5 -23.5t23.5 -56.5t-23.5 -56.5t-55.5 -23.5zM-100 535q-32 0 -55.5 23.5t-23.5 56.5t23.5 56.5t55.5 23.5q33 0 56.5 -23.5t23.5 -56.5t-23.5 -56.5t-56.5 -23.5z" />
    <glyph glyph-name="uni030A" unicode="&#x30a;" horiz-adv-x="0" 
d="M-163 533q-61 0 -100.5 37.5t-39.5 94.5t39.5 94.5t100.5 37.5q63 0 102 -37.5t39 -94.5q0 -58 -39 -95t-102 -37zM-163 633q34 0 34 32t-34 32q-15 0 -24 -9t-9 -23t9 -23t24 -9z" />
    <glyph glyph-name="uni030B" unicode="&#x30b;" horiz-adv-x="0" 
d="M-466 545h157l86 150h-163zM-274 545h158l96 150h-164z" />
    <glyph glyph-name="uni030C" unicode="&#x30c;" horiz-adv-x="0" 
d="M-170 700h150l-106 -155h-167l-106 155h150l40 -56z" />
    <glyph glyph-name="uni0312" unicode="&#x312;" horiz-adv-x="0" 
d="M-149 985l-35 -220h154l10 220h-129z" />
    <glyph glyph-name="uni0326" unicode="&#x326;" horiz-adv-x="0" 
d="M-55 -277l35 220h-154l-10 -220h129z" />
    <glyph glyph-name="uni0327" unicode="&#x327;" horiz-adv-x="0" 
d="M-78 -46q22 -7 40 -26t18 -51q0 -112 -234 -98v109q95 -7 95 14q0 15 -53 20v78h134v-46z" />
    <glyph glyph-name="uni0328" unicode="&#x328;" horiz-adv-x="0" 
d="M-113 -214q-46 0 -75.5 23t-29.5 68q0 58 62 123h131q-43 -46 -43 -78q-2 -23 22 -23q5 -1 21 3v-99q-42 -17 -88 -17z" />
    <glyph glyph-name="uni0394" unicode="&#x394;" horiz-adv-x="660" 
d="M437 700l228 -700h-670l228 700h214zM233 155h194l-97 342z" />
    <glyph glyph-name="uni03A9" unicode="&#x3a9;" horiz-adv-x="775" 
d="M755 370q0 -119 -83 -202h68v-168h-281v173q53 20 85 67t32 110q0 83 -54 136.5t-135 53.5t-134.5 -53.5t-53.5 -136.5q0 -63 32 -110t85 -67v-173h-281v168h67q-82 84 -82 202q0 149 106 247t261 98t261.5 -98t106.5 -247z" />
    <glyph glyph-name="pi" unicode="&#x3c0;" horiz-adv-x="661" 
d="M645 500v-157h-74v-343h-166v343h-147v-343h-166v343h-77v157h630z" />
    <glyph glyph-name="uni0401" unicode="&#x401;" horiz-adv-x="535" 
d="M181 735q-33 0 -56.5 23.5t-23.5 56.5t23.5 56.5t56.5 23.5q32 0 55.5 -23.5t23.5 -56.5t-23.5 -56.5t-55.5 -23.5zM375 735q-32 0 -55.5 23.5t-23.5 56.5t23.5 56.5t55.5 23.5q33 0 56.5 -23.5t23.5 -56.5t-23.5 -56.5t-56.5 -23.5zM234 168h271v-168h-450v700h445v-167
h-266v-97h241v-165h-241v-103z" />
    <glyph glyph-name="uni0402" unicode="&#x402;" horiz-adv-x="705" 
d="M482 450q86 0 134.5 -50t48.5 -146v-52q0 -117 -57.5 -169.5t-177.5 -45.5v159q33 -2 45.5 11t12.5 45v31q0 57 -57 57q-37 0 -79 -14v-276h-179v527h-163v173h525v-173h-183v-94q69 17 130 17z" />
    <glyph glyph-name="uni0403" unicode="&#x403;" horiz-adv-x="475" 
d="M432 899l-116 -145h-158l80 145h194zM469 700v-173h-235v-527h-179v700h414z" />
    <glyph glyph-name="uni0404" unicode="&#x404;" horiz-adv-x="719" 
d="M391 157q50 0 90.5 22.5t60.5 61.5l154 -90q-45 -76 -126 -121t-177 -45q-159 0 -262 104.5t-103 260.5t103 260.5t262 104.5q95 0 176.5 -45t126.5 -121l-154 -89q-21 38 -61 60.5t-90 22.5q-63 0 -107.5 -29.5t-65.5 -81.5h253v-164h-253q21 -52 65.5 -81.5
t107.5 -29.5z" />
    <glyph glyph-name="uni0405" unicode="&#x405;" horiz-adv-x="585" 
d="M304 -15q-111 0 -184 47t-102 127l153 89q39 -93 138 -93q82 0 82 47q0 31 -47 50q-20 8 -88 27q-96 28 -152 78.5t-56 140.5q0 97 69.5 157t173.5 60q88 0 156 -41t104 -119l-150 -88q-33 78 -109 78q-32 0 -48.5 -13t-16.5 -33q0 -23 24.5 -39t95.5 -37q51 -15 82 -28
t68 -37.5t55 -63t18 -90.5q0 -103 -73 -161t-193 -58z" />
    <glyph glyph-name="uni0406" unicode="&#x406;" horiz-adv-x="289" 
d="M55 700h179v-700h-179v700z" />
    <glyph glyph-name="uni0407" unicode="&#x407;" horiz-adv-x="289" 
d="M48 735q-33 0 -56.5 23.5t-23.5 56.5t23.5 56.5t56.5 23.5q32 0 55.5 -23.5t23.5 -56.5t-23.5 -56.5t-55.5 -23.5zM242 735q-32 0 -55.5 23.5t-23.5 56.5t23.5 56.5t55.5 23.5q33 0 56.5 -23.5t23.5 -56.5t-23.5 -56.5t-56.5 -23.5zM55 700h179v-700h-179v700z" />
    <glyph glyph-name="uni0408" unicode="&#x408;" horiz-adv-x="571" 
d="M267 -15q-172 0 -242 140l153 89q15 -29 35 -42t54 -13q77 0 77 71v470h179v-473q0 -113 -69.5 -177.5t-186.5 -64.5z" />
    <glyph glyph-name="uni0409" unicode="&#x409;" horiz-adv-x="938" 
d="M673 464q105 0 177.5 -63.5t72.5 -168.5t-72.5 -168.5t-177.5 -63.5h-252v527h-130v-254q0 -86 -24.5 -145.5t-67 -87.5t-90 -37.5t-104.5 -4.5v167q56 -6 81.5 18t25.5 98v419h488v-236h73zM673 170q71 0 71 62t-71 62h-73v-124h73z" />
    <glyph glyph-name="uni040A" unicode="&#x40a;" horiz-adv-x="943" 
d="M678 465q105 0 177.5 -64t72.5 -169q0 -104 -72.5 -168t-177.5 -64h-252v294h-192v-294h-179v700h179v-235h192v235h179v-235h73zM678 171q71 0 71 61q0 62 -71 62h-73v-123h73z" />
    <glyph glyph-name="uni040B" unicode="&#x40b;" horiz-adv-x="710" 
d="M482 455q86 0 134.5 -50t48.5 -146v-259h-177v237q0 58 -57 58q-37 0 -79 -14v-281h-179v527h-163v173h525v-173h-183v-90q74 18 130 18z" />
    <glyph glyph-name="uni040C" unicode="&#x40c;" horiz-adv-x="631" 
d="M491 899l-116 -145h-158l80 145h194zM635 0h-200l-201 313v-313h-179v700h179v-294l191 294h200l-222 -340z" />
    <glyph glyph-name="uni040E" unicode="&#x40e;" horiz-adv-x="629" 
d="M481 893v-140h-323v140h323zM440 700h183l-202 -485q-48 -114 -125.5 -167t-191.5 -48v167q95 -8 140 51l-229 482h184l129 -286z" />
    <glyph glyph-name="uni040F" unicode="&#x40f;" horiz-adv-x="650" 
d="M416 700h179v-700h-181v-134h-178v134h-181v700h179v-527h182v527z" />
    <glyph glyph-name="uni0410" unicode="&#x410;" horiz-adv-x="671" 
d="M482 0l-30 101h-233l-30 -101h-194l231 700h218l231 -700h-193zM265 255h141l-71 238z" />
    <glyph glyph-name="uni0411" unicode="&#x411;" horiz-adv-x="592" 
d="M344 442q107 0 171 -60t64 -160t-64 -161t-171 -61h-289v700h464v-173h-285v-85h110zM337 164q29 0 46.5 14.5t17.5 43.5t-17.5 44t-46.5 15h-103v-117h103z" />
    <glyph glyph-name="uni0412" unicode="&#x412;" horiz-adv-x="602" 
d="M497 362q88 -52 88 -157q0 -93 -64 -149t-171 -56h-295v700h276q105 0 168 -53.5t63 -145.5q0 -88 -65 -139zM326 540h-92v-110h92q24 0 40.5 14.5t16.5 40.5q0 25 -16 40t-41 15zM345 160q27 0 44 16.5t17 42.5q0 27 -17 43t-44 16h-111v-118h111z" />
    <glyph glyph-name="uni0413" unicode="&#x413;" horiz-adv-x="475" 
d="M469 700v-173h-235v-527h-179v700h414z" />
    <glyph glyph-name="uni0414" unicode="&#x414;" horiz-adv-x="712" 
d="M619 173h75v-307h-178v134h-327v-134h-179v307h74q48 77 48 222v305h487v-527zM270 173h171v361h-131v-141q0 -140 -40 -220z" />
    <glyph glyph-name="uni0415" unicode="&#x415;" horiz-adv-x="535" 
d="M234 168h271v-168h-450v700h445v-167h-266v-97h241v-165h-241v-103z" />
    <glyph glyph-name="uni0416" unicode="&#x416;" horiz-adv-x="927" 
d="M921 0h-198l-170 305v-305h-179v305l-171 -305h-198l211 354l-201 346h198l161 -303v303h179v-303l160 303h198l-200 -346z" />
    <glyph glyph-name="uni0417" unicode="&#x417;" horiz-adv-x="560" 
d="M449 361q94 -53 94 -164q0 -96 -72 -154t-190 -58q-204 0 -271 164l153 88q30 -83 118 -83q83 0 83 62q0 54 -67 60l-106 1v155h69q81 0 81 58t-72 58t-100 -71l-150 87q32 71 97.5 111t155.5 40q110 0 179 -57.5t69 -152.5q0 -92 -71 -144z" />
    <glyph glyph-name="uni0418" unicode="&#x418;" horiz-adv-x="675" 
d="M441 0v352l-247 -352h-139v700h179v-352l247 352h138v-700h-178z" />
    <glyph glyph-name="uni0419" unicode="&#x419;" horiz-adv-x="675" 
d="M175 754v140h323v-140h-323zM441 0v352l-247 -352h-139v700h179v-352l247 352h138v-700h-178z" />
    <glyph glyph-name="uni041A" unicode="&#x41a;" horiz-adv-x="631" 
d="M635 0h-200l-201 313v-313h-179v700h179v-294l191 294h200l-222 -340z" />
    <glyph glyph-name="uni041B" unicode="&#x41b;" horiz-adv-x="665" 
d="M5 0v167q56 -7 81.5 16.5t25.5 97.5v419h498v-700h-179v527h-140v-254q0 -86 -24.5 -145.5t-67 -87.5t-90.5 -37t-104 -3z" />
    <glyph glyph-name="uni041C" unicode="&#x41c;" horiz-adv-x="825" 
d="M769 700v-700h-178v377l-170 -281h-18l-169 280v-376h-179v700h179l178 -299l179 299h178z" />
    <glyph glyph-name="uni041D" unicode="&#x41d;" horiz-adv-x="665" 
d="M431 700h178v-700h-178v269h-197v-269h-179v700h179v-259h197v259z" />
    <glyph glyph-name="uni041E" unicode="&#x41e;" horiz-adv-x="790" 
d="M395 -15q-154 0 -260.5 105.5t-106.5 259.5t106.5 259.5t260.5 105.5t260.5 -105.5t106.5 -259.5t-106.5 -259.5t-260.5 -105.5zM395 160q81 0 135 53.5t54 136.5t-54 136.5t-135 53.5t-135 -53.5t-54 -136.5t54 -136.5t135 -53.5z" />
    <glyph glyph-name="uni041F" unicode="&#x41f;" horiz-adv-x="650" 
d="M595 700v-700h-179v527h-182v-527h-179v700h540z" />
    <glyph glyph-name="uni0420" unicode="&#x420;" horiz-adv-x="592" 
d="M327 700q106 0 178 -69t72 -176t-72 -176t-178 -69h-93v-210h-179v700h272zM327 380q30 0 50.5 21t20.5 54t-20.5 53.5t-50.5 20.5h-93v-149h93z" />
    <glyph glyph-name="uni0421" unicode="&#x421;" horiz-adv-x="719" 
d="M393 -15q-158 0 -261.5 104.5t-103.5 260.5t103.5 260.5t261.5 104.5q95 0 176 -45t127 -121l-155 -89q-20 37 -59.5 58.5t-88.5 21.5q-84 0 -135.5 -52.5t-51.5 -137.5t51.5 -137.5t135.5 -52.5q49 0 88.5 21.5t59.5 59.5l155 -90q-46 -77 -126.5 -121.5t-176.5 -44.5z
" />
    <glyph glyph-name="uni0422" unicode="&#x422;" horiz-adv-x="545" 
d="M535 700v-173h-173v-527h-179v527h-173v173h525z" />
    <glyph glyph-name="uni0423" unicode="&#x423;" horiz-adv-x="629" 
d="M440 700h183l-202 -485q-48 -114 -125.5 -167t-191.5 -48v167q95 -8 140 51l-229 482h184l129 -286z" />
    <glyph glyph-name="uni0424" unicode="&#x424;" horiz-adv-x="833" 
d="M813 350q0 -118 -82 -193.5t-228 -93.5v-83h-172v83q-146 18 -228.5 93.5t-82.5 193.5t82.5 193.5t228.5 93.5v83h172v-83q146 -18 228 -93.5t82 -193.5zM199 350q0 -104 132 -123v249q-68 -10 -100 -41t-32 -85zM503 227q68 10 100 40.5t32 82.5q0 54 -32 85t-100 41
v-249z" />
    <glyph glyph-name="uni0425" unicode="&#x425;" horiz-adv-x="632" 
d="M626 0h-200l-110 186l-110 -186h-201l211 357l-203 343h201l102 -173l102 173h201l-203 -344z" />
    <glyph glyph-name="uni0426" unicode="&#x426;" horiz-adv-x="702" 
d="M604 173h80v-307h-179v134h-450v700h184v-527h182v527h183v-527z" />
    <glyph glyph-name="uni0427" unicode="&#x427;" horiz-adv-x="647" 
d="M413 700h178v-700h-178v232q-57 -19 -119 -19q-113 0 -182 63t-69 174v250h178v-231q0 -40 24 -62t62 -22q55 0 106 18v297z" />
    <glyph glyph-name="uni0428" unicode="&#x428;" horiz-adv-x="949" 
d="M715 700h179v-700h-839v700h179v-527h151v527h179v-527h151v527z" />
    <glyph glyph-name="uni0429" unicode="&#x429;" horiz-adv-x="992" 
d="M894 173h80v-307h-179v134h-740v700h179v-527h151v527h179v-527h151v527h179v-527z" />
    <glyph glyph-name="uni042A" unicode="&#x42a;" horiz-adv-x="697" 
d="M160 0v527h-160v173h339v-210h93q105 0 177.5 -69.5t72.5 -175.5q0 -107 -72 -176t-178 -69h-272zM339 170h93q30 0 50.5 21t20.5 54t-20.5 53.5t-50.5 20.5h-93v-149z" />
    <glyph glyph-name="uni042B" unicode="&#x42b;" horiz-adv-x="869" 
d="M55 0v700h179v-210h93q106 0 178 -69.5t72 -175.5q0 -107 -72 -176t-178 -69h-272zM635 0v700h178v-700h-178zM234 170h93q30 0 50.5 21t20.5 54t-20.5 53.5t-50.5 20.5h-93v-149z" />
    <glyph glyph-name="uni042C" unicode="&#x42c;" horiz-adv-x="592" 
d="M327 490q106 0 178 -69t72 -176t-72 -176t-178 -69h-272v700h179v-210h93zM327 171q30 0 50.5 20.5t20.5 53.5t-20.5 54t-50.5 21h-93v-149h93z" />
    <glyph glyph-name="uni042D" unicode="&#x42d;" horiz-adv-x="719" 
d="M326 715q159 0 262 -104.5t103 -260.5t-103 -260.5t-262 -104.5q-96 0 -177 45t-126 121l154 90q20 -39 60.5 -61.5t90.5 -22.5q63 0 107.5 29.5t65.5 81.5h-253v164h253q-21 52 -65.5 81.5t-107.5 29.5q-50 0 -90 -22.5t-61 -60.5l-154 89q45 76 126.5 121t176.5 45z
" />
    <glyph glyph-name="uni042E" unicode="&#x42e;" horiz-adv-x="1068" 
d="M673 715q154 0 260.5 -105.5t106.5 -259.5q0 -153 -107 -259t-260 -106q-132 0 -230 81t-123 208h-86v-274h-179v700h179v-254h91q30 119 125.5 194t222.5 75zM673 160q81 0 135 53.5t54 136.5t-54 136.5t-135 53.5t-135 -53t-54 -137q0 -83 54 -136.5t135 -53.5z" />
    <glyph glyph-name="uni042F" unicode="&#x42f;" horiz-adv-x="630" 
d="M574 700v-700h-178v225h-39l-140 -225h-199l159 250q-61 29 -97.5 84t-36.5 123q0 106 72 174.5t179 68.5h280zM296 377h100v157h-100q-33 0 -54 -22t-21 -57q0 -34 21.5 -56t53.5 -22z" />
    <glyph glyph-name="uni0430" unicode="&#x430;" horiz-adv-x="615" 
d="M401 500h166v-500h-166v46q-51 -60 -142 -60q-100 0 -167.5 75.5t-67.5 188.5t67.5 188.5t167.5 75.5q91 0 142 -60v46zM296 141q47 0 76 30t29 79t-29 79t-76 30t-76 -30t-29 -79t29 -79t76 -30z" />
    <glyph glyph-name="uni0431" unicode="&#x431;" horiz-adv-x="569" 
d="M298 -15q-124 0 -198.5 76.5t-74.5 200.5q0 126 40.5 199.5t144.5 124.5q112 55 139 76q29 24 45 61l136 -78q-15 -56 -56.5 -89t-124.5 -66q-66 -26 -94.5 -46.5t-40.5 -48.5q50 43 129 43q83 0 148.5 -60t65.5 -159q0 -102 -70.5 -168t-188.5 -66zM296 129
q41 0 67.5 25.5t26.5 63.5q0 39 -27.5 64.5t-69.5 25.5q-38 0 -66 -23.5t-28 -63.5t28 -66t69 -26z" />
    <glyph glyph-name="uni0432" unicode="&#x432;" horiz-adv-x="520" 
d="M432 255q70 -33 70 -111q0 -66 -45 -105t-130 -39h-279v500h262q84 0 129 -39t45 -105t-52 -101zM285 376h-78v-66h78q40 0 40 32q0 34 -40 34zM298 126q39 0 39 35q0 33 -39 33h-91v-68h91z" />
    <glyph glyph-name="uni0433" unicode="&#x433;" horiz-adv-x="417" 
d="M407 500v-159h-193v-341h-166v500h359z" />
    <glyph glyph-name="uni0434" unicode="&#x434;" horiz-adv-x="600" 
d="M520 157h65v-291h-160v134h-260v-134h-160v291h60q38 62 38 170v173h417v-343zM237 157h121v195h-93v-25q0 -100 -28 -170z" />
    <glyph glyph-name="uni0435" unicode="&#x435;" horiz-adv-x="571" 
d="M196 189q25 -61 112 -61q54 0 91 35l120 -84q-74 -93 -215 -93q-127 0 -203.5 74.5t-76.5 188.5q0 113 75 189t191 76q112 0 185 -75t73 -188q0 -33 -7 -62h-345zM194 304h192q-20 70 -94 70q-77 0 -98 -70z" />
    <glyph glyph-name="uni0436" unicode="&#x436;" horiz-adv-x="779" 
d="M774 0h-183l-119 205v-205h-165v205l-119 -205h-183l156 250l-146 250h183l109 -202v202h165v-202l109 202h183l-146 -250z" />
    <glyph glyph-name="uni0437" unicode="&#x437;" horiz-adv-x="456" 
d="M364 255q74 -39 74 -119q0 -66 -57 -108.5t-154 -42.5q-157 0 -217 120l130 76q23 -58 84 -58q21 0 35 9t14 25q0 31 -41 31h-60v130h52q37 0 37 30q0 32 -44 32q-51 0 -72 -54l-130 71q66 117 210 117q87 0 141 -43.5t54 -106.5q0 -73 -56 -109z" />
    <glyph glyph-name="uni0438" unicode="&#x438;" horiz-adv-x="580" 
d="M404 500h128v-500h-162v234l-194 -234h-128v500h162v-234z" />
    <glyph glyph-name="uni0439" unicode="&#x439;" horiz-adv-x="580" 
d="M128 554v140h323v-140h-323zM404 500h128v-500h-162v234l-194 -234h-128v500h162v-234z" />
    <glyph glyph-name="uni043A" unicode="&#x43a;" horiz-adv-x="542" 
d="M542 0h-186l-142 213v-213h-166v500h166v-209l129 209h192l-168 -250z" />
    <glyph glyph-name="uni043B" unicode="&#x43b;" horiz-adv-x="562" 
d="M514 500v-500h-166v341h-100v-134q0 -118 -58.5 -169t-179.5 -38v154q36 -10 54 9.5t18 67.5v269h432z" />
    <glyph glyph-name="uni043C" unicode="&#x43c;" horiz-adv-x="648" 
d="M600 500v-500h-160v241l-107 -166h-18l-106 165v-240h-161v500h161l115 -180l116 180h160z" />
    <glyph glyph-name="uni043D" unicode="&#x43d;" horiz-adv-x="575" 
d="M361 500h166v-500h-166v172h-147v-172h-166v500h166v-172h147v172z" />
    <glyph glyph-name="uni043E" unicode="&#x43e;" horiz-adv-x="583" 
d="M291 -14q-111 0 -189 76.5t-78 187.5t78 187.5t189 76.5q112 0 189.5 -76.5t77.5 -187.5t-77.5 -187.5t-189.5 -76.5zM291 146q44 0 72.5 29t28.5 75t-28.5 75t-72.5 29q-43 0 -71.5 -29t-28.5 -75t28.5 -75t71.5 -29z" />
    <glyph glyph-name="uni043F" unicode="&#x43f;" horiz-adv-x="575" 
d="M527 500v-500h-166v343h-147v-343h-166v500h479z" />
    <glyph glyph-name="uni0440" unicode="&#x440;" horiz-adv-x="615" 
d="M356 514q100 0 167.5 -75.5t67.5 -188.5t-67.5 -188.5t-167.5 -75.5q-91 0 -142 60v-246h-166v700h166v-46q51 60 142 60zM319 141q47 0 76 30t29 79t-29 79t-76 30t-76 -30t-29 -79t29 -79t76 -30z" />
    <glyph glyph-name="uni0441" unicode="&#x441;" horiz-adv-x="528" 
d="M290 -14q-114 0 -190 76t-76 188t76 188t190 76q74 0 134.5 -35t93.5 -94l-142 -82q-27 49 -87 49q-42 0 -70 -28.5t-28 -73.5t28 -73.5t70 -28.5q62 0 87 50l142 -82q-33 -60 -93.5 -95t-134.5 -35z" />
    <glyph glyph-name="uni0442" unicode="&#x442;" horiz-adv-x="470" 
d="M462 500v-159h-143v-341h-166v341h-145v159h454z" />
    <glyph glyph-name="uni0443" unicode="&#x443;" horiz-adv-x="549" 
d="M365 500h184l-169 -485q-78 -226 -304 -215v156q52 0 79 11t43 41l-198 492h183l103 -290z" />
    <glyph glyph-name="uni0444" unicode="&#x444;" horiz-adv-x="709" 
d="M684 250q0 -99 -64.5 -169.5t-184.5 -88.5v-192h-162v192q-120 18 -184.5 88.5t-64.5 169.5t64.5 169t184.5 88v193h162v-193q120 -18 184.5 -88t64.5 -169zM435 150q84 23 84 100t-84 100v-200zM189 250q0 -76 84 -100v200q-84 -24 -84 -100z" />
    <glyph glyph-name="uni0445" unicode="&#x445;" horiz-adv-x="549" 
d="M549 0h-188l-87 123l-87 -123h-187l181 255l-174 245h187l80 -113l80 113h188l-174 -245z" />
    <glyph glyph-name="uni0446" unicode="&#x446;" horiz-adv-x="612" 
d="M512 157h85v-291h-160v134h-389v500h166v-343h132v343h166v-343z" />
    <glyph glyph-name="uni0447" unicode="&#x447;" horiz-adv-x="543" 
d="M328 500h167v-500h-167v140q-52 -13 -100 -13q-90 0 -146.5 48.5t-56.5 137.5v187h167v-158q0 -61 73 -61q33 0 63 10v209z" />
    <glyph glyph-name="uni0448" unicode="&#x448;" horiz-adv-x="835" 
d="M621 500h166v-500h-739v500h166v-343h122v343h164v-343h121v343z" />
    <glyph glyph-name="uni0449" unicode="&#x449;" horiz-adv-x="862" 
d="M772 157h74v-291h-159v134h-639v500h166v-343h114v343h164v-343h114v343h166v-343z" />
    <glyph glyph-name="uni044A" unicode="&#x44a;" horiz-adv-x="583" 
d="M371 359q90 0 143 -48.5t53 -130.5q0 -83 -52.5 -131.5t-143.5 -48.5h-248v341h-123v159h290v-141h81zM361 139q20 0 32 11t12 30q0 18 -12 29t-32 11h-71v-81h71z" />
    <glyph glyph-name="uni044B" unicode="&#x44b;" horiz-adv-x="747" 
d="M296 359q90 0 143 -48.5t53 -130.5q0 -83 -52.5 -131.5t-143.5 -48.5h-248v500h166v-141h82zM533 500h166v-500h-166v500zM286 139q20 0 32 11t12 30q0 18 -12 29t-32 11h-72v-81h72z" />
    <glyph glyph-name="uni044C" unicode="&#x44c;" horiz-adv-x="507" 
d="M296 359q90 0 143 -48.5t53 -130.5q0 -83 -52.5 -131.5t-143.5 -48.5h-248v500h166v-141h82zM286 139q20 0 32 11t12 30q0 18 -12 29t-32 11h-72v-81h72z" />
    <glyph glyph-name="uni044D" unicode="&#x44d;" horiz-adv-x="529" 
d="M238 514q116 0 191 -74t75 -190t-75 -190t-191 -74q-75 0 -136 35t-94 95l136 78q9 -26 34 -42t64 -16q58 0 89 46h-135v136h135q-31 46 -89 46q-76 0 -98 -57l-136 78q33 59 94 94t136 35z" />
    <glyph glyph-name="uni044E" unicode="&#x44e;" horiz-adv-x="807" 
d="M516 514q111 0 189 -76.5t78 -187.5t-78 -187.5t-189 -76.5q-90 0 -157.5 51.5t-91.5 134.5h-53v-172h-166v500h166v-172h53q24 83 91.5 134.5t157.5 51.5zM516 146q43 0 71.5 29t28.5 75t-28.5 75t-71.5 29q-44 0 -72.5 -29t-28.5 -75t28.5 -75t72.5 -29z" />
    <glyph glyph-name="uni044F" unicode="&#x44f;" horiz-adv-x="532" 
d="M484 500v-500h-164v142h-23l-95 -142h-189l117 167q-43 24 -66.5 64.5t-23.5 87.5q0 78 51.5 129.5t139.5 51.5h253zM249 360q-21 0 -34 -11.5t-13 -32.5q0 -20 13 -31t34 -11h71v86h-71z" />
    <glyph glyph-name="uni0451" unicode="&#x451;" horiz-adv-x="571" 
d="M193 542q-33 0 -56.5 23.5t-23.5 56.5t23.5 56.5t56.5 23.5q32 0 55.5 -23.5t23.5 -56.5t-23.5 -56.5t-55.5 -23.5zM387 542q-32 0 -55.5 23.5t-23.5 56.5t23.5 56.5t55.5 23.5q33 0 56.5 -23.5t23.5 -56.5t-23.5 -56.5t-56.5 -23.5zM196 189q25 -61 112 -61q54 0 91 35
l120 -84q-74 -93 -215 -93q-127 0 -203.5 74.5t-76.5 188.5q0 113 75 189t191 76q112 0 185 -75t73 -188q0 -33 -7 -62h-345zM194 304h192q-20 70 -94 70q-77 0 -98 -70z" />
    <glyph glyph-name="uni0452" unicode="&#x452;" 
d="M363 502q80 0 132 -55.5t52 -159.5v-287q0 -118 -58 -170t-181 -45v154q38 -2 55.5 12.5t17.5 48.5v266q0 39 -21 59.5t-55 20.5q-38 0 -59.5 -23.5t-21.5 -68.5v-254h-166v539h-58v106h58v55h166v-55h135v-106h-135v-100q44 63 139 63z" />
    <glyph glyph-name="uni0453" unicode="&#x453;" horiz-adv-x="417" 
d="M382 700l-116 -145h-158l80 145h194zM407 500v-159h-193v-341h-166v500h359z" />
    <glyph glyph-name="uni0454" unicode="&#x454;" horiz-adv-x="529" 
d="M287 136q39 0 64 16t34 42l136 -78q-33 -60 -94 -95t-136 -35q-116 0 -191 74t-75 190t75 190t191 74q75 0 136 -35t94 -94l-136 -78q-22 57 -98 57q-58 0 -89 -46h135v-136h-135q31 -46 89 -46z" />
    <glyph glyph-name="uni0455" unicode="&#x455;" horiz-adv-x="475" 
d="M207 354q0 -14 25.5 -23t62 -17t73 -22.5t62 -49.5t25.5 -88q0 -86 -64 -127t-152 -41q-168 0 -224 119l145 73q19 -55 78 -55q45 0 45 27q0 14 -25 23t-61 18t-72 24t-61 48.5t-25 82.5q0 80 59 124t142 44q148 0 206 -116l-140 -63q-22 43 -62 43q-37 0 -37 -24z" />
    <glyph glyph-name="uni0456" unicode="&#x456;" horiz-adv-x="262" 
d="M131 541q-39 0 -67.5 28.5t-28.5 67.5t28.5 67t67.5 28t67.5 -28t28.5 -67t-28.5 -67.5t-67.5 -28.5zM48 0v500h166v-500h-166z" />
    <glyph glyph-name="uni0457" unicode="&#x457;" horiz-adv-x="262" 
d="M33 535q-33 0 -56.5 23.5t-23.5 56.5t23.5 56.5t56.5 23.5q32 0 55.5 -23.5t23.5 -56.5t-23.5 -56.5t-55.5 -23.5zM227 535q-32 0 -55.5 23.5t-23.5 56.5t23.5 56.5t55.5 23.5q33 0 56.5 -23.5t23.5 -56.5t-23.5 -56.5t-56.5 -23.5zM48 0v500h166v-500h-166z" />
    <glyph glyph-name="uni0458" unicode="&#x458;" horiz-adv-x="277" 
d="M146 541q-39 0 -67.5 28.5t-28.5 67.5t28.5 67t67.5 28t67.5 -28t28.5 -67t-28.5 -67.5t-67.5 -28.5zM63 0v500h166v-500q0 -118 -58 -170t-181 -45v154q38 -2 55.5 12.5t17.5 48.5z" />
    <glyph glyph-name="uni0459" unicode="&#x459;" horiz-adv-x="777" 
d="M581 349q81 0 131 -47t50 -127q0 -81 -50.5 -128t-130.5 -47h-241v341h-92v-134q0 -117 -58.5 -169.5t-179.5 -45.5v154q36 -5 54 16t18 69v269h425v-151h74zM571 139q14 0 24 9.5t10 26.5q0 16 -10 25.5t-24 9.5h-64v-71h64z" />
    <glyph glyph-name="uni045A" unicode="&#x45a;" horiz-adv-x="783" 
d="M582 349q81 0 133.5 -47t52.5 -127t-53 -127.5t-133 -47.5h-241v197h-137v-197h-166v500h166v-151h137v151h166v-151h75zM571 139q15 0 25 9.5t10 26.5q0 16 -10 25.5t-25 9.5h-64v-71h64z" />
    <glyph glyph-name="uni045B" unicode="&#x45b;" 
d="M363 502q80 0 132 -55.5t52 -159.5v-287h-166v266q0 39 -21 59.5t-55 20.5q-38 0 -59.5 -23.5t-21.5 -68.5v-254h-166v537h-58v105h58v58h166v-58h135v-105h-135v-98q44 63 139 63z" />
    <glyph glyph-name="uni045C" unicode="&#x45c;" horiz-adv-x="542" 
d="M442 700l-116 -145h-158l80 145h194zM542 0h-186l-142 213v-213h-166v500h166v-209l129 209h192l-168 -250z" />
    <glyph glyph-name="uni045E" unicode="&#x45e;" horiz-adv-x="549" 
d="M439 694v-140h-323v140h323zM365 500h184l-169 -485q-78 -226 -304 -215v156q52 0 79 11t43 41l-198 492h183l103 -290z" />
    <glyph glyph-name="uni045F" unicode="&#x45f;" horiz-adv-x="575" 
d="M361 500h166v-500h-159v-134h-160v134h-160v500h166v-343h147v343z" />
    <glyph glyph-name="uni0490" unicode="&#x490;" horiz-adv-x="475" 
d="M291 820h178v-293h-235v-527h-179v700h236v120z" />
    <glyph glyph-name="uni0491" unicode="&#x491;" horiz-adv-x="417" 
d="M248 602h159v-261h-193v-341h-166v500h200v102z" />
    <glyph glyph-name="Wgrave" unicode="&#x1e80;" horiz-adv-x="1004" 
d="M629 755l-80 145h-194l116 -145h158zM201 0l-196 700h193l108 -441l125 441h141l125 -441l109 441h192l-195 -700h-189l-112 395l-112 -395h-189z" />
    <glyph glyph-name="wgrave" unicode="&#x1e81;" horiz-adv-x="798" 
d="M494 555h-158l-116 145h194zM610 500h176l-153 -500h-162l-72 254l-72 -254h-162l-153 500h176l66 -272l75 272h140l75 -272z" />
    <glyph glyph-name="Wacute" unicode="&#x1e82;" horiz-adv-x="1004" 
d="M435 755h158l116 145h-194zM201 0l-196 700h193l108 -441l125 441h141l125 -441l109 441h192l-195 -700h-189l-112 395l-112 -395h-189z" />
    <glyph glyph-name="wacute" unicode="&#x1e83;" horiz-adv-x="798" 
d="M574 700l-116 -145h-158l80 145h194zM610 500h176l-153 -500h-162l-72 254l-72 -254h-162l-153 500h176l66 -272l75 272h140l75 -272z" />
    <glyph glyph-name="Wdieresis" unicode="&#x1e84;" horiz-adv-x="1004" 
d="M437 735q-33 0 -56.5 23.5t-23.5 56.5t23.5 56.5t56.5 23.5q32 0 55.5 -23.5t23.5 -56.5t-23.5 -56.5t-55.5 -23.5zM631 735q-32 0 -55.5 23.5t-23.5 56.5t23.5 56.5t55.5 23.5q33 0 56.5 -23.5t23.5 -56.5t-23.5 -56.5t-56.5 -23.5zM201 0l-196 700h193l108 -441
l125 441h141l125 -441l109 441h192l-195 -700h-189l-112 395l-112 -395h-189z" />
    <glyph glyph-name="wdieresis" unicode="&#x1e85;" horiz-adv-x="798" 
d="M302 535q-33 0 -56.5 23.5t-23.5 56.5t23.5 56.5t56.5 23.5q32 0 55.5 -23.5t23.5 -56.5t-23.5 -56.5t-55.5 -23.5zM496 535q-32 0 -55.5 23.5t-23.5 56.5t23.5 56.5t55.5 23.5q33 0 56.5 -23.5t23.5 -56.5t-23.5 -56.5t-56.5 -23.5zM610 500h176l-153 -500h-162l-72 254
l-72 -254h-162l-153 500h176l66 -272l75 272h140l75 -272z" />
    <glyph glyph-name="Ygrave" unicode="&#x1ef2;" horiz-adv-x="651" 
d="M420 755h-158l-116 145h194zM651 700l-236 -431v-269h-179v267l-236 433h201l124 -259l125 259h201z" />
    <glyph glyph-name="ygrave" unicode="&#x1ef3;" horiz-adv-x="549" 
d="M373 555h-158l-116 145h194zM365 500h184l-171 -492q-40 -113 -113 -163t-189 -45v156q53 0 80 13t44 47l-200 484h186l101 -290z" />
    <glyph glyph-name="endash" unicode="&#x2013;" horiz-adv-x="640" 
d="M55 222v158h530v-158h-530z" />
    <glyph glyph-name="emdash" unicode="&#x2014;" horiz-adv-x="740" 
d="M55 222v158h630v-158h-630z" />
    <glyph glyph-name="quoteleft" unicode="&#x2018;" horiz-adv-x="302" 
d="M41 386l84 314h134l-35 -314h-183z" />
    <glyph glyph-name="quoteright" unicode="&#x2019;" horiz-adv-x="302" 
d="M261 700l-84 -314h-134l35 314h183z" />
    <glyph glyph-name="quotesinglbase" unicode="&#x201a;" horiz-adv-x="302" 
d="M261 174l-84 -314h-134l35 314h183z" />
    <glyph glyph-name="quotedblleft" unicode="&#x201c;" horiz-adv-x="525" 
d="M41 386l84 314h134l-35 -314h-183zM264 386l84 314h134l-35 -314h-183z" />
    <glyph glyph-name="quotedblright" unicode="&#x201d;" horiz-adv-x="525" 
d="M261 700l-84 -314h-134l35 314h183zM484 700l-84 -314h-134l35 314h183z" />
    <glyph glyph-name="quotedblbase" unicode="&#x201e;" horiz-adv-x="525" 
d="M261 174l-84 -314h-134l35 314h183zM484 174l-84 -314h-134l35 314h183z" />
    <glyph glyph-name="dagger" unicode="&#x2020;" horiz-adv-x="471" 
d="M435 582v-158h-116v-424h-167v424h-117v158h117v118h167v-118h116z" />
    <glyph glyph-name="daggerdbl" unicode="&#x2021;" horiz-adv-x="471" 
d="M435 424h-116v-148h116v-158h-116v-118h-167v118h-117v158h117v148h-117v158h117v118h167v-118h116v-158z" />
    <glyph glyph-name="bullet" unicode="&#x2022;" horiz-adv-x="399" 
d="M201 186q-69 0 -117.5 48.5t-48.5 117.5q0 67 48.5 114.5t117.5 47.5q67 0 114.5 -47.5t47.5 -114.5q0 -69 -47.5 -117.5t-114.5 -48.5z" />
    <glyph glyph-name="ellipsis" unicode="&#x2026;" horiz-adv-x="788" 
d="M145 -14q-44 0 -74.5 30.5t-30.5 73.5t31 73.5t74 30.5t73.5 -30.5t30.5 -73.5t-30.5 -73.5t-73.5 -30.5zM394 -14q-44 0 -74.5 30.5t-30.5 73.5t31 73.5t74 30.5t73.5 -30.5t30.5 -73.5t-30.5 -73.5t-73.5 -30.5zM644 -14q-44 0 -74.5 30.5t-30.5 73.5t31 73.5t74 30.5
t73.5 -30.5t30.5 -73.5t-30.5 -73.5t-73.5 -30.5z" />
    <glyph glyph-name="perthousand" unicode="&#x2030;" horiz-adv-x="1220" 
d="M219 356q-78 0 -131 52.5t-53 127.5t53 127t131 52t130 -52t52 -127q0 -76 -52.5 -128t-129.5 -52zM139 110l460 500l70 -40l-461 -499zM218 483q23 0 37.5 15.5t14.5 37.5t-14.5 37t-37.5 15q-22 0 -36.5 -15t-14.5 -37q0 -23 14.5 -38t36.5 -15zM606 -14
q-79 0 -131.5 52t-52.5 127q0 76 52.5 128t131.5 52q78 0 130 -52.5t52 -127.5t-52.5 -127t-129.5 -52zM1002 -14q-79 0 -131.5 52t-52.5 127q0 76 52.5 128t131.5 52q78 0 130 -52.5t52 -127.5t-52.5 -127t-129.5 -52zM605 113q22 0 36.5 15.5t14.5 36.5q0 23 -14.5 38
t-36.5 15t-36.5 -15t-14.5 -38q0 -22 14.5 -37t36.5 -15zM1001 113q22 0 37 15.5t15 36.5q0 23 -15 38t-37 15t-36.5 -15t-14.5 -38q0 -22 14.5 -37t36.5 -15z" />
    <glyph glyph-name="guilsinglleft" unicode="&#x2039;" horiz-adv-x="364" 
d="M309 504l-112 -195l112 -195h-141l-113 195l113 195h141z" />
    <glyph glyph-name="guilsinglright" unicode="&#x203a;" horiz-adv-x="364" 
d="M196 504l113 -195l-113 -195h-141l112 195l-112 195h141z" />
    <glyph glyph-name="fraction" unicode="&#x2044;" horiz-adv-x="180" 
d="M-55 0h-114l404 700h114z" />
    <glyph glyph-name="Euro" unicode="&#x20ac;" horiz-adv-x="629" 
d="M463 232l150 -86q-77 -161 -246 -161q-115 0 -189.5 71t-96.5 194h-68v84h60v16v19h-60v84h69q22 122 96.5 192t188.5 70q166 0 241 -153l-149 -86q-33 65 -92 65q-78 0 -103 -88h166v-84h-179v-19v-16h179v-84h-167q25 -91 104 -91q60 0 96 73z" />
    <glyph glyph-name="uni20BD" unicode="&#x20bd;" horiz-adv-x="610" 
d="M347 231h-93v-40h205v-99h-205v-92h-179v92h-65v99h65v40h-65v159h65v310h272q106 0 178 -66t72 -169q0 -109 -70.5 -171.5t-179.5 -62.5zM254 530v-140h93q31 0 51 19t20 51t-20 51t-51 19h-93z" />
    <glyph glyph-name="uni2116" unicode="&#x2116;" horiz-adv-x="1055" 
d="M853 366q-76 0 -127 51t-51 123q0 74 50.5 124.5t127.5 50.5q76 0 126.5 -51t50.5 -124t-50 -123.5t-127 -50.5zM441 700h178v-700h-138l-247 352v-352h-179v700h139l247 -352v352zM853 495q20 0 32 12.5t12 32.5t-12.5 33t-31.5 13q-20 0 -32.5 -13t-12.5 -33
t12.5 -32.5t32.5 -12.5zM690 166v159h327v-159h-327z" />
    <glyph glyph-name="trademark" unicode="&#x2122;" horiz-adv-x="481" 
d="M205 700v-69h-51v-131h-73v131h-51v69h175zM381 700h70v-200h-70v95l-41 -62h-7l-40 61v-94h-70v200h70l44 -67z" />
    <glyph glyph-name="estimated" unicode="&#x212e;" horiz-adv-x="780" 
d="M390 710q163 0 266.5 -104t103.5 -256q0 -15 -15 -15h-560q-15 0 -15 -15v-192q0 -11 7 -19q84 -89 233 -89q145 0 231 97q7 9 18 9h37q10 0 13 -6t-4 -13q-109 -117 -295 -117q-176 0 -283 103.5t-107 256.5q0 152 103.5 256t266.5 104zM610 572q0 11 -7 19
q-84 89 -213 89t-213 -89q-7 -8 -7 -19v-192q0 -15 15 -15h410q15 0 15 15v192z" />
    <glyph glyph-name="oneeighth" unicode="&#x215b;" horiz-adv-x="805" 
d="M109 300v266l-79 -21l-30 109l127 46h113v-400h-131zM511 700h114l-404 -700h-114zM733 209q57 -34 57 -99q0 -57 -42 -90.5t-117 -33.5t-117.5 33.5t-42.5 90.5q0 65 58 99q-44 33 -44 83q0 56 41.5 89t104.5 33t104 -33t41 -89q0 -51 -43 -83zM631 308q-34 0 -34 -28
q0 -27 34 -27q33 0 33 27q0 28 -33 28zM631 93q18 0 28 9.5t10 24.5t-10 24t-28 9q-38 0 -38 -33q0 -34 38 -34z" />
    <glyph glyph-name="threeeighths" unicode="&#x215c;" horiz-adv-x="864" 
d="M326 425q0 -67 -43.5 -103t-117.5 -36q-120 0 -162 94l108 62q15 -43 54 -43q32 0 32 26q0 25 -32 25h-28l-46 68l56 66h-124v116h286v-87l-65 -76q82 -30 82 -112zM570 700h114l-404 -700h-114zM792 209q57 -34 57 -99q0 -57 -42 -90.5t-117 -33.5t-117.5 33.5
t-42.5 90.5q0 65 58 99q-44 33 -44 83q0 56 41.5 89t104.5 33t104 -33t41 -89q0 -51 -43 -83zM690 308q-34 0 -34 -28q0 -27 34 -27q33 0 33 27q0 28 -33 28zM690 93q18 0 28 9.5t10 24.5t-10 24t-28 9q-38 0 -38 -33q0 -34 38 -34z" />
    <glyph glyph-name="fiveeighths" unicode="&#x215d;" horiz-adv-x="860" 
d="M319 420q0 -67 -42 -100.5t-110 -33.5q-120 0 -162 94l107 56q15 -41 52 -41q35 0 35 27t-34 27h-133l17 251h252v-116h-142l-3 -33h16q68 0 107.5 -32.5t39.5 -98.5zM566 700h114l-404 -700h-114zM788 209q57 -34 57 -99q0 -57 -42 -90.5t-117 -33.5t-117.5 33.5
t-42.5 90.5q0 65 58 99q-44 33 -44 83q0 56 41.5 89t104.5 33t104 -33t41 -89q0 -51 -43 -83zM686 308q-34 0 -34 -28q0 -27 34 -27q33 0 33 27q0 28 -33 28zM686 93q18 0 28 9.5t10 24.5t-10 24t-28 9q-38 0 -38 -33q0 -34 38 -34z" />
    <glyph glyph-name="seveneighths" unicode="&#x215e;" horiz-adv-x="831" 
d="M176 300h-135l107 284h-148v116h289v-99zM537 700h114l-404 -700h-114zM759 209q57 -34 57 -99q0 -57 -42 -90.5t-117 -33.5t-117.5 33.5t-42.5 90.5q0 65 58 99q-44 33 -44 83q0 56 41.5 89t104.5 33t104 -33t41 -89q0 -51 -43 -83zM657 308q-34 0 -34 -28q0 -27 34 -27
q33 0 33 27q0 28 -33 28zM657 93q18 0 28 9.5t10 24.5t-10 24t-28 9q-38 0 -38 -33q0 -34 38 -34z" />
    <glyph glyph-name="arrowleft" unicode="&#x2190;" horiz-adv-x="785" 
d="M750 429v-158h-419l221 -221h-217l-300 300l300 300h217l-221 -221h419z" />
    <glyph glyph-name="arrowup" unicode="&#x2191;" horiz-adv-x="671" 
d="M635 400v-217l-216 216v-399h-167v400l-217 -217v217l300 300z" />
    <glyph glyph-name="arrowright" unicode="&#x2192;" horiz-adv-x="785" 
d="M450 650l300 -300l-300 -300h-217l221 221h-419v158h419l-221 221h217z" />
    <glyph glyph-name="arrowdown" unicode="&#x2193;" horiz-adv-x="671" 
d="M419 301l216 216v-217l-300 -300l-300 300v217l217 -217v400h167v-399z" />
    <glyph glyph-name="arrowboth" unicode="&#x2194;" horiz-adv-x="1137" 
d="M817 635l285 -285l-285 -285h-214l204 206h-478l206 -206h-215l-285 285l285 285h215l-206 -206h479l-205 206h214z" />
    <glyph glyph-name="arrowupdn" unicode="&#x2195;" horiz-adv-x="640" 
d="M605 379l-202 202v-462l202 202v-215l-285 -285l-285 285v215l202 -202v462l-202 -202v215l285 285l285 -285v-215z" />
    <glyph glyph-name="uni2196" unicode="&#x2196;" horiz-adv-x="652" 
d="M617 160l-115 -115l-314 313v-308l-153 153v424h424l153 -153h-309z" />
    <glyph glyph-name="uni2197" unicode="&#x2197;" horiz-adv-x="652" 
d="M193 627h424v-424l-153 -153v308l-314 -313l-115 115l314 314h-309z" />
    <glyph glyph-name="uni2198" unicode="&#x2198;" horiz-adv-x="652" 
d="M464 642l153 -153v-424h-424l-153 153h308l-313 313l115 115l314 -313v309z" />
    <glyph glyph-name="uni2199" unicode="&#x2199;" horiz-adv-x="652" 
d="M617 531l-313 -313h308l-153 -153h-424v424l153 153v-309l314 313z" />
    <glyph glyph-name="partialdiff" unicode="&#x2202;" horiz-adv-x="584" 
d="M240 715q125 0 214.5 -101.5t89.5 -263.5q0 -177 -80.5 -271t-209.5 -94q-103 0 -163 61.5t-60 153.5q0 103 62 169t166 66q59 0 111 -26q-23 147 -151 150q-58 1 -115 -31v151q56 36 136 36zM264 139q85 0 106 128q-40 24 -89 24q-36 0 -60 -22.5t-24 -61.5
q0 -31 19 -49.5t48 -18.5z" />
    <glyph glyph-name="emptyset" unicode="&#x2205;" horiz-adv-x="804" 
d="M660 604q104 -107 104 -254q0 -150 -106 -256t-256 -106q-95 0 -177 46l-41 -54h-129l89 116q-104 107 -104 254q0 150 106 256t256 106q95 0 177 -46l41 54h129zM154 350q0 -93 59 -163l297 389q-53 24 -108 24q-103 0 -175.5 -73t-72.5 -177zM402 100q103 0 175.5 73
t72.5 177q0 93 -59 163l-297 -389q53 -24 108 -24z" />
    <glyph glyph-name="product" unicode="&#x220f;" horiz-adv-x="631" 
d="M55 -200v900h520v-900h-166v741h-187v-741h-167z" />
    <glyph glyph-name="summation" unicode="&#x2211;" horiz-adv-x="561" 
d="M25 -200v139l196 321l-181 300v140h470v-163h-266l166 -277l-180 -297h295v-163h-500z" />
    <glyph glyph-name="minus" unicode="&#x2212;" horiz-adv-x="560" 
d="M41 271v158h478v-158h-478z" />
    <glyph glyph-name="radical" unicode="&#x221a;" horiz-adv-x="693" 
d="M253 0l-113 179h-109v158h204l84 -146l204 609h170l-280 -800h-160z" />
    <glyph glyph-name="infinity" unicode="&#x221e;" horiz-adv-x="819" 
d="M584 542q84 0 139.5 -53.5t55.5 -138.5t-55.5 -138.5t-139.5 -53.5q-90 0 -174 86q-84 -86 -174 -86q-85 0 -140 53.5t-55 138.5t55 138.5t140 53.5q90 0 174 -86q84 86 174 86zM252 310q35 0 69 40q-34 40 -69 40q-18 0 -30.5 -11t-12.5 -29t12.5 -29t30.5 -11zM568 310
q18 0 30 11t12 29t-12 29t-30 11q-35 0 -69 -40q34 -40 69 -40z" />
    <glyph glyph-name="integral" unicode="&#x222b;" horiz-adv-x="461" 
d="M0 -204v164q29 -16 61 -2t39 54l89 521q19 112 93.5 152.5t178.5 16.5v-164q-29 16 -61.5 2t-38.5 -54l-89 -521q-19 -112 -93.5 -152.5t-178.5 -16.5z" />
    <glyph glyph-name="approxequal" unicode="&#x2248;" horiz-adv-x="568" 
d="M290 371q-46 20 -79 24.5t-51.5 -1.5t-44.5 -21l-80 38q25 109 90 143.5t153 -5.5q64 -30 91 -27.5t39 45.5l125 -58q-21 -105 -88 -141.5t-155 3.5zM160 131l-125 58q21 106 88 142t155 -4q46 -20 79 -24t52.5 1.5t44.5 21.5l79 -39q-25 -109 -90 -143.5t-153 5.5
q-64 30 -91 27.5t-39 -45.5z" />
    <glyph glyph-name="notequal" unicode="&#x2260;" horiz-adv-x="511" 
d="M475 380h-164l-26 -60h190v-159h-261l-49 -111h-85l49 111h-94v159h164l27 60h-191v159h261l49 111h86l-49 -111h93v-159z" />
    <glyph glyph-name="lessequal" unicode="&#x2264;" horiz-adv-x="521" 
d="M486 684v-173l-280 -69l280 -69v-173l-450 158v168zM36 21v159h450v-159h-450z" />
    <glyph glyph-name="greaterequal" unicode="&#x2265;" horiz-adv-x="521" 
d="M35 684l450 -158v-168l-450 -158v173l280 69l-280 69v173zM35 21v159h450v-159h-450z" />
    <glyph glyph-name="lozenge" unicode="&#x25ca;" horiz-adv-x="588" 
d="M221 0l-186 350l186 350h146l186 -350l-186 -350h-146zM294 207l76 143l-76 143l-76 -143z" />
    <glyph glyph-name="i.loclTRK" horiz-adv-x="262" 
d="M130 543q-37 0 -63.5 26.5t-26.5 62.5q0 37 26.5 63.5t63.5 26.5q36 0 62.5 -26.5t26.5 -63.5q0 -36 -26.5 -62.5t-62.5 -26.5zM48 0v500h166v-500h-166z" />
    <glyph glyph-name="f_f_j" horiz-adv-x="855" 
d="M807 500v-500q0 -118 -58.5 -170t-181.5 -45v154q38 -2 55.5 12.5t17.5 48.5v341h-113v-341h-167v341h-116v-341h-166v341h-63v159h63q0 108 63.5 165t188.5 50v-154q-86 6 -86 -61h116v10q0 215 252 215q66 0 130 -15v-145q-64 9 -123 9q-46 0 -69 -14t-23 -50v-10h280z
" />
    <glyph glyph-name="f_j" horiz-adv-x="572" 
d="M524 500v-500q0 -118 -58 -170t-181 -45v154q38 -2 55.5 12.5t17.5 48.5v341h-114v-341h-166v341h-63v159h63q0 215 252 215q66 0 130 -15v-145q-65 9 -123 9q-46 0 -69.5 -14t-23.5 -50h280z" />
    <glyph glyph-name="uni0414.loclBGR" horiz-adv-x="740" 
d="M648 173h82v-307h-179v134h-362v-134h-179v307h82l171 527h214zM277 173h186l-93 327z" />
    <glyph glyph-name="uni041B.loclBGR" horiz-adv-x="665" 
d="M226 700h213l226 -700h-196l-137 482l-136 -482h-196z" />
    <glyph glyph-name="uni0424.loclBGR" horiz-adv-x="869" 
d="M841 350q0 -144 -87 -238.5t-235 -117.5v-94h-169v94q-148 22 -235 117t-87 239t87 239t235 117v94h169v-94q148 -23 235 -117.5t87 -238.5zM206 350q0 -156 144 -189v378q-144 -33 -144 -189zM519 162q143 32 143 188t-143 188v-376z" />
    <glyph glyph-name="uni0414.ss01" horiz-adv-x="712" 
d="M619 173h75v-173h-684v173h74q48 77 48 222v305h487v-527zM270 173h171v361h-131v-141q0 -140 -40 -220z" />
    <glyph glyph-name="uni0426.ss01" horiz-adv-x="702" 
d="M604 173h80v-173h-629v700h184v-527h182v527h183v-527z" />
    <glyph glyph-name="uni0429.ss01" horiz-adv-x="992" 
d="M894 173h80v-173h-919v700h179v-527h151v527h179v-527h151v527h179v-527z" />
    <glyph glyph-name="uni0414.loclBGR.ss01" horiz-adv-x="740" 
d="M648 173h82v-173h-720v173h82l171 527h214zM277 173h186l-93 327z" />
    <glyph glyph-name="uni0432.loclBGR" horiz-adv-x="562" 
d="M432 409q105 -51 105 -191q0 -109 -65.5 -170.5t-181.5 -61.5q-109 0 -175.5 66t-66.5 176v239q0 112 64 179.5t171 67.5q93 0 148.5 -49t55.5 -132q0 -66 -55 -124zM278 560q-29 0 -46.5 -23t-17.5 -63v-55l20 4q32 6 47 7q44 37 44 78q0 52 -47 52zM293 144
q37 0 57.5 19.5t20.5 54.5q0 43 -33 59.5t-90 4.5l-34 -7v-47q0 -38 21.5 -61t57.5 -23z" />
    <glyph glyph-name="uni0433.loclBGR" horiz-adv-x="473" 
d="M321 178l139 -73q-55 -119 -223 -119q-88 0 -150 41t-62 127q0 45 18 77t45 47.5t58.5 26t58.5 15.5t45 13.5t18 20.5q0 24 -37 24q-41 0 -62 -43l-139 63q58 116 207 116q82 0 140.5 -44t58.5 -124q0 -50 -24.5 -83.5t-59.5 -47.5t-70 -22.5t-59.5 -17.5t-24.5 -24
q0 -28 44 -28q58 0 79 55z" />
    <glyph glyph-name="uni0434.loclBGR" horiz-adv-x="618" 
d="M406 500h164v-480q0 -60 -22.5 -106.5t-60.5 -74t-83.5 -41t-96.5 -13.5q-83 0 -148 31t-98 91l138 80q36 -57 106 -57q45 0 73 23t28 67v48q-51 -62 -140 -62q-103 0 -170.5 74t-67.5 180t67.5 180t170.5 74q89 0 140 -62v48zM300 156q47 0 76.5 29.5t29.5 74.5
t-29.5 74.5t-76.5 29.5t-76.5 -29.5t-29.5 -74.5t29.5 -74.5t76.5 -29.5z" />
    <glyph glyph-name="uni0436.loclBGR" horiz-adv-x="779" 
d="M774 0h-183l-119 205v-205h-165v205l-119 -205h-183l156 250l-146 250h183l109 -201v401h165v-401l109 201h183l-146 -250z" />
    <glyph glyph-name="uni0438.loclBGR" horiz-adv-x="579" 
d="M365 500h166v-500h-166v50q-45 -64 -139 -64q-81 0 -132.5 55.5t-51.5 159.5v299h166v-278q0 -39 20.5 -59t54.5 -20q39 0 60.5 23.5t21.5 67.5v266z" />
    <glyph glyph-name="uni0439.loclBGR" horiz-adv-x="579" 
d="M448 694v-140h-323v140h323zM365 500h166v-500h-166v50q-45 -64 -139 -64q-81 0 -132.5 55.5t-51.5 159.5v299h166v-278q0 -39 20.5 -59t54.5 -20q39 0 60.5 23.5t21.5 67.5v266z" />
    <glyph glyph-name="uni043A.loclBGR" horiz-adv-x="542" 
d="M542 0h-186l-142 213v-213h-166v700h166v-409l129 209h192l-168 -250z" />
    <glyph glyph-name="uni043B.loclBGR" horiz-adv-x="554" 
d="M554 0h-184l-93 287l-93 -287h-184l187 500h180z" />
    <glyph glyph-name="uni043F.loclBGR" horiz-adv-x="579" 
d="M353 514q81 0 132.5 -55.5t51.5 -159.5v-299h-166v278q0 39 -20.5 59t-54.5 20q-39 0 -60.5 -23.5t-21.5 -67.5v-266h-166v500h166v-50q45 64 139 64z" />
    <glyph glyph-name="uni0442.loclBGR" horiz-adv-x="852" 
d="M622 514q87 0 137.5 -55.5t50.5 -152.5v-306h-167v287q0 70 -62 70q-34 0 -51.5 -22.5t-17.5 -61.5v-273h-166v287q0 70 -63 70q-34 0 -51.5 -22.5t-17.5 -61.5v-273h-166v500h166v-47q46 61 135 61q86 0 128 -64q52 64 145 64z" />
    <glyph glyph-name="uni0446.loclBGR" horiz-adv-x="622" 
d="M561 152h45v-286h-157v148q-36 15 -58 47q-51 -75 -165 -75q-80 0 -132 55.5t-52 159.5v299h166v-278q0 -39 20.5 -59t55.5 -20q38 0 59.5 23.5t21.5 67.5v266h166v-318q0 -30 30 -30z" />
    <glyph glyph-name="uni0448.loclBGR" horiz-adv-x="852" 
d="M638 500h166v-500h-166v47q-46 -61 -135 -61q-86 0 -128 64q-52 -64 -145 -64q-87 0 -137.5 55.5t-50.5 152.5v306h167v-287q0 -70 62 -70q34 0 51.5 22.5t17.5 61.5v273h166v-287q0 -70 63 -70q34 0 51.5 22.5t17.5 61.5v273z" />
    <glyph glyph-name="uni0449.loclBGR" horiz-adv-x="894" 
d="M834 152h45v-286h-158v148q-33 13 -55 43q-52 -71 -154 -71q-93 0 -136 66q-52 -66 -146 -66q-87 0 -137.5 55.5t-50.5 152.5v306h166v-287q0 -33 16 -51.5t46 -18.5q34 0 52 22.5t18 61.5v273h166v-287q0 -70 62 -70q34 0 51.5 22.5t17.5 61.5v273h167v-318
q0 -30 30 -30z" />
    <glyph glyph-name="uni044C.loclBGR" horiz-adv-x="497" 
d="M272 373q102 0 155.5 -51.5t53.5 -140.5q0 -86 -59.5 -141t-159.5 -55q-105 0 -162.5 55t-57.5 151v309h162v-127h68zM262 137q26 0 41.5 14t15.5 34q0 48 -52 48h-63v-40q0 -26 15.5 -41t42.5 -15z" />
    <glyph glyph-name="uni044A.loclBGR" horiz-adv-x="578" 
d="M353 373q103 0 156.5 -51.5t53.5 -140.5q0 -86 -60 -141t-160 -55q-105 0 -162.5 55t-57.5 151v155h-123v154h285v-127h68zM343 137q26 0 42 14t16 34q0 48 -53 48h-63v-40q0 -26 15.5 -41t42.5 -15z" />
    <glyph glyph-name="uni044E.loclBGR" horiz-adv-x="807" 
d="M516 514q111 0 189 -76.5t78 -187.5t-78 -187.5t-189 -76.5q-90 0 -157.5 51.5t-91.5 134.5h-53v-172h-166v700h166v-372h53q24 83 91.5 134.5t157.5 51.5zM516 146q43 0 71.5 29t28.5 75t-28.5 75t-71.5 29q-44 0 -72.5 -29t-28.5 -75t28.5 -75t72.5 -29z" />
    <glyph glyph-name="zero.sinf" horiz-adv-x="409" 
d="M204 -174q-84 0 -135 57.5t-51 156.5t51 156.5t135 57.5t135.5 -57.5t51.5 -156.5t-51.5 -156.5t-135.5 -57.5zM204 -43q51 0 51 83t-51 83t-51 -83t51 -83z" />
    <glyph glyph-name="one.sinf" horiz-adv-x="278" 
d="M127 240h113v-400h-131v266l-79 -21l-30 109z" />
    <glyph glyph-name="two.sinf" horiz-adv-x="351" 
d="M22 -160v89l143 139q29 29 29 48q0 22 -26 22q-27 0 -46 -44l-107 60q47 100 158 100q63 0 107 -36t44 -93q0 -63 -70 -128l-42 -40h116v-117h-306z" />
    <glyph glyph-name="three.sinf" horiz-adv-x="341" 
d="M244 77q82 -30 82 -112q0 -67 -43.5 -103t-117.5 -36q-120 0 -162 94l108 62q15 -43 54 -43q32 0 32 26q0 25 -32 25h-28l-46 68l56 66h-124v116h286v-87z" />
    <glyph glyph-name="four.sinf" horiz-adv-x="362" 
d="M349 11v-115h-35v-56h-122v56h-184v115l116 229h138l-111 -229h41v63h122v-63h35z" />
    <glyph glyph-name="five.sinf" horiz-adv-x="335" 
d="M172 91q68 0 107.5 -32.5t39.5 -98.5q0 -67 -42 -100.5t-110 -33.5q-120 0 -162 94l107 56q15 -41 52 -41q35 0 35 27t-34 27h-133l17 251h252v-116h-142l-3 -33h16z" />
    <glyph glyph-name="six.sinf" horiz-adv-x="343" 
d="M207 113q57 -10 90 -48t33 -94q0 -65 -43 -105t-116 -40q-72 0 -115 40.5t-43 104.5q0 43 20 77l117 192h134zM171 -66q38 0 38 37q0 36 -38 36q-37 0 -37 -36q0 -37 37 -37z" />
    <glyph glyph-name="seven.sinf" horiz-adv-x="302" 
d="M0 240h289v-99l-113 -301h-135l107 284h-148v116z" />
    <glyph glyph-name="eight.sinf" horiz-adv-x="349" 
d="M277 49q57 -34 57 -99q0 -57 -42 -90.5t-117 -33.5t-117.5 33.5t-42.5 90.5q0 65 58 99q-44 33 -44 83q0 56 41.5 89t104.5 33t104 -33t41 -89q0 -51 -43 -83zM175 148q-34 0 -34 -28q0 -27 34 -27q33 0 33 27q0 28 -33 28zM175 -67q18 0 28 9.5t10 24.5t-10 24t-28 9
q-38 0 -38 -33q0 -34 38 -34z" />
    <glyph glyph-name="nine.sinf" horiz-adv-x="343" 
d="M330 109q0 -43 -20 -77l-117 -192h-134l77 127q-57 9 -90 47.5t-33 94.5q0 64 43 104.5t115 40.5q73 0 116 -40t43 -105zM171 146q-37 0 -37 -37q0 -36 37 -36q38 0 38 36q0 37 -38 37z" />
    <glyph glyph-name="zero.tf" 
d="M295 -15q-137 0 -213.5 99.5t-76.5 265.5t76.5 265.5t213.5 99.5q136 0 212.5 -99.5t76.5 -265.5t-76.5 -265.5t-212.5 -99.5zM295 159q111 0 111 191t-111 191t-111 -191t111 -191z" />
    <glyph glyph-name="one.tf" 
d="M397 173h177v-173h-549v173h194v339l-123 -31l-42 151l189 68h154v-527z" />
    <glyph glyph-name="two.tf" 
d="M31 0v130l262 236q71 64 71 109q0 27 -19.5 46.5t-56.5 19.5q-70 0 -110 -85l-153 89q36 84 106 127t158 43q108 0 181 -63.5t73 -167.5q0 -62 -29.5 -112.5t-90.5 -106.5l-102 -92h234v-173h-524z" />
    <glyph glyph-name="three.tf" 
d="M408 421q72 -21 114 -71.5t42 -126.5q0 -115 -74 -176.5t-193 -61.5q-101 0 -174.5 44t-104.5 132l155 89q30 -91 119 -91q94 0 94 68t-96 68h-34l-72 105l115 129h-255v171h485v-141z" />
    <glyph glyph-name="four.tf" 
d="M574 270v-163h-70v-107h-178v107h-321v163l218 430h198l-219 -430h124v131h178v-131h70z" />
    <glyph glyph-name="five.tf" 
d="M305 454q119 0 190.5 -58.5t71.5 -173.5q0 -113 -76 -175t-194 -62q-99 0 -171.5 42.5t-105.5 127.5l156 87q28 -83 119 -83q93 0 93 65q0 64 -93 64h-236l29 412h439v-171h-275l-6 -75h59z" />
    <glyph glyph-name="six.tf" 
d="M334 487q112 -11 176 -79t64 -171q0 -112 -75.5 -182t-203.5 -70q-129 0 -204.5 69.5t-75.5 182.5q0 91 50 155l215 308h203zM295 149q47 0 74 23t27 65t-27.5 65.5t-73.5 23.5q-47 0 -74 -23.5t-27 -65.5t27 -65t74 -23z" />
    <glyph glyph-name="seven.tf" 
d="M20 700h539v-148l-248 -552h-194l236 527h-333v173z" />
    <glyph glyph-name="eight.tf" 
d="M475 365q99 -59 99 -168q0 -97 -73 -154t-206 -57t-206.5 57t-73.5 154q0 110 99 168q-75 52 -75 141q0 98 72 153t184 55q111 0 183 -55.5t72 -152.5q0 -89 -75 -141zM295 552q-41 0 -63.5 -16t-22.5 -44t22.5 -44t63.5 -16q40 0 63 16t23 44q0 27 -23 43.5t-63 16.5z
M295 150q100 0 100 72q0 34 -25.5 53.5t-74.5 19.5t-75 -19.5t-26 -53.5q0 -72 101 -72z" />
    <glyph glyph-name="nine.tf" 
d="M574 463q0 -83 -42 -145l-223 -318h-203l149 213q-112 11 -176 79t-64 171q0 113 75.5 182.5t204.5 69.5t204 -69.5t75 -182.5zM194 463q0 -42 27.5 -65.5t73.5 -23.5t73.5 23.5t27.5 65.5t-27 65t-74 23t-74 -23t-27 -65z" />
    <glyph glyph-name="zero.dnom" horiz-adv-x="409" 
d="M204 -14q-84 0 -135 57.5t-51 156.5t51 156.5t135 57.5t135.5 -57.5t51.5 -156.5t-51.5 -156.5t-135.5 -57.5zM204 117q51 0 51 83t-51 83t-51 -83t51 -83z" />
    <glyph glyph-name="one.dnom" horiz-adv-x="276" 
d="M127 400h113v-400h-131v266l-79 -21l-30 109z" />
    <glyph glyph-name="two.dnom" horiz-adv-x="356" 
d="M22 0v89l143 139q29 29 29 48q0 22 -26 22q-27 0 -46 -44l-107 60q47 100 158 100q63 0 107 -36t44 -93q0 -63 -70 -128l-42 -40h116v-117h-306z" />
    <glyph glyph-name="three.dnom" horiz-adv-x="335" 
d="M244 237q82 -30 82 -112q0 -67 -43.5 -103t-117.5 -36q-120 0 -162 94l108 62q15 -43 54 -43q32 0 32 26q0 25 -32 25h-28l-46 68l56 66h-124v116h286v-87z" />
    <glyph glyph-name="four.dnom" horiz-adv-x="362" 
d="M349 171v-115h-35v-56h-122v56h-184v115l116 229h138l-111 -229h41v63h122v-63h35z" />
    <glyph glyph-name="five.dnom" horiz-adv-x="331" 
d="M172 251q68 0 107.5 -32.5t39.5 -98.5q0 -67 -42 -100.5t-110 -33.5q-120 0 -162 94l107 56q15 -41 52 -41q35 0 35 27t-34 27h-133l17 251h252v-116h-142l-3 -33h16z" />
    <glyph glyph-name="six.dnom" horiz-adv-x="343" 
d="M207 273q57 -10 90 -48t33 -94q0 -65 -43 -105t-116 -40q-72 0 -115 40.5t-43 104.5q0 43 20 77l117 192h134zM171 94q38 0 38 37q0 36 -38 36q-37 0 -37 -36q0 -37 37 -37z" />
    <glyph glyph-name="seven.dnom" horiz-adv-x="302" 
d="M0 400h289v-99l-113 -301h-135l107 284h-148v116z" />
    <glyph glyph-name="eight.dnom" horiz-adv-x="349" 
d="M277 209q57 -34 57 -99q0 -57 -42 -90.5t-117 -33.5t-117.5 33.5t-42.5 90.5q0 65 58 99q-44 33 -44 83q0 56 41.5 89t104.5 33t104 -33t41 -89q0 -51 -43 -83zM175 308q-34 0 -34 -28q0 -27 34 -27q33 0 33 27q0 28 -33 28zM175 93q18 0 28 9.5t10 24.5t-10 24t-28 9
q-38 0 -38 -33q0 -34 38 -34z" />
    <glyph glyph-name="nine.dnom" horiz-adv-x="343" 
d="M328 269q0 -43 -20 -77l-117 -192h-134l77 127q-57 9 -90 47.5t-33 94.5q0 64 43 104.5t115 40.5q73 0 116 -40t43 -105zM169 306q-37 0 -37 -37q0 -36 37 -36q38 0 38 36q0 37 -38 37z" />
    <glyph glyph-name="zero.numr" horiz-adv-x="409" 
d="M204 286q-84 0 -135 57.5t-51 156.5t51 156.5t135 57.5t135.5 -57.5t51.5 -156.5t-51.5 -156.5t-135.5 -57.5zM204 417q51 0 51 83t-51 83t-51 -83t51 -83z" />
    <glyph glyph-name="one.numr" horiz-adv-x="276" 
d="M127 700h113v-400h-131v266l-79 -21l-30 109z" />
    <glyph glyph-name="two.numr" horiz-adv-x="356" 
d="M22 300v89l143 139q29 29 29 48q0 22 -26 22q-27 0 -46 -44l-107 60q47 100 158 100q63 0 107 -36t44 -93q0 -63 -70 -128l-42 -40h116v-117h-306z" />
    <glyph glyph-name="three.numr" horiz-adv-x="335" 
d="M244 537q82 -30 82 -112q0 -67 -43.5 -103t-117.5 -36q-120 0 -162 94l108 62q15 -43 54 -43q32 0 32 26q0 25 -32 25h-28l-46 68l56 66h-124v116h286v-87z" />
    <glyph glyph-name="four.numr" horiz-adv-x="362" 
d="M349 471v-115h-35v-56h-122v56h-184v115l116 229h138l-111 -229h41v63h122v-63h35z" />
    <glyph glyph-name="five.numr" horiz-adv-x="331" 
d="M172 551q68 0 107.5 -32.5t39.5 -98.5q0 -67 -42 -100.5t-110 -33.5q-120 0 -162 94l107 56q15 -41 52 -41q35 0 35 27t-34 27h-133l17 251h252v-116h-142l-3 -33h16z" />
    <glyph glyph-name="six.numr" horiz-adv-x="343" 
d="M207 573q57 -10 90 -48t33 -94q0 -65 -43 -105t-116 -40q-72 0 -115 40.5t-43 104.5q0 43 20 77l117 192h134zM171 394q38 0 38 37q0 36 -38 36q-37 0 -37 -36q0 -37 37 -37z" />
    <glyph glyph-name="seven.numr" horiz-adv-x="302" 
d="M0 700h289v-99l-113 -301h-135l107 284h-148v116z" />
    <glyph glyph-name="eight.numr" horiz-adv-x="349" 
d="M277 509q57 -34 57 -99q0 -57 -42 -90.5t-117 -33.5t-117.5 33.5t-42.5 90.5q0 65 58 99q-44 33 -44 83q0 56 41.5 89t104.5 33t104 -33t41 -89q0 -51 -43 -83zM175 608q-34 0 -34 -28q0 -27 34 -27q33 0 33 27q0 28 -33 28zM175 393q18 0 28 9.5t10 24.5t-10 24t-28 9
q-38 0 -38 -33q0 -34 38 -34z" />
    <glyph glyph-name="nine.numr" horiz-adv-x="343" 
d="M328 569q0 -43 -20 -77l-117 -192h-134l77 127q-57 9 -90 47.5t-33 94.5q0 64 43 104.5t115 40.5q73 0 116 -40t43 -105zM169 606q-37 0 -37 -37q0 -36 37 -36q38 0 38 36q0 37 -38 37z" />
    <glyph glyph-name="zero.sups" horiz-adv-x="409" 
d="M204 446q-84 0 -135 57.5t-51 156.5t51 156.5t135 57.5t135.5 -57.5t51.5 -156.5t-51.5 -156.5t-135.5 -57.5zM204 577q51 0 51 83t-51 83t-51 -83t51 -83z" />
    <glyph glyph-name="one.sups" horiz-adv-x="276" 
d="M127 860h113v-400h-131v266l-79 -21l-30 109z" />
    <glyph glyph-name="two.sups" horiz-adv-x="356" 
d="M22 460v89l143 139q29 29 29 48q0 22 -26 22q-27 0 -46 -44l-107 60q47 100 158 100q63 0 107 -36t44 -93q0 -63 -70 -128l-42 -40h116v-117h-306z" />
    <glyph glyph-name="three.sups" horiz-adv-x="335" 
d="M244 697q82 -30 82 -112q0 -67 -43.5 -103t-117.5 -36q-120 0 -162 94l108 62q15 -43 54 -43q32 0 32 26q0 25 -32 25h-28l-46 68l56 66h-124v116h286v-87z" />
    <glyph glyph-name="four.sups" horiz-adv-x="362" 
d="M349 631v-115h-35v-56h-122v56h-184v115l116 229h138l-111 -229h41v63h122v-63h35z" />
    <glyph glyph-name="five.sups" horiz-adv-x="331" 
d="M172 711q68 0 107.5 -32.5t39.5 -98.5q0 -67 -42 -100.5t-110 -33.5q-120 0 -162 94l107 56q15 -41 52 -41q35 0 35 27t-34 27h-133l17 251h252v-116h-142l-3 -33h16z" />
    <glyph glyph-name="six.sups" horiz-adv-x="343" 
d="M207 733q57 -10 90 -48t33 -94q0 -65 -43 -105t-116 -40q-72 0 -115 40.5t-43 104.5q0 43 20 77l117 192h134zM171 554q38 0 38 37q0 36 -38 36q-37 0 -37 -36q0 -37 37 -37z" />
    <glyph glyph-name="seven.sups" horiz-adv-x="302" 
d="M0 860h289v-99l-113 -301h-135l107 284h-148v116z" />
    <glyph glyph-name="eight.sups" horiz-adv-x="349" 
d="M277 669q57 -34 57 -99q0 -57 -42 -90.5t-117 -33.5t-117.5 33.5t-42.5 90.5q0 65 58 99q-44 33 -44 83q0 56 41.5 89t104.5 33t104 -33t41 -89q0 -51 -43 -83zM175 768q-34 0 -34 -28q0 -27 34 -27q33 0 33 27q0 28 -33 28zM175 553q18 0 28 9.5t10 24.5t-10 24t-28 9
q-38 0 -38 -33q0 -34 38 -34z" />
    <glyph glyph-name="nine.sups" horiz-adv-x="343" 
d="M328 729q0 -43 -20 -77l-117 -192h-134l77 127q-57 9 -90 47.5t-33 94.5q0 64 43 104.5t115 40.5q73 0 116 -40t43 -105zM169 766q-37 0 -37 -37q0 -36 37 -36q38 0 38 36q0 37 -38 37z" />
    <glyph glyph-name="cent.tf" 
d="M323 248q62 0 87 50l142 -82q-33 -60 -93.5 -95t-134.5 -35q-26 0 -56 5l-29 -91h-63l35 109q-70 31 -111.5 95.5t-41.5 145.5q0 112 76 188t190 76q28 0 49 -4l29 90h63l-35 -107q80 -33 122 -108l-142 -82q-9 18 -30 33l-61 -188h4zM225 350q0 -54 38 -82l59 184
q-42 -1 -69.5 -29t-27.5 -73z" />
    <glyph glyph-name="dollar.tf" 
d="M569 203q0 -94 -61.5 -150.5t-166.5 -65.5v-87h-70v86q-97 6 -161.5 51.5t-91.5 119.5l155 87q30 -75 98 -89v119q-1 1 -2 1q-53 18 -89 35t-70 43t-50.5 63t-16.5 85q0 95 63.5 151t164.5 62v86h70v-88q153 -19 214 -155l-152 -85q-18 53 -62 69v-118q40 -14 60.5 -22.5
t52 -23.5t48 -29.5t34.5 -36t25.5 -48.5t7.5 -60zM220 502q0 -29 51 -52v97q-51 -7 -51 -45zM341 153q52 7 52 43q0 17 -12 28t-40 23v-94z" />
    <glyph glyph-name="Euro.tf" 
d="M430 227l149 -86q-30 -71 -89.5 -113.5t-139.5 -42.5q-108 0 -178 71t-91 194h-68v84h60v16v19h-60v84h68q21 122 90.5 192t175.5 70q79 0 137 -41.5t90 -112.5l-150 -86q-25 66 -77 66q-64 0 -85 -88h135v-84h-145v-19v-16h145v-84h-135q21 -91 88 -91q52 0 80 68z" />
    <glyph glyph-name="florin.tf" 
d="M574 542q-47 15 -82.5 1.5t-45.5 -53.5l-15 -59h108v-159h-149l-79 -303q-29 -111 -110.5 -152t-185.5 -17v164q103 -29 124 52l68 256h-106v159h149l28 106q29 110 111 151.5t185 17.5v-164z" />
    <glyph glyph-name="uni20BD.tf" 
d="M324 231h-72v-40h184v-99h-184v-92h-179v92h-63v99h63v40h-63v159h63v310h251q106 0 178 -66t72 -169q0 -109 -70.5 -171.5t-179.5 -62.5zM252 530v-140h72q31 0 51 19t20 51t-20 51t-51 19h-72z" />
    <glyph glyph-name="sterling.tf" 
d="M266 173h313v-173h-554v173h62v99h-52v140h52v74q0 110 69.5 169.5t164.5 59.5q172 0 242 -156l-155 -86q-12 37 -29.5 54t-47.5 17q-31 0 -48 -18.5t-17 -49.5v-64h203v-140h-203v-99z" />
    <glyph glyph-name="yen.tf" 
d="M589 700l-172 -328h120v-94h-153v-41h153v-93h-153v-144h-179v144h-152v93h152v41h-152v94h120l-173 328h201l94 -211l94 211h200z" />
    <glyph glyph-name="brevecy" horiz-adv-x="403" 
d="M40 554v140h323v-140h-323z" />
    </font>
</defs>
</svg>
